# Blender v2.76 (sub 0) OBJ File: 'window_2x1_with_sliders.blend'
# www.blender.org
#
# Created by Scopia
# Added sliding support by Emmanuel Puybaret / eTeks
#
mtllib window_2x1_with_sliders.mtl
o cage_Cube
v -0.990749 -104.5 -11.544413
v -0.990749 -109.0 -11.544414
v -89.499992 -109.0 -11.544414
v -89.499992 -104.5 -11.544413
v 89.500008 -104.5 -11.544413
v 94.000008 -104.5 -11.544413
v 94.000008 -109.0 -11.544414
v 89.500008 -109.0 -11.544414
v 89.500008 -109.0 12.494048
v 94.000008 -109.0 12.494048
v 94.000008 109.0 12.494084
v 94.000008 109.0 -11.544377
v 89.500008 109.0 -11.544377
v 89.500008 109.0 12.494084
v -93.999992 -104.499992 12.494049
v -93.999992 -104.5 -11.544413
v -93.999992 -109.0 -11.544414
v -93.999992 -109.0 12.494048
v -89.499992 -109.0 12.494048
v -89.499992 109.0 12.494084
v -89.499992 109.0 -11.544377
v -93.999992 109.0 -11.544377
v -93.999992 109.0 12.494084
v 94.000008 104.5 -11.544378
v 89.500008 104.5 -11.544378
v 0.000008 109.0 12.494084
v 0.000008 109.0 -11.544377
v -89.499992 104.5 -11.544378
v -93.999992 104.5 -11.544378
v -93.999992 104.5 12.494083
v 89.500008 104.5 10.062961
v 89.500008 -104.499992 10.062926
v -0.990749 -104.5 10.062926
v -89.499992 -104.5 10.062926
v 0.000008 104.5 -11.544378
v -0.990749 -109.0 12.494048
v 94.000008 -104.5 12.494049
v 94.000008 104.5 12.494083
v 0.000008 104.5 10.062961
v -89.499992 104.5 10.062961
v 89.500008 104.5 12.555262
v 89.500008 -104.499992 12.555227
v -0.990749 -104.5 12.555227
v 0.000008 104.5 12.555262
v 89.500008 109.0 13.455623
v 94.000008 109.0 13.455623
v -89.499992 104.5 12.555262
v -89.499992 104.5 13.455622
v -89.499992 -104.5 13.455587
v -89.499992 -104.5 12.555227
v -93.999992 109.0 13.455623
v -89.499992 109.0 13.455623
v -89.499992 -109.0 13.455586
v -93.999992 -109.0 13.455586
v 0.000008 104.5 13.455622
v 0.000008 109.0 13.455623
v 89.500008 104.5 13.455622
v 89.500008 -104.499992 13.455587
v 94.000008 -104.5 13.455587
v 94.000008 104.5 13.455622
v -0.990749 -104.5 13.455587
v -0.990749 -109.0 13.455586
v 89.500008 -109.0 13.455586
v 94.000008 -109.0 13.455586
v -93.999992 104.5 13.455622
v -93.999992 -104.499992 13.455587
vn 0.0 1.0 0.0
vn 1.0 0.0 0.0
vn 0.0 -1.0 0.0
vn 0.0 -0.0 1.0
vn -1.0 0.0 0.0
vn 0.0 0.0 -1.0
usemtl Cage_in
s 1
f 45//1 46//1 11//1 14//1
f 47//2 48//2 49//2 50//2
f 23//1 51//1 52//1 20//1
f 18//3 19//3 53//3 54//3
f 55//4 56//4 52//4 48//4
f 57//4 58//4 59//4 60//4
f 61//4 62//4 63//4 58//4
f 58//4 63//4 64//4 59//4
f 44//3 55//3 48//3 47//3
f 11//2 46//2 60//2 38//2
f 65//5 51//5 23//5 30//5
f 10//3 64//3 63//3 9//3
f 18//5 54//5 66//5 15//5
f 38//2 60//2 59//2 37//2
f 56//1 26//1 20//1 52//1
f 51//4 65//4 48//4 52//4
f 60//4 46//4 45//4 57//4
f 65//5 30//5 15//5 66//5
f 37//2 59//2 64//2 10//2
f 48//4 65//4 66//4 49//4
f 36//3 62//3 53//3 19//3
f 66//4 54//4 53//4 49//4
f 43//1 33//1 34//1 50//1
f 57//5 41//5 42//5 58//5
f 61//1 43//1 50//1 49//1
f 39//3 44//3 47//3 40//3
f 40//2 47//2 50//2 34//2
f 58//1 42//1 43//1 61//1
f 9//3 63//3 62//3 36//3
f 49//4 53//4 62//4 61//4
f 45//1 14//1 26//1 56//1
f 41//3 57//3 55//3 44//3
f 57//4 45//4 56//4 55//4
usemtl Cage_out
f 1//6 2//6 3//6 4//6
f 5//6 6//6 7//6 8//6
f 9//3 8//3 7//3 10//3
f 11//1 12//1 13//1 14//1
f 15//5 16//5 17//5 18//5
f 16//6 4//6 3//6 17//6
f 18//3 17//3 3//3 19//3
f 20//1 21//1 22//1 23//1
f 13//6 12//6 24//6 25//6
f 26//1 27//1 21//1 20//1
f 22//6 21//6 28//6 29//6
f 23//5 22//5 29//5 30//5
f 29//6 28//6 4//6 16//6
f 31//5 25//5 5//5 32//5
f 30//5 29//5 16//5 15//5
f 25//6 24//6 6//6 5//6
f 27//6 35//6 28//6 21//6
f 2//3 36//3 19//3 3//3
f 6//2 37//2 10//2 7//2
f 12//2 11//2 38//2 24//2
f 24//2 38//2 37//2 6//2
f 35//3 39//3 40//3 28//3
f 41//5 31//5 32//5 42//5
f 28//2 40//2 34//2 4//2
f 42//1 32//1 33//1 43//1
f 8//3 9//3 36//3 2//3
f 5//6 8//6 2//6 1//6
f 31//3 41//3 44//3 39//3
f 25//3 31//3 39//3 35//3
f 13//6 25//6 35//6 27//6
f 14//1 13//1 27//1 26//1
o sweethome3d_opening_on_rail_1_glass
v 2.173702 -99.897133 11.861967
v 2.173702 99.897141 11.861985
v 2.173702 99.897133 11.661985
v 2.173702 -99.897141 11.661966
v 85.042847 99.897141 11.861985
v 85.042847 99.897133 11.661985
v 85.042847 -99.897133 11.861967
v 85.042847 -99.897141 11.661966
vn -1.0 -0.0 0.0
vn 0.0 1.0 0.0
vn 1.0 0.0 0.0
vn 0.0 -1.0 0.0
vn 0.0 0.0 -1.0
vn 0.0 -0.0 1.0
usemtl Glass
s 1
f 67//7 68//7 69//7 70//7
f 68//8 71//8 72//8 69//8
f 71//9 73//9 74//9 72//9
f 73//10 67//10 70//10 74//10
f 70//11 69//11 72//11 74//11
f 73//12 71//12 68//12 67//12
o sweethome3d_opening_on_rail_1_handle
v 86.058983 4.494536 13.222415
v 86.058983 8.499998 13.222415
v 86.058983 8.499997 13.006414
v 86.058983 4.494534 13.006415
v 88.065277 8.499998 13.222415
v 88.374626 8.499998 13.222415
v 88.374626 8.499997 13.006414
v 88.065277 8.499997 13.006414
v 88.374626 -4.494539 13.222413
v 88.374626 -8.500001 13.222414
v 88.374626 -8.500002 13.006413
v 88.374626 -4.49454 13.006413
v 86.368332 -8.500001 13.222414
v 86.058983 -8.500001 13.222414
v 86.058983 -8.500002 13.006413
v 86.368332 -8.500002 13.006413
v 88.065277 4.494534 13.006415
v 88.374626 4.494535 13.006415
v 86.368332 4.494535 13.222415
v 86.368332 8.499998 13.222415
v 86.368332 -4.494538 13.222413
v 86.058983 -4.494538 13.222413
v 88.065277 -8.500002 13.006413
v 88.065277 -4.49454 13.006413
v 88.374626 4.494535 13.222415
v 86.058983 -4.494541 13.006413
v 86.368332 4.494534 13.006415
v 86.368332 -4.49454 13.006413
v 88.065277 4.494535 13.222415
v 88.065277 -4.494538 13.222413
v 88.065277 4.494536 13.039409
v 88.065277 -4.494538 13.039407
v 88.065277 -8.500001 13.222414
v 86.368332 8.499997 13.006414
v 86.368332 -4.494538 13.039407
v 86.368332 4.494536 13.039409
vn 0.0 -0.0 1.0
vn -1.0 -0.0 0.0
vn 0.0 1.0 -0.0
vn 1.0 -0.0 0.0
vn 0.0 -1.0 0.0
vn 0.0 -0.0 -1.0
usemtl black-plastic
s 1
f 106//13 105//13 110//13 109//13
usemtl Frame_in
f 75//14 76//14 77//14 78//14
f 79//15 80//15 81//15 82//15
f 83//16 84//16 85//16 86//16
f 87//17 88//17 89//17 90//17
f 91//18 82//18 81//18 92//18
f 93//13 94//13 76//13 75//13
f 87//13 95//13 96//13 88//13
f 95//13 93//13 75//13 96//13
f 97//18 98//18 86//18 85//18
f 98//18 91//18 92//18 86//18
f 80//16 99//16 92//16 81//16
f 99//16 83//16 86//16 92//16
f 88//14 96//14 100//14 89//14
f 96//14 75//14 78//14 100//14
f 100//18 78//18 101//18 102//18
f 102//18 101//18 91//18 98//18
f 89//18 100//18 102//18 90//18
f 90//18 102//18 98//18 97//18
f 83//13 99//13 103//13 104//13
f 104//14 103//14 105//14 106//14
f 84//13 83//13 104//13 107//13
f 107//13 104//13 95//13 87//13
f 99//13 80//13 79//13 103//13
f 103//13 79//13 94//13 93//13
f 78//18 77//18 108//18 101//18
f 101//18 108//18 82//18 91//18
f 84//17 107//17 97//17 85//17
f 107//17 87//17 90//17 97//17
f 76//15 94//15 108//15 77//15
f 94//15 79//15 82//15 108//15
f 93//16 95//16 109//16 110//16
f 95//15 104//15 106//15 109//15
f 103//17 93//17 110//17 105//17
o sweethome3d_opening_on_rail_1_frame
v -2.256729 99.823997 11.735151
v -2.256729 104.373276 11.735152
v -2.256729 104.373276 10.485157
v -2.256729 99.823997 10.485156
v 2.243271 104.373276 11.735152
v 2.243271 104.373276 10.485157
v 2.243271 99.823997 12.985147
v 2.243271 104.373276 12.985147
v -2.256729 104.373276 12.985147
v -2.256729 99.823997 12.985147
v -2.256729 -99.823997 11.735128
v -2.256729 -99.823997 12.985124
v 84.973267 99.823997 12.985147
v 84.973267 -99.823997 12.985124
v 89.473267 -99.823997 12.985124
v 89.473267 99.823997 12.985147
v 84.973267 104.373276 12.985147
v 89.473267 99.823997 11.735151
v 89.473267 99.823997 10.485156
v 89.473267 104.373276 10.485157
v 89.473267 104.373276 11.735152
v 84.973267 104.373276 10.485157
v 84.973267 104.373276 11.735152
v 89.473267 104.373276 12.985147
v 89.473267 -99.823997 11.735128
v 89.473267 -99.823997 10.485133
v 84.973267 -104.373276 11.735127
v 84.973267 -104.373276 12.985123
v 2.243271 -104.373276 12.985123
v 2.243271 -104.373276 11.735127
v -2.256729 -99.823997 10.485133
v -2.256729 -104.373276 10.485132
v -2.256729 -104.373276 11.735127
v 2.243271 -104.373276 10.485132
v 2.243271 -99.823997 12.985124
v -2.256729 -104.373276 12.985123
v 89.473267 -104.373276 11.735127
v 89.473267 -104.373276 10.485132
v 84.973267 -104.373276 10.485132
v 89.473267 -104.373276 12.985123
v 84.973267 -99.823997 11.735128
v 2.243271 -99.823997 11.735128
v 84.973267 99.823997 11.735151
v 2.243271 99.823997 11.735151
v 2.243271 99.823997 10.485156
v 2.243271 -99.823997 10.485133
v 84.973267 99.823997 10.485156
v 84.973267 -99.823997 10.485133
vn -1.0 -0.0 0.0
vn 0.0 1.0 0.0
vn 0.0 -0.0 1.0
vn 1.0 -0.0 0.0
vn 0.0 -1.0 0.0
vn 0.0 0.0 -1.0
usemtl Frame_in
s 1
f 111//19 112//19 113//19 114//19
f 112//20 115//20 116//20 113//20
f 117//21 118//21 119//21 120//21
f 111//19 121//19 122//19 120//19
f 123//21 124//21 125//21 126//21
f 127//21 118//21 117//21 123//21
f 128//22 129//22 130//22 131//22
f 131//20 130//20 132//20 133//20
f 123//21 126//21 134//21 127//21
f 128//22 135//22 136//22 129//22
f 137//23 138//23 139//23 140//23
f 121//19 141//19 142//19 143//19
f 143//23 142//23 144//23 140//23
f 145//21 122//21 146//21 139//21
f 120//21 122//21 145//21 117//21
f 138//21 124//21 145//21 139//21
f 135//22 147//22 148//22 136//22
f 147//23 137//23 149//23 148//23
f 124//21 138//21 150//21 125//21
f 133//20 115//20 118//20 127//20
f 132//20 116//20 115//20 133//20
f 150//23 138//23 137//23 147//23
f 125//22 150//22 147//22 135//22
f 146//23 143//23 140//23 139//23
f 122//19 121//19 143//19 146//19
f 149//23 137//23 140//23 144//23
f 126//22 125//22 135//22 128//22
f 134//20 131//20 133//20 127//20
f 126//22 128//22 131//22 134//22
f 114//19 141//19 121//19 111//19
f 119//20 118//20 115//20 112//20
f 120//19 119//19 112//19 111//19
f 124//20 151//20 152//20 145//20
f 124//19 123//19 153//19 151//19
f 123//23 117//23 154//23 153//23
f 145//22 152//22 154//22 117//22
usemtl Frame_out
f 114//24 113//24 116//24 155//24
f 155//24 156//24 141//24 114//24
f 152//22 156//22 155//22 154//22
f 157//24 155//24 116//24 132//24
f 153//23 154//23 155//23 157//23
f 129//24 157//24 132//24 130//24
f 129//24 136//24 158//24 157//24
f 151//19 153//19 157//19 158//19
f 141//24 156//24 144//24 142//24
f 158//24 149//24 144//24 156//24
f 151//20 158//20 156//20 152//20
f 136//24 148//24 149//24 158//24
o sweethome3d_opening_on_rail_2_frame
v -84.973282 99.823997 10.485147
v -84.973282 104.373276 10.485147
v -89.473282 104.373276 10.485147
v -89.473282 99.823997 10.485147
v -2.243237 99.823997 10.485147
v -2.243237 -99.823997 10.485124
v 2.256763 -99.823997 10.485124
v 2.256763 99.823997 10.485147
v -2.243237 104.373276 10.485147
v 2.256763 104.373276 10.485147
v -84.973282 -99.823997 10.485124
v -89.473282 -99.823997 10.485124
v -89.473282 -104.373276 10.485123
v -84.973282 -104.373276 10.485123
v -2.243237 -104.373276 10.485123
v 2.256763 -104.373276 10.485123
v -2.243237 -104.373276 9.235127
v 2.256763 -104.373276 9.235127
v -2.243237 -99.823997 9.235128
v -84.973282 -99.823997 9.235128
v -2.243237 99.823997 9.235151
v -84.973282 99.823997 9.235151
v -89.473282 99.823997 9.235151
v -89.473282 104.373276 9.235152
v -89.473282 104.373276 7.985157
v -89.473282 99.823997 7.985156
v -84.973282 104.373276 9.235152
v -84.973282 104.373276 7.985157
v -84.973282 99.823997 7.985156
v -89.473282 -99.823997 9.235128
v -84.973282 -99.823997 7.985133
v -89.473282 -99.823997 7.985133
v -2.243237 99.823997 7.985156
v -2.243237 104.373276 7.985157
v 2.256763 99.823997 9.235151
v 2.256763 99.823997 7.985156
v 2.256763 104.373276 7.985157
v 2.256763 104.373276 9.235152
v -2.243237 104.373276 9.235152
v 2.256763 -99.823997 9.235128
v 2.256763 -99.823997 7.985133
v -2.243237 -99.823997 7.985133
v -84.973282 -104.373276 9.235127
v -89.473282 -104.373276 7.985132
v -89.473282 -104.373276 9.235127
v -84.973282 -104.373276 7.985132
v -2.243237 -104.373276 7.985132
v 2.256763 -104.373276 7.985132
vn 0.0 -0.0 1.0
vn 0.0 -1.0 0.0
vn 0.0 1.0 0.0
vn -1.0 -0.0 0.0
vn 1.0 0.0 0.0
vn 0.0 0.0 -1.0
usemtl Frame_in
s 1
f 159//25 160//25 161//25 162//25
f 163//25 164//25 165//25 166//25
f 167//25 160//25 159//25 163//25
f 163//25 166//25 168//25 167//25
f 169//25 170//25 171//25 172//25
f 162//25 170//25 169//25 159//25
f 173//25 164//25 169//25 172//25
f 164//25 173//25 174//25 165//25
f 174//26 173//26 175//26 176//26
f 164//27 177//27 178//27 169//27
f 164//28 163//28 179//28 177//28
f 163//26 159//26 180//26 179//26
f 169//29 178//29 180//29 159//29
usemtl Frame_out
f 181//28 182//28 183//28 184//28
f 182//27 185//27 186//27 183//27
f 184//30 183//30 186//30 187//30
f 181//28 188//28 170//28 162//28
f 187//30 189//30 190//30 184//30
f 178//29 189//29 187//29 180//29
f 191//30 187//30 186//30 192//30
f 179//26 180//26 187//26 191//26
f 193//29 194//29 195//29 196//29
f 196//27 195//27 192//27 197//27
f 194//30 191//30 192//30 195//30
f 193//29 198//29 199//29 194//29
f 194//30 199//30 200//30 191//30
f 177//28 179//28 191//28 200//28
f 175//26 173//26 172//26 201//26
f 188//28 190//28 202//28 203//28
f 203//26 202//26 204//26 201//26
f 190//30 189//30 204//30 202//30
f 200//30 205//30 204//30 189//30
f 177//27 200//27 189//27 178//27
f 198//29 176//29 206//29 199//29
f 176//26 175//26 205//26 206//26
f 199//30 206//30 205//30 200//30
f 197//27 185//27 160//27 167//27
f 192//27 186//27 185//27 197//27
f 165//29 174//29 176//29 198//29
f 171//26 203//26 201//26 172//26
f 170//28 188//28 203//28 171//28
f 205//26 175//26 201//26 204//26
f 166//29 165//29 198//29 193//29
f 168//27 196//27 197//27 167//27
f 166//29 193//29 196//29 168//29
f 184//28 190//28 188//28 181//28
f 161//27 160//27 185//27 182//27
f 162//28 161//28 182//28 181//28
o sweethome3d_unique_rail_cage
v -0.990749 -104.5 -11.544413
v -89.499992 -104.5 -11.544413
v 89.500008 -104.5 -11.544413
v 89.500008 -104.499992 10.062926
v -0.990749 -104.5 10.062926
v -89.499992 -104.5 10.062926
vn -0.0 1.0 0.0
usemtl Cage_out
s 1
f 211//31 207//31 208//31 212//31
f 210//31 209//31 207//31 211//31
o sweethome3d_opening_on_rail_2_handle
v -88.397964 4.494537 10.722415
v -88.397964 8.499998 10.722415
v -88.397964 8.499997 10.506414
v -88.397964 4.494534 10.506415
v -86.39167 8.499998 10.722415
v -86.082321 8.499998 10.722415
v -86.082321 8.499997 10.506414
v -86.39167 8.499997 10.506414
v -86.082321 -4.494539 10.722413
v -86.082321 -8.500001 10.722414
v -86.082321 -8.500002 10.506413
v -86.082321 -4.49454 10.506413
v -88.088615 -8.500001 10.722414
v -88.397964 -8.500001 10.722414
v -88.397964 -8.500002 10.506413
v -88.088615 -8.500002 10.506413
v -86.39167 4.494534 10.506415
v -86.082321 4.494535 10.506415
v -88.088615 4.494536 10.722415
v -88.088615 8.499998 10.722415
v -88.088615 -4.494538 10.722413
v -88.397964 -4.494538 10.722413
v -86.39167 -8.500002 10.506413
v -86.39167 -4.49454 10.506413
v -86.082321 4.494536 10.722415
v -88.397964 -4.494541 10.506413
v -88.088615 4.494534 10.506415
v -88.088615 -4.49454 10.506413
v -86.39167 4.494536 10.722415
v -86.39167 -4.494538 10.722413
v -86.39167 4.494536 10.539409
v -86.39167 -4.494538 10.539407
v -86.39167 -8.500001 10.722414
v -88.088615 8.499997 10.506414
v -88.088615 -4.494538 10.539407
v -88.088615 4.494536 10.539409
vn 0.0 -0.0 1.0
vn -1.0 0.0 0.0
vn 0.0 1.0 -0.0
vn 1.0 0.0 0.0
vn 0.0 -1.0 0.0
vn 0.0 -0.0 -1.0
usemtl black-plastic
s 1
f 244//32 243//32 248//32 247//32
usemtl Frame_in
f 213//33 214//33 215//33 216//33
f 217//34 218//34 219//34 220//34
f 221//35 222//35 223//35 224//35
f 225//36 226//36 227//36 228//36
f 229//37 220//37 219//37 230//37
f 231//32 232//32 214//32 213//32
f 225//32 233//32 234//32 226//32
f 233//32 231//32 213//32 234//32
f 235//37 236//37 224//37 223//37
f 236//37 229//37 230//37 224//37
f 218//35 237//35 230//35 219//35
f 237//35 221//35 224//35 230//35
f 226//33 234//33 238//33 227//33
f 234//33 213//33 216//33 238//33
f 238//37 216//37 239//37 240//37
f 240//37 239//37 229//37 236//37
f 227//37 238//37 240//37 228//37
f 228//37 240//37 236//37 235//37
f 221//32 237//32 241//32 242//32
f 242//33 241//33 243//33 244//33
f 222//32 221//32 242//32 245//32
f 245//32 242//32 233//32 225//32
f 237//32 218//32 217//32 241//32
f 241//32 217//32 232//32 231//32
f 216//37 215//37 246//37 239//37
f 239//37 246//37 220//37 229//37
f 222//36 245//36 235//36 223//36
f 245//36 225//36 228//36 235//36
f 214//34 232//34 246//34 215//34
f 232//34 217//34 220//34 246//34
f 231//35 233//35 247//35 248//35
f 233//34 242//34 244//34 247//34
f 241//36 231//36 248//36 243//36
o sweethome3d_opening_on_rail_2_glass
v -85.042847 -99.897133 9.361967
v -85.042847 99.897141 9.361985
v -85.042847 99.897133 9.161985
v -85.042847 -99.897141 9.161966
v -2.17371 99.897141 9.361985
v -2.17371 99.897133 9.161985
v -2.17371 -99.897133 9.361967
v -2.17371 -99.897141 9.161966
vn -1.0 0.0 0.0
vn 0.0 1.0 -0.0001
vn 1.0 0.0 0.0
vn 0.0 -1.0 0.0001
vn 0.0 0.0 -1.0
vn 0.0 -0.0 1.0
usemtl Glass
s 1
f 249//38 250//38 251//38 252//38
f 250//39 253//39 254//39 251//39
f 253//40 255//40 256//40 254//40
f 255//41 249//41 252//41 256//41
f 252//42 251//42 254//42 256//42
f 255//43 253//43 250//43 249//43
