# Blender v2.79 (sub 0) OBJ File: 'billet20euros.blend'
# www.blender.org
mtllib billet-20-euros.mtl
o billet20euros_Plane
v -6.650000 0.000000 -3.600000
v -6.650000 0.000000 3.599999
v 6.650000 0.000000 -3.599999
v 6.650000 0.000000 3.600000
v -6.650000 -0.010000 -3.600000
v -6.650000 -0.010000 3.599999
v 6.650000 -0.010000 -3.599999
v 6.650000 -0.010000 3.600000
vt 0.000000 1.000000
vt 0.000000 0.500000
vt 1.000000 0.500000
vt 1.000000 1.000000
vt 1.000000 0.500000
vt 0.000000 0.500000
vt 0.000000 -0.000000
vt 1.000000 0.000000
vt 1.000000 1.000000
vt 0.000000 1.000000
vt 0.000000 0.500000
vt 1.000000 0.500000
vn 0.0000 1.0000 0.0000
vn 0.0000 -1.0000 0.0000
vn 0.0000 0.0000 -1.0000
vn -1.0000 0.0000 0.0000
vn -0.0000 0.0000 1.0000
vn 1.0000 0.0000 0.0000
usemtl texture20euros
s off
f 1/1/1 2/2/1 4/3/1 3/4/1
f 5/5/2 7/6/2 8/7/2 6/8/2
f 1/1/3 3/4/3 7/9/3 5/10/3
f 2/2/4 1/1/4 5/10/4 6/11/4
f 4/3/5 2/2/5 6/11/5 8/12/5
f 3/4/6 4/3/6 8/12/6 7/9/6
