# Blender v2.79 (sub 0) OBJ File: 'switch.blend'
# www.blender.org
mtllib switch-whites.mtl
o switch_Cube.003
v -2.578564 -2.566350 1.126140
v -2.578564 2.566350 0.624779
v 2.578564 -2.566350 1.126140
v 2.578564 2.566350 0.624779
v -1.334028 2.655417 0.616079
v 0.000000 2.655417 0.616079
v 1.334027 2.655417 0.616079
v 1.334027 -2.655417 1.134840
v -0.000000 -2.655417 1.134840
v -1.334028 -2.655417 1.134840
v -2.668055 -1.327708 1.005150
v -2.668055 -0.000000 0.875459
v -2.668055 1.327708 0.745769
v 2.668055 1.327708 0.745769
v 2.668055 -0.000000 0.875459
v 2.668055 -1.327708 1.005150
v 2.353282 2.655417 0.616079
v 2.353282 -2.655417 1.134840
v 2.353282 1.327708 0.745769
v 2.353282 -0.000000 0.875459
v 2.353282 -1.327708 1.005150
v -2.668055 2.341731 0.646720
v 2.668055 2.341731 0.646720
v 1.334027 2.341731 0.646720
v 0.000000 2.341731 0.646720
v -1.334028 2.341731 0.646720
v 2.353282 2.341731 0.646720
v -2.353154 -2.655417 1.134840
v -2.353154 2.655417 0.616079
v -2.353154 1.327708 0.745769
v -2.353154 -0.000000 0.875459
v -2.353154 -1.327708 1.005150
v -2.353154 2.341731 0.646720
v 2.668055 -2.342822 1.104306
v 1.334027 -2.342822 1.104306
v -0.000000 -2.342822 1.104306
v -1.334028 -2.342822 1.104306
v -2.668055 -2.342822 1.104306
v 2.353282 -2.342822 1.104306
v -2.353154 -2.342822 1.104306
v 2.668055 -2.353972 0.524459
v 2.578564 -2.578564 0.524459
v 2.353282 -2.668055 0.524459
v 2.668055 1.600553 0.524459
v 2.668055 1.334028 0.524459
v 2.668055 -0.000000 0.524459
v 2.668055 -1.334028 0.524459
v 2.668055 -1.600604 0.524459
v 1.600587 -2.668055 0.524459
v -0.000000 -2.668055 0.524459
v 1.334028 -2.668055 0.524459
v -1.334028 -2.668055 0.524459
v -1.600587 -2.668055 0.524459
v -2.668055 -1.334028 0.524459
v -2.668055 -1.600575 0.524459
v -2.668055 -0.000000 0.524459
v -2.353154 -2.668055 0.524459
v -2.578564 -2.578564 0.524459
v -2.668055 -2.353972 0.524459
v 1.600587 2.668055 0.524460
v 2.578564 2.578564 0.524460
v 2.353282 2.668055 0.524460
v 2.668055 2.352876 0.524460
v 1.334028 2.668055 0.524460
v 0.000000 2.668055 0.524460
v -1.334028 2.668055 0.524460
v -1.600587 2.668055 0.524460
v -2.668055 1.600598 0.524459
v -2.668055 1.334028 0.524459
v -2.578564 2.578564 0.524460
v -2.353154 2.668055 0.524460
v -2.668055 2.352876 0.524460
v 1.334027 1.327708 0.745769
v 0.000000 1.327708 0.745769
v -1.334028 1.327708 0.745769
v 1.334027 -0.000000 0.875459
v 0.000000 -0.000000 0.875459
v -1.334028 -0.000000 0.875459
v 1.334027 -1.327708 1.005150
v -0.000000 -1.327708 1.005150
v -1.334028 -1.327708 1.005150
v -2.668055 2.341731 0.646720
v -2.578564 2.566350 0.624779
v 2.353282 2.655417 0.616079
v 2.578564 2.566350 0.624779
v 2.668055 -2.342822 1.104306
v 2.578564 -2.566350 1.126140
v -2.353154 -2.655417 1.134840
v -2.578564 -2.566350 1.126140
v -2.353154 2.655417 0.616079
v -1.334028 2.655417 0.616079
v 0.000000 2.655417 0.616079
v 1.334027 2.655417 0.616079
v 2.353282 -2.655417 1.134840
v 1.334027 -2.655417 1.134840
v -0.000000 -2.655417 1.134840
v -1.334028 -2.655417 1.134840
v -2.668055 -2.342822 1.104306
v -2.668055 -1.327708 1.005150
v -2.668055 -0.000000 0.875459
v -2.668055 1.327708 0.745769
v 2.668055 2.341731 0.646720
v 2.668055 1.327708 0.745769
v 2.668055 -0.000000 0.875459
v 2.668055 -1.327708 1.005150
vn 0.0000 0.0972 0.9952
vn -0.6877 0.7205 0.0886
vn -0.9797 0.1993 0.0209
vn -0.9858 0.1670 0.0175
vn -0.7298 0.6787 0.0825
vn -0.7037 -0.7103 0.0144
vn -0.1871 -0.9821 0.0202
vn -0.1859 -0.9824 0.0202
vn -0.6963 -0.7175 0.0146
vn -0.9816 -0.1909 0.0038
vn -0.9802 -0.1977 0.0039
vn -1.0000 0.0000 0.0000
vn 0.0000 -0.9998 0.0207
vn 0.0000 0.9906 0.1366
vn -0.1820 0.9746 0.1305
vn -0.1899 0.9731 0.1301
vn 1.0000 0.0000 0.0000
vn 0.9797 0.1993 0.0209
vn 0.9858 0.1670 0.0175
vn 0.1820 0.9746 0.1305
vn 0.1900 0.9731 0.1301
vn 0.1872 -0.9821 0.0202
vn 0.7038 -0.7103 0.0144
vn 0.6964 -0.7175 0.0146
vn 0.1859 -0.9823 0.0202
vn 0.9816 -0.1909 0.0038
vn 0.9802 -0.1977 0.0039
vn 0.6878 0.7205 0.0886
vn 0.7298 0.6786 0.0825
usemtl greyinterior
s 1
f 40//1 98//1 1//1 88//1
f 39//1 35//1 95//1 94//1
f 35//1 36//1 96//1 95//1
f 36//1 37//1 97//1 96//1
f 33//1 82//1 101//1 30//1
f 30//1 101//1 100//1 31//1
f 31//1 100//1 99//1 32//1
f 104//1 20//1 21//1 105//1
f 103//1 19//1 20//1 104//1
f 102//1 27//1 19//1 103//1
f 86//1 39//1 94//1 87//1
f 85//1 84//1 27//1 102//1
f 90//1 83//1 82//1 33//1
f 84//1 93//1 24//1 27//1
f 93//1 92//1 25//1 24//1
f 92//1 91//1 26//1 25//1
f 91//1 90//1 33//1 26//1
f 37//1 40//1 88//1 97//1
f 105//1 21//1 39//1 86//1
f 32//1 99//1 98//1 40//1
f 70//2 72//3 22//4 2//5
f 58//6 57//7 28//8 89//9
f 59//10 58//6 89//9 38//11
f 72//3 68//12 69//12 13//12 22//4
f 57//7 53//13 52//13 10//13 28//8
f 66//14 67//14 71//15 29//16 5//14
f 47//17 46//17 15//17 16//17
f 45//17 44//17 63//18 23//19 14//17
f 64//14 65//14 6//14 7//14
f 69//12 56//12 12//12 13//12
f 62//20 60//14 64//14 7//14 17//21
f 43//22 42//23 3//24 18//25
f 46//17 45//17 14//17 15//17
f 54//12 55//12 59//10 38//11 11//12
f 50//13 51//13 8//13 9//13
f 56//12 54//12 11//12 12//12
f 42//23 41//26 34//27 3//24
f 61//28 62//20 17//21 4//29
f 41//26 48//17 47//17 16//17 34//27
f 65//14 66//14 5//14 6//14
f 52//13 50//13 9//13 10//13
f 63//18 61//28 4//29 23//19
f 51//13 49//13 43//22 18//25 8//13
f 71//15 70//2 2//5 29//16
f 25//1 26//1 75//1 74//1
f 24//1 25//1 74//1 73//1
f 74//1 75//1 78//1 77//1
f 73//1 74//1 77//1 76//1
f 76//1 77//1 80//1 79//1
f 77//1 78//1 81//1 80//1
f 26//1 33//1 30//1 75//1
f 31//1 78//1 75//1 30//1
f 32//1 81//1 78//1 31//1
f 32//1 40//1 37//1 81//1
f 36//1 80//1 81//1 37//1
f 35//1 79//1 80//1 36//1
f 21//1 79//1 35//1 39//1
f 20//1 76//1 79//1 21//1
f 19//1 73//1 76//1 20//1
f 27//1 24//1 73//1 19//1
o base_Cube.001
v 4.250813 -3.201175 0.001766
v 3.201175 -4.250813 0.001766
v 4.250813 -0.000000 0.524459
v 4.250813 -0.000000 0.001766
v 3.201175 4.250813 0.001766
v 4.250813 3.201175 0.001766
v 3.525531 4.199440 0.001766
v 3.818137 4.050350 0.001766
v 4.050350 3.818137 0.001766
v 4.199440 3.525531 0.001766
v 4.250813 3.201175 0.524460
v 3.201175 4.250813 0.145976
v 4.199440 3.525531 0.463793
v 4.050350 3.818137 0.371785
v 3.818137 4.050350 0.265383
v 3.525531 4.199440 0.178472
v 0.000000 4.250813 0.001766
v 0.000000 4.250813 0.146020
v -4.250813 -0.000000 0.524459
v -3.201175 4.250813 0.001766
v -4.250813 3.201175 0.001766
v -3.525531 4.199440 0.001766
v -3.818137 4.050350 0.001766
v -4.050350 3.818137 0.001766
v -4.199440 3.525531 0.001766
v -4.250813 3.201175 0.524460
v -3.201175 4.250813 0.145976
v -4.199440 3.525531 0.463793
v -4.050350 3.818137 0.371785
v -3.818137 4.050350 0.265383
v -3.525531 4.199440 0.178472
v 3.525531 -4.199440 0.001766
v 3.818137 -4.050350 0.001766
v 4.050350 -3.818137 0.001766
v 4.199440 -3.525531 0.001766
v 4.250813 -3.201175 0.524459
v 3.201175 -4.250813 0.145976
v 4.199440 -3.525531 0.463793
v 4.050350 -3.818137 0.371785
v 3.818137 -4.050350 0.265383
v 3.525531 -4.199440 0.178472
v -0.000000 -4.250813 0.001766
v -0.000000 -4.250813 0.146035
v -4.250813 -0.000000 0.001766
v 0.000000 -0.000000 0.001766
v -3.201175 -4.250813 0.001766
v -4.250813 -3.201175 0.001766
v -3.525531 -4.199440 0.001766
v -3.818137 -4.050350 0.001766
v -4.050350 -3.818137 0.001766
v -4.199440 -3.525531 0.001766
v -4.250813 -3.201175 0.524459
v -3.201175 -4.250813 0.145976
v -4.199440 -3.525531 0.463793
v -4.050350 -3.818137 0.371785
v -3.818137 -4.050350 0.265383
v -3.525531 -4.199440 0.178472
v 3.201175 -0.000000 0.524459
v 3.201175 -0.000000 0.001766
v -3.201175 -0.000000 0.524459
v -3.201175 -0.000000 0.001766
v 3.201175 -3.201172 0.001766
v -0.000000 -3.201175 0.001766
v -3.201175 -3.201175 0.001766
v 0.000000 3.201174 0.001766
v 3.201175 3.201182 0.001766
v -3.201175 3.201178 0.001766
v -1.600587 4.250813 0.001766
v -1.600587 -0.000000 0.001766
v -1.600587 -4.250813 0.001766
v -1.600587 -4.250813 0.145976
v -1.600587 4.250813 0.145976
v -1.600587 -3.201175 0.001766
v -1.600587 3.201176 0.001766
v 1.600587 4.250813 0.001766
v 1.600587 -0.000000 0.001766
v 1.600587 -4.250813 0.001766
v 1.600587 -4.250813 0.145976
v 1.600587 4.250813 0.145976
v 1.600587 -3.201174 0.001766
v 1.600587 3.201178 0.001766
v -4.250813 1.600587 0.524459
v 4.250813 1.600587 0.001766
v 4.250813 1.600587 0.524459
v 0.000000 1.600587 0.001766
v -4.250813 1.600587 0.001766
v 3.201175 1.600591 0.001766
v -3.201175 1.600589 0.001766
v -1.600587 1.600588 0.001766
v 1.600587 1.600589 0.001766
v 4.250813 -1.600587 0.001766
v 4.250813 -1.600587 0.524459
v -0.000000 -1.600588 0.001766
v -4.250813 -1.600587 0.001766
v -4.250813 -1.600587 0.524459
v -3.201175 -1.600588 0.001766
v 3.201175 -1.600586 0.001766
v -1.600587 -1.600588 0.001766
v 1.600587 -1.600587 0.001766
v -3.201175 -1.600584 0.524459
v 3.201175 -1.600642 0.524459
v 0.000000 3.201212 0.524460
v -1.600587 3.201164 0.524460
v 3.201175 3.201119 0.524460
v -3.201175 3.201213 0.524460
v 1.600587 3.201212 0.524460
v 3.201175 1.600584 0.524459
v -3.201175 1.600584 0.524459
v 2.668055 -2.353972 0.524459
v 2.578564 -2.578564 0.524459
v 2.353282 -2.668055 0.524459
v 2.668055 1.600553 0.524459
v 2.668055 1.334028 0.524459
v 2.668055 -0.000000 0.524459
v 2.668055 -1.334028 0.524459
v 2.668055 -1.600604 0.524459
v 1.600587 -2.668055 0.524459
v -0.000000 -2.668055 0.524459
v 1.334028 -2.668055 0.524459
v -1.334028 -2.668055 0.524459
v -1.600587 -2.668055 0.524459
v -2.668055 -1.334028 0.524459
v -2.668055 -1.600575 0.524459
v -2.668055 -0.000000 0.524459
v -2.353154 -2.668055 0.524459
v -2.578564 -2.578564 0.524459
v -2.668055 -2.353972 0.524459
v 1.600587 2.668055 0.524460
v 2.578564 2.578564 0.524460
v 2.353282 2.668055 0.524460
v 2.668055 2.352876 0.524460
v 1.334028 2.668055 0.524460
v 0.000000 2.668055 0.524460
v -1.334028 2.668055 0.524460
v -1.600587 2.668055 0.524460
v -2.668055 1.600598 0.524459
v -2.668055 1.334028 0.524459
v -2.578564 2.578564 0.524460
v -2.353154 2.668055 0.524460
v -2.668055 2.352876 0.524460
v -0.000000 -3.201175 0.524459
v 3.201175 -3.201175 0.524459
v -3.201175 -3.201175 0.524459
v 1.600587 -3.201175 0.524459
v -1.600587 -3.201175 0.524459
v 3.201175 -3.534536 0.463793
v -1.600587 -3.534534 0.463793
v -0.000000 -3.534539 0.463793
v 1.600587 -3.534540 0.463793
v -3.201175 -3.534543 0.463793
v -0.000000 -3.823618 0.371785
v -3.201175 -3.823624 0.371785
v -1.600587 -3.823627 0.371785
v 1.600587 -3.823626 0.371785
v 3.201175 -3.823615 0.371785
v -3.201175 -4.052568 0.265383
v -0.000000 -4.052563 0.265383
v 1.600587 -4.052564 0.265383
v 3.201175 -4.052567 0.265383
v -1.600587 -4.052565 0.265383
v 1.600587 3.517452 0.463793
v 0.000000 3.517467 0.463793
v -1.600587 3.517449 0.463793
v -3.201175 3.517458 0.463793
v 3.201175 3.517442 0.463793
v -3.201175 3.812696 0.371785
v -1.600587 3.812707 0.371785
v 0.000000 3.812700 0.371785
v 3.201175 3.812705 0.371785
v 1.600587 3.812704 0.371785
v 0.000000 4.048095 0.265383
v -1.600587 4.048097 0.265383
v 1.600587 4.048082 0.265383
v -3.201175 4.048086 0.265383
v 3.201175 4.048082 0.265383
v 4.199440 -3.525531 0.001766
v 4.050350 -3.818137 0.001766
v 4.050350 -3.818137 0.371785
v 4.199440 -3.525531 0.463793
v 4.250813 -3.201175 0.001766
v 4.199440 3.525531 0.463793
v 4.250813 3.201175 0.524460
v 4.250813 3.201175 0.001766
v 4.199440 3.525531 0.001766
v 4.050350 3.818137 0.371785
v 4.050350 3.818137 0.001766
v 3.818137 4.050350 0.265383
v 3.818137 4.050350 0.001766
v 3.525531 4.199440 0.178472
v 3.525531 4.199440 0.001766
v 3.201175 4.250813 0.145976
v 3.201175 4.250813 0.001766
v 4.250813 -3.201175 0.524459
v -4.199440 3.525531 0.463793
v -4.250813 3.201175 0.524460
v -4.250813 3.201175 0.001766
v -4.199440 3.525531 0.001766
v -4.050350 3.818137 0.371785
v -4.050350 3.818137 0.001766
v -3.818137 4.050350 0.265383
v -3.818137 4.050350 0.001766
v -3.525531 4.199440 0.178472
v -3.525531 4.199440 0.001766
v -3.201175 4.250813 0.145976
v -3.201175 4.250813 0.001766
v -4.250813 1.600587 0.524459
v -4.250813 -0.000000 0.524459
v -1.600587 4.250813 0.001766
v 1.600587 4.250813 0.001766
v 3.818137 -4.050350 0.265383
v 3.818137 -4.050350 0.001766
v 3.525531 -4.199440 0.178472
v 3.525531 -4.199440 0.001766
v 3.201175 -4.250813 0.145976
v 3.201175 -4.250813 0.001766
v 4.250813 -1.600587 0.001766
v 4.250813 -1.600587 0.524459
v 4.250813 -0.000000 0.524459
v -4.199440 -3.525531 0.463793
v -4.250813 -3.201175 0.524459
v -4.250813 -3.201175 0.001766
v -4.199440 -3.525531 0.001766
v -4.050350 -3.818137 0.371785
v -4.050350 -3.818137 0.001766
v -3.818137 -4.050350 0.265383
v -3.818137 -4.050350 0.001766
v -3.525531 -4.199440 0.178472
v -3.525531 -4.199440 0.001766
v -3.201175 -4.250813 0.145976
v -3.201175 -4.250813 0.001766
v -4.250813 -1.600587 0.001766
v -1.600587 -4.250813 0.001766
v 1.600587 -4.250813 0.001766
v 4.250813 1.600587 0.001766
v 4.250813 1.600587 0.524459
v -4.250813 1.600587 0.001766
v -4.250813 -1.600587 0.524459
v -1.600587 -4.250813 0.145976
v -1.600587 4.250813 0.145976
v 1.600587 -4.250813 0.145976
v 1.600587 4.250813 0.145976
v 0.000000 4.250813 0.001766
v -0.000000 -4.250813 0.001766
v -0.000000 -4.250813 0.146035
v 0.000000 4.250813 0.146020
v 4.250813 -0.000000 0.001766
v -4.250813 -0.000000 0.001766
vn -0.0003 0.0886 0.9961
vn -0.0002 0.0940 0.9955
vn 0.0000 0.0000 1.0000
vn 0.0000 1.0000 0.0000
vn 0.0808 0.9967 0.0000
vn 0.0784 0.9969 0.0000
vn 0.0000 0.0000 -1.0000
vn 0.9973 0.0736 0.0000
vn 0.9969 0.0784 0.0000
vn 0.9510 0.3090 0.0000
vn 0.9581 0.2864 0.0000
vn 0.8090 0.5878 0.0000
vn 0.8262 0.5633 0.0000
vn 0.5878 0.8090 0.0000
vn 0.6105 0.7920 0.0000
vn 0.3090 0.9510 0.0000
vn 0.3253 0.9456 0.0000
vn 1.0000 0.0000 0.0000
vn 0.0003 0.0886 0.9961
vn 0.0002 0.0940 0.9955
vn -0.0784 0.9969 0.0000
vn -0.0808 0.9967 0.0000
vn -0.9973 0.0736 0.0000
vn -0.9581 0.2864 0.0000
vn -0.9510 0.3090 0.0000
vn -0.9969 0.0784 0.0000
vn -0.8262 0.5633 0.0000
vn -0.8090 0.5878 0.0000
vn -0.6105 0.7920 0.0000
vn -0.5878 0.8090 0.0000
vn -0.3253 0.9456 0.0000
vn -0.3090 0.9510 0.0000
vn -1.0000 0.0000 0.0000
vn 0.0004 -0.0864 0.9962
vn 0.0002 -0.0905 0.9959
vn 0.0000 -1.0000 0.0000
vn 0.0784 -0.9969 0.0000
vn 0.0808 -0.9967 0.0000
vn 0.9973 -0.0736 0.0000
vn 0.9581 -0.2864 0.0000
vn 0.9510 -0.3090 0.0000
vn 0.9969 -0.0784 0.0000
vn 0.8262 -0.5633 0.0000
vn 0.8090 -0.5878 0.0000
vn 0.6105 -0.7920 0.0000
vn 0.5878 -0.8090 0.0000
vn 0.3253 -0.9456 0.0000
vn 0.3090 -0.9510 0.0000
vn -0.0004 -0.0864 0.9962
vn -0.0002 -0.0905 0.9959
vn -0.0808 -0.9967 0.0000
vn -0.0784 -0.9969 0.0000
vn -0.9973 -0.0736 0.0000
vn -0.9969 -0.0784 0.0000
vn -0.9510 -0.3090 0.0000
vn -0.9581 -0.2864 0.0000
vn -0.8090 -0.5878 0.0000
vn -0.8262 -0.5633 0.0000
vn -0.5878 -0.8090 0.0000
vn -0.6105 -0.7920 0.0000
vn -0.3090 -0.9510 0.0000
vn -0.3253 -0.9456 0.0000
vn 0.0000 -0.5159 0.8566
vn 0.0000 -0.4693 0.8830
vn 0.0000 -0.5159 0.8567
vn 0.0000 0.5075 0.8616
vn 0.0000 0.4603 0.8877
vn 0.0000 0.5074 0.8617
vn 0.0016 0.5057 0.8627
vn 0.0014 0.4597 0.8881
vn -0.0003 -0.5133 0.8582
vn 0.0004 -0.4676 0.8839
vn -0.0013 0.2308 0.9730
vn -0.0007 0.2428 0.9701
vn 0.0000 0.0946 0.9955
vn 0.0000 0.2433 0.9699
vn 0.0007 0.2428 0.9701
vn 0.0013 0.2308 0.9730
vn 0.0000 -0.0899 0.9959
vn 0.0008 -0.2421 0.9702
vn 0.0014 -0.2290 0.9734
vn -0.0008 -0.2421 0.9702
vn 0.0000 -0.2416 0.9703
vn -0.0014 -0.2290 0.9734
vn -0.0011 -0.3625 0.9319
vn 0.0000 -0.3631 0.9317
vn 0.0011 -0.3625 0.9319
vn 0.0023 -0.3368 0.9416
vn -0.0023 -0.3368 0.9416
vn -0.0016 -0.4371 0.8994
vn -0.0004 -0.4676 0.8839
vn 0.0016 -0.4371 0.8994
vn 0.0003 -0.5133 0.8582
vn -0.0006 -0.5103 0.8600
vn 0.0006 -0.5103 0.8600
vn 0.0000 0.3554 0.9347
vn 0.0011 0.3558 0.9345
vn 0.0022 0.3326 0.9431
vn -0.0022 0.3325 0.9431
vn -0.0011 0.3558 0.9345
vn -0.0024 0.4307 0.9025
vn -0.0014 0.4597 0.8881
vn 0.0024 0.4307 0.9025
vn -0.0035 0.5036 0.8639
vn -0.0016 0.5057 0.8627
vn 0.0000 0.5075 0.8617
vn 0.0035 0.5036 0.8639
usemtl whiteExterior
s 1
f 116//30 209//31 212//32 189//32
f 314//33 346//33 296//34 297//35
f 180//36 110//36 171//36 186//36
f 287//37 288//38 289//39 286//40
f 286//40 289//39 291//41 290//42
f 290//42 291//41 293//43 292//44
f 292//44 293//43 295//45 294//46
f 294//46 295//45 297//35 296//34
f 188//47 340//47 323//47 351//47
f 131//48 187//32 213//32 210//49
f 313//33 310//50 309//51 344//33
f 173//36 179//36 172//36 125//36
f 300//52 299//53 302//54 301//55
f 299//53 303//56 304//57 302//54
f 303//56 305//58 306//59 304//57
f 305//58 307//60 308//61 306//59
f 307//60 309//51 310//50 308//61
f 191//62 352//62 312//62 311//62
f 141//63 197//32 206//32 247//64
f 338//65 320//66 319//67 345//65
f 182//36 185//36 167//36 107//36
f 298//68 284//69 281//70 285//71
f 284//69 283//72 282//73 281//70
f 283//72 315//74 316//75 282//73
f 315//74 317//76 318//77 316//75
f 317//76 319//67 320//66 318//77
f 196//47 351//47 323//47 322//47
f 157//78 248//79 205//32 200//32
f 337//65 343//65 334//80 335//81
f 175//36 151//36 169//36 178//36
f 325//82 326//83 327//84 324//85
f 324//85 327//84 329//86 328//87
f 328//87 329//86 331//88 330//89
f 330//89 331//88 333//90 332//91
f 332//91 333//90 335//81 334//80
f 199//62 342//62 312//62 352//62
f 183//92 263//93 262//93 148//94
f 177//95 277//96 276//96 123//97
f 125//36 172//36 126//36 130//36 129//36 128//36 127//36
f 201//36 169//36 152//36 336//36
f 193//36 194//36 174//36 166//36
f 107//36 167//36 106//36 140//36 139//36 138//36 137//36
f 192//36 171//36 111//36 339//36
f 204//36 198//36 150//36 181//36
f 152//36 169//36 151//36 153//36 154//36 155//36 156//36
f 203//36 201//36 166//36 174//36
f 321//36 202//36 164//36 109//36
f 341//36 193//36 166//36 149//36
f 111//36 171//36 110//36 112//36 113//36 114//36 115//36
f 194//36 190//36 150//36 174//36
f 195//36 192//36 164//36 181//36
f 198//36 203//36 174//36 150//36
f 165//32 205//32 228//32 227//32 229//32
f 132//98 279//99 277//96 177//95
f 147//36 175//36 178//36 168//36
f 348//65 349//65 343//65 337//65
f 122//36 170//36 179//36 173//36
f 347//33 313//33 344//33 350//33
f 190//36 195//36 181//36 150//36
f 202//36 204//36 181//36 164//36
f 142//100 264//101 263//93 183//92
f 163//32 212//32 217//32 218//32 219//32
f 147//36 168//36 185//36 182//36
f 348//65 338//65 345//65 349//65
f 122//36 180//36 186//36 170//36
f 347//33 350//33 346//33 314//33
f 170//36 186//36 195//36 190//36
f 186//36 171//36 192//36 195//36
f 179//36 170//36 190//36 194//36
f 126//36 172//36 193//36 341//36
f 164//36 192//36 339//36 109//36
f 172//36 179//36 194//36 193//36
f 301//55 191//62 311//62 300//52
f 288//38 287//37 340//47 188//47
f 167//36 185//36 204//36 202//36
f 168//36 178//36 203//36 198//36
f 106//36 167//36 202//36 321//36
f 178//36 169//36 201//36 203//36
f 185//36 168//36 198//36 204//36
f 166//36 201//36 336//36 149//36
f 326//83 325//82 342//62 199//62
f 285//71 196//47 322//47 298//68
f 200//32 205//32 165//32 124//32
f 206//32 197//32 108//32 163//32
f 209//31 116//30 118//102 270//103
f 207//104 208//104 240//32 239//32 238//32
f 208//104 210//49 213//32 241//32 245//32 243//32 244//32 240//32
f 211//104 209//31 270//103 266//105
f 207//104 211//104 266//105 267//105
f 210//49 269//106 133//107 131//48
f 189//32 212//32 163//32 108//32
f 213//32 187//32 124//32 165//32
f 223//32 225//32 226//32 250//108 246//108
f 219//32 220//32 221//32 206//32 163//32
f 226//32 230//32 231//32 232//32 228//32 205//32 248//79 250//108
f 229//32 242//32 241//32 213//32 165//32
f 238//32 237//32 233//32 211//104 207//104
f 233//32 235//32 234//32 236//32 217//32 212//32 209//31 211//104
f 247//64 251//109 143//110 141//63
f 246//108 249//108 222//32 224//32 223//32
f 249//108 247//64 206//32 221//32 214//32 215//32 216//32 222//32
f 250//108 248//79 255//111 252//112
f 246//108 250//108 252//112 253//112
f 248//79 157//78 159//113 255//111
f 252//112 255//111 257//114 258//115
f 143//110 251//109 260//116 144//117
f 253//112 252//112 258//115 256//115
f 253//112 254//112 249//108 246//108
f 254//112 251//109 247//64 249//108
f 255//111 159//113 160//118 257//114
f 257//114 160//118 161//119 261//120
f 256//115 259//115 254//112 253//112
f 256//115 258//115 265//93 262//93
f 259//115 260//116 251//109 254//112
f 258//115 257//114 261//120 265//93
f 144//117 260//116 264//101 145//121
f 265//93 261//120 158//122 176//92
f 145//121 264//101 142//100 146//123
f 262//93 265//93 176//92 148//94
f 262//93 263//93 259//115 256//115
f 263//93 264//101 260//116 259//115
f 261//120 161//119 162//124 158//122
f 267//105 268//105 208//104 207//104
f 267//105 266//105 275//125 273//125
f 133//107 269//106 271//126 134//127
f 268//105 269//106 210//49 208//104
f 270//103 118//102 119//128 274//129
f 266//105 270//103 274//129 275//125
f 274//129 119//128 120//130 280//131
f 272//125 271//126 269//106 268//105
f 273//125 275//125 278//96 276//96
f 275//125 274//129 280//131 278//96
f 273//125 272//125 268//105 267//105
f 134//127 271//126 279//99 135//132
f 280//131 120//130 121//133 117//134
f 277//96 279//99 271//126 272//125
f 276//96 278//96 184//135 123//97
f 135//132 279//99 132//98 136//136
f 276//96 277//96 272//125 273//125
f 278//96 280//131 117//134 184//135
