<?xml version="1.0" encoding="UTF-8"?>
<svg width="16px" height="16px" viewBox="0 0 16 16" version="1.1" xmlns="http://www.w3.org/2000/svg" xmlns:xlink="http://www.w3.org/1999/xlink">
    <title>fichier/application-preferences</title>
    <g id="fichier/application-preferences" stroke="none" stroke-width="1" fill="none" fill-rule="evenodd">
        <g id="Group" fill="#DDDDDD" fill-rule="nonzero" opacity="0">
            <g id="Rectangle-Copy-25">
                <rect x="0" y="0" width="16" height="16"></rect>
            </g>
        </g>
        <line x1="6" y1="10" x2="12" y2="4" id="Path-60" stroke="#000000" stroke-linecap="round" stroke-linejoin="round" fill-rule="nonzero"></line>
        <path d="M10,8.5 L12.1,10.6 L12.1481856,10.6488692 C12.4140398,10.5525305 12.7008853,10.5 13,10.5 C14.3807119,10.5 15.5,11.6192881 15.5,13 C15.5,14.3807119 14.3807119,15.5 13,15.5 C11.6192881,15.5 10.5,14.3807119 10.5,13 C10.5,12.7046352 10.5512216,12.4212338 10.6452667,12.1581941 L10.6,12.1 L8.5,10" id="Path" stroke="#000000" fill="#FFFFFF" fill-rule="nonzero" stroke-linecap="round" stroke-linejoin="round"></path>
        <path d="M6,7.5 L4,5.5 L3.85181444,5.35113075 C3.58596019,5.44746954 3.29911467,5.5 3,5.5 C1.72531316,5.5 0.67344209,4.54601229 0.519411947,3.31306203 C0.849969467,3.55678824 1.25826028,3.7 1.7,3.7 C2.8045695,3.7 3.7,2.8045695 3.7,1.7 C3.7,1.29833836 3.58159597,0.924331471 3.37778764,0.610979064 L3.31306203,0.519411947 C4.54601229,0.67344209 5.5,1.72531316 5.5,3 C5.5,3.22152361 5.47118784,3.43631777 5.41710651,3.64083952 L5.35473334,3.84180589 L5.5,4 L7.5,6" id="Path" stroke="#000000" fill="#FFFFFF" fill-rule="nonzero" stroke-linecap="round" stroke-linejoin="round"></path>
        <circle id="Oval" fill="#000000" fill-rule="nonzero" cx="13.05" cy="12.95" r="1"></circle>
        <path d="M5,9 L7,11 L2.5,15.5 C1.3954305,15.5 0.5,14.6045695 0.5,13.5 L0.5,13.5 L0.5,13.5 L5,9 Z" id="Path-59" stroke="#000000" fill="#FFFFFF" fill-rule="nonzero" stroke-linecap="round" stroke-linejoin="round"></path>
        <path d="M12.2071068,3.70710678 L12.2928932,3.79289322 C12.6834175,4.18341751 13.3165825,4.18341751 13.7071068,3.79289322 L15.5,2 L15.5,2 L14,0.5 L12.2071068,2.29289322 C11.8165825,2.68341751 11.8165825,3.31658249 12.2071068,3.70710678 Z" id="Path-61" stroke="#000000" fill="#FFFFFF" fill-rule="nonzero" stroke-linecap="round" stroke-linejoin="round"></path>
    </g>
</svg>