<?xml version="1.0" encoding="UTF-8"?>
<svg width="16px" height="16px" viewBox="0 0 16 16" version="1.1" xmlns="http://www.w3.org/2000/svg" xmlns:xlink="http://www.w3.org/1999/xlink">
    <title>vue3D/camera-photo</title>
    <g id="vue3D/camera-photo" stroke="none" stroke-width="1" fill="none" fill-rule="evenodd">
        <g id="Group" fill="#DDDDDD" fill-rule="nonzero" opacity="0">
            <g id="Rectangle-Copy-25">
                <rect x="0" y="0" width="16" height="16"></rect>
            </g>
        </g>
        <g id="Group" stroke="#000000" stroke-linecap="round" stroke-linejoin="round" stroke-width="0.75">
            <g id="Path">
                <path d="M2.5,4.3 L2.5,3.3 C2.5,2.74771525 2.94771525,2.3 3.5,2.3 C4.05228475,2.3 4.5,2.74771525 4.5,3.3 L4.5,4.3 L4.5,4.3" fill="#FFFFFF"></path>
                <path d="M12.2,3.9 L11.3,2.7 C11.1111456,2.44819416 10.8147573,2.3 10.5,2.3 L8.5,2.3 C8.1852427,2.3 7.88885438,2.44819416 7.7,2.7 L6.8,3.9 C6.61114562,4.15180584 6.3147573,4.3 6,4.3 L1.3,4.3 C0.74771525,4.3 0.3,4.74771525 0.3,5.3 L0.3,12.7 C0.3,13.2522847 0.74771525,13.7 1.3,13.7 L14.7,13.7 C15.2522847,13.7 15.7,13.2522847 15.7,12.7 L15.7,5.3 C15.7,4.74771525 15.2522847,4.3 14.7,4.3 L13,4.3 C12.6852427,4.3 12.3888544,4.15180584 12.2,3.9 Z" fill="#FFFFFF"></path>
                <path d="M6.5,8.5 C6.5,10.1568542 7.84314575,11.5 9.5,11.5 C11.1568542,11.5 12.5,10.1568542 12.5,8.5 C12.5,6.84314575 11.1568542,5.5 9.5,5.5 C7.84314575,5.5 6.5,6.84314575 6.5,8.5 Z"></path>
                <path d="M8,8.5 C8,9.32842712 8.67157288,10 9.5,10 C10.3284271,10 11,9.32842712 11,8.5 C11,7.67157288 10.3284271,7 9.5,7 C8.67157288,7 8,7.67157288 8,8.5 Z"></path>
                <path d="M2.5,7.4 C2.5,7.95228475 2.94771525,8.4 3.5,8.4 C4.05228475,8.4 4.5,7.95228475 4.5,7.4 C4.5,6.84771525 4.05228475,6.4 3.5,6.4 C2.94771525,6.4 2.5,6.84771525 2.5,7.4 Z"></path>
            </g>
        </g>
    </g>
</svg>