<?xml version="1.0" encoding="UTF-8"?>
<svg width="16px" height="16px" viewBox="0 0 16 16" version="1.1" xmlns="http://www.w3.org/2000/svg" xmlns:xlink="http://www.w3.org/1999/xlink">
    <title>meubles/distribute-vertically</title>
    <g id="meubles/distribute-vertically" stroke="none" stroke-width="1" fill="none" fill-rule="evenodd">
        <g id="Group" fill="#DDDDDD" fill-rule="nonzero" opacity="0">
            <g id="Rectangle-Copy-25">
                <rect x="0" y="0" width="16" height="16"></rect>
            </g>
        </g>
        <line x1="1.5" y1="3.5" x2="14.5" y2="3.5" id="Path-4" stroke="#000000" stroke-linecap="round" stroke-linejoin="round" fill-rule="nonzero"></line>
        <line x1="1.5" y1="12.5" x2="14.5" y2="12.5" id="Path-5" stroke="#000000" stroke-linecap="round" stroke-linejoin="round" fill-rule="nonzero"></line>
        <path d="M4.5,15.5 L11.5,15.5 C12.0522847,15.5 12.5,15.0522847 12.5,14.5 L12.5,12.5 L12.5,12.5 L3.5,12.5 L3.5,14.5 C3.5,15.0522847 3.94771525,15.5 4.5,15.5 Z" id="Path-6" stroke="#000000" fill="#FFFFFF" fill-rule="nonzero" stroke-linecap="round" stroke-linejoin="round"></path>
        <path d="M4.5,0.5 L11.5,0.5 C12.0522847,0.5 12.5,0.94771525 12.5,1.5 L12.5,3.5 L12.5,3.5 L3.5,3.5 L3.5,1.5 C3.5,0.94771525 3.94771525,0.5 4.5,0.5 Z" id="Path-7" stroke="#000000" fill="#FFFFFF" fill-rule="nonzero" stroke-linecap="round" stroke-linejoin="round"></path>
        <polyline id="Path-8" stroke="#000000" stroke-linecap="round" stroke-linejoin="round" fill-rule="nonzero" points="10.5 7 8 4 5.5 7"></polyline>
        <polyline id="Path-8-Copy" stroke="#000000" stroke-linecap="round" stroke-linejoin="round" fill-rule="nonzero" transform="translate(8.000000, 10.500000) rotate(-180.000000) translate(-8.000000, -10.500000) " points="10.5 12 8 9 5.5 12"></polyline>
    </g>
</svg>