<?xml version="1.0" encoding="UTF-8"?>
<svg width="16px" height="16px" viewBox="0 0 16 16" version="1.1" xmlns="http://www.w3.org/2000/svg" xmlns:xlink="http://www.w3.org/1999/xlink">
    <title>edition/edit-copy</title>
    <g id="edition/edit-copy" stroke="none" stroke-width="1" fill="none" fill-rule="evenodd">
        <g id="Group" fill="#DDDDDD" fill-rule="nonzero" opacity="0">
            <g id="Rectangle-Copy-25">
                <rect x="0" y="0" width="16" height="16"></rect>
            </g>
        </g>
        <path d="M3.8,9 L3.5,9 C3.22385763,9 3,9.22385763 3,9.5 C3,9.77614237 3.22385763,10 3.5,10 L3.8,10 C4.07614237,10 4.3,9.77614237 4.3,9.5 C4.3,9.22385763 4.07614237,9 3.8,9 Z M1.84000003,9 L1.5,9 L1.5,9.5 L2,9.5 L2,9.04000003 C2,8.76385766 1.77614237,8.54000003 1.5,8.54000003 C1.22385763,8.54000003 1,8.76385766 1,9.04000003 L1,9.5 C1,9.77614237 1.22385763,10 1.5,10 L1.84000003,10 C2.11614241,10 2.34000003,9.77614237 2.34000003,9.5 C2.34000003,9.22385763 2.11614241,9 1.84000003,9 Z M2,7.18000007 L2,6.18000007 C2,5.90385769 1.77614237,5.68000007 1.5,5.68000007 C1.22385763,5.68000007 1,5.90385769 1,6.18000007 L1,7.18000007 C1,7.45614244 1.22385763,7.68000007 1.5,7.68000007 C1.77614237,7.68000007 2,7.45614244 2,7.18000007 Z M2,4.5200001 L2,3.5200001 C2,3.24385773 1.77614237,3.0200001 1.5,3.0200001 C1.22385763,3.0200001 1,3.24385773 1,3.5200001 L1,4.5200001 C1,4.79614248 1.22385763,5.0200001 1.5,5.0200001 C1.77614237,5.0200001 2,4.79614248 2,4.5200001 Z M2,1.86000013 L2,1.5 L1.5,1.5 L1.5,2 L2.03999987,2 C2.31614224,2 2.53999987,1.77614237 2.53999987,1.5 C2.53999987,1.22385763 2.31614224,1 2.03999987,1 L1.5,1 C1.22385763,1 1,1.22385763 1,1.5 L1,1.86000013 C1,2.13614251 1.22385763,2.36000013 1.5,2.36000013 C1.77614237,2.36000013 2,2.13614251 2,1.86000013 Z M3.79999983,2 L4.79999983,2 C5.07614221,2 5.29999983,1.77614237 5.29999983,1.5 C5.29999983,1.22385763 5.07614221,1 4.79999983,1 L3.79999983,1 C3.52385746,1 3.29999983,1.22385763 3.29999983,1.5 C3.29999983,1.77614237 3.52385746,2 3.79999983,2 Z M6.4599998,2 L7.4599998,2 C7.73614217,2 7.9599998,1.77614237 7.9599998,1.5 C7.9599998,1.22385763 7.73614217,1 7.4599998,1 L6.4599998,1 C6.18385742,1 5.9599998,1.22385763 5.9599998,1.5 C5.9599998,1.77614237 6.18385742,2 6.4599998,2 Z M9.11999977,2 L9.5,2 L9.5,1.5 L9,1.5 L9,2.01999977 C9,2.29614214 9.22385763,2.51999977 9.5,2.51999977 C9.77614237,2.51999977 10,2.29614214 10,2.01999977 L10,1.5 C10,1.22385763 9.77614237,1 9.5,1 L9.11999977,1 C8.84385739,1 8.61999977,1.22385763 8.61999977,1.5 C8.61999977,1.77614237 8.84385739,2 9.11999977,2 Z M9,3.77999973 L9,4 C9,4.27614237 9.22385763,4.5 9.5,4.5 C9.77614237,4.5 10,4.27614237 10,4 L10,3.77999973 C10,3.50385736 9.77614237,3.27999973 9.5,3.27999973 C9.22385763,3.27999973 9,3.50385736 9,3.77999973 Z" id="Path" fill="#000000" fill-rule="nonzero"></path>
        <polygon id="Rectangle-Copy-236" stroke="#000000" fill="#FFFFFF" fill-rule="nonzero" stroke-linecap="round" stroke-linejoin="round" points="6.5 6.5 14.5 6.5 14.5 14.5 6.5 14.5"></polygon>
    </g>
</svg>