<?xml version="1.0" encoding="UTF-8"?>
<svg width="16px" height="16px" viewBox="0 0 16 16" version="1.1" xmlns="http://www.w3.org/2000/svg" xmlns:xlink="http://www.w3.org/1999/xlink">
    <title>edition/edit-paste</title>
    <g id="edition/edit-paste" stroke="none" stroke-width="1" fill="none" fill-rule="evenodd">
        <g id="edition/coller-copy" fill-rule="nonzero">
            <g id="Group" fill="#DDDDDD" opacity="0">
                <g id="Rectangle-Copy-25">
                    <rect x="0" y="0" width="16" height="16"></rect>
                </g>
            </g>
            <path d="M8,0.5 C9.30625206,0.5 10.4175144,1.3348501 10.8293257,2.50008893 L12.5,2.5 C13.6045695,2.5 14.5,3.3954305 14.5,4.5 L14.5,12.5 C14.5,13.6045695 13.6045695,14.5 12.5,14.5 L3.5,14.5 C2.3954305,14.5 1.5,13.6045695 1.5,12.5 L1.5,4.5 C1.5,3.3954305 2.3954305,2.5 3.5,2.5 L5.17067428,2.50008893 C5.58248558,1.3348501 6.69374794,0.5 8,0.5 Z" id="Combined-Shape" stroke="#000000" fill="#FFFFFF" stroke-linecap="round" stroke-linejoin="round"></path>
            <polygon id="Rectangle-Copy-238" stroke="#000000" fill="#FFFFFF" stroke-linecap="round" stroke-linejoin="round" points="6.5 8.5 15.5 8.5 15.5 15.5 6.5 15.5"></polygon>
            <line x1="3.5" y1="4.5" x2="12.5" y2="4.5" id="Path-46" stroke="#000000" stroke-linecap="round" stroke-linejoin="round"></line>
            <line x1="8.5" y1="10.5" x2="13" y2="10.5" id="Path-46-Copy" stroke="#000000" stroke-linecap="round" stroke-linejoin="round"></line>
            <line x1="8.5" y1="12.5" x2="11" y2="12.5" id="Path-46-Copy-2" stroke="#000000" stroke-linecap="round" stroke-linejoin="round"></line>
            <line x1="7.5" y1="2.5" x2="8.5" y2="2.5" id="Path-47" stroke="#000000" stroke-linecap="round" stroke-linejoin="round"></line>
        </g>
    </g>
</svg>