<?xml version="1.0" encoding="UTF-8"?>
<svg width="16px" height="16px" viewBox="0 0 16 16" version="1.1" xmlns="http://www.w3.org/2000/svg" xmlns:xlink="http://www.w3.org/1999/xlink">
    <title>meubles/furniture-add</title>
    <g id="meubles/furniture-add" stroke="none" stroke-width="1" fill="none" fill-rule="evenodd">
        <g id="Group" fill="#DDDDDD" fill-rule="nonzero" opacity="0">
            <g id="Rectangle-Copy-25">
                <rect x="0" y="0" width="16" height="16"></rect>
            </g>
        </g>
        <polyline id="Path-55" stroke="#000000" fill="#FFFFFF" fill-rule="nonzero" stroke-linecap="round" stroke-linejoin="round" points="1.5 7.5 1.5 2.5 5.5 0.5 5.5 5.5"></polyline>
        <line x1="9.5" y1="9.5" x2="9.5" y2="7.5" id="Path" stroke="#000000" fill="#FFFFFF" fill-rule="nonzero" stroke-linecap="round" stroke-linejoin="round"></line>
        <line x1="5.5" y1="9.5" x2="5.5" y2="14.5" id="Path" stroke="#000000" fill="#FFFFFF" fill-rule="nonzero" stroke-linecap="round" stroke-linejoin="round"></line>
        <line x1="1.5" y1="12.5" x2="1.5" y2="7.5" id="Path" stroke="#000000" fill="#FFFFFF" fill-rule="nonzero" stroke-linecap="round" stroke-linejoin="round" transform="translate(1.500000, 10.000000) scale(-1, 1) translate(-1.500000, -10.000000) "></line>
        <polygon id="Path-39-Copy-4" stroke="#000000" fill="#FFFFFF" fill-rule="nonzero" stroke-linecap="round" stroke-linejoin="round" transform="translate(5.500000, 7.500000) rotate(-120.000000) translate(-5.500000, -7.500000) " points="3.76794919 6.5 3.5 10.9641016 7.23205081 8.5 7.5 4.03589838"></polygon>
        <g id="Group" transform="translate(8.000000, 8.000000)" fill="#000000" fill-rule="nonzero">
            <g id="Path-26">
                <path d="M3,0 C4.33333333,0 5,0 5,0 C5,0 5,1 5,3 L8,3 L8,5 L5,5 L5,8 L3,8 L3,5 L0,5 L0,3 L3,3 L3,0 Z"></path>
            </g>
        </g>
    </g>
</svg>