<?xml version="1.0" encoding="UTF-8" standalone="no"?>
<svg width="16px" height="16px" viewBox="0 0 16 16" version="1.1" xmlns="http://www.w3.org/2000/svg" xmlns:xlink="http://www.w3.org/1999/xlink">
  <title>fichier/language-import</title>
  <g
     style="opacity:0;fill:#dddddd;fill-rule:nonzero;stroke:none"
     id="Group">
    <g
       id="Rectangle-Copy-25">
      <rect
         id="rect9"
         height="16"
         width="16"
         y="0"
         x="0" />
    </g>
  </g>
  <path
     style="fill:#0038aa;fill-opacity:1;stroke:none"
     d="M 0.0732462,3.387734 14.024418,3.412266 14.048828,12.6 0,12.435429 z"
     id="path3024" />
  <path
     style="fill:#000000;fill-rule:nonzero;stroke:none"
     id="Path-26"
     d="m 13,16 c -1.333333,0 -2,0 -2,0 0,0 0,-1 0,-3 l -3,0 0,-2 3,0 0,-3 2,0 0,3 3,0 0,2 -3,0 0,3 z" />
  <path
     style="fill:#ffcb02;fill-opacity:1;stroke:none"
     d="m 2.8656543,7.7483014 0.8254776,0 0.2338853,-0.8254777 0.2476435,0.8117214 0.8529936,0 L 4.3239983,8.2435894 4.6266734,9.041551 3.8837435,8.5325062 3.2783931,9.0277918 3.5260366,8.2298302 z"
     id="path3773" />
  <path
     id="path3010"
     d="m 5.82,4.5988873 0.8254776,0 L 6.8793629,3.7734096 7.1270064,4.585131 7.98,4.585131 7.278344,5.0941753 7.5810191,5.8921369 6.8380892,5.3830921 6.2327388,5.8783777 6.4803823,5.0804161 z"
     style="fill:#ffcb02;fill-opacity:1;stroke:none" />
  <path
     style="fill:#ffcb02;fill-opacity:1;stroke:none"
     d="m 8.993584,7.7238873 0.8254776,0 0.2338844,-0.8254777 0.247644,0.8117214 0.852994,0 -0.701656,0.5090443 0.302675,0.7979616 L 10.011674,8.5080921 9.4063228,9.0033777 9.6539663,8.2054161 z"
     id="path3012" />
  <path
     style="fill:#ffcb02;fill-opacity:1;stroke:none"
     d="m 5.82,10.751231 0.8254776,0 0.2338853,-0.8254776 0.2476435,0.8117206 0.8529936,0 -0.701656,0.509045 0.3026751,0.797962 -0.7429299,-0.509045 -0.6053504,0.495285 0.2476435,-0.797961 z"
     id="path3014" />
  <path
     style="fill:#ffcb02;fill-opacity:1;stroke:none"
     d="m 3.8180469,5.648692 0.8254776,0 0.2338853,-0.8254777 0.2476435,0.8117214 0.8529936,0 L 5.2763909,6.14398 5.579066,6.9419416 4.8361361,6.4328968 4.2307857,6.9281824 4.4784292,6.1302208 z"
     id="path3016" />
  <path
     id="path3018"
     d="m 8.0660938,5.6242779 0.8254776,0 0.2338853,-0.8254777 0.2476435,0.8117214 0.8529938,0 L 9.5244378,6.1195659 9.8271129,6.9175275 9.084183,6.4084827 8.4788326,6.9037683 8.7264761,6.1058067 z"
     style="fill:#ffcb02;fill-opacity:1;stroke:none" />
  <path 
     id="path3020"
     d="m 3.7203906,9.7502545 0.8254776,0 0.2338853,-0.8254778 0.2476435,0.8117214 0.8529936,0 -0.701656,0.5090449 0.3026751,0.797962 -0.7429299,-0.509045 -0.6053504,0.495285 0.2476435,-0.797961 z"
     style="fill:#ffcb02;fill-opacity:1;stroke:none" />
  <path
     style="fill:#ffcb02;fill-opacity:1;stroke:none"
     d="m 7.9684375,9.7258404 0.8254776,0 0.2338853,-0.8254777 0.2476435,0.8117214 0.8529941,0 L 9.4267815,10.221128 9.7294566,11.01909 8.9865267,10.510045 8.3811763,11.00533 8.6288198,10.207369 z"
     id="path3022" />
  <path
     style="fill:#ffffff;fill-opacity:0;stroke:#ffffff;stroke-width:0.40000001000000002;stroke-linecap:butt;stroke-linejoin:miter;stroke-miterlimit:4;stroke-opacity:0.49621212;stroke-dasharray:none"
     d="m 7.8369141,12.508789 -0.024414,-1.68457 3.027344,0 2e-6,-3.00293 2.34375,0.024414 0,2.978516 0.830078,0"
     id="path3794" />
</svg>
