<?xml version="1.0" encoding="UTF-8"?>
<svg width="16px" height="16px" viewBox="0 0 16 16" version="1.1" xmlns="http://www.w3.org/2000/svg" xmlns:xlink="http://www.w3.org/1999/xlink">
    <title>plan/plan-modify-background-image</title>
    <g id="plan/plan-modify-background-image" stroke="none" stroke-width="1" fill="none" fill-rule="evenodd">
        <g id="Group" fill="#DDDDDD" fill-rule="nonzero" opacity="0">
            <g id="Rectangle-Copy-25">
                <rect x="0" y="0" width="16" height="16"></rect>
            </g>
        </g>
        <polyline id="Path" stroke="#000000" fill="#FFFFFF" fill-rule="nonzero" stroke-linecap="round" stroke-linejoin="round" transform="translate(8.000000, 10.500000) scale(-1, 1) translate(-8.000000, -10.500000) " points="10.5 5.5 13.5 5.5 15.5 15.5 0.5 15.5 2.10977292 7.45113539"></polyline>
        <polyline id="Path-3" stroke="#757575" stroke-linecap="round" stroke-linejoin="round" fill-rule="nonzero" points="3.5 12 3.5 13.5 12.5 13.5 12.5 12.5"></polyline>
        <line x1="7.5" y1="11.5" x2="11" y2="11.5" id="Path-13" stroke="#757575" stroke-linecap="round" stroke-linejoin="round" fill-rule="nonzero"></line>
        <g id="Group" transform="translate(5.347000, -0.11632259)" fill-rule="nonzero" stroke="#000000" stroke-linecap="round" stroke-linejoin="round" stroke-width="0.7">
            <g>
                <path d="M9.9,3.89032258 L4.5,9.29032258 L4.5,6.29032258 L1.5,6.29032258 L6.9,0.890322581 C7.5017316,0.189955547 8.32207792,0.356955881 9.36103896,1.39132358 C10.4,2.42569128 10.5796537,3.25869095 9.9,3.89032258 Z" id="Path-49-Copy" fill="#FFFFFF"></path>
                <polygon id="Path" fill="#FFFFFF" points="1.5 6.29032258 0.7 10.0903226 4.5 9.29032258 4.5 6.29032258"></polygon>
                <polygon id="Path-52" fill="#000000" points="1.3 8.09032258 2.8 9.59032258 0.8 10.0903226"></polygon>
                <line x1="4.5" y1="6.29032258" x2="9.2" y2="1.59032258" id="Path-53"></line>
            </g>
        </g>
    </g>
</svg>