<?xml version="1.0" encoding="UTF-8"?>
<svg width="16px" height="16px" viewBox="0 0 16 16" version="1.1" xmlns="http://www.w3.org/2000/svg" xmlns:xlink="http://www.w3.org/1999/xlink">
    <title>plan/plan-add-level-same-elevation</title>
    <g id="plan/plan-add-level-same-elevation" stroke="none" stroke-width="1" fill="none" fill-rule="evenodd">
        <g id="Group" fill="#DDDDDD" fill-rule="nonzero" opacity="0">
            <g id="Rectangle-Copy-25">
                <rect x="0" y="0" width="16" height="16"></rect>
            </g>
        </g>
        <polygon id="Path" stroke="#000000" fill="#FFFFFF" fill-rule="nonzero" stroke-linecap="round" stroke-linejoin="round" transform="translate(10.000000, 11.500000) scale(1, -1) translate(-10.000000, -11.500000) " points="4.5 7.5 15.5 11.5 15.5 15.5 4.5 11.5"></polygon>
        <polygon id="Path-23-Copy" stroke="#000000" fill="#FFFFFF" fill-rule="nonzero" stroke-linecap="round" stroke-linejoin="round" transform="translate(2.500000, 11.750000) scale(1, -1) translate(-2.500000, -11.750000) " points="4.5 8 4.5 12 0.5 15.5 0.5 11.5"></polygon>
        <polygon id="Path-26-Copy" fill="#000000" fill-rule="nonzero" transform="translate(9.500000, 2.000000) scale(-1, -1) translate(-9.500000, -2.000000) " points="13 1 13 3 6 3 6 1"></polygon>
        <polygon id="Path-26-Copy-3" fill="#000000" fill-rule="nonzero" transform="translate(9.500000, 5.000000) scale(-1, -1) translate(-9.500000, -5.000000) " points="13 4 13 6 6 6 6 4"></polygon>
        <path d="M0.5,8 L4.63867063,6.68315025 M14.031379,6.39853423 L15.5,7.5" id="Shape" stroke="#000000" stroke-linecap="round" stroke-linejoin="round" fill-rule="nonzero"></path>
    </g>
</svg>