<?xml version="1.0" encoding="UTF-8"?>
<svg width="16px" height="16px" viewBox="0 0 16 16" version="1.1" xmlns="http://www.w3.org/2000/svg" xmlns:xlink="http://www.w3.org/1999/xlink">
    <title>vue3D/view3d-view-from-top</title>
    <g id="vue3D/view3d-view-from-top" stroke="none" stroke-width="1" fill="none" fill-rule="evenodd">
        <g id="Group" fill="#DDDDDD" fill-rule="nonzero" opacity="0">
            <g id="Rectangle-Copy-25">
                <rect x="0" y="0" width="16" height="16"></rect>
            </g>
        </g>
        <g id="Group-4" transform="translate(1.000000, 0.900000)" fill-rule="nonzero" stroke="#000000" stroke-linecap="round" stroke-linejoin="round" stroke-width="0.75">
            <polygon id="Path-39" fill="#A4A4A4" points="7 10 7 14 14 9 14 5"></polygon>
            <polygon id="Path-39-Copy" fill="#DDDDDD" points="3 7 -7.95807864e-13 5 7 3.55271368e-14 7 4"></polygon>
            <polygon id="Path-12" fill="#A4A4A4" points="7 10 7 14 0 9 0 5"></polygon>
            <line x1="7" y1="0" x2="7" y2="4" id="Path-28"></line>
            <polygon id="Path-48" fill="#DDDDDD" points="7 4 3 7 7 10 11 7"></polygon>
            <polygon id="Path-52" fill="#DDDDDD" points="7 0 14 5 11 7 7 4"></polygon>
            <polygon id="Path-53" fill-opacity="0.650013317" fill="#FFFFFF" points="7 0 14 5 7 10 0 5"></polygon>
        </g>
    </g>
</svg>