<?xml version="1.0" encoding="UTF-8"?>
<svg width="16px" height="16px" viewBox="0 0 16 16" version="1.1" xmlns="http://www.w3.org/2000/svg" xmlns:xlink="http://www.w3.org/1999/xlink">
    <title>fichier/document-page-setup</title>
    <g id="fichier/document-page-setup" stroke="none" stroke-width="1" fill="none" fill-rule="evenodd">
        <g id="Group" fill="#DDDDDD" fill-rule="nonzero" opacity="0">
            <g id="Rectangle-Copy-25">
                <rect x="0" y="0" width="16" height="16"></rect>
            </g>
        </g>
        <polygon id="Path" fill="#FFFFFF" points="3.4 11 0.4 10.5 0.4 4.5 13.4 4.5 11.4 11"></polygon>
        <polyline id="Path" stroke="#000000" stroke-width="0.75" fill="#FFFFFF" stroke-linecap="round" stroke-linejoin="round" points="3.4 11 0.4 10.5 0.4 4.5 13.4 4.5"></polyline>
        <path d="M3.4,3 L3.4,0.5 L10.0666667,0.5 C10.2830369,0.5 10.4935705,0.570177872 10.6666667,0.7 L12,1.7 C12.2518058,1.88885438 12.4,2.1852427 12.4,2.5 L12.4,3 L12.4,3" id="Path" stroke="#000000" stroke-width="0.75" fill="#FFFFFF" stroke-linecap="round" stroke-linejoin="round"></path>
        <polygon id="Path" stroke="#000000" stroke-width="0.75" fill="#FFFFFF" stroke-linecap="round" stroke-linejoin="round" points="11.8 15.5 3.4 15.5 3.4 9 11.8 9"></polygon>
        <path d="M2.80434783,6.7163913 C2.80434783,7.10299063 3.1177485,7.4163913 3.50434783,7.4163913 C3.89094715,7.4163913 4.20434783,7.10299063 4.20434783,6.7163913 C4.20434783,6.32979198 3.89094715,6.0163913 3.50434783,6.0163913 C3.1177485,6.0163913 2.80434783,6.32979198 2.80434783,6.7163913 Z" id="Path" stroke="#000000" stroke-width="0.75" stroke-linecap="round" stroke-linejoin="round"></path>
        <polyline id="Path" stroke="#000000" stroke-width="0.75" stroke-linecap="round" stroke-linejoin="round" points="9.4 0.5 9.4 3 12.4 3"></polyline>
        <g id="Group" transform="translate(5.42, 3.700000)" fill-rule="nonzero" stroke="#000000" stroke-linecap="round" stroke-linejoin="round" stroke-width="0.7">
            <g>
                <path d="M9.9,3.89032258 L4.5,9.29032258 L4.5,6.29032258 L1.5,6.29032258 L6.9,0.890322581 C7.5017316,0.189955547 8.32207792,0.356955881 9.36103896,1.39132358 C10.4,2.42569128 10.5796537,3.25869095 9.9,3.89032258 Z" id="Path-49-Copy" fill="#FFFFFF"></path>
                <polygon id="Path" fill="#FFFFFF" points="1.5 6.29032258 0.7 10.0903226 4.5 9.29032258 4.5 6.29032258"></polygon>
                <polygon id="Path-52" fill="#000000" points="1.3 8.09032258 2.8 9.59032258 0.8 10.0903226"></polygon>
                <line x1="4.5" y1="6.29032258" x2="9.2" y2="1.59032258" id="Path-53"></line>
            </g>
        </g>
    </g>
</svg>