# Blender v2.79 (sub 0) OBJ File: 'rail.blend'
# www.blender.org
mtllib rails.mtl
o rail_Plane
v 500 -4.398962 74.032715
v -500 -4.398962 74.032715
v -500 2.483839 74.032715
v 500 2.483839 74.032715
v 500 6.493205 72.478981
v -500 6.493205 72.478981
v -500 6.683248 73.476387
v 500 6.683248 73.476387
v 500 -5.562019 70.377800
v -500 -5.562020 70.377800
v -500 -4.398962 74.032715
v 500 -4.398961 74.032715
v 500 2.483839 74.032715
v -500 2.483839 74.032715
v -500 3.509541 71.735336
v 500 3.509541 71.735336
v -500 -6.702252 -68.139740
v -500 -6.702250 -81.539734
v 500 -6.702250 -81.539734
v 500 -6.702252 -68.139740
v 500 5.676023 77.852554
v -500 5.676023 77.852554
v -500 3.509540 77.944138
v 500 3.509540 77.944138
v 500 2.483839 75.646759
v -500 2.483839 75.646759
v -500 -4.398962 75.646759
v 500 -4.398962 75.646759
v -500 6.702251 74.839737
v 500 6.702251 74.839737
v -500 6.683248 76.203087
v 500 6.683248 76.203087
v 500 -5.790073 81.539734
v -500 -5.790073 81.539734
v -500 -6.702276 81.539734
v 500 -6.702276 81.539734
v -500 2.483839 75.646759
v 500 2.483839 75.646759
v -500 5.676024 71.826920
v 500 5.676024 71.826920
v 500 -4.398962 75.646759
v -500 -4.398962 75.646759
v -500 -5.562022 79.301674
v 500 -5.562021 79.301674
v 500 6.493205 77.200493
v -500 6.493205 77.200493
v 500 -5.790071 68.139740
v -500 -5.790071 68.139740
v 500 -6.702274 68.139740
v -500 -6.702274 68.139740
v 500 -4.398937 -75.646759
v -500 -4.398938 -75.646759
v -500 2.483863 -75.646759
v 500 2.483863 -75.646759
v 500 6.493229 -77.200500
v -500 6.493229 -77.200500
v -500 6.683272 -76.203087
v 500 6.683272 -76.203087
v 500 -5.561995 -79.301674
v -500 -5.561995 -79.301674
v -500 -4.398937 -75.646759
v 500 -4.398938 -75.646759
v 500 2.483863 -75.646759
v -500 2.483863 -75.646759
v -500 3.509566 -77.944145
v 500 3.509566 -77.944145
v 500 5.676048 -71.826927
v -500 5.676048 -71.826927
v -500 3.509565 -71.735329
v 500 3.509565 -71.735329
v 500 2.483863 -74.032715
v -500 2.483863 -74.032715
v -500 -4.398937 -74.032715
v 500 -4.398937 -74.032715
v -500 6.702276 -74.839737
v 500 6.702276 -74.839737
v -500 6.683272 -73.476387
v 500 6.683272 -73.476387
v 500 -5.790049 -68.139740
v -500 -5.790049 -68.139740
v -500 2.483863 -74.032715
v 500 2.483863 -74.032715
v -500 5.676049 -77.852547
v 500 5.676049 -77.852547
v 500 -4.398937 -74.032715
v -500 -4.398938 -74.032715
v -500 -5.561996 -70.377800
v 500 -5.561996 -70.377800
v 500 6.493229 -72.478973
v -500 6.493229 -72.478973
v 500 -5.790047 -81.539734
v -500 -5.790047 -81.539734
vn 1 -0 0
vn -1 0 0
vn 0 0 -1
vn 0 0.8563 -0.5165
vn 0 0.9949 -0.1009
vn -0 0.9791 -0.2034
vn -0 0.9529 -0.3032
vn 0 -0.9131 -0.4077
vn 0 -0.5264 -0.8503
vn 0 -0.7071 0.7071
vn 0 -0.7071 -0.7071
vn 0 0.3503 0.9366
vn 0 -0.5264 0.8503
vn 0 0 1
vn 0 1 0
vn 0 0.9949 0.1009
vn 0 0.6703 0.7421
vn 0 -0.9131 0.4077
vn 0 0.3503 -0.9366
vn -0 0.9529 0.3032
vn -0 0.9791 0.2034
vn 0 0.8563 0.5165
vn -0 0.6703 -0.7421
usemtl metal
s off
f 13//1 16//1 40//1 5//1 8//1 30//1 32//1 45//1 21//1 24//1 38//1
f 25//1 28//1 1//1 4//1
f 41//1 44//1 9//1 12//1
f 44//1 33//1 36//1 49//1 47//1 9//1
f 31//2 29//2 7//2 6//2 39//2 15//2 14//2 37//2 23//2 22//2 46//2
f 2//2 27//2 26//2 3//2
f 10//2 43//2 42//2 11//2
f 35//2 34//2 43//2 10//2 48//2 50//2
f 77//2 75//2 57//2 56//2 83//2 65//2 64//2 81//2 69//2 68//2 90//2
f 52//2 73//2 72//2 53//2
f 60//2 87//2 86//2 61//2
f 17//2 80//2 87//2 60//2 92//2 18//2
f 63//1 66//1 84//1 55//1 58//1 76//1 78//1 89//1 67//1 70//1 82//1
f 71//1 74//1 51//1 54//1
f 85//1 88//1 59//1 62//1
f 88//1 79//1 20//1 19//1 91//1 59//1
s 1
f 1//3 2//3 3//3 4//3
f 5//4 6//4 7//5 8//5
f 9//6 10//6 11//7 12//7
f 13//8 14//8 15//9 16//9
f 17//10 18//11 19//11 20//10
f 21//12 22//12 23//13 24//13
f 25//14 26//14 27//14 28//14
f 8//5 7//5 29//15 30//15
f 30//15 29//15 31//16 32//16
f 33//17 34//17 35//10 36//10
f 24//13 23//13 37//18 38//18
f 16//9 15//9 39//19 40//19
f 41//20 42//20 43//21 44//21
f 45//22 46//22 22//12 21//12
f 47//23 48//23 10//6 9//6
f 32//16 31//16 46//22 45//22
f 49//11 50//11 48//23 47//23
f 40//19 39//19 6//4 5//4
f 44//21 43//21 34//17 33//17
f 51//3 52//3 53//3 54//3
f 55//4 56//4 57//5 58//5
f 59//6 60//6 61//7 62//7
f 63//8 64//8 65//9 66//9
f 67//12 68//12 69//13 70//13
f 71//14 72//14 73//14 74//14
f 58//5 57//5 75//15 76//15
f 76//15 75//15 77//16 78//16
f 79//17 80//17 17//10 20//10
f 70//13 69//13 81//18 82//18
f 66//9 65//9 83//19 84//19
f 85//20 86//20 87//21 88//21
f 89//22 90//22 68//12 67//12
f 91//23 92//23 60//6 59//6
f 78//16 77//16 90//22 89//22
f 19//11 18//11 92//23 91//23
f 84//19 83//19 56//4 55//4
f 88//21 87//21 80//17 79//17
f 35//10 50//11 49//11 36//10
