# pwdRamp.obj Produced by Blender
#
# Created by Emmanuel Puybaret / eTeks for Sweet Home 3D
#
# This file is distributed under Free Art License, see http://artlibre.org/licence/lal/en for more informations
# and under CC-BY Creative Commons Attribution 3.0 Unported license, see http://creativecommons.org/licenses/by/3.0/
# at your choice
#
mtllib pwdRamp.mtl
o Cube
v -37.5 -17.099 58.679
v -37.5 -16.84 58.319
v -37.5 -0.1 -60
v -37.5 0.1 -59.605
v 37.5 -17.099 58.679
v 37.5 -16.84 58.319
v 37.5 -0.1 -60
v 37.5 0.1 -59.605
v 37.5 -17.099 58.679
v 37.5 -0.1 -60
v 37.759 -17.099 58.679
v 37.8 -17.042 58.599
v 37.8 -0.056 -59.913
v 37.759 -0.1 -60
v 37.5 -13.92 54.215
v 37.552 -13.822 53.906
v 37.8 -13.92 54.215
v 37.748 -13.822 53.906
v 37.552 2.4 -54.778
v 37.5 2.351 -55.098
v 37.8 2.351 -55.098
v 37.748 2.4 -54.778
v -37.498 -17.099 58.679
v -37.498 -0.1 -60
v -37.757 -17.099 58.679
v -37.798 -17.042 58.599
v -37.798 -0.056 -59.913
v -37.757 -0.1 -60
v -37.498 -13.92 54.215
v -37.55 -13.822 53.906
v -37.798 -13.92 54.215
v -37.746 -13.822 53.906
v -37.55 2.4 -54.778
v -37.498 2.351 -55.098
v -37.798 2.351 -55.098
v -37.746 2.4 -54.778
v -37.5 -0.1 -50
v -37.5 0.098 -49.969
v 37.5 -0.1 -50
v 37.5 0.098 -49.969
v 37.5 -0.1 -50
v 37.8 -0.057 -49.993
v 37.759 -0.1 -50
v 37.5 2.321 -49.621
v 37.552 2.37 -49.614
v 37.8 2.321 -49.621
v 37.748 2.37 -49.614
v -37.498 -0.1 -50
v -37.798 -0.057 -49.993
v -37.757 -0.1 -50
v -37.498 2.321 -49.621
v -37.55 2.37 -49.614
v -37.798 2.321 -49.621
v -37.746 2.37 -49.614
v -37.5 0.1 -50.001
v 37.552 2.4 -50.001
v 37.8 2.351 -50.001
v -37.55 2.4 -50.001
v -37.798 2.351 -50.001
v 37.5 0.1 -50.001
v 37.8 -0.056 -50.001
v 37.5 2.351 -50.001
v 37.748 2.4 -50.001
v -37.798 -0.056 -50.001
v -37.498 2.351 -50.001
v -37.746 2.4 -50.001
vt 0 0
vt 0.0001 0.21
vt 1.4999 0.21
vt 1.4999 2.39331
vt 0.0001 2.39331
vt 0.0001 0.5984
vt 1.4999 0.5984
vt 1.4999 1.19671
vt 0.0001 1.19671
vt 0.0001 0.0001
vt 1.4999 0.0001
vn -1 0 0
vn 0 0.8923 -0.4515
vn 1 0 0
vn 0 0.8118 0.584
vn 0 -0.988 -0.1545
vn 0 0.988 0.1545
vn 0 0.9972 0.0747
vn 0 -1 0
vn 0 1 0
vn 0 0.8146 0.5801
vn 0.7287 -0.6766 -0.1058
vn 0 0.8944 -0.4472
vn -0.687 0.7179 0.1123
vn 0 0.9531 0.3027
vn 0.687 0.7267 0
vn 0 0.9884 -0.1518
vn -0.7287 -0.6766 -0.1058
vn 0.687 0.7179 0.1123
vn -0.687 0.7266 0
vn 0.686 0.7255 0.0562
vn -0.7287 -0.6848 0
vn -0.6859 0.7255 0.0562
vn 0.7287 -0.6848 0
vn -0.687 0.7267 0
vn 0.6871 0.7266 0
vn 0 0.997 0.0773
vn 0.6859 0.7255 0.0562
usemtl Ramp
s off
f 37/1/1 38/1/1 55/1/1 4/1/1 3/1/1
f 3/1/2 4/1/2 8/1/2 7/1/2
f 39/1/3 40/1/3 6/1/3 5/1/3
f 5/1/4 6/1/4 2/1/4 1/1/4
f 37/1/5 39/1/5 5/1/5 1/1/5
f 40/2/6 38/3/6 2/4/6 6/5/6
f 60/6/7 55/7/7 38/8/7 40/9/7
f 3/1/8 7/1/8 39/1/8 37/1/8
f 7/1/3 8/1/3 60/1/3 40/1/3 39/1/3
f 1/1/1 2/1/1 38/1/1 37/1/1
f 8/10/9 4/11/9 55/3/9 60/2/9
usemtl Border
f 9//10 11//10 12//10 17//10 15//10
f 42//3 46//3 17//3 12//3
f 56//9 63//9 22//9 19//9
f 41//5 43//5 11//5 9//5
f 42//11 12//11 11//11 43//11
f 20//12 21//12 13//12 14//12 10//12
f 44//13 15//13 16//13 45//13
f 15//14 17//14 18//14 16//14
f 57//15 21//15 22//15 63//15
f 21//16 20//16 19//16 22//16
f 44//1 41//1 9//1 15//1
f 23//10 29//10 31//10 26//10 25//10
f 49//1 26//1 31//1 53//1
f 58//9 33//9 36//9 66//9
f 48//5 23//5 25//5 50//5
f 49//17 50//17 25//17 26//17
f 34//12 24//12 28//12 27//12 35//12
f 51//18 52//18 30//18 29//18
f 29//14 30//14 32//14 31//14
f 59//19 66//19 36//19 35//19
f 35//16 36//16 33//16 34//16
f 51//3 29//3 23//3 48//3
f 34//3 65//3 51//3 48//3 24//3
f 31//13 32//13 54//13 53//13
f 65//20 58//20 52//20 51//20
f 27//21 28//21 50//21 49//21 64//21
f 24//8 48//8 50//8 28//8
f 30//6 52//6 54//6 32//6
f 64//1 49//1 53//1 59//1
f 20//1 10//1 41//1 44//1 62//1
f 17//18 46//18 47//18 18//18
f 62//22 44//22 45//22 56//22
f 13//23 61//23 42//23 43//23 14//23
f 10//8 14//8 43//8 41//8
f 16//6 18//6 47//6 45//6
f 61//3 57//3 46//3 42//3
f 13//3 21//3 57//3 61//3
f 20//24 62//24 56//24 19//24
f 27//1 64//1 59//1 35//1
f 34//25 33//25 58//25 65//25
f 53//22 54//22 66//22 59//22
f 52//26 58//26 66//26 54//26
f 46//27 57//27 63//27 47//27
f 45//26 47//26 63//26 56//26
