<?xml version="1.0" encoding="UTF-8"?>
<svg width="16px" height="16px" viewBox="0 0 16 16" version="1.1" xmlns="http://www.w3.org/2000/svg" xmlns:xlink="http://www.w3.org/1999/xlink">
    <title>fichier/document-print-pdf</title>
    <g id="fichier/document-print-pdf" stroke="none" stroke-width="1" fill="none" fill-rule="evenodd">
        <g id="Group" fill="#DDDDDD" fill-rule="nonzero" opacity="0">
            <g id="Rectangle-Copy-25">
                <rect x="0" y="0" width="16" height="16"></rect>
            </g>
        </g>
        <polyline id="Path" stroke="#000000" fill="#FFFFFF" fill-rule="nonzero" stroke-linecap="round" stroke-linejoin="round" points="10.5 7.5 15.5 7.5 15.5 15.5 0.5 15.5 0.5 7.5 6.5 7.5"></polyline>
        <line x1="8.5" y1="5.5" x2="8.5" y2="0.5" id="Path-4" stroke="#000000" stroke-linecap="round" stroke-linejoin="round" fill-rule="nonzero"></line>
        <line x1="8.5" y1="6.5" x2="4.5" y2="3.5" id="Path-5" stroke="#000000" stroke-linecap="round" stroke-linejoin="round" fill-rule="nonzero"></line>
        <line x1="8.5" y1="6.5" x2="12.5" y2="3.5" id="Path-6" stroke="#000000" stroke-linecap="round" stroke-linejoin="round" fill-rule="nonzero"></line>
        <path d="M2.23113329,14.1375977 C2.55447314,14.1375977 2.74246142,13.9345703 2.74246142,13.5886719 L2.74246142,12.3404297 L3.71624071,12.3404297 C4.81785204,12.3404297 5.51340868,11.7125488 5.51340868,10.6522949 C5.51340868,9.6371582 4.82537157,8.96791992 3.75759814,8.96791992 L2.460479,8.96791992 C1.93035204,8.96791992 1.7273247,9.17470703 1.7273247,9.70859375 L1.7273247,13.5886719 C1.7273247,13.9345703 1.91155321,14.1375977 2.23113329,14.1375977 Z M3.39290087,11.5508789 L2.74246142,11.5508789 L2.74246142,9.7800293 L3.6297661,9.7800293 C4.18621142,9.7800293 4.50203173,10.1033691 4.50203173,10.667334 C4.50203173,11.3215332 4.18245165,11.5508789 3.39290087,11.5508789 Z M7.94115576,14.1 C9.44130224,14.1 10.2346128,13.2126953 10.2346128,11.5358398 C10.2346128,9.85522461 9.44130224,8.96791992 7.94115576,8.96791992 L6.74555029,8.96791992 C6.29437842,8.96791992 6.06879248,9.18222656 6.06879248,9.61835938 L6.06879248,13.4495605 C6.06879248,13.8856934 6.29437842,14.1 6.74555029,14.1 L7.94115576,14.1 Z M7.81332373,13.2690918 L7.0839292,13.2690918 L7.0839292,9.79506836 L7.81332373,9.79506836 C8.75326513,9.79506836 9.19691748,10.3515137 9.19691748,11.5358398 C9.19691748,12.7126465 8.7570249,13.2690918 7.81332373,13.2690918 Z M11.7178774,14.1375977 C12.0374575,14.1375977 12.2179263,13.9383301 12.2179263,13.5886719 L12.2179263,12.0584473 L13.9173403,12.0584473 C14.1767642,12.0584473 14.3497134,11.8967773 14.3497134,11.6486328 C14.3497134,11.4004883 14.1805239,11.2388184 13.9173403,11.2388184 L12.2179263,11.2388184 L12.2179263,9.80634766 L14.1090884,9.80634766 C14.3647524,9.80634766 14.5414614,9.64091797 14.5414614,9.38901367 C14.5414614,9.14086914 14.3647524,8.96791992 14.1090884,8.96791992 L11.8795474,8.96791992 C11.4246157,8.96791992 11.2027896,9.18598633 11.2027896,9.61835937 L11.2027896,13.5886719 C11.2027896,13.9345703 11.3945376,14.1375977 11.7178774,14.1375977 Z" id="PDF" fill="#000000" fill-rule="nonzero"></path>
    </g>
</svg>