<?xml version="1.0" encoding="UTF-8"?>
<svg width="16px" height="16px" viewBox="0 0 16 16" version="1.1" xmlns="http://www.w3.org/2000/svg" xmlns:xlink="http://www.w3.org/1999/xlink">
    <title>meubles/furniture-modify</title>
    <g id="meubles/furniture-modify" stroke="none" stroke-width="1" fill="none" fill-rule="evenodd">
        <g id="Group" fill="#DDDDDD" fill-rule="nonzero" opacity="0">
            <g id="Rectangle-Copy-25">
                <rect x="0" y="0" width="16" height="16"></rect>
            </g>
        </g>
        <polyline id="Path-2" stroke="#000000" fill="#FFFFFF" fill-rule="nonzero" stroke-linecap="round" stroke-linejoin="round" transform="translate(2.500000, 5.000000) scale(-1, 1) translate(-2.500000, -5.000000) " points="4.5 8.5 4.5 3.5 0.5 1.5 0.5 6.5"></polyline>
        <g id="chaise" transform="translate(0.000000, 5.245147)" fill-rule="nonzero">
            <g id="Group-14" transform="matrix(-0.97399147,0,0,1,7.8049361,0)">
                <polygon id="Path" fill="#FFFFFF" transform="matrix(0.5,-0.8660254,-0.8660254,-0.5,4.6895956,8.1226178)" points="5.6291905 0.0048387097 1.8971396 2.4689403 1.8708095 6.4951905 5.3612412 4.4689403"></polygon>
                <polyline id="Path" stroke="#000000" stroke-linecap="round" stroke-linejoin="round" transform="matrix(-1,0,0,1,6.2,0)" points="3.5 4.75485333 2.7 5.24517591 2.7 10.2451759"></polyline>
                <line x1="7.5" y1="8.24517591" x2="7.5" y2="3.24517591" id="Path" stroke="#000000" fill="#FFFFFF" stroke-linecap="round" stroke-linejoin="round"></line>
                <polyline id="Path" stroke="#000000" stroke-linecap="round" stroke-linejoin="round" transform="matrix(0.5,-0.8660254,-0.8660254,-0.5,5.1515543,8.9227537)" points="4.4586018 6.21327657 5.82320048 5.26907717 6.09114967 0.804975555 2.35909886 3.26907717"></polyline>
            </g>
        </g>
        <g id="Group" transform="translate(5.3878977,1)" fill-rule="nonzero" stroke="#000000" stroke-linecap="round" stroke-linejoin="round" stroke-width="0.7">
            <g>
                <path d="M9.9,3.89032258 L4.5,9.29032258 L4.5,6.29032258 L1.5,6.29032258 L6.9,0.890322581 C7.5017316,0.189955547 8.32207792,0.356955881 9.36103896,1.39132358 C10.4,2.42569128 10.5796537,3.25869095 9.9,3.89032258 Z" id="Path-49-Copy" fill="#FFFFFF"></path>
                <polygon id="Path" fill="#FFFFFF" points="1.5 6.29032258 0.7 10.0903226 4.5 9.29032258 4.5 6.29032258"></polygon>
                <polygon id="Path-52" fill="#000000" points="1.3 8.09032258 2.8 9.59032258 0.8 10.0903226"></polygon>
                <line x1="4.5" y1="6.29032258" x2="9.2" y2="1.59032258" id="Path-53"></line>
            </g>
        </g>
        <line x1="8.5" y1="13" x2="8.5" y2="12" id="Path" stroke="#000000" fill="#FFFFFF" fill-rule="nonzero" stroke-linecap="round" stroke-linejoin="round"></line>
    </g>
</svg>