<?xml version="1.0" encoding="UTF-8"?>
<svg width="16px" height="16px" viewBox="0 0 16 16" version="1.1" xmlns="http://www.w3.org/2000/svg" xmlns:xlink="http://www.w3.org/1999/xlink">
    <title>video/media-playback-pause</title>
    <g id="video/media-playback-pause" stroke="none" stroke-width="1" fill="none" fill-rule="evenodd">
        <g id="Group" fill="#DDDDDD" fill-rule="nonzero" opacity="0">
            <g id="Rectangle-Copy-25">
                <rect x="0" y="0" width="16" height="16"></rect>
            </g>
        </g>
        <path d="M2.5,1.5 L5.5,1.5 C6.05228475,1.5 6.5,1.94771525 6.5,2.5 L6.5,13.5 C6.5,14.0522847 6.05228475,14.5 5.5,14.5 L2.5,14.5 C1.94771525,14.5 1.5,14.0522847 1.5,13.5 L1.5,2.5 C1.5,1.94771525 1.94771525,1.5 2.5,1.5 Z" id="Path-57-Copy" stroke="#000000" stroke-width="0.75" fill="#FFFFFF" fill-rule="nonzero" stroke-linecap="round" stroke-linejoin="round"></path>
        <path d="M10.5450634,1.5 L13.5450634,1.5 C14.0973482,1.5 14.5450634,1.94771525 14.5450634,2.5 L14.5450634,13.5 C14.5450634,14.0522847 14.0973482,14.5 13.5450634,14.5 L10.5450634,14.5 C9.99277868,14.5 9.54506343,14.0522847 9.54506343,13.5 L9.54506343,2.5 C9.54506343,1.94771525 9.99277868,1.5 10.5450634,1.5 Z" id="Path-57-Copy-2" stroke="#000000" stroke-width="0.75" fill="#FFFFFF" fill-rule="nonzero" stroke-linecap="round" stroke-linejoin="round"></path>
    </g>
</svg>