<?xml version="1.0" encoding="UTF-8"?>
<svg width="16px" height="16px" viewBox="0 0 16 16" version="1.1" xmlns="http://www.w3.org/2000/svg" xmlns:xlink="http://www.w3.org/1999/xlink">
    <title>plan/plan-show-background-image</title>
    <g id="plan/plan-show-background-image" stroke="none" stroke-width="1" fill="none" fill-rule="evenodd">
        <g id="Group" fill="#DDDDDD" fill-rule="nonzero" opacity="0">
            <g id="Rectangle-Copy-25">
                <rect x="0" y="0" width="16" height="16"></rect>
            </g>
        </g>
        <polyline id="Path" fill="#FFFFFF" fill-rule="nonzero" transform="translate(8.000000, 10.750000) scale(-1, 1) translate(-8.000000, -10.750000) " points="14.8616382 12.3081911 15.5 15.5 0.5 15.5 1.67372796 9.63136018 2.5 6 13.5 6"></polyline>
        <polyline id="Path" stroke="#000000" fill="#FFFFFF" fill-rule="nonzero" stroke-linecap="round" stroke-linejoin="round" transform="translate(8.000000, 12.565680) scale(-1, 1) translate(-8.000000, -12.565680) " points="14.8616382 12.3081911 15.5 15.5 0.5 15.5 1.67372796 9.63136018"></polyline>
        <polyline id="Path-3" stroke="#757575" stroke-linecap="round" stroke-linejoin="round" fill-rule="nonzero" points="3.5 12 3.5 13.5 12.5 13.5 12.5 12.5"></polyline>
        <g id="Group" fill-rule="nonzero" stroke="#000000" stroke-linecap="round" stroke-linejoin="round" stroke-width="0.76">
            <g>
                <path d="M8,10.5 C10.7805556,10.5 13.1138889,8.83333333 15,5.5 C13.1138889,2.16666667 10.7805556,0.5 8,0.5 C5.21944444,0.5 2.88611111,2.16666667 1,5.5 C2.88611111,8.83333333 5.21944444,10.5 8,10.5 Z" id="Oval-Copy-2" fill="#FFFFFF"></path>
                <path d="M8,8.5 C9.64534832,8.5 11,7.18753674 11,5.5 C11,3.81246326 9.64534832,2.5 8,2.5 C6.35465168,2.5 5,3.81246326 5,5.5 C5,7.18753674 6.35465168,8.5 8,8.5 Z" id="Oval-Copy"></path>
            </g>
        </g>
    </g>
</svg>