<?xml version="1.0" encoding="UTF-8"?>
<svg width="16px" height="16px" viewBox="0 0 16 16" version="1.1" xmlns="http://www.w3.org/2000/svg" xmlns:xlink="http://www.w3.org/1999/xlink">
    <title>plan/plan-modify-dimension-lines</title>
    <g id="plan/plan-modify-dimension-lines" stroke="none" stroke-width="1" fill="none" fill-rule="evenodd">
        <g id="Group" transform="translate(1.000000, 1.000000)" fill="#DDDDDD" fill-rule="nonzero" opacity="0">
            <g id="Rectangle-Copy-25">
                <rect x="0" y="0" width="16" height="16"></rect>
            </g>
        </g>
        <g id="Group-5" transform="translate(0.500000, 8.000000)" fill-rule="nonzero" stroke="#000000" stroke-linecap="round" stroke-linejoin="round">
            <line x1="-1.13686838e-13" y1="4.5" x2="16" y2="4.5" id="Path-27-Copy-2"></line>
            <line x1="13" y1="4.5" x2="13" y2="8.5" id="Path-30-Copy-8"></line>
            <line x1="13" y1="2" x2="13" y2="4" id="Path-30-Copy-10"></line>
            <line x1="11" y1="7" x2="15" y2="2.5" id="Path-29-Copy-2"></line>
            <line x1="2" y1="4.5" x2="2" y2="8.5" id="Path-30-Copy-9"></line>
            <line x1="2" y1="2" x2="2" y2="4" id="Path-30-Copy-11"></line>
            <line x1="-1.13686838e-13" y1="7" x2="4" y2="2.5" id="Path-29-Copy-3"></line>
        </g>
        <g id="Group" transform="translate(4.000000, 0.000000)" fill-rule="nonzero" stroke="#000000" stroke-linecap="round" stroke-linejoin="round" stroke-width="0.7">
            <g>
                <path d="M9.9,3.89032258 L4.5,9.29032258 L4.5,6.29032258 L1.5,6.29032258 L6.9,0.890322581 C7.5017316,0.189955547 8.32207792,0.356955881 9.36103896,1.39132358 C10.4,2.42569128 10.5796537,3.25869095 9.9,3.89032258 Z" id="Path-49-Copy" fill="#FFFFFF"></path>
                <polygon id="Path" fill="#FFFFFF" points="1.5 6.29032258 0.7 10.0903226 4.5 9.29032258 4.5 6.29032258"></polygon>
                <polygon id="Path-52" fill="#000000" points="1.3 8.09032258 2.8 9.59032258 0.8 10.0903226"></polygon>
                <line x1="4.5" y1="6.29032258" x2="9.2" y2="1.59032258" id="Path-53"></line>
            </g>
        </g>
    </g>
</svg>