<?xml version="1.0" encoding="UTF-8"?>
<svg width="16px" height="16px" viewBox="0 0 16 16" version="1.1" xmlns="http://www.w3.org/2000/svg" xmlns:xlink="http://www.w3.org/1999/xlink">
    <title>plan/plan-join-walls</title>
    <g id="plan/plan-join-walls" stroke="none" stroke-width="1" fill="none" fill-rule="evenodd">
        <g id="Group" transform="translate(0.000000, 0.000000)" fill="#DDDDDD" fill-rule="nonzero" opacity="0">
            <g id="Rectangle-Copy-25">
                <rect x="0" y="0" width="16" height="16"></rect>
            </g>
        </g>
        <g id="Group" fill="#DDDDDD" fill-rule="nonzero" opacity="0">
            <g id="Rectangle-Copy-25">
                <rect x="0" y="0" width="16" height="16"></rect>
            </g>
        </g>
        <polygon id="Path" stroke="#000000" fill="#FFFFFF" fill-rule="nonzero" stroke-linecap="round" stroke-linejoin="round" points="10.5 12.5 10.5 1 15.5 3.5 15.5 15.5"></polygon>
        <polygon id="Path-23-Copy" stroke="#000000" fill="#DDDDDD" fill-rule="nonzero" stroke-linecap="round" stroke-linejoin="round" points="4.5 0.2 4.5 11.5 0.5 15.5 0.5 3.2"></polygon>
        <g id="Group" transform="translate(7.300000, 2.500000)" fill-rule="nonzero" stroke="#000000" stroke-linecap="round" stroke-linejoin="round">
            <g id="fleche-bas" transform="translate(2.500000, 4.000000) scale(-1, 1) rotate(-90.000000) translate(-2.500000, -4.000000) ">
                <line x1="2.5" y1="-7.81597009e-14" x2="2.5" y2="7" id="Path-2-Copy-5" transform="translate(2.500000, 3.500000) rotate(-180.000000) translate(-2.500000, -3.500000) "></line>
                <path d="M4.26776695,3.23223305 L4.26776695,6.76776695 C1.91074435,6.76776695 0.732233047,6.76776695 0.732233047,6.76776695" id="Rectangle-Copy-53" transform="translate(2.500000, 5.000000) rotate(-315.000000) translate(-2.500000, -5.000000) "></path>
            </g>
        </g>
    </g>
</svg>