<?xml version="1.0" encoding="UTF-8"?>
<svg width="16px" height="16px" viewBox="0 0 16 16" version="1.1" xmlns="http://www.w3.org/2000/svg" xmlns:xlink="http://www.w3.org/1999/xlink">
    <title>plan/plan-export-svg</title>
    <g id="plan/plan-export-svg" stroke="none" stroke-width="1" fill="none" fill-rule="evenodd">
        <g id="Group" fill="#DDDDDD" fill-rule="nonzero" opacity="0">
            <g id="Rectangle-Copy-25">
                <rect x="0" y="0" width="16" height="16"></rect>
            </g>
        </g>
        <polyline id="Path" stroke="#000000" fill="#FFFFFF" fill-rule="nonzero" stroke-linecap="round" stroke-linejoin="round" points="10.5 7.5 15.5 7.5 15.5 15.5 0.5 15.5 0.5 7.5 6.5 7.5"></polyline>
        <path d="M3.67854589,14 C4.93241955,14 5.7,13.4302644 5.7,12.5141294 C5.7,11.8122151 5.2852205,11.3928897 4.39368296,11.1969006 L3.47830751,10.9963537 C3.01108462,10.8915223 2.7965435,10.704649 2.7965435,10.3947129 C2.7965435,10.0118505 3.12550656,9.77028259 3.66901073,9.77028259 C4.05041716,9.77028259 4.32693683,9.87967183 4.6749702,10.1804923 C4.8942789,10.3582498 4.99916567,10.4038286 5.14696067,10.4038286 C5.39964243,10.4038286 5.56650775,10.2579763 5.56650775,10.0255242 C5.56650775,9.7657247 5.36626937,9.50136737 5.02777116,9.31449407 C4.67020262,9.10938924 4.2125149,9 3.72145411,9 C2.53432658,9 1.77151371,9.57885141 1.77151371,10.4630811 C1.77151371,11.1558797 2.20059595,11.5843209 3.11120381,11.7803099 L3.97890346,11.9717411 C4.4318236,12.0674567 4.67020262,12.295351 4.67020262,12.6007293 C4.67020262,12.9881495 4.31263409,13.2251595 3.73575685,13.2251595 C3.27806913,13.2251595 2.9205006,13.0793072 2.58200238,12.7739289 C2.38653159,12.5961714 2.27210965,12.532361 2.12431466,12.532361 C1.86686532,12.532361 1.7,12.691887 1.7,12.9380128 C1.7,13.2297174 1.90977354,13.4986326 2.28164482,13.6946217 C2.65351609,13.8906108 3.14934446,14 3.67854589,14 Z" id="Path" fill="#000000" fill-rule="nonzero"></path>
        <path d="M8.08442714,14 C8.49377086,14 8.64949944,13.8320896 8.91646274,13.0531716 L10.0332592,9.80223881 C10.0822024,9.67164179 10.1,9.57369403 10.1,9.48973881 C10.1,9.20522388 9.89977753,9 9.62391546,9 C9.37030033,9 9.21012236,9.15391791 9.11668521,9.50373134 L8.09332592,12.9972015 L8.05328142,12.9972015 L7.11001112,9.49906716 C7.02992214,9.15858209 6.86529477,9 6.59388209,9 C6.30912125,9 6.1,9.20988806 6.1,9.49440299 C6.1,9.58302239 6.11779755,9.68097015 6.15784205,9.79757463 L7.23459399,13.0531716 C7.48375973,13.8227612 7.6483871,14 8.08442714,14 Z" id="Path" fill="#000000" fill-rule="nonzero"></path>
        <line x1="8.5" y1="5.5" x2="8.5" y2="0.5" id="Path-4" stroke="#000000" stroke-linecap="round" stroke-linejoin="round" fill-rule="nonzero"></line>
        <line x1="8.5" y1="6.5" x2="4.5" y2="3.5" id="Path-5" stroke="#000000" stroke-linecap="round" stroke-linejoin="round" fill-rule="nonzero"></line>
        <line x1="8.5" y1="6.5" x2="12.5" y2="3.5" id="Path-6" stroke="#000000" stroke-linecap="round" stroke-linejoin="round" fill-rule="nonzero"></line>
        <path d="M12.5636734,14.1047852 C13.7163101,14.1047852 14.5184585,13.3821289 14.5184585,12.3487305 L14.5184585,11.9512695 C14.5184585,11.546582 14.3341812,11.3623047 13.9186539,11.3623047 L12.9322281,11.3623047 C12.661232,11.3623047 12.5094742,11.4923828 12.5094742,11.7272461 C12.5094742,11.9621094 12.6648453,12.0958008 12.9322281,12.0958008 L13.5898453,12.0958008 L13.5898453,12.406543 C13.5898453,12.934082 13.1923843,13.2881836 12.5998062,13.2881836 C11.8590835,13.2881836 11.4399429,12.7823242 11.4399429,11.8826172 L11.4399429,11.2141602 C11.4399429,10.3036133 11.8446304,9.81220703 12.5889664,9.81220703 C13.0839859,9.81220703 13.3911148,10.0868164 13.6801773,10.4698242 C13.7849624,10.6035156 13.882521,10.6577148 14.023439,10.6577148 C14.2583023,10.6577148 14.4245132,10.4951172 14.4245132,10.2530273 C14.4245132,9.99287109 14.229396,9.68212891 13.933107,9.44003906 C13.5826187,9.13652344 13.098439,8.97392578 12.5239273,8.97392578 C11.2339859,8.97392578 10.4607437,9.80859375 10.4607437,11.1744141 L10.4607437,11.8862305 C10.4607437,13.2737305 11.2448257,14.1047852 12.5636734,14.1047852 Z" id="G" fill="#000000" fill-rule="nonzero"></path>
    </g>
</svg>