<?xml version="1.0" encoding="UTF-8"?>
<svg width="16px" height="16px" viewBox="0 0 16 16" version="1.1" xmlns="http://www.w3.org/2000/svg" xmlns:xlink="http://www.w3.org/1999/xlink">
    <title>meubles/sort-by</title>
    <defs>
        <path d="M11.0109863,1.453125 C11.5075684,1.453125 11.7712402,1.68164063 11.9602051,2.24414063 L11.9602051,2.24414063 L13.4719238,6.57714844 C13.5334473,6.76611328 13.564209,6.91113281 13.564209,7.03417969 C13.564209,7.35058594 13.3400879,7.55273438 13.001709,7.55273438 C12.6809082,7.55273438 12.4963379,7.38574219 12.3776855,6.97705078 L12.3776855,6.97705078 L12.0393066,5.95751953 L9.93432617,5.95751953 L9.6003418,6.97705078 C9.47729492,7.39013672 9.30151367,7.55273438 8.98510742,7.55273438 C8.65991211,7.55273438 8.43579102,7.35498047 8.43579102,7.05615234 C8.43579102,6.9375 8.46655273,6.80126953 8.54125977,6.57714844 L8.54125977,6.57714844 L10.0529785,2.24414063 C10.2419434,1.68603516 10.5100098,1.453125 11.0109863,1.453125 Z M11.0197754,2.6484375 L10.9626465,2.6484375 L10.197998,5.07421875 L11.7800293,5.07421875 L11.0197754,2.6484375 Z" id="path-1"></path>
        <path d="M12.762207,15 C13.0566406,15 13.2675781,14.8022461 13.2675781,14.5166016 C13.2675781,14.2265625 13.0610352,14.0288086 12.7666016,14.0288086 L10.1606445,14.0288086 L10.1606445,13.9628906 L12.621582,10.5615234 C13.034668,10.0078125 13.1357422,9.81884766 13.1357422,9.5859375 C13.1357422,9.22558594 12.894043,9.00146484 12.5073242,9.00146484 L9.35644531,9.00146484 C9.05761719,9.00146484 8.85107422,9.19482422 8.85107422,9.48925781 C8.85107422,9.77929688 9.05322266,9.97265625 9.35644531,9.97265625 L11.7602539,9.97265625 L11.7602539,10.0385742 L9.25537109,13.453125 C8.83789062,14.0024414 8.74560547,14.1694336 8.74560547,14.3979492 C8.74560547,14.7539062 9.00927734,15 9.39599609,15 L12.762207,15 Z" id="path-3"></path>
    </defs>
    <g id="meubles/sort-by" stroke="none" stroke-width="1" fill="none" fill-rule="evenodd">
        <g id="Group" fill="#DDDDDD" fill-rule="nonzero" opacity="0">
            <g id="Rectangle-Copy-25">
                <rect x="0" y="0" width="16" height="16"></rect>
            </g>
        </g>
        <g id="Group" transform="translate(2.000000, 1.500000)" fill-rule="nonzero" stroke="#000000" stroke-linecap="round" stroke-linejoin="round">
            <g id="fleche-bas">
                <line x1="2.5" y1="-1.17239551e-13" x2="2.5" y2="12.5" id="Path-2-Copy-5" transform="translate(2.500000, 6.250000) rotate(-180.000000) translate(-2.500000, -6.250000) "></line>
                <path d="M4.26776695,8.73223305 L4.26776695,12.267767 C1.91074435,12.267767 0.732233047,12.267767 0.732233047,12.267767" id="Rectangle-Copy-53" transform="translate(2.500000, 10.500000) rotate(-315.000000) translate(-2.500000, -10.500000) "></path>
            </g>
        </g>
        <mask id="mask-2" fill="white">
            <use xlink:href="#path-1"></use>
        </mask>
        <use id="Combined-Shape" fill="#000000" fill-rule="nonzero" xlink:href="#path-1"></use>
        <mask id="mask-4" fill="white">
            <use xlink:href="#path-3"></use>
        </mask>
        <use id="Path" fill="#000000" fill-rule="nonzero" xlink:href="#path-3"></use>
    </g>
</svg>