# Blender v2.79 (sub 0) OBJ File: 'square-switch.blend'
# www.blender.org
mtllib square-switch.mtl
o plug-TypeG_Cube.001
v 4.250813 -3.201175 0.001766
v 3.201175 -4.250813 0.001766
v 4.250813 -0.000000 0.326634
v 4.250813 -0.000000 0.001766
v 3.201175 4.250813 0.001766
v 4.250813 3.201175 0.001766
v 4.250813 4.250813 0.001766
v 4.250813 3.201175 0.309185
v 3.201175 4.250813 0.309185
v 4.250813 4.250813 0.309185
v 0.000000 4.250813 0.001766
v 0.000000 4.250813 0.326632
v -4.250813 -0.000000 0.326634
v -3.201175 4.250813 0.001766
v -4.250813 3.201175 0.001766
v -4.250813 4.250813 0.001766
v -4.250813 3.201175 0.309185
v -3.201175 4.250813 0.309185
v -4.250813 4.250813 0.309185
v 4.250813 -4.250813 0.001766
v 4.250813 -3.201175 0.309185
v 3.201175 -4.250813 0.309185
v 4.250813 -4.250813 0.309185
v -0.000000 -4.250813 0.001766
v -0.000000 -4.250813 0.326647
v -4.250813 -0.000000 0.001766
v 0.000000 -0.000000 0.001766
v -3.201175 -4.250813 0.001766
v -4.250813 -3.201175 0.001766
v -4.250813 -4.250813 0.001766
v -4.250813 -3.201175 0.309185
v -3.201175 -4.250813 0.309185
v -4.250813 -4.250813 0.309185
v 3.201175 -0.000000 0.444195
v 3.201175 -0.000000 0.001766
v -3.201175 -0.000000 0.444195
v -3.201175 -0.000000 0.001766
v 3.201175 -3.201172 0.001766
v -0.000000 -3.201175 0.001766
v -3.201175 -3.201175 0.001766
v 0.000000 3.201174 0.001766
v 3.201175 3.201182 0.001766
v -3.201175 3.201178 0.001766
v -1.600587 4.250813 0.001766
v -1.600587 -4.250813 0.001766
v -1.600587 -4.250813 0.309185
v -1.600587 4.250813 0.309185
v -1.600587 -3.201175 0.001766
v -1.600587 3.201176 0.001766
v 1.600587 4.250813 0.001766
v 1.600587 -4.250813 0.001766
v 1.600587 -4.250813 0.309185
v 1.600587 4.250813 0.309185
v 1.600587 -3.201174 0.001766
v 1.600587 3.201178 0.001766
v -4.250813 1.600587 0.309185
v 4.250813 1.600587 0.001766
v 4.250813 1.600587 0.309185
v 0.000000 1.600587 0.001766
v -4.250813 1.600587 0.001766
v 3.201175 1.600591 0.001766
v -3.201175 1.600589 0.001766
v -1.600587 1.600588 0.001766
v 1.600587 1.600589 0.001766
v 4.250813 -1.600587 0.001766
v 4.250813 -1.600587 0.309185
v -0.000000 -1.600588 0.001766
v -4.250813 -1.600587 0.001766
v -4.250813 -1.600587 0.309185
v -3.201175 -1.600588 0.001766
v 3.201175 -1.600586 0.001766
v -1.600587 -1.600588 0.001766
v 1.600587 -1.600587 0.001766
v -3.201175 -1.600584 0.392292
v 3.201175 -1.600642 0.392288
v 0.000000 3.201212 0.444193
v -1.600587 3.201164 0.392293
v 3.201175 3.201119 0.309185
v -3.201175 3.201213 0.309185
v 1.600587 3.201212 0.392289
v 3.201175 1.600584 0.392293
v -3.201175 1.600584 0.392293
v -2.447174 1.032752 0.139931
v 2.447174 1.032752 0.139931
v -2.447174 -0.886820 0.139931
v 2.447174 -0.886820 0.139931
v 2.668055 -2.615463 0.360466
v 2.651706 -2.651706 0.359329
v 2.614751 -2.668055 0.358817
v 2.668055 1.600553 0.409582
v 2.668055 1.334028 0.418225
v 2.668055 -0.000000 0.470320
v 2.668055 -1.334028 0.418223
v 2.668055 -1.600604 0.409578
v 1.600587 -2.668055 0.389816
v -0.000000 -2.668055 0.443692
v 1.334028 -2.668055 0.392724
v -1.334028 -2.668055 0.392723
v -1.600587 -2.668055 0.389815
v -2.668055 -1.334028 0.418224
v -2.668055 -1.600575 0.409581
v -2.668055 -0.000000 0.470320
v -2.614623 -2.668055 0.358818
v -2.651706 -2.651706 0.359331
v -2.668055 -2.615463 0.360467
v 1.600587 2.668055 0.409580
v 2.651706 2.651706 0.366244
v 2.614751 2.668055 0.367314
v 2.668055 2.614367 0.367334
v 1.334028 2.668055 0.418224
v 0.000000 2.668055 0.470319
v -1.334028 2.668055 0.418224
v -1.600587 2.668055 0.409581
v -2.668055 1.600598 0.409580
v -2.668055 1.334028 0.418224
v -2.651706 2.651706 0.366246
v -2.614623 2.668055 0.367322
v -2.668055 2.614367 0.367336
v -1.600587 -0.000111 0.001766
v 1.600587 -0.000111 0.001766
v -0.776795 2.447174 0.139931
v -0.776795 -2.447174 0.139931
v 0.776689 2.447174 0.139931
v 0.776689 -2.447174 0.139931
v 0.206816 -2.668055 0.435790
v 0.206816 2.668055 0.462243
v -0.189697 2.447174 0.139931
v -0.189697 -2.447174 0.139931
v 0.189694 2.447174 0.139931
v 0.189694 -2.447174 0.139931
v -0.206819 -2.668055 0.435790
v -0.206819 2.668055 0.462243
v -2.447174 2.397931 0.139931
v -2.398165 2.447174 0.139931
v -2.432178 2.432178 0.139931
v 0.846793 -2.668055 0.411339
v 0.846793 2.668055 0.437251
v -2.447174 1.223587 0.139931
v -2.447174 1.468089 0.139931
v -0.846909 -2.668055 0.411335
v -1.468079 2.447174 0.139931
v -1.223587 2.447174 0.139931
v 0.000000 2.447174 0.139931
v -0.846909 2.668055 0.437247
v 1.223587 2.447174 0.139931
v 2.447174 2.397931 0.139931
v 2.398282 2.447174 0.139931
v 2.432178 2.432178 0.139931
v 1.468079 2.447174 0.139931
v -2.447174 -2.398936 0.139931
v -2.432178 -2.432178 0.139931
v -2.398165 -2.447174 0.139931
v -2.447174 -0.000000 0.139931
v -2.447174 -1.468067 0.139931
v -2.447174 -1.223587 0.139931
v -1.468079 -2.447174 0.139931
v 2.668055 -0.966864 0.432562
v -2.668055 -0.966864 0.432562
v -1.223587 -2.447174 0.139931
v 1.223587 -2.447174 0.139931
v -0.000000 -2.447174 0.139931
v 1.468079 -2.447174 0.139931
v 2.668055 1.125968 0.426350
v -2.668055 1.125968 0.426349
v 2.447174 -1.468094 0.139931
v 2.447174 -1.223587 0.139931
v 2.447174 -0.000000 0.139931
v 2.447174 1.223587 0.139931
v 2.447174 1.468047 0.139931
v 2.398282 -2.447174 0.139931
v 2.432178 -2.432178 0.139931
v 2.447174 -2.398936 0.139931
v 4.250813 4.250813 0.309185
v 4.250813 3.201175 0.309185
v 4.250813 3.201175 0.001766
v 4.250813 4.250813 0.001766
v 3.201175 4.250813 0.001766
v 4.250813 -4.250813 0.309185
v 4.250813 -3.201175 0.309185
v -4.250813 4.250813 0.309185
v -4.250813 3.201175 0.309185
v -4.250813 3.201175 0.001766
v -4.250813 4.250813 0.001766
v -3.201175 4.250813 0.001766
v -4.250813 1.600587 0.309185
v -4.250813 -0.000000 0.326634
v -1.600587 4.250813 0.001766
v 1.600587 4.250813 0.001766
v 4.250813 -3.201175 0.001766
v 4.250813 -4.250813 0.001766
v -4.250813 -4.250813 0.309185
v -4.250813 -3.201175 0.309185
v 3.201175 -4.250813 0.309185
v 3.201175 -4.250813 0.001766
v 4.250813 -1.600587 0.001766
v 4.250813 -1.600587 0.309185
v 4.250813 -0.000000 0.326634
v -4.250813 -3.201175 0.001766
v -4.250813 -4.250813 0.001766
v -3.201175 -4.250813 0.309185
v -3.201175 -4.250813 0.001766
v -4.250813 -1.600587 0.001766
v -1.600587 -4.250813 0.001766
v 1.600587 -4.250813 0.001766
v 4.250813 1.600587 0.001766
v 4.250813 1.600587 0.309185
v -4.250813 1.600587 0.001766
v -4.250813 -1.600587 0.309185
v -1.600587 -4.250813 0.309185
v -1.600587 4.250813 0.309185
v -3.201175 4.250813 0.309185
v 1.600587 -4.250813 0.309185
v 1.600587 4.250813 0.309185
v 3.201175 4.250813 0.309185
v 0.000000 4.250813 0.001766
v -0.000000 -4.250813 0.001766
v -0.000000 -4.250813 0.326647
v 0.000000 4.250813 0.326632
v 4.250813 -0.000000 0.001766
v -4.250813 -0.000000 0.001766
v 2.668055 -1.600604 0.409578
v 2.668055 -2.615463 0.360466
v 2.651706 -2.651706 0.359329
v 2.614751 -2.668055 0.358817
v 2.668055 1.600553 0.409582
v 2.668055 1.334028 0.418225
v 2.668055 1.125968 0.426350
v 2.668055 -0.000000 0.470320
v 2.668055 -0.966864 0.432562
v 2.668055 -1.334028 0.418223
v 1.600587 -2.668055 0.389816
v 0.846793 -2.668055 0.411339
v 1.334028 -2.668055 0.392724
v -0.846909 -2.668055 0.411335
v -1.334028 -2.668055 0.392723
v -1.600587 -2.668055 0.389815
v -2.668055 -1.600575 0.409581
v -2.668055 -1.334028 0.418224
v -2.668055 -0.966864 0.432562
v -2.668055 -0.000000 0.470320
v -2.668055 -2.615463 0.360467
v -2.614623 -2.668055 0.358818
v -2.651706 -2.651706 0.359331
v 2.614751 2.668055 0.367314
v 1.600587 2.668055 0.409580
v 2.651706 2.651706 0.366244
v 2.668055 2.614367 0.367334
v 0.846793 2.668055 0.437251
v 1.334028 2.668055 0.418224
v -0.206819 2.668055 0.462243
v 0.000000 2.668055 0.470319
v -1.600587 2.668055 0.409581
v -1.334028 2.668055 0.418224
v -2.668055 1.600598 0.409580
v -2.668055 1.334028 0.418224
v -2.668055 1.125968 0.426349
v -2.614623 2.668055 0.367322
v -2.651706 2.651706 0.366246
v -2.668055 2.614367 0.367336
v -0.000000 -2.668055 0.443692
v 0.206816 -2.668055 0.435790
v 0.206816 2.668055 0.462243
v -0.206819 -2.668055 0.435790
v -0.846909 2.668055 0.437247
vn 0.0000 1.0000 0.0000
vn 1.0000 0.0000 0.0000
vn -1.0000 -0.0000 0.0000
vn 0.0000 -1.0000 0.0000
vn 0.0198 0.0129 0.9997
vn 0.0279 0.0279 0.9992
vn 0.0551 0.0322 0.9980
vn 0.0674 0.0237 0.9974
vn 0.0000 0.0000 -1.0000
vn -0.0198 0.0129 0.9997
vn -0.0674 0.0237 0.9974
vn -0.0551 0.0322 0.9980
vn -0.0279 0.0279 0.9992
vn -0.0674 -0.0186 0.9975
vn -0.0396 -0.0157 0.9991
vn -0.0251 -0.0268 0.9993
vn -0.0462 -0.0276 0.9985
vn 0.0165 -0.0491 0.9986
vn 0.0222 -0.0604 0.9979
vn 0.0000 -0.0604 0.9982
vn -0.0237 0.0674 0.9974
vn -0.0322 0.0551 0.9980
vn 0.0000 0.0672 0.9977
vn 0.0000 0.0951 0.9955
vn -0.0672 0.0000 0.9977
vn -0.0250 -0.0365 0.9990
vn -0.0393 -0.0351 0.9986
vn -0.0393 0.0000 0.9992
vn -0.0129 0.0198 0.9997
vn 0.0251 -0.0268 0.9993
vn 0.0462 -0.0276 0.9985
vn 0.0250 -0.0365 0.9990
vn 0.0107 -0.0379 0.9992
vn 0.0672 0.0000 0.9977
vn 0.0427 0.0407 0.9982
vn 0.0393 0.0351 0.9986
vn 0.0393 0.0000 0.9992
vn -0.0951 0.0000 0.9955
vn 0.0674 -0.0186 0.9975
vn 0.0951 0.0000 0.9955
vn -0.0407 0.0427 0.9982
vn -0.0351 0.0393 0.9986
vn 0.0000 0.0393 0.9992
vn -0.0427 0.0407 0.9982
vn -0.0462 0.0461 0.9979
vn 0.0322 0.0551 0.9980
vn 0.0129 0.0198 0.9997
vn 0.0237 0.0674 0.9974
vn 0.0000 0.0000 1.0000
vn -0.0222 -0.0604 0.9979
vn -0.0165 -0.0491 0.9986
vn 0.0393 -0.0351 0.9986
vn -0.0107 -0.0379 0.9992
vn -0.0393 0.0351 0.9986
vn 0.0351 0.0393 0.9986
vn 0.0407 0.0427 0.9982
vn 0.0462 0.0462 0.9979
vn 0.0395 -0.0157 0.9991
vn 0.0128 -0.7637 0.6454
vn 0.0113 -0.7867 0.6172
vn 0.0116 -0.7893 0.6138
vn 0.0120 -0.7700 0.6379
vn -0.7858 -0.0113 0.6184
vn -0.8034 -0.0121 0.5953
vn -0.8064 -0.0120 0.5913
vn -0.7880 -0.0117 0.6156
vn -0.7615 -0.0143 0.6480
vn -0.7686 -0.0129 0.6395
vn 0.0081 0.7396 0.6730
vn -0.1611 0.6198 0.7680
vn -0.0862 0.6730 0.7346
vn 0.0064 0.7444 0.6677
vn 0.4176 -0.4167 0.8074
vn 0.6439 -0.1515 0.7499
vn 0.6946 -0.0806 0.7148
vn 0.4178 -0.4165 0.8074
vn 0.7637 0.0128 0.6454
vn 0.7700 0.0120 0.6379
vn -0.0128 -0.7637 0.6454
vn 0.1523 -0.6434 0.7502
vn 0.0812 -0.6943 0.7151
vn -0.0120 -0.7700 0.6379
vn 0.7845 0.0114 0.6200
vn 0.8002 0.0122 0.5995
vn 0.8038 0.0121 0.5947
vn 0.7861 0.0117 0.6179
vn 0.7615 -0.0143 0.6480
vn 0.6337 0.1508 0.7588
vn 0.6874 0.0792 0.7219
vn 0.7686 -0.0129 0.6395
vn -0.6337 0.1508 0.7588
vn -0.6874 0.0792 0.7219
vn 0.8151 0.0000 0.5792
vn 0.8034 -0.0121 0.5953
vn 0.8064 -0.0120 0.5913
vn -0.1528 -0.6431 0.7504
vn -0.0815 -0.6941 0.7152
vn 0.0121 -0.8042 0.5943
vn 0.0120 -0.8063 0.5913
vn 0.4148 0.4017 0.8164
vn 0.1607 0.6200 0.7679
vn 0.0859 0.6731 0.7345
vn 0.4125 0.4039 0.8164
vn -0.8151 0.0000 0.5792
vn 0.0000 0.8052 0.5929
vn 0.0120 0.7975 0.6032
vn 0.0120 0.7978 0.6028
vn -0.7637 0.0128 0.6454
vn -0.6439 -0.1515 0.7499
vn -0.6946 -0.0806 0.7148
vn -0.7700 0.0120 0.6379
vn 0.0116 -0.8216 0.5699
vn 0.0000 -0.8283 0.5603
vn 0.0116 -0.8218 0.5696
vn -0.0113 -0.7867 0.6172
vn -0.0116 -0.7893 0.6138
vn -0.0116 -0.8216 0.5699
vn -0.0116 -0.8218 0.5696
vn 0.7858 -0.0113 0.6184
vn 0.7880 -0.0117 0.6156
vn -0.0074 0.7580 0.6521
vn -0.0125 0.7772 0.6291
vn -0.0125 0.7799 0.6258
vn -0.0092 0.7609 0.6487
vn -0.0081 0.7396 0.6730
vn -0.0064 0.7444 0.6677
vn 0.0125 0.7772 0.6291
vn 0.0125 0.7799 0.6258
vn -0.0121 -0.8042 0.5943
vn -0.0120 -0.8063 0.5913
vn 0.0074 0.7580 0.6521
vn 0.0092 0.7609 0.6487
vn -0.0120 0.7975 0.6032
vn -0.0120 0.7978 0.6028
vn -0.7845 0.0114 0.6200
vn -0.7861 0.0117 0.6179
vn -0.4179 -0.4164 0.8074
vn -0.4182 -0.4161 0.8074
vn -0.8002 0.0122 0.5995
vn -0.8038 0.0121 0.5947
vn -0.4151 0.4014 0.8164
vn -0.4129 0.4036 0.8164
usemtl whiteExterior
s off
f 188//1 213//1 214//1 177//1
f 174//2 175//2 176//2 173//2
f 173//1 176//1 177//1 214//1
f 57//2 206//2 197//2 219//2
f 187//1 184//1 211//1 210//1
f 181//3 180//3 183//3 182//3
f 180//1 211//1 184//1 183//1
f 60//3 220//3 186//3 185//3
f 204//4 194//4 193//4 212//4
f 179//2 178//2 190//2 189//2
f 178//4 193//4 194//4 190//4
f 65//2 219//2 197//2 196//2
f 203//4 209//4 32//4 201//4
f 31//3 198//3 199//3 33//3
f 33//4 199//4 201//4 32//4
f 68//3 208//3 186//3 220//3
f 216//4 217//4 209//4 203//4
f 215//1 187//1 210//1 218//1
f 216//4 204//4 212//4 217//4
f 215//1 218//1 213//1 188//1
f 182//3 60//3 185//3 181//3
f 175//2 174//2 206//2 57//2
f 198//3 31//3 208//3 68//3
f 189//2 65//2 196//2 179//2
s 1
f 8//5 78//6 81//7 58//8
f 50//9 5//9 42//9 55//9
f 17//10 56//11 82//12 79//13
f 44//9 49//9 43//9 14//9
f 51//9 54//9 38//9 2//9
f 69//14 192//15 191//15 200//16 74//17
f 45//9 28//9 40//9 48//9
f 52//18 231//18 233//19 136//19 261//19 96//20 25//20
f 47//21 77//22 76//23 12//24
f 70//9 40//9 29//9 202//9
f 2//9 38//9 1//9 20//9
f 61//9 42//9 6//9 205//9
f 14//9 43//9 15//9 16//9
f 195//9 71//9 35//9 4//9
f 207//9 62//9 37//9 26//9
f 6//9 42//9 5//9 7//9
f 36//25 74//17 237//26 100//27 158//27 240//28
f 18//29 79//13 77//22 47//21
f 24//9 45//9 48//9 39//9
f 11//9 41//9 49//9 44//9
f 22//30 75//31 221//32 222//33 223//33 89//33 231//18 52//18
f 34//34 81//7 225//35 226//36 163//36 228//37
f 24//9 39//9 54//9 51//9
f 11//9 50//9 55//9 41//9
f 41//9 55//9 64//9 59//9
f 55//9 42//9 61//9 64//9
f 49//9 41//9 59//9 63//9
f 15//9 43//9 62//9 207//9
f 35//9 61//9 205//9 4//9
f 43//9 49//9 63//9 62//9
f 38//9 54//9 73//9 71//9
f 39//9 48//9 72//9 67//9
f 1//9 38//9 71//9 195//9
f 48//9 40//9 70//9 72//9
f 54//9 39//9 67//9 73//9
f 37//9 70//9 202//9 26//9
f 69//14 74//17 36//25 13//38
f 75//31 66//39 3//40 34//34
f 29//9 40//9 28//9 30//9
f 76//23 77//22 252//41 253//42 144//42 132//42 251//43
f 77//22 79//13 82//12 254//44 259//45 116//45 117//45 252//41
f 80//46 78//6 9//47 53//48
f 76//23 80//46 53//48 12//24
f 79//13 18//29 19//49 17//10
f 58//8 81//7 34//34 3//40
f 82//12 56//11 13//38 36//25
f 96//20 131//50 140//50 98//50 236//51 46//51 25//20
f 228//37 157//52 93//52 221//32 75//31 34//34
f 236//51 242//53 104//53 105//53 237//26 74//17 200//16 46//51
f 240//28 164//54 255//54 254//44 82//12 36//25
f 251//43 126//55 248//55 110//55 106//56 80//46 76//23
f 106//56 108//57 107//57 247//57 225//35 81//7 78//6 80//46
f 35//9 120//9 64//9 61//9
f 27//9 59//9 64//9 120//9
f 27//9 119//9 63//9 59//9
f 37//9 62//9 63//9 119//9
f 37//9 119//9 72//9 70//9
f 27//9 67//9 72//9 119//9
f 27//9 120//9 73//9 67//9
f 35//9 71//9 73//9 120//9
f 78//6 8//5 10//49 9//47
f 21//58 66//39 75//31 22//30 23//58
usemtl holes
f 245//59 249//60 145//61 149//62
f 230//63 229//64 86//65 166//66
f 94//67 230//63 166//66 165//68
f 95//69 224//70 170//71 162//72
f 258//73 118//74 133//75 135//76
f 118//74 114//77 139//78 133//75
f 113//79 257//80 134//81 141//82
f 115//83 256//84 83//85 138//86
f 101//87 241//88 150//89 154//90
f 87//91 94//67 165//68 172//92
f 102//93 239//94 85//95 153//93
f 244//96 245//59 149//62 147//97
f 249//60 137//98 123//99 145//61
f 243//100 103//101 152//102 151//103
f 229//64 92//104 167//104 86//65
f 260//105 125//106 130//107 161//105
f 241//88 243//100 151//103 150//89
f 90//108 109//109 146//110 169//111
f 262//112 111//113 143//113 129//114
f 256//84 102//93 153//93 83//85
f 114//77 115//83 138//86 139//78
f 137//98 262//112 129//114 123//99
f 112//115 113//79 141//82 142//116
f 111//113 250//117 127//118 143//113
f 238//119 101//87 154//90 155//120
f 235//121 234//122 122//123 159//124
f 99//125 235//121 159//124 156//126
f 125//106 232//127 124//128 130//107
f 264//129 112//115 142//116 121//130
f 103//101 99//125 156//126 152//102
f 257//80 258//73 135//76 134//81
f 97//131 95//69 162//72 160//132
f 234//122 263//133 128//134 122//123
f 263//133 260//105 161//105 128//134
f 91//135 90//108 169//111 168//136
f 109//109 246//137 148//138 146//110
f 250//117 264//129 121//130 127//118
f 239//94 238//119 155//120 85//95
f 92//104 227//139 84//140 167//104
f 246//137 244//96 147//97 148//138
f 227//139 91//135 168//136 84//140
f 88//141 87//91 172//92 171//142
f 232//127 97//131 160//132 124//128
f 224//70 88//141 171//142 170//71
o switch_Cube.003
v -2.617697 -2.605470 1.133265
v -2.617700 2.606905 0.617505
v 2.617696 -2.605470 1.133265
v 2.617699 2.606905 0.617505
v -1.316925 2.621373 0.616079
v 0.000000 2.621373 0.616079
v 1.316924 2.621373 0.616079
v 1.316924 -2.621373 1.134840
v -0.000000 -2.621373 1.134840
v -1.316925 -2.621373 1.134840
v -2.633849 -1.310687 1.005150
v -2.633849 -0.000000 0.875459
v -2.633849 1.310687 0.745769
v 2.633849 1.310687 0.745769
v 2.633849 -0.000000 0.875459
v 2.633849 -1.310687 1.005150
v 2.581609 2.621373 0.616079
v 2.581609 -2.621373 1.134840
v 2.581609 1.310687 0.745769
v 2.581609 -0.000000 0.875459
v 2.581609 -1.310687 1.005150
v -2.633682 2.570074 0.621150
v 2.633681 2.570074 0.621150
v 1.316924 2.582737 0.619902
v 0.000000 2.582737 0.619902
v -1.316925 2.582737 0.619902
v 2.581609 2.582737 0.619902
v -2.581483 -2.621373 1.134840
v -2.581483 2.621373 0.616079
v -2.581483 1.310687 0.745769
v -2.581483 -0.000000 0.875459
v -2.581483 -1.310687 1.005150
v -2.581483 2.582737 0.619902
v 2.633551 -2.569640 1.129720
v 1.316924 -2.583596 1.131102
v -0.000000 -2.583596 1.131102
v -1.316925 -2.583596 1.131102
v -2.633551 -2.569640 1.129720
v 2.581609 -2.583596 1.131102
v -2.581483 -2.583596 1.131102
v 2.633551 -2.581730 0.250619
v 2.617697 -2.617712 0.250619
v 2.581609 -2.633849 0.250619
v 2.633849 1.580033 0.250620
v 2.633849 1.316925 0.250620
v 2.633849 -0.000000 0.250619
v 2.633849 -1.316925 0.250619
v 2.633849 -1.580083 0.250619
v 1.580067 -2.633849 0.250619
v -0.000000 -2.633849 0.250619
v 1.316925 -2.633849 0.250619
v -1.316925 -2.633849 0.250619
v -1.580067 -2.633849 0.250619
v -2.633849 -1.316925 0.250619
v -2.633849 -1.580055 0.250619
v -2.633849 -0.000000 0.250619
v -2.581483 -2.633849 0.250619
v -2.617697 -2.617712 0.250619
v -2.633551 -2.581730 0.250619
v 1.580067 2.633849 0.250620
v 2.617700 2.617636 0.250620
v 2.581609 2.633849 0.250620
v 2.633682 2.580840 0.250620
v 1.316925 2.633849 0.250620
v 0.000000 2.633849 0.250620
v -1.316925 2.633849 0.250620
v -1.580067 2.633849 0.250620
v -2.633849 1.580078 0.250620
v -2.633849 1.316925 0.250620
v -2.617700 2.617636 0.250620
v -2.581483 2.633849 0.250620
v -2.633682 2.580840 0.250620
v 1.316924 1.310687 0.745769
v 0.000000 1.310687 0.745769
v -1.316925 1.310687 0.745769
v 1.316924 -0.000000 0.875459
v 0.000000 -0.000000 0.875459
v -1.316925 -0.000000 0.875459
v 1.316924 -1.310687 1.005150
v -0.000000 -1.310687 1.005150
v -1.316925 -1.310687 1.005150
v -2.633682 2.570074 0.621150
v -2.617700 2.606905 0.617505
v 2.581609 2.621373 0.616079
v 2.617699 2.606905 0.617505
v 2.633551 -2.569640 1.129720
v 2.617696 -2.605470 1.133265
v -2.581483 -2.621373 1.134840
v -2.617697 -2.605470 1.133265
v -2.581483 2.621373 0.616079
v -1.316925 2.621373 0.616079
v 0.000000 2.621373 0.616079
v 1.316924 2.621373 0.616079
v 2.581609 -2.621373 1.134840
v 1.316924 -2.621373 1.134840
v -0.000000 -2.621373 1.134840
v -1.316925 -2.621373 1.134840
v -2.633551 -2.569640 1.129720
v -2.633849 -1.310687 1.005150
v -2.633849 -0.000000 0.875459
v -2.633849 1.310687 0.745769
v 2.633681 2.570074 0.621150
v 2.633849 1.310687 0.745769
v 2.633849 -0.000000 0.875459
v 2.633849 -1.310687 1.005150
vn 0.0000 0.0985 0.9951
vn -0.0001 0.0985 0.9951
vn 0.0001 0.0985 0.9951
vn -0.6999 0.7139 0.0221
vn -0.9782 0.2073 0.0060
vn -0.9822 0.1878 0.0055
vn -0.7179 0.6958 0.0215
vn -0.7059 -0.7082 0.0099
vn -0.2065 -0.9783 0.0137
vn -0.2046 -0.9787 0.0137
vn -0.6976 -0.7164 0.0100
vn -0.9781 -0.2081 0.0029
vn -0.9761 -0.2171 0.0030
vn -1.0000 0.0001 0.0000
vn 0.0000 -0.9999 0.0141
vn 0.0000 0.9994 0.0341
vn -0.1978 0.9797 0.0323
vn -0.2017 0.9789 0.0322
vn 1.0000 -0.0001 0.0000
vn 1.0000 0.0000 0.0000
vn 1.0000 0.0001 0.0000
vn 0.9782 0.2073 0.0060
vn 0.9822 0.1878 0.0055
vn -1.0000 0.0000 0.0000
vn 0.1984 0.9796 0.0323
vn 0.2023 0.9788 0.0322
vn 0.2071 -0.9782 0.0137
vn 0.7064 -0.7078 0.0099
vn 0.6980 -0.7160 0.0099
vn 0.2052 -0.9786 0.0137
vn -1.0000 -0.0001 0.0000
vn -1.0000 -0.0002 0.0000
vn 0.9781 -0.2081 0.0029
vn 0.9761 -0.2171 0.0030
vn 0.7004 0.7134 0.0221
vn 0.7183 0.6954 0.0215
vn 1.0000 -0.0002 0.0000
usemtl greyArgent
s 1
f 304//143 362//143 265//143 352//143
f 303//143 299//143 359//143 358//143
f 299//143 300//143 360//143 359//143
f 300//143 301//143 361//143 360//143
f 297//143 346//144 365//143 294//143
f 294//143 365//143 364//143 295//143
f 295//143 364//143 363//143 296//143
f 368//143 284//143 285//143 369//143
f 367//143 283//143 284//143 368//143
f 366//145 291//143 283//143 367//143
f 350//143 303//143 358//143 351//143
f 349//145 348//143 291//143 366//145
f 354//143 347//144 346//144 297//143
f 348//143 357//143 288//143 291//143
f 357//143 356//143 289//143 288//143
f 356//143 355//143 290//143 289//143
f 355//143 354//143 297//143 290//143
f 301//143 304//143 352//143 361//143
f 369//143 285//143 303//143 350//143
f 296//143 363//143 362//143 304//143
f 334//146 336//147 286//148 266//149
f 322//150 321//151 292//152 353//153
f 323//154 322//150 353//153 302//155
f 336//147 332//156 333//156 277//156 286//148
f 321//151 317//157 316//157 274//157 292//152
f 330//158 331//158 335//159 293//160 269//158
f 311//161 310//162 279//162 280//161
f 309//163 308//163 327//164 287//165 278//163
f 328//158 329//158 270//158 271//158
f 333//156 320//166 276//166 277//156
f 326//167 324//158 328//158 271//158 281//168
f 307//169 306//170 267//171 282//172
f 310//162 309//163 278//163 279//162
f 318//173 319//174 323//154 302//155 275//173
f 314//157 315//157 272//157 273//157
f 320//166 318//173 275//173 276//166
f 306//170 305//175 298//176 267//171
f 325//177 326//167 281//168 268//178
f 305//175 312//179 311//161 280//161 298//176
f 329//158 330//158 269//158 270//158
f 316//157 314//157 273//157 274//157
f 327//164 325//177 268//178 287//165
f 315//157 313//157 307//169 282//172 272//157
f 335//159 334//146 266//149 293//160
f 289//143 290//143 339//143 338//143
f 288//143 289//143 338//143 337//143
f 338//143 339//143 342//143 341//143
f 337//143 338//143 341//143 340//143
f 340//143 341//143 344//143 343//143
f 341//143 342//143 345//143 344//143
f 290//143 297//143 294//143 339//143
f 295//143 342//143 339//143 294//143
f 296//143 345//143 342//143 295//143
f 296//143 304//143 301//143 345//143
f 300//143 344//143 345//143 301//143
f 299//143 343//143 344//143 300//143
f 285//143 343//143 299//143 303//143
f 284//143 340//143 343//143 285//143
f 283//143 337//143 340//143 284//143
f 291//143 288//143 337//143 283//143
