<?xml version="1.0" encoding="UTF-8"?>
<svg width="16px" height="16px" viewBox="0 0 16 16" version="1.1" xmlns="http://www.w3.org/2000/svg" xmlns:xlink="http://www.w3.org/1999/xlink">
    <title>vue3D/camera-video</title>
    <g id="vue3D/camera-video" stroke="none" stroke-width="1" fill="none" fill-rule="evenodd">
        <g id="Group" fill="#DDDDDD" fill-rule="nonzero" opacity="0">
            <g id="Rectangle-Copy-25">
                <rect x="0" y="0" width="16" height="16"></rect>
            </g>
        </g>
        <path d="M9.5,12.5 L1.5,12.5 C0.94771525,12.5 0.5,12.0522847 0.5,11.5 L0.5,4.5 C0.5,3.94771525 0.94771525,3.5 1.5,3.5 L9.5,3.5 C10.0522847,3.5 10.5,3.94771525 10.5,4.5 L10.5,11.5 C10.5,12.0522847 10.0522847,12.5 9.5,12.5 Z" id="Path" stroke="#000000" stroke-width="0.75" fill="#FFFFFF" stroke-linecap="round" stroke-linejoin="round"></path>
        <line x1="3" y1="12.5" x2="2" y2="15.5" id="Path-11" stroke="#000000" stroke-width="0.75" stroke-linecap="round" stroke-linejoin="round" fill-rule="nonzero"></line>
        <line x1="8" y1="12.5" x2="9" y2="15.5" id="Path-14" stroke="#000000" stroke-width="0.75" stroke-linecap="round" stroke-linejoin="round" fill-rule="nonzero"></line>
        <path d="M2.4,6.8 C2.4,7.62842712 3.07157288,8.3 3.9,8.3 C4.72842712,8.3 5.4,7.62842712 5.4,6.8 C5.4,5.97157288 4.72842712,5.3 3.9,5.3 C3.07157288,5.3 2.4,5.97157288 2.4,6.8 Z" id="Path" stroke="#000000" stroke-width="0.75" stroke-linecap="round" stroke-linejoin="round"></path>
        <polyline id="Path" stroke="#000000" stroke-width="0.75" stroke-linecap="round" stroke-linejoin="round" transform="translate(5.500000, 7.750000) scale(-1, -1) translate(-5.500000, -7.750000) " points="8.5 5 2.5 5 2.5 10.5"></polyline>
        <path d="M14.1286093,10.4514437 L10.5,9 L10.5,9 L10.5,5.5 L14.1286093,4.04855627 C14.6413928,3.84344286 15.2233633,4.09285877 15.4284767,4.60564229 C15.4757248,4.72376256 15.5,4.84981353 15.5,4.97703296 L15.5,9.52296704 C15.5,10.0752518 15.0522847,10.522967 14.5,10.522967 C14.3727806,10.522967 14.2467296,10.4986918 14.1286093,10.4514437 Z" id="Path" stroke="#000000" stroke-width="0.75" fill="#FFFFFF" stroke-linecap="round" stroke-linejoin="round"></path>
        <line x1="13" y1="4.5" x2="13" y2="10" id="Path-54" stroke="#000000" stroke-width="0.75" stroke-linecap="round" stroke-linejoin="round" fill-rule="nonzero"></line>
    </g>
</svg>