<?xml version="1.0" encoding="UTF-8"?>
<svg width="16px" height="16px" viewBox="0 0 16 16" version="1.1" xmlns="http://www.w3.org/2000/svg" xmlns:xlink="http://www.w3.org/1999/xlink">
    <title>video/delete-last-record</title>
    <g id="video/delete-last-record" stroke="none" stroke-width="1" fill="none" fill-rule="evenodd">
        <g id="Group" fill="#DDDDDD" fill-rule="nonzero" opacity="0">
            <g id="Rectangle-Copy-25">
                <rect x="0" y="0" width="16" height="16"></rect>
            </g>
        </g>
        <line x1="0.5" y1="15.5" x2="15.5" y2="15.5" id="Path-67" stroke="#000000" stroke-width="0.75" stroke-linecap="round" stroke-linejoin="round" fill-rule="nonzero"></line>
        <path d="M1.24530162,11.2453016 L3,13 C4.40147147,14.4014715 6.65474755,14.4607272 8.12794166,13.1348525 L14.7165563,7.2050993 C15.1270663,6.83564029 15.1603448,6.20335045 14.7908857,5.79284043 C14.7791597,5.77981145 14.767093,5.76709304 14.7546984,5.75469838 L11.1708693,2.17086933 C10.7947876,1.79478764 10.1901261,1.7788865 9.79479782,2.13468196 L1.28344367,9.7949007 C0.87293365,10.1643597 0.839655238,10.7966496 1.20911426,11.2071596 C1.22084034,11.2201886 1.23290696,11.232907 1.24530162,11.2453016 Z" id="Path-68" stroke="#000000" stroke-width="0.75" fill="#FFFFFF" fill-rule="nonzero" stroke-linecap="round" stroke-linejoin="round"></path>
        <line x1="6.5" y1="5" x2="11.5" y2="10" id="Path-69" stroke="#000000" stroke-width="0.75" fill-rule="nonzero"></line>
    </g>
</svg>