<?xml version="1.0" encoding="UTF-8"?>
<svg width="16px" height="16px" viewBox="0 0 16 16" version="1.1" xmlns="http://www.w3.org/2000/svg" xmlns:xlink="http://www.w3.org/1999/xlink">
    <title>fichier/document-save-and-compress</title>
    <g id="fichier/document-save-and-compress" stroke="none" stroke-width="1" fill="none" fill-rule="evenodd">
        <g id="Group" fill="#DDDDDD" fill-rule="nonzero" opacity="0">
            <g id="Rectangle-Copy-25">
                <rect x="0" y="0" width="16" height="16"></rect>
            </g>
        </g>
        <polyline id="Path" stroke="#000000" fill="#FFFFFF" fill-rule="nonzero" stroke-linecap="round" stroke-linejoin="round" transform="translate(8.500000, 8.048076) scale(-1, 1) translate(-8.500000, -8.048076) " points="11.5 0.5 7.5 0.5 2.5 5.5 2.5 15.5961524 14.5 15.5961524 14.5 8.1"></polyline>
        <g id="Group" transform="translate(0.000000, 0.500000)" fill-rule="nonzero" stroke="#000000" stroke-linecap="round" stroke-linejoin="round">
            <g>
                <line x1="2.5" y1="-6.39488462e-14" x2="2.5" y2="5" id="Path-2-Copy-5" transform="translate(2.500000, 2.500000) rotate(-180.000000) translate(-2.500000, -2.500000) "></line>
                <path d="M4.26776695,1.23223305 L4.26776695,4.76776695 C1.91074435,4.76776695 0.732233047,4.76776695 0.732233047,4.76776695" id="Rectangle-Copy-53" transform="translate(2.500000, 3.000000) rotate(-315.000000) translate(-2.500000, -3.000000) "></path>
            </g>
        </g>
        <path d="M12.5,12.4 L12.5,6.9 M6.86954327,6.01142127 L4.5,6.9 L4.5,12.4 M8.5,13.9 L12.5,12.4 M4.5,12.4 L8.5,13.9" id="Combined-Shape" stroke="#8D8D8D" stroke-width="0.75" stroke-linecap="round" stroke-linejoin="round" fill-rule="nonzero"></path>
        <g id="Group-3" transform="translate(8.601696, 7.000000) scale(-1, 1) translate(-8.601696, -7.000000) translate(7.601696, 0.500000)">
            <path d="M1.00220238,5.5 C0.726060007,5.5 0.502202382,5.27614237 0.502202382,5 C0.502202382,4.72385763 0.726060007,4.5 1.00220238,4.5 C1.27834476,4.5 1.50220238,4.72385763 1.50220238,5 C1.50220238,5.27614237 1.27834476,5.5 1.00220238,5.5 Z" id="Path-Copy" fill="#000000"></path>
            <path d="M1.00220238,7.16666667 C0.726060007,7.16666667 0.502202382,6.94280904 0.502202382,6.66666667 C0.502202382,6.39052429 0.726060007,6.16666667 1.00220238,6.16666667 C1.27834476,6.16666667 1.50220238,6.39052429 1.50220238,6.66666667 C1.50220238,6.94280904 1.27834476,7.16666667 1.00220238,7.16666667 Z" id="Path-Copy-2" fill="#000000"></path>
            <path d="M1.00220238,8.83333333 C0.726060007,8.83333333 0.502202382,8.60947571 0.502202382,8.33333333 C0.502202382,8.05719096 0.726060007,7.83333333 1.00220238,7.83333333 C1.27834476,7.83333333 1.50220238,8.05719096 1.50220238,8.33333333 C1.50220238,8.60947571 1.27834476,8.83333333 1.00220238,8.83333333 Z" id="Path-Copy-3" fill="#000000"></path>
            <path d="M0.995536389,10.4999953 C0.719391995,10.4999953 0.495536389,10.2761437 0.495536389,9.99999532 C0.495536389,9.72385897 0.719391995,9.49999532 0.995536389,9.49999532 C1.12830569,9.49946705 1.25579332,9.55197388 1.34967758,9.64585814 C1.44356184,9.7397424 1.49606867,9.86723003 1.49553639,9.99999532 C1.49553639,10.2761437 1.27167674,10.4999953 0.995536389,10.4999953 Z" id="Path-Copy-4" fill="#000000"></path>
            <path d="M0.995536389,12.180662 C0.719391995,12.180662 0.495536389,11.9568104 0.495536389,11.680662 C0.495536389,11.4045256 0.719391995,11.180662 0.995536389,11.180662 C1.12830569,11.1801337 1.25579332,11.2326405 1.34967758,11.3265248 C1.44356184,11.4204091 1.49606867,11.5478967 1.49553639,11.680662 C1.49553639,11.9568104 1.27167674,12.180662 0.995536389,12.180662 Z" id="Path-Copy-5" fill="#000000"></path>
            <path d="M1.99153572,2.40733333 C2.02630225,2.68788384 1.93972079,2.96994052 1.75353572,3.18266667 C1.56832392,3.39396214 1.30118069,3.51539088 1.02020238,3.516 L0.978869049,3.516 C0.697890737,3.51539088 0.430747507,3.39396214 0.245535716,3.18266667 C0.0593506382,2.96994052 -0.02723082,2.68788384 0.00753571551,2.40733333 L0.245535716,-3.75995531e-14 L1.66553572,-3.75995531e-14 L1.99153572,2.40733333 Z" id="Path-Copy-7" stroke="#000000" stroke-width="0.75" stroke-linecap="round" stroke-linejoin="round"></path>
        </g>
    </g>
</svg>