<?xml version="1.0" encoding="UTF-8" standalone="no"?>
<svg width="16px" height="16px" viewBox="0 0 16 16" version="1.1" xmlns="http://www.w3.org/2000/svg" xmlns:xlink="http://www.w3.org/1999/xlink">
    <title>edition/edit-find</title>
  <g
     id="edition/edit-find"
     style="fill:none;stroke:none">
    <g
       id="Group"
       style="opacity:0;fill:#dddddd;fill-rule:nonzero">
      <g
         id="Rectangle-Copy-25">
        <rect
           width="16"
           height="16"
           x="0"
           y="0"
           id="rect9" />
      </g>
    </g>
    <g
       id="plan/zoom-avant-copy-3">
      <g
         id="g12"
         style="opacity:0;fill:#dddddd">
        <g
           id="g14">
          <rect
             width="16"
             height="16"
             x="0"
             y="0"
             id="rect16" />
        </g>
      </g>
      <path
         d="m 6.5,0.5 c 1.6568543,0 3.1568543,0.6715729 4.242641,1.7573593 C 11.828427,3.3431458 12.5,4.8431457 12.5,6.5 12.5,8.1568543 11.828427,9.6568543 10.742641,10.742641 9.6568543,11.828427 8.1568543,12.5 6.5,12.5 4.8431457,12.5 3.3431458,11.828427 2.2573593,10.742641 1.1715729,9.6568543 0.5,8.1568543 0.5,6.5 0.5,4.8431457 1.1715729,3.3431458 2.2573593,2.2573593 3.3431458,1.1715729 4.8431457,0.5 6.5,0.5 z"
         id="Oval-Copy-2"
         style="fill:#ffffff;stroke:#000000" />
      <path
         d="m 11.25766,10 4.192199,4.210213 0,0.0054 c 0,0.694586 -0.563073,1.257659 -1.25766,1.257659 l 0,0 0,0 L 10,11.263064 11.25766,10 z"
         id="Path-34-Copy-2"
         style="fill:#000000;stroke:#000000" />
    </g>
    <g
       transform="translate(3.6,2.2)"
       id="g20"
       style="fill:#ffffff;fill-rule:nonzero;stroke:#000000;stroke-width:0.75;stroke-linecap:round;stroke-linejoin:round">
      <g
         id="g22" />
    </g>
    <path
     d="M 3.2,4 9.2689655,4"
     id="path3008"
     style="fill:none;stroke:#000000;stroke-width:0.80000001;stroke-linecap:butt;stroke-linejoin:miter;stroke-miterlimit:4;stroke-opacity:1;stroke-dasharray:none" />
    <path
     d="m 3.2,6.5 4.6344828,0"
     id="path3010"
     style="fill:none;stroke:#000000;stroke-width:0.80000001;stroke-linecap:butt;stroke-linejoin:miter;stroke-miterlimit:4;stroke-opacity:1;stroke-dasharray:none" />
    <path
     d="M 3.2,9 9.7103448,9"
     id="path3012"
     style="fill:none;stroke:#000000;stroke-width:0.80000001;stroke-linecap:butt;stroke-linejoin:miter;stroke-miterlimit:4;stroke-opacity:1;stroke-dasharray:none" />
  </g>
</svg>
