<?xml version="1.0" encoding="UTF-8"?>
<svg width="16px" height="16px" viewBox="0 0 16 16" version="1.1" xmlns="http://www.w3.org/2000/svg" xmlns:xlink="http://www.w3.org/1999/xlink">
    <title>edition/edit-cut</title>
    <g id="edition/edit-cut" stroke="none" stroke-width="1" fill="none" fill-rule="evenodd">
        <g id="Group" fill="#DDDDDD" fill-rule="nonzero" opacity="0">
            <g id="Rectangle-Copy-25">
                <rect x="0" y="0" width="16" height="16"></rect>
            </g>
        </g>
        <path d="M11.5,14 C12.6045695,14 13.5,12.8807119 13.5,11.5 C13.5,10.1192881 12.6045695,9 11.5,9 C10.3954305,9 9.5,10.1192881 9.5,11.5 C9.5,12.8807119 10.3954305,14 11.5,14 Z" id="Oval-Copy-3" stroke="#000000" fill="#FFFFFF" fill-rule="nonzero" stroke-linecap="round" stroke-linejoin="round" transform="translate(11.500000, 11.500000) rotate(-30.000000) translate(-11.500000, -11.500000) "></path>
        <line x1="11" y1="9.5" x2="5.5" y2="0.5" id="Path-39" stroke="#000000" stroke-linecap="round" stroke-linejoin="round" fill-rule="nonzero" transform="translate(8.500000, 5.000000) scale(-1, 1) translate(-8.500000, -5.000000) "></line>
        <line x1="10" y1="9.5" x2="4.5" y2="0.5" id="Path-39" stroke="#000000" stroke-linecap="round" stroke-linejoin="round" fill-rule="nonzero"></line>
        <path d="M4.5,14 C5.6045695,14 6.5,12.8807119 6.5,11.5 C6.5,10.1192881 5.6045695,9 4.5,9 C3.3954305,9 2.5,10.1192881 2.5,11.5 C2.5,12.8807119 3.3954305,14 4.5,14 Z" id="Oval-Copy-3" stroke="#000000" fill="#FFFFFF" fill-rule="nonzero" stroke-linecap="round" stroke-linejoin="round" transform="translate(4.500000, 11.500000) scale(-1, 1) rotate(-30.000000) translate(-4.500000, -11.500000) "></path>
    </g>
</svg>