<?xml version="1.0" encoding="UTF-8"?>
<svg width="16px" height="16px" viewBox="0 0 16 16" version="1.1" xmlns="http://www.w3.org/2000/svg" xmlns:xlink="http://www.w3.org/1999/xlink">
    <title>plan/plan-create-polylines</title>
    <g id="plan/plan-create-polylines" stroke="none" stroke-width="1" fill="none" fill-rule="evenodd">
        <g id="Group" fill="#DDDDDD" fill-rule="nonzero" opacity="0">
            <g id="Rectangle-Copy-25">
                <rect x="0" y="0" width="16" height="16"></rect>
            </g>
        </g>
        <path d="M11,8 C12.3333333,8 13,8 13,8 C13,8 13,9 13,11 L16,11 L16,13 L13,13 L13,16 L11,16 L11,13 L8,13 L8,11 L11,11 L11,8 Z" id="Path-26-Copy-3" fill="#000000" fill-rule="nonzero"></path>
        <polyline id="Path" stroke="#000000" stroke-width="1.3" stroke-linecap="round" stroke-linejoin="round" fill-rule="nonzero"  transform="matrix(-1,0,0,-1,28.4,6.15)" points="15.4 5.5 13 3 15.4 0.5"></polyline>
        <path d="M9.47531011,2.99997719 C9.49163951,3.1644377 9.5,3.3312425 9.5,3.5 C9.5,6.26142375 7.26142375,8.5 4.5,8.5 C3.56485319,8.5 2.68966733,8.24327665 1.94107535,7.79646287 L4.5,3 Z" id="Combined-Shape" stroke="#757575" fill="#FFFFFF" fill-rule="nonzero" stroke-linecap="round" stroke-linejoin="round"></path>
        <polyline id="Path-27" stroke="#000000" stroke-width="1.5" stroke-linecap="round" stroke-linejoin="round" fill-rule="nonzero" points="0.5 10.5 4.5 3 12 3" transform="matrix(0.97948469,0,0,1.0018766,0.25322067,0.13733331)"></polyline>
    </g>
</svg>