<?xml version="1.0" encoding="UTF-8" standalone="no"?>
<svg width="16px" height="16px" viewBox="0 0 16 16" version="1.1" xmlns="http://www.w3.org/2000/svg" xmlns:xlink="http://www.w3.org/1999/xlink">
    <title>plan/plan-create-labels </title>  
    <g id="plan/plan-create-labels"
     style="fill:none;stroke:none">
    <g id="Group"
       style="opacity:0;fill:#dddddd;fill-rule:nonzero">
      <g
         id="Rectangle-Copy-25">
        <rect
           width="16"
           height="16"
           x="0"
           y="0"
           id="rect9" />
      </g>
    </g>
    <g
       transform="translate(-0.5,-3.5)"
       id="Group-7-Copy-3"
       style="fill:#000000">
      <path
         d="m 11.5,11.5 c 1.333333,0 2,0 2,0 0,0 0,1 0,3 l 3,0 0,2 -3,0 0,3 -2,0 0,-3 -3,0 0,-2 3,0 0,-3 z"
         id="Path-26-Copy-6"
         style="fill-rule:nonzero" />
    </g>
    <g transform="matrix(0.7799828,0,0,0.72691513,-0.15599656,-1.6142336)"
       id="GroupText"
       style="fill:#000000;fill-rule:nonzero">
      <path
         d="M 5.2658139,2.2206631 C 4.4773019,2.225098 4.0623084,2.5445828 3.6478741,3.8183503 L 0.40897356,13.45753 0.35668164,13.624164 0.27655824,13.909187 C 0.22270161,14.122847 0.2,14.281766 0.2,14.422742 c 0,0.465795 0.22910169,0.866847 0.947419,0.866847 0.6317866,0 0.9466418,-0.249407 1.1736546,-0.94308 l 0.047691,-0.155516 0.7206749,-2.188708 4.4204021,0 0.7339255,2.195177 c 0.2231206,0.794987 0.4870572,1.092127 1.2380947,1.092127 0.7091622,0 0.9924582,-0.466139 0.9747742,-0.914009 -0.0077,-0.194551 -0.03956,-0.427404 -0.123873,-0.725758 l -0.056,-0.187116 L 6.9509177,4.0168046 C 6.4488374,2.427085 6.0994231,2.2159745 5.2658139,2.2206631 z m 0,2.6986562 1.513494,5.1758827 -3.0269776,0 z"
       id="Path" />
    </g>
  </g>
</svg>
