<?xml version="1.0" encoding="UTF-8"?>
<svg width="16px" height="16px" viewBox="0 0 16 16" version="1.1" xmlns="http://www.w3.org/2000/svg" xmlns:xlink="http://www.w3.org/1999/xlink">
    <title>plan/plan-pan</title>
    <g id="plan/plan-pan" stroke="none" stroke-width="1" fill="none" fill-rule="evenodd">
        <g id="Group" fill="#DDDDDD" fill-rule="nonzero" opacity="0">
            <g id="Rectangle-Copy-25">
                <rect x="0" y="0" width="16" height="16"></rect>
            </g>
        </g>
        <path d="M6.5,15.5 L6.5,14.4367499 C6.5,13.8431902 6.23635398,13.280295 5.7803688,12.9003073 L3.91472689,11.3456057 C3.64310297,11.1192525 3.43634067,10.8249369 3.31550884,10.4926493 L1.84174306,6.43979342 C1.70954478,6.07624816 1.89708857,5.67436861 2.26063384,5.54217033 C2.33735534,5.5142716 2.41836344,5.5 2.5,5.5 L2.91967746,5.5 C3.27853431,5.5 3.60987775,5.69228606 3.78792061,6.00386106 L4.5,7.25 C4.64666719,7.50666758 4.97363462,7.59584052 5.2303022,7.44917333 C5.39707653,7.35387371 5.5,7.17651808 5.5,6.98443556 L5.5,2.5 C5.5,1.94771525 5.94771525,1.5 6.5,1.5 C7.05228475,1.5 7.5,1.94771525 7.5,2.5 L7.5,5.5 L7.5,5.5 L7.5,1.5 C7.5,0.94771525 7.94771525,0.5 8.5,0.5 C9.05228475,0.5 9.5,0.94771525 9.5,1.5 L9.5,5.5 L9.5,5.5 L9.5,2 C9.5,1.44771525 9.94771525,1 10.5,1 C11.0522847,1 11.5,1.44771525 11.5,2 L11.5,6 L11.5,6 L11.5,3.5 C11.5,2.94771525 11.9477153,2.5 12.5,2.5 C13.0522847,2.5 13.5,2.94771525 13.5,3.5 L13.5,10.6148352 C13.5,10.8692741 13.4514496,11.121376 13.3569534,11.3576165 L12.6430466,13.1423835 C12.5485504,13.378624 12.5,13.6307259 12.5,13.8851648 L12.5,15.5 L12.5,15.5" id="Path-19-Copy-6" stroke="#000000" stroke-width="0.72" fill="#FFFFFF" fill-rule="nonzero" stroke-linecap="round" stroke-linejoin="round"></path>
    </g>
</svg>