<?xml version="1.0" encoding="UTF-8" standalone="no"?>
<svg width="16px" height="16px" viewBox="0 0 16 16" version="1.1" xmlns="http://www.w3.org/2000/svg" xmlns:xlink="http://www.w3.org/1999/xlink">
  <title>plan/plan-create-dimension-lines </title>
  <g id="plan/plan-create-dimension-lines"
     style="fill:none;stroke:none">
    <g
       id="Group"
       style="opacity:0;fill:#dddddd;fill-rule:nonzero">
      <g
         id="Rectangle-Copy-25">
        <rect
           width="16"
           height="16"
           x="0"
           y="0"
           id="rect9" />
      </g>
    </g>
    <path
       d="m 7,8 c 1.3333333,0 2,0 2,0 0,0 0,1 0,3 l 3,0 0,2 -3,0 0,3 -2,0 0,-3 -3,0 0,-2 3,0 0,-3 z"
       id="Path-26-Copy-5"
       style="fill:#000000;fill-rule:nonzero" />
    <line
       x1="0.4848485"
       y1="6.5"
       x2="15.515152"
       y2="6.5"
       id="Path-27-Copy-2"
       style="stroke:#000000;stroke-width:0.98473191;stroke-linecap:round;stroke-linejoin:round" />
    <line
       x1="13.5"
       y1="6.5"
       x2="13.5"
       y2="10.5"
       id="Path-30-Copy-8"
       stroke="#000000"
       stroke-linecap="round"
       stroke-linejoin="round"
       fill-rule="nonzero"
       style="stroke:#000000;stroke-linecap:round;stroke-linejoin:round" />
    <line
       x1="13.5"
       y1="4"
       x2="13.5"
       y2="6"
       id="Path-30-Copy-10"
       stroke="#000000"
       stroke-linecap="round"
       stroke-linejoin="round"
       fill-rule="nonzero"
       style="stroke:#000000;stroke-linecap:round;stroke-linejoin:round" />
    <line
       x1="13.5"
       y1="13"
       x2="13.5"
       y2="15.5"
       id="Path-30-Copy-12"
       stroke="#757575"
       stroke-linecap="round"
       stroke-linejoin="round"
       fill-rule="nonzero"
       style="stroke:#757575;stroke-linecap:round;stroke-linejoin:round" />
    <line
       x1="11.5"
       y1="9"
       x2="15.5"
       y2="4.5"
       id="Path-29-Copy-2"
       stroke="#000000"
       stroke-linecap="round"
       stroke-linejoin="round"
       fill-rule="nonzero"
       style="stroke:#000000;stroke-linecap:round;stroke-linejoin:round" />
    <line
       x1="2.5"
       y1="6.5"
       x2="2.5"
       y2="10.5"
       id="Path-30-Copy-9"
       stroke="#000000"
       stroke-linecap="round"
       stroke-linejoin="round"
       fill-rule="nonzero"
       style="stroke:#000000;stroke-linecap:round;stroke-linejoin:round" />
    <line
       x1="2.5"
       y1="4"
       x2="2.5"
       y2="6"
       id="Path-30-Copy-11"
       stroke="#000000"
       stroke-linecap="round"
       stroke-linejoin="round"
       fill-rule="nonzero"
       style="stroke:#000000;stroke-linecap:round;stroke-linejoin:round" />
    <line
       x1="2.5"
       y1="13"
       x2="2.5"
       y2="15.5"
       id="Path-30-Copy-13"
       stroke="#757575"
       stroke-linecap="round"
       stroke-linejoin="round"
       fill-rule="nonzero"
       style="stroke:#757575;stroke-linecap:round;stroke-linejoin:round" />
    <line
       x1="0.5"
       y1="9"
       x2="4.5"
       y2="4.5"
       id="Path-29-Copy-3"
       stroke="#000000"
       stroke-linecap="round"
       stroke-linejoin="round"
       fill-rule="nonzero"
       style="stroke:#000000;stroke-linecap:round;stroke-linejoin:round" />
    <path d="m 5.603,1.6 1.2137931,-0.82 0,4.05"
       id="path3005"
       style="fill:none;stroke:#000000;stroke-width:0.77999997;stroke-linecap:butt;stroke-linejoin:miter;stroke-miterlimit:4;stroke-opacity:1;stroke-dasharray:none" />
    <path d="M 8.6274011,2.4310345 C 8.5722287,1.2448276 9.1963659,0.35862067 9.913607,0.41379309 c 0.744828,-0.0827586 1.394022,0.66867841 1.362068,2.15517241 0,1.1586207 -0.396551,2.0931034 -1.3896535,2.037931 C 9.0032629,4.6344827 8.5998149,3.4793104 8.6274011,2.4310345 z"
       id="path3007"
       style="fill:none;stroke:#000000;stroke-width:0.77999997;stroke-linecap:butt;stroke-linejoin:miter;stroke-miterlimit:4;stroke-opacity:1;stroke-dasharray:none" />
  </g>
</svg>
