# Blender v2.81 (sub 16) OBJ File: 'LATT_Children_s_table_w_2_chairs-sweethome3d.blend'
# www.blender.org
mtllib children_chair.mtl
o chair_Cube.001
v 11.068 -1.119 -16.052
v 11.068 5.381 -16.052
v 11.068 5.381 -14.492
v 11.068 -1.119 -14.492
v -12.128 5.381 -16.052
v -12.128 5.381 -14.492
v -12.128 -1.119 -16.052
v -12.128 -1.119 -14.492
v 11.068 -1.119 9.548
v 11.068 5.381 9.548
v 11.068 5.381 11.108
v 11.068 -1.119 11.108
v -12.128 5.381 9.548
v -12.128 5.381 11.108
v -12.128 -1.119 9.548
v -12.128 -1.119 11.108
v -12.551 -1.119 9.119
v -12.551 5.381 9.119
v -14.112 5.381 9.119
v -14.112 -1.119 9.119
v -12.551 5.381 -14.057
v -14.112 5.381 -14.057
v -12.551 -1.119 -14.057
v -14.112 -1.119 -14.057
v 13.049 -1.119 9.119
v 13.049 5.381 9.119
v 11.488 5.381 9.119
v 11.488 -1.119 9.119
v 13.049 5.381 -14.057
v 11.488 5.381 -14.057
v 13.049 -1.119 -14.057
v 11.488 -1.119 -14.057
v -12.131 5.5 11.53
v -14.531 5.5 11.53
v -14.531 -22.5 11.53
v -12.131 -22.5 11.53
v -14.531 5.5 9.13
v -14.531 -22.5 9.13
v -12.131 5.5 9.13
v -12.131 -22.5 9.13
v -12.131 28.5 -14.07
v -14.531 28.5 -14.07
v -14.531 -22.5 -14.07
v -12.131 -22.5 -14.07
v -14.531 28.5 -16.47
v -14.531 -22.5 -16.47
v -12.131 28.5 -16.47
v -12.131 -22.5 -16.47
v 13.469 28.5 -14.07
v 11.069 28.5 -14.07
v 11.069 -22.5 -14.07
v 13.469 -22.5 -14.07
v 11.069 28.5 -16.47
v 11.069 -22.5 -16.47
v 13.469 28.5 -16.47
v 13.469 -22.5 -16.47
v 13.469 5.5 11.53
v 11.069 5.5 11.53
v 11.069 -22.5 11.53
v 13.469 -22.5 11.53
v 11.069 5.5 9.13
v 11.069 -22.5 9.13
v 13.469 5.5 9.13
v 13.469 -22.5 9.13
v 11.068 21.398 -16.052
v 11.068 27.898 -16.052
v 11.068 27.898 -14.492
v 11.068 21.398 -14.492
v -12.128 27.898 -16.052
v -12.128 27.898 -14.492
v -12.128 21.398 -16.052
v -12.128 21.398 -14.492
v 11.67 4.411 9.716
v 11.67 4.801 9.716
v -12.702 4.801 9.716
v -12.702 4.411 9.716
v 11.67 4.801 -14.656
v -12.702 4.801 -14.656
v 11.67 4.411 -14.656
v -12.702 4.411 -14.656
vt -0.14592 0.5154
vt 0.02031 0.5154
vt 0.02031 0.56227
vt -0.14592 0.56227
vt 0.30485 0.656
vt -0.14592 0.656
vt -0.14592 0.60913
vt 0.30485 0.60913
vt 0.18654 0.56227
vt 0.18654 0.5154
vt 0.30485 0.56227
vt -0.14592 0.62196
vt -0.14592 0.52378
vt 0.30485 0.52378
vt 0.30485 0.62196
vt -0.14592 0.72013
vt 0.30485 0.72013
vt 0.47774 0.84254
vt 0.64397 0.84254
vt 0.64397 0.88941
vt 0.47774 0.88941
vt 0.92851 0.98314
vt 0.47774 0.98314
vt 0.47774 0.93627
vt 0.92851 0.93627
vt 0.8102 0.88941
vt 0.8102 0.84254
vt 0.92851 0.88941
vt 0.47774 1.31347
vt 0.47774 1.19953
vt 0.92851 1.19954
vt 0.92851 1.31347
vt 0.47774 1.4274
vt 0.92851 1.4274
vt 0.58484 0.42699
vt 0.75107 0.42699
vt 0.75107 0.47385
vt 0.58484 0.47385
vt 1.07025 0.56759
vt 0.58484 0.56759
vt 0.58484 0.52072
vt 1.07025 0.52072
vt 0.91729 0.47385
vt 0.91729 0.42699
vt 1.07025 0.47385
vt 0.58484 0.62754
vt 0.58484 0.50489
vt 1.07025 0.50489
vt 1.07025 0.62754
vt 0.58484 0.75019
vt 1.07025 0.75019
vt 0.26986 -0.33339
vt 0.43609 -0.33339
vt 0.43609 -0.28652
vt 0.26986 -0.28652
vt 1.149 -0.19279
vt 0.26986 -0.19279
vt 0.26986 -0.23965
vt 1.149 -0.23965
vt 0.60232 -0.28652
vt 0.60232 -0.33339
vt 1.149 -0.28652
vt 0.26986 0.31919
vt 0.26986 0.17051
vt 0.75527 0.17051
vt 0.75527 0.31919
vt 0.26986 0.46787
vt 0.75527 0.46786
vt -0.01214 0.94403
vt -0.01214 0.88702
vt 0.541 0.88702
vt 0.541 0.94403
vt -0.01214 0.83
vt -0.01214 0.77299
vt 0.541 0.77299
vt 0.541 0.83
vt 0.541 0.71598
vt -0.01214 0.71598
vt 0.02878 0.65896
vt 0.02878 0.71598
vt -0.01214 0.65896
vt 0.06971 0.65896
vt 0.06971 0.71598
vt 0.4686 0.67828
vt 0.4686 0.62126
vt 1.49106 0.62126
vt 1.49106 0.67828
vt 0.4686 0.56425
vt 0.4686 0.50724
vt 1.49106 0.50724
vt 1.49106 0.56425
vt 1.49106 0.45022
vt 0.4686 0.45022
vt 0.50952 0.39321
vt 0.50952 0.45022
vt 0.4686 0.39321
vt 0.55045 0.39321
vt 0.55045 0.45022
vt 0.55994 0.97005
vt 0.55994 0.91304
vt 1.58241 0.91304
vt 1.58241 0.97005
vt 0.55994 0.85602
vt 0.55994 0.79901
vt 1.58241 0.79901
vt 1.58241 0.85602
vt 1.58241 0.74199
vt 0.55994 0.74199
vt 0.60087 0.68498
vt 0.60087 0.74199
vt 0.55994 0.68498
vt 0.64179 0.68498
vt 0.64179 0.74199
vt 0.25244 1.24023
vt 0.25244 1.18321
vt 0.80559 1.18321
vt 0.80559 1.24023
vt 0.25244 1.1262
vt 0.25244 1.06918
vt 0.80559 1.06918
vt 0.80559 1.1262
vt 0.80559 1.01217
vt 0.25244 1.01217
vt 0.29337 0.95515
vt 0.29337 1.01217
vt 0.25244 0.95515
vt 0.33429 0.95515
vt 0.33429 1.01217
vt 0.3486 0.88675
vt 0.51483 0.88675
vt 0.51483 0.93361
vt 0.3486 0.93361
vt 0.79937 1.02735
vt 0.3486 1.02735
vt 0.3486 0.98048
vt 0.79937 0.98048
vt 0.68106 0.93361
vt 0.68106 0.88675
vt 0.79937 0.93361
vt 0.3486 0.9933
vt 0.3486 0.89513
vt 0.79937 0.89513
vt 0.79937 0.9933
vt 0.3486 1.09148
vt 0.79937 1.09148
vt 0 0
vn 1 0 0
vn 0 1 0
vn -1 0 0
vn 0 -1 0
vn 0 0 1
vn 0 0 -1
usemtl Pine
s 1
f 1/1/1 2/2/1 3/3/1 4/4/1
f 2/5/2 5/6/2 6/7/2 3/8/2
f 5/9/3 7/3/3 8/2/3 6/10/3
f 7/4/4 1/11/4 4/8/4 8/7/4
f 4/12/5 3/13/5 6/14/5 8/15/5
f 7/16/6 5/12/6 2/15/6 1/17/6
f 9/18/1 10/19/1 11/20/1 12/21/1
f 10/22/2 13/23/2 14/24/2 11/25/2
f 13/26/3 15/20/3 16/19/3 14/27/3
f 15/21/4 9/28/4 12/25/4 16/24/4
f 12/29/5 11/30/5 14/31/5 16/32/5
f 15/33/6 13/29/6 10/32/6 9/34/6
f 17/35/5 18/36/5 19/37/5 20/38/5
f 18/39/2 21/40/2 22/41/2 19/42/2
f 21/43/6 23/37/6 24/36/6 22/44/6
f 23/38/4 17/45/4 20/42/4 24/41/4
f 20/46/3 19/47/3 22/48/3 24/49/3
f 23/50/1 21/46/1 18/49/1 17/51/1
f 25/52/5 26/53/5 27/54/5 28/55/5
f 26/56/2 29/57/2 30/58/2 27/59/2
f 29/60/6 31/54/6 32/53/6 30/61/6
f 31/55/4 25/62/4 28/59/4 32/58/4
f 28/63/3 27/64/3 30/65/3 32/66/3
f 31/67/1 29/63/1 26/66/1 25/68/1
f 33/69/5 34/70/5 35/71/5 36/72/5
f 34/73/3 37/74/3 38/75/3 35/76/3
f 37/77/6 39/75/6 40/74/6 38/78/6
f 39/70/1 33/73/1 36/76/1 40/71/1
f 36/79/4 35/80/4 38/78/4 40/81/4
f 39/80/2 37/79/2 34/82/2 33/83/2
f 41/84/5 42/85/5 43/86/5 44/87/5
f 42/88/3 45/89/3 46/90/3 43/91/3
f 45/92/6 47/90/6 48/89/6 46/93/6
f 47/85/1 41/88/1 44/91/1 48/86/1
f 44/94/4 43/95/4 46/93/4 48/96/4
f 47/95/2 45/94/2 42/97/2 41/98/2
f 49/99/5 50/100/5 51/101/5 52/102/5
f 50/103/3 53/104/3 54/105/3 51/106/3
f 53/107/6 55/105/6 56/104/6 54/108/6
f 55/100/1 49/103/1 52/106/1 56/101/1
f 52/109/4 51/110/4 54/108/4 56/111/4
f 55/110/2 53/109/2 50/112/2 49/113/2
f 57/114/5 58/115/5 59/116/5 60/117/5
f 58/118/3 61/119/3 62/120/3 59/121/3
f 61/122/6 63/120/6 64/119/6 62/123/6
f 63/115/1 57/118/1 60/121/1 64/116/1
f 60/124/4 59/125/4 62/123/4 64/126/4
f 63/125/2 61/124/2 58/127/2 57/128/2
f 65/129/1 66/130/1 67/131/1 68/132/1
f 66/133/2 69/134/2 70/135/2 67/136/2
f 69/137/3 71/131/3 72/130/3 70/138/3
f 71/132/4 65/139/4 68/136/4 72/135/4
f 68/140/5 67/141/5 70/142/5 72/143/5
f 71/144/6 69/140/6 66/143/6 65/145/6
usemtl WhiteWood
f 73/146/5 74/146/5 75/146/5 76/146/5
f 74/146/2 77/146/2 78/146/2 75/146/2
f 77/146/6 79/146/6 80/146/6 78/146/6
f 79/146/4 73/146/4 76/146/4 80/146/4
f 76/146/3 75/146/3 78/146/3 80/146/3
f 79/146/1 77/146/1 74/146/1 73/146/1
