# longcase_clock.obj
#
# Created by Ola-Kristian HOFF
# https://sourceforge.net/p/sweethome3d/d-models/384/
#
# This file is distributed under Free Art License, see http://artlibre.org/licence/lal/en for more informations
# and under CC-BY Creative Commons Attribution 3.0 Unported license, see http://creativecommons.org/licenses/by/3.0/
# at your choice
#
mtllib longcase_clock.mtl
g 1_1
usemtl Clock
v 396.84512 142.85715 347.55923
v 396.84512 188.0651 372.55923
v 396.84512 142.85715 372.55923
v 396.84512 188.0651 347.55923
v 399.5 192.5859 347.55923
v 399.5 192.5859 377.55923
v 392.42035 147.37794 372.55923
v 352.59735 142.85715 372.55923
v 392.42035 183.54431 372.55923
v 357.02213 183.54431 372.55923
v 357.02213 147.37794 372.55923
v 352.59735 188.0651 372.55923
v 394.19025 140.14467 369.55923
v 394.19025 140.14467 347.55923
v 352.59735 47.016273 347.55923
v 361.4469 0.0 347.55923
v 352.59735 0.0 347.55923
v 361.4469 1.8083115 347.55923
v 387.99557 1.8083115 347.55923
v 396.84512 0.0 347.55923
v 387.99557 0.0 347.55923
v 396.84512 47.016273 347.55923
v 355.2522 49.72874 347.55923
v 394.19025 49.72874 347.55923
v 355.2522 140.14467 347.55923
v 352.59735 142.85715 347.55923
v 352.59735 188.0651 347.55923
v 349.5 192.5859 347.55923
v 355.19736 192.5859 347.55923
v 355.85507 194.50482 347.55923
v 393.80264 192.5859 347.55923
v 393.14493 194.50482 347.55923
v 391.21658 196.29295 347.55923
v 357.78342 196.29295 347.55923
v 360.85095 197.82846 347.55923
v 388.14905 197.82846 347.55923
v 364.84866 199.00671 347.55923
v 384.15134 199.00671 347.55923
v 369.5041 199.74738 347.55923
v 379.49588 199.74738 347.55923
v 374.5 200.0 347.55923
v 393.80264 192.5859 377.55923
v 355.19736 192.5859 377.55923
v 349.5 192.5859 377.55923
v 355.2522 140.14467 369.55923
v 394.19025 49.72874 369.55923
v 355.85507 194.50482 377.55923
v 357.78342 196.29295 377.55923
v 360.85095 197.82846 377.55923
v 364.84866 199.00671 377.55923
v 369.5041 199.74738 377.55923
v 374.5 200.0 377.55923
v 379.49588 199.74738 377.55923
v 384.15134 199.00671 377.55923
v 388.14905 197.82846 377.55923
v 391.21658 196.29295 377.55923
v 393.14493 194.50482 377.55923
v 396.84512 47.016273 372.55923
v 396.84512 1.8083115 352.55923
v 396.84512 0.0 352.55923
v 396.84512 0.0 367.55923
v 396.84512 0.0 372.55923
v 396.84512 1.8083115 367.55923
v 387.99557 0.0 352.55923
v 387.99557 1.8083115 352.55923
v 387.99557 1.8083115 367.55923
v 361.4469 1.8083115 352.55923
v 361.4469 1.8083115 367.55923
v 361.4469 1.8083115 372.55923
v 387.99557 1.8083115 372.55923
v 352.59735 1.8083115 367.55923
v 352.59735 1.8083115 352.55923
v 361.4469 0.0 352.55923
v 352.59735 0.0 352.55923
v 352.59735 0.0 372.55923
v 352.59735 47.016273 372.55923
v 352.59735 0.0 367.55923
v 355.2522 49.72874 369.55923
v 387.11063 56.96202 369.55923
v 387.11063 132.91139 369.55923
v 362.33185 132.91139 369.55923
v 362.33185 56.96202 369.55923
v 389.76547 9.041592 372.55923
v 387.99557 0.0 372.55923
v 389.76547 39.783012 372.55923
v 359.677 39.783012 372.55923
v 361.4469 0.0 372.55923
v 359.677 9.041592 372.55923
v 387.99557 0.0 367.55923
v 361.4469 0.0 367.55923
vt 1.15 -0.31 0
vt -0.1 2.19 0
vt -0.1 -0.31 0
vt 1.15 2.19 0
vt -0.1 3.004655 0
vt 1.15 3.296203 0
vt -0.35 3.296203 0
vt 1.15 3.004655 0
vt 2.19 -0.31 0
vt 1.94 -0.06 0
vt -0.31 -0.31 0
vt 2.19 2.19 0
vt 1.94 1.94 0
vt -0.06 1.94 0
vt -0.06 -0.06 0
vt -0.31 2.19 0
vt 0.05 1.117229 0
vt 1.15 1.329361 0
vt -0.1 1.329361 0
vt 1.15 1.117229 0
vt 0.31 -5.61 0
vt -0.19 -8.21 0
vt 0.31 -8.21 0
vt -0.19 -8.11 0
vt -1.69 -8.11 0
vt -2.19 -8.21 0
vt -1.69 -8.21 0
vt -2.19 -5.61 0
vt 0.16 -5.46 0
vt -2.04 -5.46 0
vt 0.16 -0.46 0
vt -2.04 -0.46 0
vt 0.31 -0.31 0
vt -2.19 -0.31 0
vt 0.31 2.19 0
vt -2.19 2.19 0
vt 0.485 2.44 0
vt 0.1631 2.44 0
vt 0.1259387 2.546116 0
vt -2.0181 2.44 0
vt -1.980939 2.546116 0
vt -1.871987 2.645 0
vt 0.01698731 2.645 0
vt -0.1563293 2.729914 0
vt -1.698671 2.729914 0
vt -0.3822 2.79507 0
vt -1.4728 2.79507 0
vt -0.6452319 2.83603 0
vt -1.209768 2.83603 0
vt -0.9275 2.85 0
vt -2.34 2.44 0
vt 2.34 1.972828 0
vt -0.31 1.619275 0
vt 2.19 1.619275 0
vt 2.0181 1.972828 0
vt -0.1631 1.972828 0
vt -0.485 1.972828 0
vt 2.34 -0.35 0
vt 2.0181 1.15 0
vt 2.0181 -0.35 0
vt 2.34 1.15 0
vt -1.15 2.19 0
vt 0.1 -0.31 0
vt 0.1 2.19 0
vt -1.15 -0.31 0
vt -0.16 -0.3606245 0
vt 2.19 -0.1484924 0
vt -0.31 -0.1484924 0
vt 2.04 -0.3606245 0
vt 1.15 -5.46 0
vt 0.05 -0.46 0
vt 0.05 -5.46 0
vt 1.15 -0.46 0
vt -0.1631 -0.35 0
vt -0.485 1.15 0
vt -0.485 -0.35 0
vt -0.1631 1.15 0
vt -1.15 2.361401 0
vt 0.35 2.248967 0
vt 0.35 2.361401 0
vt -1.15 2.248967 0
vt 0.35 1.76504 0
vt -1.15 1.617906 0
vt 0.35 1.617906 0
vt -1.15 1.76504 0
vt 0.35 1.34146 0
vt -1.15 1.14846 0
vt 0.35 1.14846 0
vt -1.15 1.34146 0
vt 0.35 1.141928 0
vt -1.15 0.9068469 0
vt 0.35 0.9068469 0
vt -1.15 1.141928 0
vt 0.35 1.073914 0
vt -1.15 0.8077124 0
vt 0.35 0.8077124 0
vt -1.15 1.073914 0
vt 0.35 1.06725 0
vt -1.15 0.7846363 0
vt 0.35 0.7846363 0
vt -1.15 1.06725 0
vt -0.35 -1.068096 0
vt 1.15 -0.7854823 0
vt -0.35 -0.7854823 0
vt 1.15 -1.068096 0
vt -0.35 -1.025198 0
vt 1.15 -0.7589961 0
vt -0.35 -0.7589961 0
vt 1.15 -1.025198 0
vt -0.35 -0.8754774 0
vt 1.15 -0.6403967 0
vt -0.35 -0.6403967 0
vt 1.15 -0.8754774 0
vt -0.35 -0.5173555 0
vt 1.15 -0.3243554 0
vt -0.35 -0.3243554 0
vt 1.15 -0.5173555 0
vt -0.35 0.2442977 0
vt 1.15 0.3914319 0
vt -0.35 0.3914319 0
vt 1.15 0.2442977 0
vt -0.35 1.635862 0
vt 1.15 1.748296 0
vt -0.35 1.748296 0
vt 1.15 1.635862 0
vt 1.25 0.0 0
vt 0.15 0.212132 0
vt 0.0 0.0 0
vt 1.25 0.212132 0
vt 1.25 -0.1 0
vt 1.0 0.0 0
vt 1.0 -0.1 0
vt 0.25 -0.1 0
vt 0.0 2.5 0
vt 0.0 -0.1 0
vt 0.25 0.0 0
vt 1.25 2.5 0
vt -0.5 0.25 0
vt 0.0 0.25 0
vt -0.5 0.0 0
vt 0.75 -1.0 0
vt 1.0 -1.1 0
vt 1.0 -1.0 0
vt 0.75 -1.1 0
vt -2.5 1.0 0
vt -2.0 0.25 0
vt -2.0 1.0 0
vt -2.5 0.25 0
vt -2.0 1.25 0
vt -0.5 1.0 0
vt -0.5 1.25 0
vt -2.0 0.0 0
vt 0.0 1.0 0
vt 1.25 -1.1 0
vt 1.25 -1.0 0
vt -1.25 2.5 0
vt -0.25 0.0 0
vt -1.0 0.0 0
vt -1.0 -0.1 0
vt -1.25 -0.1 0
vt -0.25 -0.1 0
vt -0.15 1.979899 0
vt -1.25 1.767767 0
vt 0.0 1.767767 0
vt -1.25 1.979899 0
vt -1.15 -0.46 0
vt -0.05 -5.46 0
vt -0.05 -0.46 0
vt -1.15 -5.46 0
vt -1.15 -0.0 0
vt -0.05 -0.212132 0
vt 0.1 -0.0 0
vt -1.15 -0.212132 0
vt -1.15 2.277055 0
vt 0.1 1.971891 0
vt 0.35 2.277055 0
vt -1.15 1.971891 0
vt 1.980939 2.546116 0
vt -0.1631 2.44 0
vt 2.0181 2.44 0
vt -0.1259387 2.546116 0
vt 1.871987 2.645 0
vt -0.01698731 2.645 0
vt 1.698671 2.729914 0
vt 0.1563293 2.729914 0
vt 1.4728 2.79507 0
vt 0.3822 2.79507 0
vt 1.209768 2.83603 0
vt 0.6452319 2.83603 0
vt 0.9275 2.85 0
vt 2.04 -5.46 0
vt 1.64 -5.06 0
vt -0.16 -5.46 0
vt 2.04 -0.46 0
vt 1.64 -0.86 0
vt 0.24 -0.86 0
vt 0.24 -5.06 0
vt -0.16 -0.46 0
vt 2.5 1.767767 0
vt 0.15 1.979899 0
vt 2.35 1.979899 0
vt 2.5 -0.1 0
vt 2.1 0.4 0
vt 2.0 -0.1 0
vt 2.5 2.5 0
vt 2.0 0.0 0
vt 0.5 0.0 0
vt 2.1 2.1 0
vt 0.4 2.1 0
vt 0.5 -0.1 0
vt 0.4 0.4 0
vt -0.5 -0.1 0
vt 4.5 -1.0 0
vt 4.0 -1.1 0
vt 4.5 -1.1 0
vt 4.0 -1.0 0
vt 0.5 -1.0 0
vt 0.0 -1.1 0
vt 0.5 -1.1 0
vt 0.0 -1.0 0
vt 1.75 0.0 0
vt 1.75 -0.1 0
vn 1.0 0.0 0.0
vn 0.8525569 -0.52263457 0.0
vn 0.0 0.0 1.0
vn 0.69947666 -0.7146554 0.0
vn 0.0 0.0 -1.0
vn 0.0 -0.67066747 0.7417581
vn 0.0 1.0 0.0
vn -1.0 0.0 0.0
vn -0.82800794 0.5607163 0.0
vn -0.94154733 0.33688086 0.0
vn -0.5533202 0.8329686 0.0
vn -0.35325822 0.93552583 0.0
vn -0.2115679 0.97736335 0.0
vn -0.09964909 0.9950226 0.0
vn 0.09964909 0.9950226 0.0
vn 0.2115679 0.97736335 0.0
vn 0.35325822 0.93552583 0.0
vn 0.5533202 0.8329686 0.0
vn 0.82800794 0.5607163 0.0
vn 0.94154733 0.33688086 0.0
vn 0.69947666 0.7146554 0.0
vn 0.0 -1.0 0.0
vn -0.69947666 0.7146554 0.0
vn -0.69947666 -0.7146554 -0.0
vn -0.8133855 -0.5817251 -0.0
vn 0.0 0.67066747 0.7417581
f 1/1/1 2/2/1 3/3/1
f 2/2/1 1/1/1 4/4/1
f 2/5/2 5/6/2 6/7/2
f 5/6/2 2/5/2 4/8/2
f 3/9/3 7/10/3 8/11/3
f 7/10/3 3/9/3 2/12/3
f 7/10/3 2/12/3 9/13/3
f 9/13/3 2/12/3 10/14/3
f 8/11/3 11/15/3 12/16/3
f 11/15/3 8/11/3 7/10/3
f 12/16/3 11/15/3 10/14/3
f 12/16/3 10/14/3 2/12/3
f 13/17/4 1/18/4 3/19/4
f 1/18/4 13/17/4 14/20/4
f 15/21/5 16/22/5 17/23/5
f 16/22/5 15/21/5 18/24/5
f 18/24/5 15/21/5 19/25/5
f 19/25/5 20/26/5 21/27/5
f 20/26/5 19/25/5 22/28/5
f 22/28/5 19/25/5 15/21/5
f 22/28/5 15/21/5 23/29/5
f 22/28/5 23/29/5 24/30/5
f 24/30/5 23/29/5 25/31/5
f 24/30/5 25/31/5 14/32/5
f 14/32/5 25/31/5 26/33/5
f 14/32/5 26/33/5 1/34/5
f 1/34/5 26/33/5 27/35/5
f 1/34/5 27/35/5 4/36/5
f 4/36/5 27/35/5 28/37/5
f 4/36/5 28/37/5 29/38/5
f 30/39/5 31/40/5 29/38/5
f 31/40/5 30/39/5 32/41/5
f 32/41/5 30/39/5 33/42/5
f 33/42/5 30/39/5 34/43/5
f 33/42/5 34/43/5 35/44/5
f 33/42/5 35/44/5 36/45/5
f 36/45/5 35/44/5 37/46/5
f 36/45/5 37/46/5 38/47/5
f 38/47/5 37/46/5 39/48/5
f 38/47/5 39/48/5 40/49/5
f 40/49/5 39/48/5 41/50/5
f 4/36/5 31/40/5 5/51/5
f 31/40/5 4/36/5 29/38/5
f 6/52/6 12/53/6 2/54/6
f 12/53/6 6/52/6 42/55/6
f 12/53/6 43/56/6 44/57/6
f 43/56/6 12/53/6 42/55/6
f 6/58/7 31/59/7 42/60/7
f 31/59/7 6/58/7 5/61/7
f 27/62/8 8/63/8 12/64/8
f 8/63/8 27/62/8 26/65/8
f 45/66/6 3/67/6 8/68/6
f 3/67/6 45/66/6 13/69/6
f 24/70/1 13/71/1 46/72/1
f 13/71/1 24/70/1 14/73/1
f 43/74/7 28/75/7 44/76/7
f 28/75/7 43/74/7 29/77/7
f 30/78/9 43/79/10 47/80/9
f 43/79/10 30/78/9 29/81/10
f 48/82/11 30/83/9 47/84/9
f 30/83/9 48/82/11 34/85/11
f 49/86/12 34/87/11 48/88/11
f 34/87/11 49/86/12 35/89/12
f 50/90/13 35/91/12 49/92/12
f 35/91/12 50/90/13 37/93/13
f 51/94/14 37/95/13 50/96/13
f 37/95/13 51/94/14 39/97/14
f 52/98/7 39/99/14 51/100/14
f 39/99/14 52/98/7 41/101/7
f 53/102/15 41/103/7 52/104/7
f 41/103/7 53/102/15 40/105/15
f 54/106/16 40/107/15 53/108/15
f 40/107/15 54/106/16 38/109/16
f 55/110/17 38/111/16 54/112/16
f 38/111/16 55/110/17 36/113/17
f 56/114/18 36/115/17 55/116/17
f 36/115/17 56/114/18 33/117/18
f 57/118/19 33/119/18 56/120/18
f 33/119/18 57/118/19 32/121/19
f 42/122/20 32/123/19 57/124/19
f 32/123/19 42/122/20 31/125/20
f 22/126/21 46/127/21 58/128/21
f 46/127/21 22/126/21 24/129/21
f 20/130/1 59/131/1 60/132/1
f 61/133/1 58/134/1 62/135/1
f 58/134/1 61/133/1 63/136/1
f 58/134/1 63/136/1 22/137/1
f 22/137/1 63/136/1 59/131/1
f 22/137/1 59/131/1 20/130/1
f 20/138/22 64/128/22 21/139/22
f 64/128/22 20/138/22 60/140/22
f 19/141/8 64/142/8 65/143/8
f 64/142/8 19/141/8 21/144/8
f 59/145/22 66/146/22 65/147/22
f 66/146/22 59/145/22 63/148/22
f 19/149/22 67/150/22 18/151/22
f 67/150/22 19/149/22 68/138/22
f 68/138/22 19/149/22 69/140/22
f 69/140/22 19/149/22 70/152/22
f 70/152/22 19/149/22 65/147/22
f 70/152/22 65/147/22 66/146/22
f 67/150/22 71/139/22 72/153/22
f 71/139/22 67/150/22 68/138/22
f 16/154/1 67/143/1 73/142/1
f 67/143/1 16/154/1 18/155/1
f 16/138/22 74/128/22 17/139/22
f 74/128/22 16/138/22 73/140/22
f 15/156/8 75/135/8 76/134/8
f 75/135/8 15/156/8 71/157/8
f 71/157/8 15/156/8 72/158/8
f 72/158/8 15/156/8 74/159/8
f 74/159/8 15/156/8 17/160/8
f 77/161/8 75/135/8 71/157/8
f 78/162/23 15/163/23 76/164/23
f 15/163/23 78/162/23 23/165/23
f 25/166/8 78/167/8 45/168/8
f 78/167/8 25/166/8 23/169/8
f 26/170/24 45/171/24 8/172/24
f 45/171/24 26/170/24 25/173/24
f 28/174/25 12/175/25 44/176/25
f 12/175/25 28/174/25 27/177/25
f 57/178/3 43/179/3 42/180/3
f 43/179/3 57/178/3 47/181/3
f 47/181/3 57/178/3 56/182/3
f 47/181/3 56/182/3 48/183/3
f 48/183/3 56/182/3 55/184/3
f 48/183/3 55/184/3 49/185/3
f 49/185/3 55/184/3 54/186/3
f 49/185/3 54/186/3 50/187/3
f 50/187/3 54/186/3 53/188/3
f 50/187/3 53/188/3 51/189/3
f 51/189/3 53/188/3 52/190/3
f 46/191/3 79/192/3 78/193/3
f 79/192/3 46/191/3 13/194/3
f 79/192/3 13/194/3 80/195/3
f 80/195/3 13/194/3 81/196/3
f 78/193/3 82/197/3 45/198/3
f 82/197/3 78/193/3 79/192/3
f 45/198/3 82/197/3 81/196/3
f 45/198/3 81/196/3 13/194/3
f 58/199/26 78/200/26 76/164/26
f 78/200/26 58/199/26 46/201/26
f 62/202/3 83/203/3 84/204/3
f 83/203/3 62/202/3 58/205/3
f 84/204/3 83/203/3 70/206/3
f 70/206/3 83/203/3 69/207/3
f 83/203/3 58/205/3 85/208/3
f 85/208/3 58/205/3 86/209/3
f 69/207/3 75/135/3 87/210/3
f 75/135/3 69/207/3 88/211/3
f 75/135/3 88/211/3 76/134/3
f 88/211/3 69/207/3 83/203/3
f 76/134/3 88/211/3 86/209/3
f 76/134/3 86/209/3 58/205/3
f 61/138/22 84/128/22 89/139/22
f 84/128/22 61/138/22 62/140/22
f 66/128/5 61/212/5 89/135/5
f 61/212/5 66/128/5 63/140/5
f 59/213/3 64/214/3 60/215/3
f 64/214/3 59/213/3 65/216/3
f 90/133/1 69/128/1 87/135/1
f 69/128/1 90/133/1 68/136/1
f 71/128/5 90/212/5 77/135/5
f 90/212/5 71/128/5 68/140/5
f 67/217/3 74/218/3 73/219/3
f 74/218/3 67/217/3 72/220/3
f 66/221/8 84/204/8 70/206/8
f 84/204/8 66/221/8 89/222/8
f 90/138/22 75/128/22 77/139/22
f 75/128/22 90/138/22 87/140/22
g 3_2
usemtl Clock
v 385.373 131.01266 371.55923
v 364.12833 58.860752 371.55923
v 385.373 58.860752 371.55923
v 364.12833 131.01266 371.55923
vt 1.541825 -0.965 0
vt 0.3415 -4.955 0
vt 1.541825 -4.955 0
vt 0.3415 -0.965 0
vt 1.64 -0.5882759 0
vt 0.3415 -0.7332759 0
vt 1.541825 -0.7332759 0
vt 0.24 -0.5882759 0
vt 0.278359 -4.955 0
vt 0.135873 -0.86 0
vt 0.135873 -5.06 0
vt 0.278359 -0.965 0
vt 1.541825 -3.553621 0
vt 0.24 -3.698621 0
vt 1.64 -3.698621 0
vt 0.3415 -3.553621 0
vt 1.184607 -5.06 0
vt 1.04447 -0.965 0
vt 1.04447 -4.955 0
vt 1.184607 -0.86 0
vn 0.0 0.65252 0.75777143
vn -0.6571706 0.0 0.7537419
vn 0.0 -0.65252 0.75777143
vn 0.66954166 0.0 0.7427745
f 91/223/3 92/224/3 93/225/3
f 92/224/3 91/223/3 94/226/3
f 80/227/27 94/228/27 91/229/27
f 94/228/27 80/227/27 81/230/27
f 92/231/28 81/232/28 82/233/28
f 81/232/28 92/231/28 94/234/28
f 93/235/29 82/236/29 79/237/29
f 82/236/29 93/235/29 92/238/29
f 79/239/30 91/240/30 93/241/30
f 91/240/30 79/239/30 80/242/30
g 5_3
usemtl Clock
v 388.26108 38.245922 371.55923
v 361.18143 10.578653 371.55923
v 388.26108 10.578653 371.55923
v 361.18143 38.245922 371.55923
vt 0.4433891 0.485 0
vt 0.3447737 2.1 0
vt 0.3447737 0.4 0
vt 0.4433891 2.015 0
vt 2.015 0.4433891 0
vt 0.4 0.3447737 0
vt 2.1 0.3447737 0
vt 0.485 0.4433891 0
vt 1.810062 2.1 0
vt 1.711446 0.485 0
vt 1.810062 0.4 0
vt 1.711446 2.015 0
vt 2.1 1.810062 0
vt 0.485 1.711446 0
vt 2.015 1.711446 0
vt 0.4 1.810062 0
vn 0.46174517 0.0 0.8870126
vn 0.0 0.4695741 0.8828931
vn -0.46174517 0.0 0.8870126
vn 0.0 -0.4695741 0.8828931
f 95/208/3 96/211/3 97/203/3
f 96/211/3 95/208/3 98/209/3
f 96/243/31 86/244/31 88/245/31
f 86/244/31 96/243/31 98/246/31
f 97/247/32 88/248/32 83/249/32
f 88/248/32 97/247/32 96/250/32
f 85/251/33 97/252/33 83/253/33
f 97/252/33 85/251/33 95/254/33
f 85/255/34 98/256/34 95/257/34
f 98/256/34 85/255/34 86/258/34
g 7_4
usemtl Clock
v 391.3584 182.45932 370.55923
v 391.3584 148.46294 370.55923
v 358.08408 182.45932 370.55923
v 358.08408 148.46294 370.55923
vt 0.967252 1.88 0
vt 1.083871 -0.06 0
vt 1.083871 1.94 0
vt 0.967252 0.0 0
vt 0.0 0.967252 0
vt 1.94 1.083871 0
vt -0.06 1.083871 0
vt 1.88 0.967252 0
vt 1.94 -0.116619 0
vt -0.06 -0.116619 0
vt 1.88 0.0 0
vt -0.116619 1.94 0
vt -0.116619 -0.06 0
vt 0.0 1.88 0
vn -0.8276954 0.0 0.5611777
vn 0.0 -0.83322775 0.55293
vn 0.0 0.83322775 0.55293
vn 0.8276954 0.0 0.5611777
f 99/259/35 7/260/35 9/261/35
f 7/260/35 99/259/35 100/262/35
f 101/263/36 9/264/36 10/265/36
f 9/264/36 101/263/36 99/266/36
f 7/267/37 102/128/37 11/268/37
f 102/128/37 7/267/37 100/269/37
f 102/128/38 10/270/38 11/271/38
f 10/270/38 102/128/38 101/272/38
g 9_5
usemtl Face
v 391.3584 182.45932 370.45923
v 358.08408 148.46294 370.45923
v 391.3584 148.46294 370.45923
v 358.08408 182.45932 370.45923
vt 0.9894737 0.9894737 0
vt 0.9894737 0.0 0
vt 0.0 0.9894737 0
f 103/273/3 104/128/3 105/274/3
f 104/128/3 103/273/3 106/275/3
g 11_6
usemtl Glass
f 99//3 102//3 100//3
f 102//3 99//3 101//3
