# Blender v2.79 (sub 0) OBJ File: 'marteau.blend'
# www.blender.org
mtllib marteau.mtl
o iron_Cube.001
v -22.673269 -0.736570 6.123561
v -22.602129 2.479310 6.123561
v -22.673269 -0.736570 -1.808584
v -22.602129 2.479310 -1.808584
v -19.323462 -0.810677 6.123561
v -19.252317 2.405203 6.123561
v -19.323462 -0.810677 -6.604440
v -19.252317 2.405203 -6.604440
v -20.261362 -0.789928 -6.604440
v -21.065331 -0.772142 -2.960661
v -21.869299 -0.754356 -2.237264
v -21.798159 2.461524 -2.237264
v -20.994188 2.443738 -2.960661
v -20.190218 2.425952 -6.604440
v -21.869299 -0.754356 6.203938
v -21.065331 -0.772142 6.257523
v -20.154221 -0.792298 6.203938
v -20.083076 2.423582 6.203938
v -20.994188 2.443738 6.257523
v -21.798159 2.461524 6.203938
v -20.663347 -0.781035 -4.327078
v -20.592205 2.434845 -4.327078
v -20.609776 -0.782220 6.230731
v -20.538633 2.433660 6.230731
v -22.673269 -0.736570 -1.808584
v -22.673269 -0.736570 6.123561
v -22.673269 -0.736570 6.123561
v -22.602129 2.479310 6.123561
v -22.602129 2.479310 6.123561
v -22.602129 2.479310 -1.808584
v -21.869299 -0.754356 -2.237264
v -20.190218 2.425952 -6.604440
v -19.252317 2.405203 -6.604440
v -19.323462 -0.810677 6.123561
v -19.323462 -0.810677 6.123561
v -19.323462 -0.810677 -6.604440
v -19.252317 2.405203 6.123561
v -19.252317 2.405203 6.123561
v -20.154221 -0.792298 6.203938
v -21.798159 2.461524 6.203938
v -20.261362 -0.789928 -6.604440
v -20.663347 -0.781035 -4.327078
v -21.065331 -0.772142 -2.960661
v -21.798159 2.461524 -2.237264
v -20.994188 2.443738 -2.960661
v -20.592205 2.434845 -4.327078
v -21.869299 -0.754356 6.203938
v -21.065331 -0.772142 6.257523
v -20.609776 -0.782220 6.230731
v -20.083076 2.423582 6.203938
v -20.538633 2.433660 6.230731
v -20.994188 2.443738 6.257523
vn -0.9997 0.0221 0.0000
vn -0.8572 0.0190 -0.5146
vn -0.6425 0.0142 -0.7661
vn 0.7069 -0.0156 -0.7071
vn 0.9997 -0.0221 0.0000
vn -0.0829 0.0018 0.9965
vn -0.0994 0.0022 0.9950
vn -0.0221 -0.9997 0.0000
vn 0.0221 0.9997 0.0000
vn 0.0962 -0.0021 0.9953
vn 0.0775 -0.0017 0.9970
vn 0.0587 -0.0013 0.9983
vn -0.0039 0.0001 1.0000
vn -0.5737 0.0127 -0.8190
vn -0.8459 0.0187 -0.5330
vn -0.9733 0.0215 -0.2284
usemtl iron
s 1
f 26//1 28//1 30//2 25//2
f 41//3 32//3 33//4 36//4
f 36//4 33//4 37//5 34//5
f 47//6 40//6 29//7 27//7
f 9//8 7//8 35//8 39//8
f 44//9 4//9 2//9 20//9
f 8//9 14//9 50//9 38//9
f 22//9 45//9 52//9 51//9
f 45//9 44//9 20//9 52//9
f 3//8 31//8 15//8 1//8
f 31//8 10//8 48//8 15//8
f 21//8 9//8 39//8 49//8
f 5//10 6//10 18//11 17//11
f 23//12 24//12 19//13 16//13
f 16//13 19//13 40//6 47//6
f 25//2 30//2 12//14 11//14
f 11//14 12//14 13//15 43//15
f 42//16 46//16 32//3 41//3
f 43//15 13//15 46//16 42//16
f 17//11 18//11 24//12 23//12
f 10//8 21//8 49//8 48//8
f 14//9 22//9 51//9 50//9
o handle_Cylinder
v -19.543371 0.802910 -1.166434
v 11.692784 0.111891 -1.324326
v -19.551428 0.438625 -1.052904
v 11.684726 -0.252394 -1.198777
v -19.558260 0.129799 -0.729600
v 11.677894 -0.561220 -0.841246
v -19.562824 -0.076552 -0.245740
v 11.673328 -0.767571 -0.306163
v -19.564430 -0.149013 0.325011
v 11.671726 -0.840031 0.325010
v -19.562824 -0.076552 0.895762
v 11.673329 -0.767571 0.956184
v -19.558260 0.129799 1.379622
v 11.677894 -0.561220 1.491267
v -19.551428 0.438625 1.702926
v 11.684726 -0.252394 1.848799
v -19.543371 0.802910 1.816456
v 11.692785 0.111891 1.974347
v -19.535309 1.167194 1.702926
v 11.700844 0.476176 1.848799
v -19.528481 1.476021 1.379622
v 11.707676 0.785002 1.491268
v -19.523916 1.682371 0.895762
v 11.712240 0.991353 0.956184
v -19.522310 1.754832 0.325011
v 11.713843 1.063814 0.325010
v -19.523916 1.682371 -0.245741
v 11.712240 0.991353 -0.306164
v -19.528481 1.476020 -0.729600
v 11.707675 0.785002 -0.841247
v -19.535313 1.167194 -1.052904
v 11.700844 0.476176 -1.198778
v -15.081062 0.704193 -1.324325
v -10.618755 0.605476 -1.076583
v -6.156448 0.506759 -1.241793
v -1.694139 0.408042 -1.324326
v 2.768170 0.309325 -1.141458
v 7.230477 0.210608 -1.242679
v 7.222418 -0.153677 -1.123346
v 2.760110 -0.054960 -1.029829
v -1.702199 0.043757 -1.198777
v -6.164507 0.142474 -1.122527
v -10.626814 0.241191 -0.969893
v -15.089123 0.339908 -1.198777
v 7.215586 -0.462503 -0.783514
v 2.753279 -0.363786 -0.711939
v -1.709030 -0.265069 -0.841246
v -6.171339 -0.166352 -0.782887
v -10.633646 -0.067635 -0.666066
v -15.095953 0.031082 -0.841246
v 7.211021 -0.668854 -0.274919
v 2.748713 -0.570137 -0.236183
v -1.713595 -0.471420 -0.306163
v -6.175901 -0.372703 -0.274579
v -10.638210 -0.273986 -0.211356
v -15.100517 -0.175269 -0.306163
v 7.209418 -0.741315 0.325010
v 2.747110 -0.642598 0.325011
v -1.715199 -0.543881 0.325011
v -6.177507 -0.445164 0.325011
v -10.639812 -0.346447 0.325011
v -15.102121 -0.247730 0.325011
v 7.211021 -0.668854 0.924940
v 2.748713 -0.570137 0.886204
v -1.713595 -0.471420 0.956184
v -6.175901 -0.372703 0.924601
v -10.638210 -0.273986 0.861377
v -15.100517 -0.175269 0.956185
v 7.215586 -0.462503 1.433535
v 2.753279 -0.363786 1.361960
v -1.709030 -0.265069 1.491267
v -6.171337 -0.166352 1.432908
v -10.633644 -0.067635 1.316087
v -15.095951 0.031082 1.491268
v 7.222418 -0.153677 1.773367
v 2.760111 -0.054960 1.679850
v -1.702198 0.043757 1.848799
v -6.164507 0.142474 1.772549
v -10.626814 0.241191 1.619914
v -15.089123 0.339908 1.848799
v 7.230477 0.210608 1.892701
v 2.768169 0.309325 1.791479
v -1.694139 0.408042 1.974347
v -6.156448 0.506759 1.891814
v -10.618755 0.605476 1.726604
v -15.081062 0.704193 1.974347
v 7.238536 0.574893 1.773367
v 2.776228 0.673610 1.679850
v -1.686080 0.772327 1.848799
v -6.148388 0.871044 1.772549
v -10.610697 0.969761 1.619914
v -15.073004 1.068478 1.848799
v 7.245368 0.883719 1.433535
v 2.783060 0.982436 1.361960
v -1.679249 1.081153 1.491268
v -6.141556 1.179870 1.432909
v -10.603863 1.278587 1.316087
v -15.066172 1.377304 1.491268
v 7.249932 1.090070 0.924940
v 2.787625 1.188787 0.886204
v -1.674684 1.287504 0.956184
v -6.136990 1.386221 0.924601
v -10.599298 1.484938 0.861378
v -15.061605 1.583655 0.956185
v 7.251535 1.162531 0.325010
v 2.789227 1.261248 0.325010
v -1.673080 1.359965 0.325011
v -6.135389 1.458681 0.325011
v -10.597696 1.557398 0.325011
v -15.060003 1.656115 0.325011
v 7.249932 1.090070 -0.274919
v 2.787625 1.188787 -0.236183
v -1.674684 1.287504 -0.306163
v -6.136992 1.386221 -0.274580
v -10.599298 1.484938 -0.211356
v -15.061607 1.583655 -0.306163
v 7.245367 0.883719 -0.783514
v 2.783060 0.982436 -0.711939
v -1.679249 1.081153 -0.841247
v -6.141556 1.179870 -0.782887
v -10.603863 1.278586 -0.666066
v -15.066172 1.377303 -0.841246
v 7.238535 0.574893 -1.123347
v 2.776228 0.673610 -1.029830
v -1.686080 0.772327 -1.198778
v -6.148388 0.871044 -1.122527
v -10.610697 0.969761 -0.969893
v -15.073004 1.068478 -1.198777
v -22.821966 0.875440 -1.166434
v -22.830027 0.511155 -1.052904
v -22.836859 0.202329 -0.729600
v -22.841421 -0.004022 -0.245740
v -22.843031 -0.076482 0.325011
v -22.841421 -0.004022 0.895762
v -22.836859 0.202329 1.379622
v -22.830027 0.511155 1.702926
v -22.821966 0.875440 1.816456
v -22.813910 1.239725 1.702926
v -22.807077 1.548551 1.379622
v -22.802515 1.754902 0.895762
v -22.800909 1.827363 0.325011
v -22.802515 1.754902 -0.245741
v -22.807077 1.548551 -0.729600
v -22.813913 1.239725 -1.052904
v 11.684726 -0.252394 -1.198777
v 11.692784 0.111891 -1.324326
v 11.677894 -0.561220 -0.841246
v 11.673328 -0.767571 -0.306163
v 11.671726 -0.840031 0.325010
v 11.673329 -0.767571 0.956184
v 11.677894 -0.561220 1.491267
v 11.684726 -0.252394 1.848799
v 11.692785 0.111891 1.974347
v 11.700844 0.476176 1.848799
v 11.707676 0.785002 1.491268
v 11.712240 0.991353 0.956184
v 11.713843 1.063814 0.325010
v 11.712240 0.991353 -0.306164
v 11.707675 0.785002 -0.841247
v 11.700844 0.476176 -1.198778
v -22.821966 0.875440 -1.166434
v -22.830027 0.511155 -1.052904
v -22.836859 0.202329 -0.729600
v -22.841421 -0.004022 -0.245740
v -22.843031 -0.076482 0.325011
v -22.841421 -0.004022 0.895762
v -22.836859 0.202329 1.379622
v -22.830027 0.511155 1.702926
v -22.821966 0.875440 1.816456
v -22.813910 1.239725 1.702926
v -22.807077 1.548551 1.379622
v -22.802515 1.754902 0.895762
v -22.800909 1.827363 0.325011
v -22.802515 1.754902 -0.245741
v -22.807077 1.548551 -0.729600
v -22.813913 1.239725 -1.052904
vt 0.854303 0.022648
vt 0.980249 0.006956
vt 0.980505 0.052885
vt 0.854532 0.068359
vt 0.980722 0.109219
vt 0.854703 0.123046
vt 0.980950 0.177598
vt 0.854873 0.188533
vt 0.981198 0.253351
vt 0.855062 0.260731
vt 0.981451 0.329110
vt 0.855269 0.332984
vt 0.981679 0.397494
vt 0.855468 0.398601
vt 0.981842 0.453827
vt 0.855617 0.453428
vt 0.981900 0.499768
vt 0.855667 0.499143
vt 0.981831 0.545714
vt 0.855579 0.544860
vt 0.981652 0.602066
vt 0.855386 0.599700
vt 0.981401 0.670490
vt 0.855133 0.665347
vt 0.981120 0.746309
vt 0.854867 0.737655
vt 0.980844 0.822144
vt 0.854618 0.809930
vt 0.980593 0.890612
vt 0.854394 0.875507
vt 0.952217 0.049856
vt 0.954620 0.060726
vt 0.949816 0.070769
vt 0.938538 0.078455
vt 0.922502 0.082615
vt 0.904150 0.082615
vt 0.886276 0.078455
vt 0.871601 0.070769
vt 0.862359 0.060726
vt 0.859957 0.049856
vt 0.864760 0.039813
vt 0.876039 0.032126
vt 0.892074 0.027967
vt 0.910426 0.027967
vt 0.928300 0.032126
vt 0.942975 0.039813
vt 0.980360 0.947034
vt 0.854178 0.930279
vt 0.980093 0.993044
vt 0.853911 0.976070
vt 0.102180 0.319979
vt 0.102202 0.382653
vt 0.009935 0.380057
vt 0.010028 0.317897
vt 0.100334 0.896669
vt 0.225220 0.921181
vt 0.225204 0.966722
vt 0.100044 0.942063
vt 0.350606 0.894008
vt 0.350599 0.939345
vt 0.476483 0.919848
vt 0.476163 0.965442
vt 0.601697 0.935125
vt 0.601713 0.980886
vt 0.727664 0.914163
vt 0.727688 0.959803
vt 0.100588 0.843516
vt 0.225294 0.865755
vt 0.350650 0.842106
vt 0.476728 0.865506
vt 0.601732 0.879249
vt 0.727676 0.860949
vt 0.100863 0.781012
vt 0.225381 0.798489
vt 0.350725 0.782135
vt 0.476986 0.800526
vt 0.601780 0.811510
vt 0.727705 0.798575
vt 0.101171 0.712645
vt 0.225462 0.724131
vt 0.350800 0.716933
vt 0.477286 0.728985
vt 0.601816 0.736633
vt 0.727728 0.730365
vt 0.101497 0.644223
vt 0.225519 0.650125
vt 0.350859 0.651446
vt 0.477625 0.657508
vt 0.601821 0.662028
vt 0.727731 0.661937
vt 0.101803 0.581527
vt 0.225554 0.583880
vt 0.350896 0.590622
vt 0.477968 0.592717
vt 0.601802 0.595056
vt 0.727715 0.598925
vt 0.102034 0.528015
vt 0.225597 0.529971
vt 0.350914 0.537386
vt 0.478254 0.538650
vt 0.601787 0.540299
vt 0.727693 0.544737
vt 0.102152 0.482092
vt 0.225662 0.486516
vt 0.350953 0.490335
vt 0.478415 0.493543
vt 0.601807 0.495961
vt 0.727696 0.497867
vt 0.102208 0.436166
vt 0.225778 0.443070
vt 0.351042 0.443292
vt 0.478370 0.448434
vt 0.601884 0.451631
vt 0.727749 0.451004
vt 0.225963 0.389188
vt 0.351168 0.390085
vt 0.478221 0.394365
vt 0.602018 0.396896
vt 0.727837 0.396838
vt 0.226174 0.322994
vt 0.351321 0.329314
vt 0.478040 0.329586
vt 0.602170 0.329970
vt 0.727942 0.333873
vt 0.102170 0.251623
vt 0.226385 0.249074
vt 0.351471 0.263903
vt 0.477878 0.258147
vt 0.602308 0.255437
vt 0.728037 0.265514
vt 0.102175 0.183363
vt 0.226576 0.174830
vt 0.351601 0.198796
vt 0.477756 0.186670
vt 0.602418 0.180657
vt 0.728112 0.197394
vt 0.102175 0.120992
vt 0.226745 0.107691
vt 0.351709 0.138932
vt 0.477661 0.121768
vt 0.602506 0.113027
vt 0.728168 0.135122
vt 0.102130 0.067970
vt 0.226913 0.052388
vt 0.351795 0.087139
vt 0.477555 0.067498
vt 0.602598 0.057257
vt 0.728217 0.082011
vt 0.102025 0.022687
vt 0.227085 0.006963
vt 0.351911 0.041915
vt 0.477350 0.021964
vt 0.602713 0.011596
vt 0.728296 0.036472
vt 0.485578 0.076174
vt 0.478895 0.101627
vt 0.457590 0.123913
vt 0.424906 0.139641
vt 0.385819 0.146416
vt 0.346279 0.143205
vt 0.312306 0.130499
vt 0.289072 0.110231
vt 0.280114 0.085487
vt 0.286797 0.060035
vt 0.308102 0.037748
vt 0.340785 0.022020
vt 0.379873 0.015246
vt 0.419413 0.018456
vt 0.453386 0.031162
vt 0.476620 0.051430
vt 0.009194 0.637982
vt 0.009423 0.575678
vt 0.007915 0.934833
vt 0.008130 0.889559
vt 0.010109 0.249866
vt 0.010176 0.181828
vt 0.009598 0.522791
vt 0.009728 0.477765
vt 0.008370 0.836643
vt 0.008641 0.774332
vt 0.010226 0.119637
vt 0.010262 0.066817
vt 0.009835 0.432808
vt 0.008924 0.706156
vt 0.010286 0.021809
vn -0.0197 0.0004 -0.9998
vn -0.0176 0.0004 -0.9998
vn -0.0259 -0.5504 -0.8345
vn -0.0275 -0.5418 -0.8400
vn -0.0257 -0.8511 -0.5244
vn -0.0266 -0.8451 -0.5340
vn -0.0235 -0.9692 -0.2449
vn -0.0238 -0.9677 -0.2511
vn -0.0225 -0.9997 0.0000
vn -0.0226 -0.9997 0.0000
vn -0.0235 -0.9692 0.2449
vn -0.0238 -0.9677 0.2511
vn -0.0257 -0.8511 0.5244
vn -0.0266 -0.8451 0.5340
vn -0.0259 -0.5504 0.8345
vn -0.0275 -0.5418 0.8400
vn -0.0176 0.0004 0.9998
vn -0.0197 0.0004 0.9998
vn -0.0016 0.5510 0.8345
vn -0.0035 0.5425 0.8400
vn 0.0119 0.8514 0.5244
vn 0.0108 0.8454 0.5340
vn 0.0194 0.9693 0.2449
vn 0.0190 0.9677 0.2511
vn 0.0217 0.9998 0.0000
vn 0.0216 0.9998 0.0000
vn 0.0194 0.9693 -0.2449
vn 0.0190 0.9677 -0.2511
vn 0.0119 0.8514 -0.5244
vn 0.0108 0.8454 -0.5340
vn 0.9997 -0.0221 0.0000
vn -0.0016 0.5510 -0.8345
vn -0.0035 0.5425 -0.8400
vn -0.0234 -0.9666 0.2552
vn -0.0253 -0.8411 0.5402
vn -0.0185 -0.8347 0.5504
vn -0.0213 -0.9649 0.2617
vn -0.0015 0.5370 -0.8436
vn 0.0196 0.5359 -0.8440
vn 0.0096 -0.0002 -0.9999
vn -0.0170 0.0004 -0.9998
vn 0.0187 0.5327 -0.8461
vn 0.0089 -0.0002 -0.9999
vn -0.0092 0.5385 -0.8426
vn -0.0266 0.0006 -0.9996
vn 0.0206 0.5444 -0.8385
vn 0.0108 -0.0002 -0.9999
vn 0.0188 0.5390 -0.8421
vn 0.0088 -0.0002 -0.9999
vn 0.0119 0.8414 -0.5402
vn 0.0227 0.8415 -0.5398
vn 0.0220 0.8383 -0.5447
vn 0.0078 0.8426 -0.5384
vn 0.0232 0.8471 -0.5308
vn 0.0220 0.8428 -0.5378
vn 0.0193 0.9667 -0.2552
vn 0.0226 0.9668 -0.2545
vn 0.0224 0.9658 -0.2582
vn 0.0181 0.9670 -0.2539
vn 0.0227 0.9682 -0.2489
vn 0.0224 0.9670 -0.2537
vn 0.0223 0.9997 0.0000
vn 0.0215 0.9998 0.0000
vn 0.0224 0.9997 0.0000
vn 0.0193 0.9667 0.2552
vn 0.0226 0.9668 0.2545
vn 0.0224 0.9658 0.2582
vn 0.0181 0.9670 0.2539
vn 0.0227 0.9682 0.2489
vn 0.0224 0.9670 0.2537
vn 0.0119 0.8414 0.5402
vn 0.0227 0.8415 0.5398
vn 0.0220 0.8383 0.5447
vn 0.0078 0.8426 0.5384
vn 0.0232 0.8471 0.5308
vn 0.0220 0.8428 0.5378
vn -0.0015 0.5370 0.8436
vn 0.0196 0.5359 0.8440
vn 0.0187 0.5327 0.8461
vn -0.0092 0.5385 0.8426
vn 0.0206 0.5444 0.8385
vn 0.0188 0.5390 0.8421
vn -0.0170 0.0004 0.9998
vn 0.0096 -0.0002 0.9999
vn 0.0089 -0.0002 0.9999
vn -0.0266 0.0006 0.9996
vn 0.0108 -0.0002 0.9999
vn 0.0088 -0.0002 0.9999
vn -0.0252 -0.5364 0.8436
vn -0.0041 -0.5362 0.8440
vn -0.0049 -0.5330 0.8461
vn -0.0330 -0.5376 0.8426
vn -0.0034 -0.5448 0.8385
vn -0.0051 -0.5393 0.8421
vn -0.0145 -0.8417 0.5398
vn -0.0151 -0.8385 0.5447
vn -0.0295 -0.8422 0.5384
vn -0.0143 -0.8473 0.5308
vn -0.0152 -0.8429 0.5378
vn -0.0201 -0.9669 0.2545
vn -0.0203 -0.9658 0.2582
vn -0.0247 -0.9669 0.2539
vn -0.0201 -0.9683 0.2489
vn -0.0204 -0.9671 0.2537
vn -0.0219 -0.9998 0.0000
vn -0.0228 -0.9997 0.0000
vn -0.0218 -0.9998 0.0000
vn -0.0234 -0.9666 -0.2552
vn -0.0201 -0.9669 -0.2545
vn -0.0203 -0.9658 -0.2582
vn -0.0247 -0.9669 -0.2539
vn -0.0201 -0.9683 -0.2489
vn -0.0204 -0.9671 -0.2537
vn -0.0253 -0.8411 -0.5402
vn -0.0145 -0.8417 -0.5398
vn -0.0151 -0.8385 -0.5447
vn -0.0295 -0.8422 -0.5384
vn -0.0143 -0.8473 -0.5308
vn -0.0152 -0.8429 -0.5378
vn -0.0252 -0.5364 -0.8436
vn -0.0041 -0.5362 -0.8440
vn -0.0049 -0.5330 -0.8461
vn -0.0330 -0.5376 -0.8426
vn -0.0034 -0.5448 -0.8385
vn -0.0051 -0.5393 -0.8421
vn -0.9997 0.0221 0.0000
vn 0.0213 0.9649 0.2617
vn 0.0185 0.8347 0.5504
vn 0.0000 0.0000 -1.0000
vn 0.0116 0.5269 -0.8498
vn -0.0221 -0.9997 0.0000
vn -0.0213 -0.9649 -0.2617
vn 0.0116 0.5269 0.8498
vn 0.0000 0.0000 1.0000
vn 0.0185 0.8347 -0.5504
vn 0.0213 0.9649 -0.2617
vn -0.0185 -0.8347 -0.5504
vn -0.0116 -0.5269 -0.8498
vn -0.0116 -0.5269 0.8498
vn 0.0221 0.9997 0.0000
usemtl textured
s 1
f 90/1/17 198/2/18 197/3/19 91/4/20
f 91/4/20 197/3/19 199/5/21 97/6/22
f 97/6/22 199/5/21 200/7/23 103/8/24
f 103/8/24 200/7/23 201/9/25 109/10/26
f 109/10/26 201/9/25 202/11/27 115/12/28
f 115/12/28 202/11/27 203/13/29 121/14/30
f 121/14/30 203/13/29 204/15/31 127/16/32
f 127/16/32 204/15/31 205/17/33 133/18/34
f 133/18/34 205/17/33 206/19/35 139/20/36
f 139/20/36 206/19/35 207/21/37 145/22/38
f 145/22/38 207/21/37 208/23/39 151/24/40
f 151/24/40 208/23/39 209/25/41 157/26/42
f 157/26/42 209/25/41 210/27/43 163/28/44
f 163/28/44 210/27/43 211/29/45 169/30/46
f 56/31/47 54/32/47 212/33/47 82/34/47 80/35/47 78/36/47 76/37/47 74/38/47 72/39/47 70/40/47 68/41/47 66/42/47 64/43/47 62/44/47 60/45/47 58/46/47
f 169/30/46 211/29/45 84/47/48 175/48/49
f 175/48/49 84/47/48 198/49/18 90/50/17
f 63/51/50 65/52/51 219/53/52 186/54/53
f 83/55/54 180/56/55 85/57/56 53/58/57
f 180/56/55 179/59/58 86/60/59 85/57/56
f 179/59/58 178/61/60 87/62/61 86/60/59
f 178/61/60 177/63/62 88/64/63 87/62/61
f 177/63/62 176/65/64 89/66/65 88/64/63
f 176/65/64 175/48/49 90/50/17 89/66/65
f 81/67/66 174/68/67 180/56/55 83/55/54
f 174/68/67 173/69/68 179/59/58 180/56/55
f 173/69/68 172/70/69 178/61/60 179/59/58
f 172/70/69 171/71/70 177/63/62 178/61/60
f 171/71/70 170/72/71 176/65/64 177/63/62
f 170/72/71 169/30/46 175/48/49 176/65/64
f 79/73/72 168/74/73 174/68/67 81/67/66
f 168/74/73 167/75/74 173/69/68 174/68/67
f 167/75/74 166/76/75 172/70/69 173/69/68
f 166/76/75 165/77/76 171/71/70 172/70/69
f 165/77/76 164/78/77 170/72/71 171/71/70
f 164/78/77 163/28/44 169/30/46 170/72/71
f 77/79/41 162/80/78 168/74/73 79/73/72
f 162/80/78 161/81/78 167/75/74 168/74/73
f 161/81/78 160/82/79 166/76/75 167/75/74
f 160/82/79 159/83/80 165/77/76 166/76/75
f 159/83/80 158/84/78 164/78/77 165/77/76
f 158/84/78 157/26/42 163/28/44 164/78/77
f 75/85/81 156/86/82 162/80/78 77/79/41
f 156/86/82 155/87/83 161/81/78 162/80/78
f 155/87/83 154/88/84 160/82/79 161/81/78
f 154/88/84 153/89/85 159/83/80 160/82/79
f 153/89/85 152/90/86 158/84/78 159/83/80
f 152/90/86 151/24/40 157/26/42 158/84/78
f 73/91/87 150/92/88 156/86/82 75/85/81
f 150/92/88 149/93/89 155/87/83 156/86/82
f 149/93/89 148/94/90 154/88/84 155/87/83
f 148/94/90 147/95/91 153/89/85 154/88/84
f 147/95/91 146/96/92 152/90/86 153/89/85
f 146/96/92 145/22/38 151/24/40 152/90/86
f 71/97/93 144/98/94 150/92/88 73/91/87
f 144/98/94 143/99/95 149/93/89 150/92/88
f 143/99/95 142/100/96 148/94/90 149/93/89
f 142/100/96 141/101/97 147/95/91 148/94/90
f 141/101/97 140/102/98 146/96/92 147/95/91
f 140/102/98 139/20/36 145/22/38 146/96/92
f 69/103/99 138/104/100 144/98/94 71/97/93
f 138/104/100 137/105/101 143/99/95 144/98/94
f 137/105/101 136/106/102 142/100/96 143/99/95
f 136/106/102 135/107/103 141/101/97 142/100/96
f 135/107/103 134/108/104 140/102/98 141/101/97
f 134/108/104 133/18/34 139/20/36 140/102/98
f 67/109/105 132/110/106 138/104/100 69/103/99
f 132/110/106 131/111/107 137/105/101 138/104/100
f 131/111/107 130/112/108 136/106/102 137/105/101
f 130/112/108 129/113/109 135/107/103 136/106/102
f 129/113/109 128/114/110 134/108/104 135/107/103
f 128/114/110 127/16/32 133/18/34 134/108/104
f 65/52/51 126/115/111 132/110/106 67/109/105
f 126/115/111 125/116/112 131/111/107 132/110/106
f 125/116/112 124/117/113 130/112/108 131/111/107
f 124/117/113 123/118/114 129/113/109 130/112/108
f 123/118/114 122/119/115 128/114/110 129/113/109
f 122/119/115 121/14/30 127/16/32 128/114/110
f 63/51/50 120/120/116 126/115/111 65/52/51
f 120/120/116 119/121/117 125/116/112 126/115/111
f 119/121/117 118/122/118 124/117/113 125/116/112
f 118/122/118 117/123/119 123/118/114 124/117/113
f 117/123/119 116/124/120 122/119/115 123/118/114
f 116/124/120 115/12/28 121/14/30 122/119/115
f 61/125/25 114/126/121 120/120/116 63/51/50
f 114/126/121 113/127/121 119/121/117 120/120/116
f 113/127/121 112/128/122 118/122/118 119/121/117
f 112/128/122 111/129/123 117/123/119 118/122/118
f 111/129/123 110/130/121 116/124/120 117/123/119
f 110/130/121 109/10/26 115/12/28 116/124/120
f 59/131/124 108/132/125 114/126/121 61/125/25
f 108/132/125 107/133/126 113/127/121 114/126/121
f 107/133/126 106/134/127 112/128/122 113/127/121
f 106/134/127 105/135/128 111/129/123 112/128/122
f 105/135/128 104/136/129 110/130/121 111/129/123
f 104/136/129 103/8/24 109/10/26 110/130/121
f 57/137/130 102/138/131 108/132/125 59/131/124
f 102/138/131 101/139/132 107/133/126 108/132/125
f 101/139/132 100/140/133 106/134/127 107/133/126
f 100/140/133 99/141/134 105/135/128 106/134/127
f 99/141/134 98/142/135 104/136/129 105/135/128
f 98/142/135 97/6/22 103/8/24 104/136/129
f 55/143/136 96/144/137 102/138/131 57/137/130
f 96/144/137 95/145/138 101/139/132 102/138/131
f 95/145/138 94/146/139 100/140/133 101/139/132
f 94/146/139 93/147/140 99/141/134 100/140/133
f 93/147/140 92/148/141 98/142/135 99/141/134
f 92/148/141 91/4/20 97/6/22 98/142/135
f 53/149/57 85/150/56 96/144/137 55/143/136
f 85/150/56 86/151/59 95/145/138 96/144/137
f 86/151/59 87/152/61 94/146/139 95/145/138
f 87/152/61 88/153/63 93/147/140 94/146/139
f 88/153/63 89/154/65 92/148/141 93/147/140
f 89/154/65 90/1/17 91/4/20 92/148/141
f 213/155/142 214/156/142 215/157/142 216/158/142 217/159/142 218/160/142 187/161/142 220/162/142 221/163/142 222/164/142 223/165/142 224/166/142 225/167/142 226/168/142 227/169/142 228/170/142
f 73/91/87 75/85/81 192/171/143 191/172/144
f 83/55/54 53/58/57 181/173/145 196/174/146
f 59/131/124 61/125/25 185/175/147 184/176/148
f 69/103/99 71/97/93 190/177/149 189/178/150
f 79/73/72 81/67/66 195/179/151 194/180/152
f 55/143/136 57/137/130 183/181/153 182/182/154
f 65/52/51 67/109/105 188/183/155 219/53/52
f 75/85/81 77/79/41 193/184/156 192/171/143
f 61/125/25 63/51/50 186/54/53 185/175/147
f 71/97/93 73/91/87 191/172/144 190/177/149
f 81/67/66 83/55/54 196/174/146 195/179/151
f 57/137/130 59/131/124 184/176/148 183/181/153
f 67/109/105 69/103/99 189/178/150 188/183/155
f 53/149/57 55/143/136 182/182/154 181/185/145
f 77/79/41 79/73/72 194/180/152 193/184/156
