# Produced by Art of Illusion 2.4.1, Tue Sep 11 22:06:28 CEST 2007
# Etienne gerard, Prise 1
# Improved circle by Emmanuel Puybaret / eTeks
# Copyleft: cette oeuvre est libre, voug Cylinder_3_1
v 2.18805 -0.27344 0.6
v 2.24663 -0.13202 0.6
v 2.04663 -0.13202 0.6
v 2.04663 -0.33202 0.6
v 1.90521 -0.27344 0.6
v 1.84663 -0.13202 0.6
v 1.90521 0.0094 0.6
v 2.04663 0.06798 0.6
v 2.18805 0.0094 0.6
v 2.24663 -0.13202 -0.4
v 2.18805 -0.27344 -0.4
v 2.04663 -0.33202 -0.4
v 1.90521 -0.27344 -0.4
v 1.84663 -0.13202 -0.4
v 1.90521 0.0094 -0.4
v 2.04663 0.06798 -0.4
v 2.18805 0.0094 -0.4
v 2.04663 -0.13202 -0.4
vn 0.0 -0.0 1.0
vn 1.0 0.0 0.0
vn 0.7071 -0.7071 -0.0
vn -0.0 -1.0 -0.0
vn -0.7071 -0.7071 -0.0
vn -1.0 0.0 0.0
vn -0.7071 0.7071 0.0
vn -0.0 1.0 0.0
vn 0.7071 0.7071 0.0
vn 0.0 0.0 -1.0
usemtl black
f 1//1 2//1 3//1
f 4//1 1//1 3//1
f 5//1 4//1 3//1
f 6//1 5//1 3//1
f 7//1 6//1 3//1
f 8//1 7//1 3//1
f 9//1 8//1 3//1
f 2//1 9//1 3//1
f 10//2 2//2 1//3
f 11//3 1//3 4//4
f 12//4 4//4 5//5
f 13//5 5//5 6//6
f 14//6 6//6 7//7
f 15//7 7//7 8//8
f 16//8 8//8 9//9
f 17//9 9//9 2//2
f 10//2 1//3 11//3
f 11//3 4//4 12//4
f 12//4 5//5 13//5
f 13//5 6//6 14//6
f 14//6 7//7 15//7
f 15//7 8//8 16//8
f 16//8 9//9 17//9
f 17//9 2//2 10//2
f 18//10 10//10 11//10
f 18//10 11//10 12//10
f 18//10 12//10 13//10
f 18//10 13//10 14//10
f 18//10 14//10 15//10
f 18//10 15//10 16//10
f 18//10 16//10 17//10
f 18//10 17//10 10//10
g Cylinder_3_2
v 1.39142 0.75858 1.05
v 1.45 0.9 1.05
v 1.25 0.9 1.05
v 1.25 0.7 1.05
v 1.10858 0.75858 1.05
v 1.05 0.9 1.05
v 1.10858 1.04142 1.05
v 1.25 1.1 1.05
v 1.39142 1.04142 1.05
v 1.45 0.9 0.05
v 1.39142 0.75858 0.05
v 1.25 0.7 0.05
v 1.10858 0.75858 0.05
v 1.05 0.9 0.05
v 1.10858 1.04142 0.05
v 1.25 1.1 0.05
v 1.39142 1.04142 0.05
v 1.25 0.9 0.05
vn 0.0 0.0 1.0
vn 1.0 -0.0 -0.0
vn 0.7071 -0.7071 -0.0
vn -0.0 -1.0 -0.0
vn -0.7071 -0.7071 -0.0
vn -1.0 -0.0 -0.0
vn -0.7071 0.7071 0.0
vn 0.0 1.0 0.0
vn 0.7071 0.7071 0.0
vn 0.0 0.0 -1.0
usemtl silver
f 19//11 20//11 21//11
f 22//11 19//11 21//11
f 23//11 22//11 21//11
f 24//11 23//11 21//11
f 25//11 24//11 21//11
f 26//11 25//11 21//11
f 27//11 26//11 21//11
f 20//11 27//11 21//11
f 28//12 20//12 19//13
f 29//13 19//13 22//14
f 30//14 22//14 23//15
f 31//15 23//15 24//16
f 32//16 24//16 25//17
f 33//17 25//17 26//18
f 34//18 26//18 27//19
f 35//19 27//19 20//12
f 28//12 19//13 29//13
f 29//13 22//14 30//14
f 30//14 23//15 31//15
f 31//15 24//16 32//16
f 32//16 25//17 33//17
f 33//17 26//18 34//18
f 34//18 27//19 35//19
f 35//19 20//12 28//12
f 36//20 28//20 29//20
f 36//20 29//20 30//20
f 36//20 30//20 31//20
f 36//20 31//20 32//20
f 36//20 32//20 33//20
f 36//20 33//20 34//20
f 36//20 34//20 35//20
f 36//20 35//20 28//20
g Extruded_Object_1
v 1.674328 1.967676 1.13125
v 1.322138 2.003392 0.56875
v 1.674328 1.967676 0.56875
v 1.999328 1.858735 0.56875
v 2.324328 1.693446 0.56875
v 2.619328 1.465546 0.56875
v 2.864328 1.162515 0.56875
v 3.054328 0.816909 0.56875
v 3.174638 0.458471 0.56875
v 1.322138 2.003392 1.13125
v 3.224948 0.078746 0.56875
v 3.184638 -0.328538 0.56875
v 3.074328 -0.730803 0.56875
v 2.894328 -1.0714 0.56875
v 2.656828 -1.3569 0.56875
v 2.364328 -1.592313 0.56875
v 2.034328 -1.762612 0.56875
v 1.684328 -1.85277 0.56875
v 1.316828 -1.877813 0.56875
v 0.934328 -1.85277 0.56875
v 0.559328 -1.76762 0.56875
v 0.214328 -1.612348 0.56875
v -0.090672 -1.381944 0.56875
v -0.345672 -1.0714 0.56875
v -0.535672 -0.718281 0.56875
v -0.645672 -0.360153 0.56875
v -0.685672 0.005487 0.56875
v -0.665672 0.381146 0.56875
v -0.570672 0.7543 0.56875
v -0.385672 1.112427 0.56875
v -0.130672 1.425476 0.56875
v 0.174328 1.663393 0.56875
v 0.524328 1.836196 0.56875
v 0.904018 1.947952 0.56875
v 3.184638 -0.328538 1.13125
v 3.224948 0.078746 1.13125
v 1.999328 1.858735 1.13125
v 2.324328 1.693446 1.13125
v 2.619328 1.465546 1.13125
v 2.864328 1.162515 1.13125
v 3.054328 0.816909 1.13125
v 3.174638 0.458471 1.13125
v 3.074328 -0.730803 1.13125
v 2.894328 -1.0714 1.13125
v 2.656828 -1.356901 1.13125
v 2.364328 -1.592313 1.13125
v 2.034328 -1.762612 1.13125
v 1.684328 -1.85277 1.13125
v 1.316828 -1.877813 1.13125
v 0.934328 -1.85277 1.13125
v 0.559328 -1.76762 1.13125
v 0.214328 -1.612348 1.13125
v -0.090672 -1.381944 1.13125
v -0.345672 -1.0714 1.13125
v -0.535672 -0.718281 1.13125
v -0.645672 -0.360154 1.13125
v -0.685672 0.005487 1.13125
v -0.665672 0.381146 1.13125
v -0.570672 0.7543 1.13125
v -0.385672 1.112427 1.13125
v -0.130672 1.425476 1.13125
v 0.174328 1.663393 1.13125
v 0.524328 1.836196 1.13125
v 0.904018 1.947952 1.13125
v 1.668048 1.938531 1.13125
v 1.322597 1.9736 0.56875
v 1.668048 1.938531 0.56875
v 1.98773 1.831068 0.56875
v 2.308288 1.668095 0.56875
v 2.598352 1.4441 0.56875
v 2.839421 1.145793 0.56875
v 3.026854 0.804863 0.56875
v 3.145413 0.451697 0.56875
v 1.322597 1.973599 1.13125
v 3.195151 0.078253 0.56875
v 3.155245 -0.323094 0.56875
v 3.046435 -0.719762 0.56875
v 2.869401 -1.054709 0.56875
v 2.635787 -1.335517 0.56875
v 2.347961 -1.567171 0.56875
v 2.023641 -1.73458 0.56875
v 1.679547 -1.823153 0.56875
v 1.316789 -1.847814 0.56875
v 0.938642 -1.823082 0.56875
v 0.568853 -1.739173 0.56875
v 0.229621 -1.58654 0.56875
v -0.069893 -1.360306 0.56875
v -0.320753 -1.054696 0.56875
v -0.507992 -0.706715 0.56875
v -0.616292 -0.354092 0.56875
v -0.655684 0.006323 0.56875
v -0.636015 0.376627 0.56875
v -0.542628 0.743646 0.56875
v -0.360582 1.095982 0.56875
v -0.109684 1.404041 0.56875
v 0.190277 1.637985 0.56875
v 0.535244 1.808253 0.56875
v 0.910243 1.918605 0.56875
v 3.155245 -0.323094 1.13125
v 3.195151 0.078253 1.13125
v 1.98773 1.831068 1.13125
v 2.308288 1.668095 1.13125
v 2.598352 1.4441 1.13125
v 2.839421 1.145792 1.13125
v 3.026854 0.804862 1.13125
v 3.145413 0.451697 1.13125
v 3.046435 -0.719763 1.13125
v 2.869401 -1.05471 1.13125
v 2.635787 -1.335517 1.13125
v 2.347961 -1.567171 1.13125
v 2.023641 -1.73458 1.13125
v 1.679547 -1.823153 1.13125
v 1.316789 -1.847814 1.13125
v 0.938642 -1.823082 1.13125
v 0.568853 -1.739173 1.13125
v 0.229621 -1.58654 1.13125
v -0.069893 -1.360306 1.13125
v -0.320753 -1.054696 1.13125
v -0.507992 -0.706715 1.13125
v -0.616292 -0.354092 1.13125
v -0.655684 0.006323 1.13125
v -0.636015 0.376626 1.13125
v -0.542628 0.743646 1.13125
v -0.360582 1.095982 1.13125
v -0.109684 1.404041 1.13125
v 0.190277 1.637984 1.13125
v 0.535244 1.808253 1.13125
v 0.910243 1.918605 1.13125
vn -0.0 -0.0 1.0
vn 0.0 0.0 -1.0
vn 0.7014 -0.7128 -0.0
vn 0.5455 -0.8381 -0.0
vn -0.3639 0.9314 0.0
vn -0.5316 0.847 0.0
vn -0.5098 -0.8603 -0.0
vn -0.3175 -0.9483 -0.0
vn -0.9996 -0.0279 -0.0
vn -0.9794 -0.2021 -0.0
vn 0.1009 0.9949 0.0
vn 0.8309 -0.5564 -0.0
vn 0.3563 -0.9344 0.0
vn -0.1438 -0.9896 -0.0
vn 0.0013 -1.0 -0.0
vn -0.8306 -0.5568 -0.0
vn -0.6926 -0.7213 -0.0
vn -0.2075 0.9782 0.0
vn -0.1314 0.9913 0.0
vn 0.9298 -0.368 -0.0
vn 0.9644 -0.2645 -0.0
vn 0.9951 -0.0985 -0.0
vn 0.3178 0.9482 0.0
vn 0.3866 0.9222 0.0
vn -0.8364 0.5482 0.0
vn -0.9348 0.3551 0.0
vn 0.1594 -0.9872 -0.0
vn 0.9158 0.4016 0.0
vn 0.9742 0.2258 0.0
vn -0.9886 0.1507 0.0
vn 0.9913 0.1313 0.0
vn -0.9227 -0.3856 -0.0
vn 0.8302 0.5574 0.0
vn 0.6992 0.7149 0.0
vn 0.5347 0.8451 0.0
vn -0.6996 0.7145 0.0
vn -0.7013 0.7128 0.0
vn -0.5456 0.838 0.0
vn 0.3638 -0.9315 0.0
vn 0.5316 -0.847 -0.0
vn 0.5097 0.8603 0.0
vn 0.3174 0.9483 0.0
vn 0.9996 0.0279 0.0
vn 0.9794 0.202 0.0
vn -0.101 -0.9949 0.0
vn -0.8309 0.5564 0.0
vn -0.3562 0.9344 0.0
vn 0.1437 0.9896 0.0
vn -0.0013 1.0 0.0
vn 0.8307 0.5568 0.0
vn 0.6927 0.7213 0.0
vn 0.2079 -0.9782 -0.0
vn 0.1322 -0.9912 -0.0
vn -0.9298 0.3681 0.0
vn -0.9644 0.2645 0.0
vn -0.9951 0.0989 0.0
vn -0.3186 -0.9479 -0.0
vn -0.3869 -0.9221 -0.0
vn 0.8364 -0.5482 -0.0
vn 0.9348 -0.3551 -0.0
vn -0.1592 0.9872 0.0
vn -0.9158 -0.4016 -0.0
vn -0.9741 -0.2262 -0.0
vn 0.9886 -0.1505 -0.0
vn -0.9912 -0.132 -0.0
vn 0.9227 0.3856 0.0
vn -0.8303 -0.5573 -0.0
vn -0.6993 -0.7149 -0.0
vn -0.5345 -0.8451 -0.0
vn 0.6996 -0.7145 -0.0
vn 0.9776 -0.2106 -0.0
vn -0.9999 -0.0154 -0.0
vn 0.0165 -0.9999 -0.0
vn 0.1821 0.9833 0.0
usemtl fltgrey
f 94//21 93//21 157//21 158//21
f 89//21 88//21 152//21 153//21
f 49//22 50//22 114//22 113//22
f 80//21 79//21 143//21 144//21
f 64//22 65//22 129//22 128//22
f 79//21 71//21 135//21 143//21
f 82//21 81//21 145//21 146//21
f 93//21 92//21 156//21 157//21
f 63//22 64//22 128//22 127//22
f 92//21 91//21 155//21 156//21
f 75//21 74//21 138//21 139//21
f 66//22 67//22 131//22 130//22
f 91//21 90//21 154//21 155//21
f 76//21 75//21 139//21 140//21
f 50//22 51//22 115//22 114//22
f 47//22 48//22 112//22 111//22
f 77//21 76//21 140//21 141//21
f 67//22 68//22 132//22 131//22
f 61//22 62//22 126//22 125//22
f 81//21 80//21 144//21 145//21
f 45//22 47//22 111//22 109//22
f 68//22 69//22 133//22 132//22
f 46//21 100//21 164//21 110//21
f 52//22 53//22 117//22 116//22
f 72//21 78//21 142//21 136//21
f 69//22 70//22 134//22 133//22
f 51//22 52//22 116//22 115//22
f 100//21 99//21 163//21 164//21
f 99//21 98//21 162//21 163//21
f 62//22 63//22 127//22 126//22
f 48//22 49//22 113//22 112//22
f 74//21 73//21 137//21 138//21
f 57//22 58//22 122//22 121//22
f 37//21 46//21 110//21 101//21
f 70//22 38//22 102//22 134//22
f 96//21 95//21 159//21 160//21
f 95//21 94//21 158//21 159//21
f 73//21 37//21 101//21 137//21
f 56//22 57//22 121//22 120//22
f 43//22 44//22 108//22 107//22
f 98//21 97//21 161//21 162//21
f 39//22 40//22 104//22 103//22
f 55//22 56//22 120//22 119//22
f 42//22 43//22 107//22 106//22
f 71//21 72//21 136//21 135//21
f 58//22 59//22 123//22 122//22
f 86//21 85//21 149//21 150//21
f 38//22 39//22 103//22 102//22
f 97//21 96//21 160//21 161//21
f 53//22 54//22 118//22 117//22
f 40//22 41//22 105//22 104//22
f 88//21 87//21 151//21 152//21
f 87//21 86//21 150//21 151//21
f 60//22 61//22 125//22 124//22
f 78//21 77//21 141//21 142//21
f 90//21 89//21 153//21 154//21
f 65//22 66//22 130//22 129//22
f 59//22 60//22 124//22 123//22
f 44//22 45//22 109//22 108//22
f 85//21 84//21 148//21 149//21
f 84//21 83//21 147//21 148//21
f 54//22 55//22 119//22 118//22
f 83//21 82//21 146//21 147//21
f 41//22 42//22 106//22 105//22
f 51//23 81//23 82//24 52//24
f 69//25 68//26 98//26 99//25
f 58//27 57//28 87//28 88//27
f 93//29 63//29 62//30 92//30
f 38//31 46//31 37//31 39//31
f 51//23 50//32 80//32 81//23
f 83//33 53//33 52//24 82//24
f 86//34 56//34 55//35 85//35
f 90//36 60//36 59//37 89//37
f 100//38 46//39 38//39 70//38
f 50//32 49//40 79//40 80//32
f 49//40 48//41 71//41 79//40
f 47//42 72//42 71//42 48//42
f 39//43 37//43 73//44 40//44
f 96//45 66//45 65//46 95//46
f 84//47 54//47 53//33 83//33
f 85//35 55//35 54//47 84//47
f 44//48 77//48 78//49 45//49
f 64//50 63//29 93//29 94//50
f 45//49 78//49 72//51 47//51
f 95//46 65//46 64//50 94//50
f 69//25 99//25 100//38 70//38
f 91//52 61//52 60//36 90//36
f 76//53 43//53 42//54 75//54
f 74//55 41//55 40//44 73//44
f 92//30 62//30 61//52 91//52
f 87//28 57//28 56//34 86//34
f 89//37 59//37 58//27 88//27
f 44//48 43//53 76//53 77//48
f 98//26 68//26 67//56 97//56
f 42//54 41//55 74//55 75//54
f 97//56 67//56 66//45 96//45
f 115//57 116//58 146//58 145//57
f 133//59 163//59 162//60 132//60
f 122//61 152//61 151//62 121//62
f 157//63 156//64 126//64 127//63
f 102//65 103//65 101//65 110//65
f 115//57 145//57 144//66 114//66
f 147//67 146//58 116//58 117//67
f 150//68 149//69 119//69 120//68
f 154//70 153//71 123//71 124//70
f 164//72 134//72 102//73 110//73
f 114//66 144//66 143//74 113//74
f 113//74 143//74 135//75 112//75
f 111//76 112//76 135//76 136//76
f 103//77 104//78 137//78 101//77
f 160//79 159//80 129//80 130//79
f 148//81 147//67 117//67 118//81
f 149//69 148//81 118//81 119//69
f 108//82 109//83 142//83 141//82
f 128//84 158//84 157//63 127//63
f 109//83 111//85 136//85 142//83
f 159//80 158//84 128//84 129//80
f 133//59 134//72 164//72 163//59
f 155//86 154//70 124//70 125//86
f 140//87 139//88 106//88 107//87
f 138//89 137//78 104//78 105//89
f 156//64 155//86 125//86 126//64
f 151//62 150//68 120//68 121//62
f 153//71 152//61 122//61 123//71
f 108//82 141//82 140//87 107//87
f 162//60 161//90 131//90 132//60
f 106//88 139//88 138//89 105//89
f 161//90 160//79 130//79 131//90
f 39//91 37//91 101//91 103//91
f 46//92 38//92 102//92 110//92
f 47//93 72//93 136//93 111//93
f 71//94 48//94 112//94 135//94
g Cylinder_3
v 0.55378 -0.27344 0.6
v 0.61236 -0.13202 0.6
v 0.41236 -0.13202 0.6
v 0.41236 -0.33202 0.6
v 0.27094 -0.27344 0.6
v 0.21236 -0.13202 0.6
v 0.27094 0.0094 0.6
v 0.41236 0.06798 0.6
v 0.55378 0.0094 0.6
v 0.61236 -0.13202 -0.4
v 0.55378 -0.27344 -0.4
v 0.41236 -0.33202 -0.4
v 0.27094 -0.27344 -0.4
v 0.21236 -0.13202 -0.4
v 0.27094 0.0094 -0.4
v 0.41236 0.06798 -0.4
v 0.55378 0.0094 -0.4
v 0.41236 -0.13202 -0.4
vn 0.0 -0.0 1.0
vn 1.0 -0.0 0.0
vn 0.7071 -0.7071 -0.0
vn 0.0 -1.0 -0.0
vn -0.7071 -0.7071 -0.0
vn -1.0 -0.0 0.0
vn -0.7071 0.7071 0.0
vn 0.0 1.0 0.0
vn 0.7071 0.7071 0.0
vn 0.0 0.0 -1.0
usemtl black
f 165//95 166//95 167//95
f 168//95 165//95 167//95
f 169//95 168//95 167//95
f 170//95 169//95 167//95
f 171//95 170//95 167//95
f 172//95 171//95 167//95
f 173//95 172//95 167//95
f 166//95 173//95 167//95
f 174//96 166//96 165//97
f 175//97 165//97 168//98
f 176//98 168//98 169//99
f 177//99 169//99 170//100
f 178//100 170//100 171//101
f 179//101 171//101 172//102
f 180//102 172//102 173//103
f 181//103 173//103 166//96
f 174//96 165//97 175//97
f 175//97 168//98 176//98
f 176//98 169//99 177//99
f 177//99 170//100 178//100
f 178//100 171//101 179//101
f 179//101 172//102 180//102
f 180//102 173//103 181//103
f 181//103 166//96 174//96
f 182//104 174//104 175//104
f 182//104 175//104 176//104
f 182//104 176//104 177//104
f 182//104 177//104 178//104
f 182//104 178//104 179//104
f 182//104 179//104 180//104
f 182//104 180//104 181//104
f 182//104 181//104 174//104
g Cylinder_1
v 3.11738 -0.71537 0.575
v 3.26962 0.05 0.575
v 1.26962 0.05 0.575
v 2.68384 -1.36421 0.575
v 2.03499 -1.79776 0.575
v 1.26962 -1.95 0.575
v 0.50426 -1.79776 0.575
v -0.14459 -1.36421 0.575
v -0.57813 -0.71537 0.575
v -0.73038 0.05 0.575
v -0.57813 0.81537 0.575
v -0.14459 1.46421 0.575
v 0.50426 1.89776 0.575
v 1.26962 2.05 0.575
v 2.03499 1.89776 0.575
v 2.68384 1.46421 0.575
v 3.11738 0.81537 0.575
v 3.26962 0.05 -0.425
v 3.11738 -0.71537 -0.425
v 2.68384 -1.36421 -0.425
v 2.03499 -1.79776 -0.425
v 1.26962 -1.95 -0.425
v 0.50426 -1.79776 -0.425
v -0.14459 -1.36421 -0.425
v -0.57813 -0.71537 -0.425
v -0.73038 0.05 -0.425
v -0.57813 0.81537 -0.425
v -0.14459 1.46421 -0.425
v 0.50426 1.89776 -0.425
v 1.26962 2.05 -0.425
v 2.03499 1.89776 -0.425
v 2.68384 1.46421 -0.425
v 3.11738 0.81537 -0.425
v 1.26962 0.05 -0.425
vn 0.0 -0.0 1.0
vn 1.0 -0.0 0.0
vn 0.9239 -0.3827 -0.0
vn 0.7071 -0.7071 -0.0
vn 0.3827 -0.9239 -0.0
vn -0.0 -1.0 -0.0
vn -0.3827 -0.9239 -0.0
vn -0.7071 -0.7071 -0.0
vn -0.9239 -0.3827 -0.0
vn -1.0 -0.0 -0.0
vn -0.9239 0.3827 0.0
vn -0.7071 0.7071 0.0
vn -0.3827 0.9239 0.0
vn -0.0 1.0 0.0
vn 0.3827 0.9239 0.0
vn 0.7071 0.7071 0.0
vn 0.9239 0.3827 0.0
vn -0.0 0.0 -1.0
usemtl flltgrey
f 183//105 184//105 185//105
f 186//105 183//105 185//105
f 187//105 186//105 185//105
f 188//105 187//105 185//105
f 189//105 188//105 185//105
f 190//105 189//105 185//105
f 191//105 190//105 185//105
f 192//105 191//105 185//105
f 193//105 192//105 185//105
f 194//105 193//105 185//105
f 195//105 194//105 185//105
f 196//105 195//105 185//105
f 197//105 196//105 185//105
f 198//105 197//105 185//105
f 199//105 198//105 185//105
f 184//105 199//105 185//105
f 200//106 184//106 183//107
f 201//107 183//107 186//108
f 202//108 186//108 187//109
f 203//109 187//109 188//110
f 204//110 188//110 189//111
f 205//111 189//111 190//112
f 206//112 190//112 191//113
f 207//113 191//113 192//114
f 208//114 192//114 193//115
f 209//115 193//115 194//116
f 210//116 194//116 195//117
f 211//117 195//117 196//118
f 212//118 196//118 197//119
f 213//119 197//119 198//120
f 214//120 198//120 199//121
f 215//121 199//121 184//106
f 200//106 183//107 201//107
f 201//107 186//108 202//108
f 202//108 187//109 203//109
f 203//109 188//110 204//110
f 204//110 189//111 205//111
f 205//111 190//112 206//112
f 206//112 191//113 207//113
f 207//113 192//114 208//114
f 208//114 193//115 209//115
f 209//115 194//116 210//116
f 210//116 195//117 211//117
f 211//117 196//118 212//118
f 212//118 197//119 213//119
f 213//119 198//120 214//120
f 214//120 199//121 215//121
f 215//121 184//106 200//106
f 216//122 200//122 201//122
f 216//122 201//122 202//122
f 216//122 202//122 203//122
f 216//122 203//122 204//122
f 216//122 204//122 205//122
f 216//122 205//122 206//122
f 216//122 206//122 207//122
f 216//122 207//122 208//122
f 216//122 208//122 209//122
f 216//122 209//122 210//122
f 216//122 210//122 211//122
f 216//122 211//122 212//122
f 216//122 212//122 213//122
f 216//122 213//122 214//122
f 216//122 214//122 215//122
f 216//122 215//122 200//122
g Cube_1
v 5.235 -4.06 0.5
v -2.765 -4.06 0.5
v 1.235 -4.06 0
v 5.235 -4.06 -0.5
v -2.765 -4.06 -0.5
v 5.235 -0.06 0
v 5.235 3.94 -0.5
v 5.235 3.94 0.5
v 1.235 -0.06 0.5
v -2.765 3.94 0.5
v -2.765 -0.06 0
v -2.765 3.94 -0.5
v 1.235 3.94 0
v 1.235 -0.06 -0.5
vn 0.0 -1.0 0.0
vn 1.0 0.0 0.0
vn 0.0 -0.0 1.0
vn -1.0 0.0 0.0
vn 0.0 1.0 0.0
vn 0.0 0.0 -1.0
usemtl flwhite
f 217//123 218//123 219//123
f 220//123 217//123 219//123
f 221//123 220//123 219//123
f 218//123 221//123 219//123
f 217//124 220//124 222//124
f 220//124 223//124 222//124
f 223//124 224//124 222//124
f 224//124 217//124 222//124
f 218//125 217//125 225//125
f 217//125 224//125 225//125
f 224//125 226//125 225//125
f 226//125 218//125 225//125
f 221//126 218//126 227//126
f 218//126 226//126 227//126
f 226//126 228//126 227//126
f 228//126 221//126 227//126
f 226//127 224//127 229//127
f 224//127 223//127 229//127
f 223//127 228//127 229//127
f 228//127 226//127 229//127
f 220//128 221//128 230//128
f 221//128 228//128 230//128
f 228//128 223//128 230//128
f 223//128 220//128 230//128
