# table_half_round.obj
#
# Created by Ola-Kristian HOFF
# https://sourceforge.net/p/sweethome3d/d-models/384/
#
# This file is distributed under Free Art License, see http://artlibre.org/licence/lal/en for more informations
# and under CC-BY Creative Commons Attribution 3.0 Unported license, see http://creativecommons.org/licenses/by/3.0/
# at your choice
#
mtllib table_half_round.mtl
g 1_1
usemtl Table
v 303.74704 74.99999 237.07599
v 290.69623 64.99999 243.02232
v 303.74704 64.99999 237.07599
v 290.69623 74.99999 243.02232
v 326.5 64.99999 187.55922
v 276.5 64.99999 189.55922
v 276.5 64.99999 187.55922
v 324.4936 64.99999 189.55922
v 326.4541 64.99999 201.90077
v 326.484 64.99999 192.55922
v 288.39502 64.99999 241.30214
v 276.5 64.99999 245.05923
v 276.5 64.99999 242.75177
v 301.29587 64.99999 235.7519
v 312.11563 64.99999 226.79819
v 314.59937 64.99999 227.69998
v 319.98132 64.99999 215.16345
v 322.37762 64.99999 215.65086
v 324.2583 64.99999 201.78647
v 324.484 64.99999 192.55283
v 314.59937 74.99999 227.69998
v 290.98016 76.99999 244.13156
v 276.5 74.99999 245.05923
v 226.5 64.99999 187.55922
v 228.50641 64.99999 189.55922
v 226.51599 64.99999 192.55922
v 226.5459 64.99999 201.90077
v 228.74168 64.99999 201.78647
v 230.6224 64.99999 215.65086
v 228.51599 64.99999 192.55283
v 233.01868 64.99999 215.16345
v 238.40063 64.99999 227.69998
v 240.88438 64.99999 226.79819
v 249.25296 64.99999 237.07599
v 251.70415 64.99999 235.7519
v 262.30377 64.99999 243.02232
v 264.60495 64.99999 241.30214
v 226.5 74.99999 187.55922
v 326.5 74.99999 187.55922
v 225.5 76.99999 187.55922
v 327.5 76.99999 187.55922
v 225.5 77.99999 187.55922
v 327.5 77.99999 187.55922
v 326.4541 74.99999 201.90077
v 322.37762 74.99999 215.65086
v 276.5 74.99999 242.75177
v 288.39502 74.99999 241.30214
v 301.29587 74.99999 235.7519
v 312.11563 74.99999 226.79819
v 319.98132 74.99999 215.16345
v 324.2583 74.99999 201.78647
v 324.484 74.99999 192.55283
v 324.4936 74.99999 189.55922
v 276.5 74.99999 189.55922
v 304.292 76.99999 238.0663
v 276.5 76.99999 246.20921
v 262.30377 74.99999 243.02232
v 228.50641 74.99999 189.55922
v 228.51599 74.99999 192.55283
v 228.74168 74.99999 201.78647
v 233.01868 74.99999 215.16345
v 240.88438 74.99999 226.79819
v 251.70415 74.99999 235.7519
v 264.60495 74.99999 241.30214
v 249.25296 74.99999 237.07599
v 238.40063 74.99999 227.69998
v 230.6224 74.99999 215.65086
v 226.5459 74.99999 201.90077
v 225.54681 76.99999 202.1876
v 225.54681 77.99999 202.1876
v 229.70485 77.99999 216.21268
v 237.63864 77.99999 228.5028
v 248.70801 77.99999 238.0663
v 262.0198 77.99999 244.13156
v 276.5 77.99999 246.20921
v 290.98016 77.99999 244.13156
v 304.292 77.99999 238.0663
v 315.36136 77.99999 228.5028
v 323.29517 77.99999 216.21268
v 327.4532 77.99999 202.1876
v 327.4532 76.99999 202.1876
v 323.29517 76.99999 216.21268
v 315.36136 76.99999 228.5028
v 262.0198 76.99999 244.13156
v 248.70801 76.99999 238.0663
v 229.70485 76.99999 216.21268
v 237.63864 76.99999 228.5028
vt 2.878058 0.5 0
vt 3.597572 0.0 0
vt 2.878058 0.0 0
vt 3.597572 0.5 0
vt -5.0 0.0 0
vt -2.5 -0.1 0
vt -2.5 0.0 0
vt -4.89968 -0.1 0
vt -4.997706 -0.7170779 0
vt -4.9992 -0.25 0
vt -3.094752 -2.687146 0
vt -2.5 -2.875 0
vt -2.5 -2.759628 0
vt -3.209812 -2.773155 0
vt -3.739793 -2.409634 0
vt -3.862352 -2.475838 0
vt -4.280781 -1.961948 0
vt -4.404969 -2.007038 0
vt -4.674066 -1.380212 0
vt -4.79388 -1.404581 0
vt -4.887916 -0.7113626 0
vt -4.899201 -0.24968 0
vt 2.158543 0.5 0
vt 2.158543 0.0 0
vt 1.761024 2.442777 0
vt 1.771102 2.327989 0
vt 2.488183 2.327989 0
vt 4.317087 0.0 0
vt 4.317087 0.5 0
vt 0.0 0.0 0
vt -0.1003205 -0.1 0
vt -0.0007999 -0.25 0
vt -0.0022944 -0.7170779 0
vt -0.1120844 -0.7113626 0
vt -0.2061201 -1.404581 0
vt -0.1007994 -0.24968 0
vt -0.3259339 -1.380212 0
vt -0.5950312 -2.007038 0
vt -0.7192192 -1.961948 0
vt -1.137648 -2.475838 0
vt -1.260207 -2.409634 0
vt -1.790188 -2.773155 0
vt -1.905248 -2.687146 0
vt 0.0 0.5 0
vt -5.0 0.5 0
vt 0.05 0.6 0
vt -5.05 0.6 0
vt 0.05 0.65 0
vt -5.05 0.65 0
vt 0.2508495 -0.0 0
vt 0.7195145 0.5 0
vt 0.7195145 0.0 0
vt 1.439029 0.5 0
vt 1.439029 0.0 0
vt -2.147799 0.5 0
vt -2.746951 0.0 0
vt -2.147799 0.0 0
vt -2.746951 0.5 0
vt -1.780855 0.5 0
vt -2.48306 0.0 0
vt -1.780855 0.0 0
vt -2.48306 0.5 0
vt -1.344944 0.5 0
vt -2.047148 0.0 0
vt -1.344944 0.0 0
vt -2.047148 0.5 0
vt -1.474389 0.5 0
vt -0.7721846 0.0 0
vt -0.7721846 0.5 0
vt -1.474389 0.0 0
vt -0.8109951 0.5 0
vt -0.1087909 0.0 0
vt -0.1087909 0.5 0
vt -0.8109951 0.0 0
vt 0.1298895 0.5 0
vt 0.59171 0.0 0
vt 0.59171 0.5 0
vt 0.1298895 0.0 0
vt 0.08432229 0.5 0
vt 0.2340031 0.0 0
vt 0.2340031 0.5 0
vt 0.08432229 0.0 0
vt 4.89968 0.5 0
vt 2.5 0.0 0
vt 4.89968 0.0 0
vt 2.5 0.5 0
vt 1.292286 2.679922 0
vt 1.304041 2.565659 0
vt 2.021122 2.565659 0
vt 2.058163 2.132973 0
vt 2.783411 2.01791 0
vt 2.789586 2.132973 0
vt 2.492447 2.442777 0
vt 2.06633 2.01791 0
vt 0.1003205 0.0 0
vt 0.1003205 0.5 0
vt -0.1003205 0.0 0
vt -0.2500013 0.5 0
vt -0.2500013 0.0 0
vt -0.1003205 0.5 0
vt -0.2520686 0.0 0
vt -0.7138891 0.5 0
vt -0.7138891 0.0 0
vt -0.2520686 0.5 0
vt -0.7117067 0.0 0
vt -1.413911 0.5 0
vt -1.413911 0.0 0
vt -0.7117067 0.5 0
vt -1.325974 0.0 0
vt -2.028178 0.5 0
vt -2.028178 0.0 0
vt -1.325974 0.5 0
vt -1.804924 0.5 0
vt -2.507128 0.0 0
vt -1.804924 0.0 0
vt -2.507128 0.5 0
vt -2.109912 0.5 0
vt -2.812116 0.0 0
vt -2.109912 0.0 0
vt -2.812116 0.5 0
vt -2.216328 0.5 0
vt -2.81548 0.0 0
vt -2.216328 0.0 0
vt -2.81548 0.5 0
vt -0.00016 0.65 0
vt 0.7312632 0.6 0
vt 0.7312632 0.65 0
vt -0.00016 0.6 0
vt -0.04765971 -0.7314194 0
vt 5.05 0.0 0
vt -0.05 0.0 0
vt 0.1602425 -1.432673 0
vt 0.5569318 -2.047179 0
vt 1.110401 -2.525355 0
vt 1.775991 -2.828618 0
vt 2.5 -2.9325 0
vt 3.224009 -2.828618 0
vt 3.889599 -2.525355 0
vt 4.443068 -2.047179 0
vt 4.839757 -1.432673 0
vt 5.04766 -0.7314194 0
vt 0.01615816 0.6 0
vt -0.715265 0.65 0
vt -0.715265 0.6 0
vt 0.01615816 0.65 0
vt -0.7010834 2.683261 0
vt 0.01615816 2.795065 0
vt -0.715265 2.795065 0
vt 0.01599818 2.683261 0
vt -0.00016 0.5590173 0
vt 0.7170816 0.4472141 0
vt 0.7312632 0.5590173 0
vt 0.0 0.4472141 0
vt 0.7330651 2.747254 0
vt 0.7335142 2.859953 0
vt 0.0159835 2.747254 0
vt 1.419913 2.708819 0
vt 1.421193 2.822363 0
vt 0.7028313 2.708819 0
vt 2.02371 2.679922 0
vt 2.789586 0.65 0
vt 2.058163 0.6 0
vt 2.789586 0.6 0
vt 2.058163 0.65 0
vt 2.492447 0.65 0
vt 1.761024 0.6 0
vt 2.492447 0.6 0
vt 1.761024 0.65 0
vt 2.891151 1.781698 0
vt 2.165903 1.666635 0
vt 2.882984 1.666635 0
vt 2.788947 1.424943 0
vt 2.061787 1.310156 0
vt 2.778869 1.310156 0
vt 2.49122 1.098425 0
vt 1.762384 0.984161 0
vt 2.479465 0.984161 0
vt 1.29185 0.7191487 0
vt 2.008932 0.7191487 0
vt 1.29057 0.8326927 0
vt 0.6881521 0.5366408 0
vt 1.405234 0.5366408 0
vt 0.687703 0.649339 0
vt 0.687703 0.65 0
vt 1.419126 0.6 0
vt 1.419126 0.65 0
vt 0.687703 0.6 0
vt 1.29057 0.65 0
vt 2.021993 0.6 0
vt 2.021993 0.65 0
vt 1.29057 0.6 0
vt 2.49122 0.65 0
vt 1.759796 0.6 0
vt 2.49122 0.6 0
vt 1.759796 0.65 0
vt 2.788947 0.65 0
vt 2.057523 0.6 0
vt 2.788947 0.6 0
vt 2.057523 0.65 0
vt 2.891151 0.65 0
vt 2.159728 0.6 0
vt 2.891151 0.6 0
vt 2.159728 0.65 0
vt 2.02371 0.65 0
vt 1.292286 0.6 0
vt 2.02371 0.6 0
vt 1.292286 0.65 0
vt 1.421193 0.6 0
vt 0.6897703 0.65 0
vt 0.6897703 0.6 0
vt 1.421193 0.65 0
vt 0.7335142 0.6 0
vt 0.002090999 0.65 0
vt 0.002090999 0.6 0
vt 0.7335142 0.65 0
vt 0.002090999 2.859953 0
vt 0.6897703 2.822363 0
vt 2.159728 1.781698 0
vt 2.057523 1.424943 0
vt 1.759796 1.098425 0
vt 2.021993 0.8326927 0
vt 1.419126 0.649339 0
vn 0.5396616 0.0 0.84188205
vn 0.2811743 0.0 0.9596567
vn 0.0 -1.0 0.0
vn 0.7546055 0.0 0.6561788
vn 0.24283731 -0.49664333 0.83329195
vn 0.24543233 -0.49660322 0.83255535
vn 0.47243106 -0.49111533 0.73185694
vn 0.14202689 0.0 0.9898628
vn 0.0 0.0 -1.0
vn 0.9999949 0.0 0.003199637
vn 0.9894033 0.0 0.1451934
vn 0.90866286 0.0 0.41753057
vn -0.1209732 0.0 -0.99265575
vn -0.26073068 0.0 -0.96541154
vn -0.521661 0.0 -0.8531529
vn -0.7405001 0.0 -0.6720563
vn -0.8995908 0.0 -0.43673372
vn -0.9860967 0.0 -0.16617258
vn -0.9997014 0.0 -0.024435809
vn -0.9999949 0.0 -0.003199637
vn 0.0 0.0 1.0
vn 0.46799788 -0.49126536 0.7345994
vn 0.6635799 -0.48235783 0.5718327
vn 0.12343372 -0.49465927 0.860277
vn -0.14202689 0.0 0.9898628
vn -0.2811743 0.0 0.9596567
vn 0.9999949 0.0 -0.003199637
vn 0.9997014 0.0 -0.024435809
vn 0.9860967 0.0 -0.16617258
vn 0.8995908 0.0 -0.43673372
vn 0.7405001 0.0 -0.6720563
vn 0.521661 0.0 -0.8531529
vn 0.26073068 0.0 -0.96541154
vn 0.1209732 0.0 -0.99265575
vn -0.5396616 0.0 0.84188205
vn -0.7546055 0.0 0.6561788
vn -0.90866286 0.0 0.41753057
vn -0.9894033 0.0 0.1451934
vn -0.9999949 0.0 0.003199637
vn 0.0 1.0 0.0
vn 0.8804838 -0.45760432 0.123881
vn 0.8944235 -0.4472118 0.002861845
vn 0.8787657 -0.45815057 0.13367438
vn -0.8944235 -0.4472118 0.002861845
vn -0.8804838 -0.45760432 0.123881
vn -0.8787657 -0.45815057 0.13367438
vn 0.8035848 -0.4709163 0.36399066
vn 0.7996171 -0.47136313 0.37206092
vn 0.6586237 -0.48265764 0.5772837
vn -0.12343372 -0.49465927 0.860277
vn -0.24543233 -0.49660322 0.83255535
vn -0.24283731 -0.49664333 0.83329195
vn -0.47243106 -0.49111533 0.73185694
vn -0.46799788 -0.49126536 0.7345994
vn -0.6635799 -0.48235783 0.5718327
vn -0.8035848 -0.4709163 0.36399066
vn -0.7996171 -0.47136313 0.37206092
vn -0.6586237 -0.48265764 0.5772837
f 1/1/1 2/2/2 3/3/1
f 2/2/2 1/1/1 4/4/2
f 5/5/3 6/6/3 7/7/3
f 6/6/3 5/5/3 8/8/3
f 8/8/3 5/5/3 9/9/3
f 9/9/3 5/5/3 10/10/3
f 11/11/3 12/12/3 13/13/3
f 12/12/3 11/11/3 2/14/3
f 2/14/3 11/11/3 14/15/3
f 2/14/3 14/15/3 3/16/3
f 3/16/3 14/15/3 15/17/3
f 3/16/3 15/17/3 16/18/3
f 16/18/3 15/17/3 17/19/3
f 16/18/3 17/19/3 18/20/3
f 18/20/3 17/19/3 19/21/3
f 18/20/3 19/21/3 9/9/3
f 9/9/3 19/21/3 20/22/3
f 9/9/3 20/22/3 8/8/3
f 21/23/4 3/3/1 16/24/4
f 3/3/1 21/23/4 1/1/1
f 22/25/5 4/26/6 1/27/7
f 4/4/2 12/28/8 2/2/2
f 12/28/8 4/4/2 23/29/8
f 24/30/3 25/31/3 26/32/3
f 25/31/3 24/30/3 7/7/3
f 26/32/3 25/31/3 27/33/3
f 25/31/3 7/7/3 6/6/3
f 27/33/3 28/34/3 29/35/3
f 28/34/3 27/33/3 30/36/3
f 30/36/3 27/33/3 25/31/3
f 29/35/3 28/34/3 31/37/3
f 29/35/3 31/37/3 32/38/3
f 32/38/3 31/37/3 33/39/3
f 32/38/3 33/39/3 34/40/3
f 34/40/3 33/39/3 35/41/3
f 34/40/3 35/41/3 36/42/3
f 36/42/3 35/41/3 37/43/3
f 36/42/3 37/43/3 12/12/3
f 12/12/3 37/43/3 13/13/3
f 38/44/9 7/7/9 24/30/9
f 7/7/9 38/44/9 5/5/9
f 5/5/9 38/44/9 39/45/9
f 39/45/9 38/44/9 40/46/9
f 39/45/9 40/46/9 41/47/9
f 41/47/9 40/46/9 42/48/9
f 41/47/9 42/48/9 43/49/9
f 10/50/10 44/51/11 9/52/11
f 44/51/11 10/50/10 39/44/10
f 39/44/10 10/50/10 5/30/10
f 9/52/11 45/53/12 18/54/12
f 45/53/12 9/52/11 44/51/11
f 18/54/12 21/23/4 16/24/4
f 21/23/4 18/54/12 45/53/12
f 46/55/13 11/56/14 13/57/13
f 11/56/14 46/55/13 47/58/14
f 47/59/14 14/60/15 11/61/14
f 14/60/15 47/59/14 48/62/15
f 48/63/15 15/64/16 14/65/15
f 15/64/16 48/63/15 49/66/16
f 50/67/17 15/68/16 49/69/16
f 15/68/16 50/67/17 17/70/17
f 51/71/18 17/72/17 50/73/17
f 17/72/17 51/71/18 19/74/18
f 52/75/19 19/76/18 51/77/18
f 19/76/18 52/75/19 20/78/19
f 53/79/20 20/80/20 52/81/20
f 20/80/20 53/79/20 8/82/20
f 53/83/21 6/84/21 8/85/21
f 6/84/21 53/83/21 54/86/21
f 55/87/22 1/88/7 21/89/23
f 56/90/24 4/91/6 22/92/5
f 22/25/5 1/27/7 55/93/22
f 56/90/24 23/94/24 4/91/6
f 23/29/25 36/2/26 12/28/25
f 36/2/26 23/29/25 57/4/26
f 54/86/21 25/95/21 6/84/21
f 25/95/21 54/86/21 58/96/21
f 25/97/27 59/98/27 30/99/27
f 59/98/27 25/97/27 58/100/27
f 30/101/28 60/102/29 28/103/29
f 60/102/29 30/101/28 59/104/28
f 28/105/29 61/106/30 31/107/30
f 61/106/30 28/105/29 60/108/29
f 31/109/30 62/110/31 33/111/31
f 62/110/31 31/109/30 61/112/30
f 62/113/31 35/114/32 33/115/31
f 35/114/32 62/113/31 63/116/32
f 63/117/32 37/118/33 35/119/32
f 37/118/33 63/117/32 64/120/33
f 64/121/33 13/122/34 37/123/33
f 13/122/34 64/121/33 46/124/34
f 57/4/26 34/3/35 36/2/26
f 34/3/35 57/4/26 65/1/35
f 65/1/35 32/24/36 34/3/35
f 32/24/36 65/1/35 66/23/36
f 67/53/37 32/24/36 66/23/36
f 32/24/36 67/53/37 29/54/37
f 68/51/38 29/54/37 67/53/37
f 29/54/37 68/51/38 27/52/38
f 38/44/39 27/52/38 68/51/38
f 27/52/38 38/44/39 26/50/39
f 26/50/39 38/44/39 24/30/39
f 42/125/39 69/126/38 70/127/38
f 69/126/38 42/125/39 40/128/39
f 70/129/40 43/130/40 42/131/40
f 43/130/40 70/129/40 71/132/40
f 43/130/40 71/132/40 72/133/40
f 43/130/40 72/133/40 73/134/40
f 43/130/40 73/134/40 74/135/40
f 43/130/40 74/135/40 75/136/40
f 43/130/40 75/136/40 76/137/40
f 43/130/40 76/137/40 77/138/40
f 43/130/40 77/138/40 78/139/40
f 43/130/40 78/139/40 79/140/40
f 43/130/40 79/140/40 80/141/40
f 41/142/10 80/143/11 81/144/11
f 80/143/11 41/142/10 43/145/10
f 44/146/41 41/147/42 81/148/43
f 41/147/42 44/146/41 39/149/42
f 40/150/44 68/151/45 69/152/46
f 68/151/45 40/150/44 38/153/44
f 44/154/41 81/155/43 45/156/47
f 45/157/47 82/158/48 21/159/23
f 53/8/3 46/13/3 54/6/3
f 46/13/3 53/8/3 47/11/3
f 47/11/3 53/8/3 48/15/3
f 48/15/3 53/8/3 49/17/3
f 49/17/3 53/8/3 50/19/3
f 50/19/3 53/8/3 51/21/3
f 51/21/3 53/8/3 52/22/3
f 55/87/22 21/89/23 83/160/49
f 76/161/2 56/162/8 22/163/2
f 56/162/8 76/161/2 75/164/8
f 77/165/1 22/166/2 55/167/1
f 22/166/2 77/165/1 76/168/2
f 56/169/50 57/170/51 23/171/50
f 54/6/3 59/36/3 58/31/3
f 59/36/3 54/6/3 60/34/3
f 60/34/3 54/6/3 61/37/3
f 61/37/3 54/6/3 62/39/3
f 62/39/3 54/6/3 63/41/3
f 63/41/3 54/6/3 64/43/3
f 64/43/3 54/6/3 46/13/3
f 84/172/52 65/173/53 57/174/51
f 85/175/54 66/176/55 65/177/53
f 67/178/56 66/179/55 86/180/57
f 68/181/45 67/182/56 69/183/46
f 70/184/38 86/185/37 71/186/37
f 86/185/37 70/184/38 69/187/38
f 71/188/37 87/189/36 72/190/36
f 87/189/36 71/188/37 86/191/37
f 73/192/35 87/193/36 85/194/35
f 87/193/36 73/192/35 72/195/36
f 74/196/26 85/197/35 84/198/26
f 85/197/35 74/196/26 73/199/35
f 75/200/25 84/201/26 56/202/25
f 84/201/26 75/200/25 74/203/26
f 78/204/4 55/205/1 83/206/4
f 55/205/1 78/204/4 77/207/1
f 82/208/12 78/209/4 83/210/4
f 78/209/4 82/208/12 79/211/12
f 81/212/11 79/213/12 82/214/12
f 79/213/12 81/212/11 80/215/11
f 81/155/43 82/216/48 45/156/47
f 82/158/48 83/217/49 21/159/23
f 84/218/52 57/170/51 56/169/50
f 85/219/54 65/173/53 84/172/52
f 87/220/58 66/176/55 85/175/54
f 86/180/57 66/179/55 87/221/58
f 69/183/46 67/182/56 86/222/57
g 4_2
usemtl Table
v 323.44403 0.0 191.37917
v 323.44403 0.0 188.73927
v 325.54752 0.0 191.37917
v 325.55597 0.0 188.73927
v 322.5 64.99999 187.55922
v 322.5 64.99999 192.55922
v 326.5 75.0 187.55922
v 326.484 75.0 192.55922
v 322.5 75.0 187.55922
v 322.5 75.0 192.55922
vt -0.1527979 0.8090026 0
vt -0.1527979 0.9409974 0
vt -0.04762439 0.8090026 0
vt -0.04720205 0.9409974 0
vt 0.05915329 -3.25034 0
vt 0.1911488 -3.25034 0
vt 0.2500013 0.0 0
vt -0.2 -0.0 0
vt -0.1527979 -3.250536 0
vt -0.04720205 -3.250536 0
vt -0.05900256 -3.247438 0
vt -0.1909974 -3.247438 0
vt 0.0 0.002904435 0
vt -0.25 0.002904435 0
vt 0.0007999 0.004537911 0
vt 0.2 0.004537911 0
vt 0.04762439 -3.245998 0
vt 0.1527979 -3.245998 0
vt -0.2499987 3.25 0
vt -0.2499987 3.75 0
vt 0.0000026 3.25 0
vt 0.0000026 3.75 0
vt -0.2 3.75 0
vt 0.0 3.75 0
vt -0.2 3.25 0
vt 0.0 3.25 0
vt 0.25 3.75 0
vt 0.25 3.25 0
vt 0.0007999 3.75 0
vt 0.2 3.75 0
vt 0.0007999 3.25 0
vt 0.2 3.25 0
vt 0.2 0.0 0
vt 0.0007999 0.0 0
vt 0.2 0.25 0
vt 0.0 0.25 0
vn 0.99989027 -0.014464028 0.0031993014
vn 0.0 -0.018151645 -0.9998353
vn -0.99989456 -0.014522181 0.0
vn 0.0 -0.018151645 0.9998353
vn -1.0 0.0 0.0
f 88/223/3 89/224/3 90/225/3
f 91/226/3 90/225/3 89/224/3
f 91/227/59 5/30/59 90/228/59
f 10/229/59 90/228/59 5/30/59
f 92/230/60 5/30/60 89/231/60
f 91/232/60 89/231/60 5/30/60
f 89/233/61 88/234/61 92/235/61
f 93/236/61 92/235/61 88/234/61
f 10/237/62 93/238/62 90/239/62
f 88/240/62 90/239/62 93/238/62
f 5/241/10 94/242/10 10/243/10
f 95/244/10 10/243/10 94/242/10
f 96/245/9 94/246/9 92/247/9
f 5/248/9 92/247/9 94/246/9
f 96/249/63 92/250/63 97/246/63
f 93/248/63 97/246/63 92/250/63
f 95/251/21 97/252/21 10/253/21
f 93/254/21 10/253/21 97/252/21
f 97/255/40 95/256/40 96/257/40
f 94/258/40 96/257/40 95/256/40
g 5_3
usemtl Table
v 304.45743 0.0 232.4399
v 306.44952 0.0 230.70764
v 305.83768 0.0 234.02718
v 307.8353 0.0 232.30132
v 309.34525 64.99999 232.23936
v 305.5617 64.99999 235.50818
v 306.72052 64.99999 229.22095
v 302.9475 64.99999 232.50183
v 309.34525 75.0 232.23936
v 305.5617 75.0 235.50818
v 306.72052 75.0 229.22095
v 302.9475 75.0 232.50183
vn 0.65369254 -0.014464029 0.756622
vn 0.7544812 -0.018151643 -0.65607065
vn -0.6561095 -0.014522181 -0.7545259
vn -0.7544812 -0.018151643 0.65607065
vn 0.6537609 0.0 0.7567012
vn 0.7546055 0.0 -0.6561788
vn -0.6561788 0.0 -0.7546055
f 98/223/3 99/224/3 100/225/3
f 101/226/3 100/225/3 99/224/3
f 101/227/64 102/30/64 100/228/64
f 103/229/64 100/228/64 102/30/64
f 104/230/65 102/30/65 99/231/65
f 101/232/65 99/231/65 102/30/65
f 99/233/66 98/234/66 104/235/66
f 105/236/66 104/235/66 98/234/66
f 103/237/67 105/238/67 100/239/67
f 98/240/67 100/239/67 105/238/67
f 102/241/68 106/242/68 103/243/68
f 107/244/68 103/243/68 106/242/68
f 108/245/69 106/246/69 104/247/69
f 102/248/69 104/247/69 106/246/69
f 108/249/70 104/250/70 109/246/70
f 105/248/70 109/246/70 104/250/70
f 107/251/36 109/252/36 103/253/36
f 105/254/36 103/253/36 109/252/36
f 109/255/40 107/256/40 108/257/40
f 106/258/40 108/257/40 107/256/40
g 6_4
usemtl Table
v 246.5505 0.0 230.70764
v 247.16232 0.0 234.02718
v 245.1647 0.0 232.30132
v 248.54257 0.0 232.4399
v 243.65477 64.99999 232.23936
v 247.4383 64.99999 235.50818
v 246.27948 64.99999 229.22095
v 250.05252 64.99999 232.50183
v 243.65477 75.0 232.23936
v 247.4383 75.0 235.50818
v 246.27948 75.0 229.22095
v 250.05252 75.0 232.50183
vn -0.65369254 -0.014464029 0.756622
vn -0.7544812 -0.018151643 -0.65607065
vn 0.6561095 -0.014522181 -0.7545259
vn 0.7544812 -0.018151643 0.65607065
vn -0.6537609 0.0 0.7567012
vn -0.7546055 0.0 -0.6561788
vn 0.6561788 0.0 -0.7546055
f 110/224/3 111/225/3 112/226/3
f 111/225/3 110/224/3 113/223/3
f 114/30/71 111/228/71 115/229/71
f 111/228/71 114/30/71 112/227/71
f 114/30/72 110/231/72 112/232/72
f 110/231/72 114/30/72 116/230/72
f 113/234/73 116/235/73 117/236/73
f 116/235/73 113/234/73 110/233/73
f 117/238/74 111/239/74 113/240/74
f 111/239/74 117/238/74 115/237/74
f 118/242/75 115/243/75 119/244/75
f 115/243/75 118/242/75 114/241/75
f 118/246/76 116/247/76 114/248/76
f 116/247/76 118/246/76 120/245/76
f 116/250/77 121/246/77 117/248/77
f 121/246/77 116/250/77 120/249/77
f 121/252/4 115/253/4 117/254/4
f 115/253/4 121/252/4 119/251/4
f 119/256/40 120/257/40 118/258/40
f 120/257/40 119/256/40 121/255/40
g 7_5
usemtl Table
v 229.55595 0.0 188.73927
v 227.45248 0.0 191.37917
v 227.44405 0.0 188.73927
v 229.55595 0.0 191.37917
v 230.5 64.99999 187.55922
v 230.5 64.99999 192.55922
v 226.5 75.0 187.55922
v 226.51599 75.0 192.55922
v 230.5 75.0 187.55922
v 230.5 75.0 192.55922
vn -0.99989027 -0.014464028 0.0031993014
vn 0.99989456 -0.014522181 0.0
vn 1.0 0.0 0.0
f 122/224/3 123/225/3 124/226/3
f 123/225/3 122/224/3 125/223/3
f 24/30/78 123/228/78 26/229/78
f 123/228/78 24/30/78 124/227/78
f 24/30/60 122/231/60 124/232/60
f 122/231/60 24/30/60 126/230/60
f 125/234/79 126/235/79 127/236/79
f 126/235/79 125/234/79 122/233/79
f 127/238/62 123/239/62 125/240/62
f 123/239/62 127/238/62 26/237/62
f 128/242/39 26/243/39 129/244/39
f 26/243/39 128/242/39 24/241/39
f 128/246/9 126/247/9 24/248/9
f 126/247/9 128/246/9 130/245/9
f 126/250/80 131/246/80 127/248/80
f 131/246/80 126/250/80 130/249/80
f 131/252/21 26/253/21 127/254/21
f 26/253/21 131/252/21 129/251/21
f 129/256/40 130/257/40 128/258/40
f 130/257/40 129/256/40 131/255/40
