<?xml version="1.0" encoding="UTF-8"?>
<svg width="16px" height="16px" viewBox="0 0 16 16" version="1.1" xmlns="http://www.w3.org/2000/svg" xmlns:xlink="http://www.w3.org/1999/xlink">
    <title>fichier/document-print</title>
    <g id="fichier/document-print" stroke="none" stroke-width="1" fill="none" fill-rule="evenodd">
        <g id="Group" fill="#DDDDDD" fill-rule="nonzero" opacity="0">
            <g id="Rectangle-Copy-25">
                <rect x="0" y="0" width="16" height="16"></rect>
            </g>
        </g>
        <polyline id="Path-Copy-8" stroke="#000000" stroke-width="0.75" fill="#FFFFFF" stroke-linecap="round" stroke-linejoin="round" points="3.5 11 0.5 10.5 0.5 4.5 15.5 4.5 15.5 10.5 12.5 11"></polyline>
        <path d="M3.5,3 L3.5,0.5 L10.1666667,0.5 C10.3830369,0.5 10.5935705,0.570177872 10.7666667,0.7 L12.1,1.7 C12.3518058,1.88885438 12.5,2.1852427 12.5,2.5 L12.5,3 L12.5,3" id="Path-Copy-11" stroke="#000000" stroke-width="0.75" fill="#FFFFFF" stroke-linecap="round" stroke-linejoin="round"></path>
        <path d="M2.90434783,6.7163913 C2.90434783,7.10299063 3.2177485,7.4163913 3.60434783,7.4163913 C3.99094715,7.4163913 4.30434783,7.10299063 4.30434783,6.7163913 C4.30434783,6.32979198 3.99094715,6.0163913 3.60434783,6.0163913 C3.2177485,6.0163913 2.90434783,6.32979198 2.90434783,6.7163913 Z" id="Path-Copy-15" stroke="#000000" stroke-width="0.75" stroke-linecap="round" stroke-linejoin="round"></path>
        <polyline id="Path-Copy-14" stroke="#000000" stroke-width="0.75" stroke-linecap="round" stroke-linejoin="round" points="9.5 0.5 9.5 3 12.5 3"></polyline>
        <polygon id="Path-Copy-12" stroke="#000000" stroke-width="0.75" fill="#FFFFFF" stroke-linecap="round" stroke-linejoin="round" points="12.5 15.5 3.5 15.5 3.5 9.5 12.5 9.5"></polygon>
        <g id="Group-12-Copy" transform="translate(5.500000, 9.900000)" fill="#FFFFFF" fill-rule="nonzero" stroke="#8D8D8D" stroke-linecap="round" stroke-linejoin="round" stroke-width="0.75">
            <polyline id="Path" transform="translate(1.500000, 2.100000) scale(-1, 1) translate(-1.500000, -2.100000) " points="0 0.1 0 4.1 3 3.1 3 0.1"></polyline>
            <polyline id="Path" points="5 0 5 3.1 3 4.1 3 0"></polyline>
        </g>
    </g>
</svg>