# Blender v2.79 (sub 0) OBJ File: 'table-on-trestles.blend'
# www.blender.org
mtllib table-on-trestles.mtl
o rightTrestle_Cube.002
v 37.941780 -74.528656 -32.094219
v 37.941780 -74.528656 -27.905785
v 54.909939 -0.834846 -32.094215
v 54.909939 -0.834847 -27.905785
v 39.717560 -74.937531 -32.094219
v 39.717560 -74.937531 -27.905785
v 56.685719 -1.243724 -32.094215
v 56.685719 -1.243724 -27.905785
v 37.941780 -74.528648 32.094215
v 37.941780 -74.528648 27.905783
v 54.909939 -0.834847 32.094215
v 54.909939 -0.834847 27.905785
v 39.717560 -74.937531 32.094215
v 39.717560 -74.937531 27.905783
v 56.685722 -1.243724 32.094215
v 56.685722 -1.243724 27.905785
v 56.696472 -1.268991 32.098179
v 56.102943 -3.846721 32.098179
v 56.696472 -1.268995 -32.094215
v 56.102943 -3.846719 -32.094215
v 58.472256 -1.677869 32.098179
v 57.878727 -4.255599 32.098179
v 58.472252 -1.677873 -32.094215
v 57.878723 -4.255597 -32.094215
v 42.412895 -63.303486 32.098179
v 41.819366 -65.881210 32.098179
v 42.412891 -63.303493 -32.094219
v 41.819366 -65.881210 -32.094219
v 44.188675 -63.712357 32.098179
v 43.595146 -66.290085 32.098179
v 44.188671 -63.712368 -32.094219
v 43.595146 -66.290085 -32.094219
v 79.004189 -74.528656 -32.094219
v 79.004189 -74.528656 -27.905785
v 62.036026 -0.834846 -32.094215
v 62.036026 -0.834847 -27.905785
v 77.228409 -74.937531 -32.094219
v 77.228409 -74.937531 -27.905785
v 60.260246 -1.243724 -32.094215
v 60.260246 -1.243724 -27.905785
v 79.004189 -74.528648 32.094215
v 79.004189 -74.528648 27.905783
v 62.036026 -0.834847 32.094215
v 62.036026 -0.834847 27.905785
v 77.228409 -74.937531 32.094215
v 77.228409 -74.937531 27.905783
v 60.260246 -1.243724 32.094215
v 60.260246 -1.243724 27.905785
v 60.249493 -1.268991 32.098179
v 60.843021 -3.846721 32.098179
v 60.249496 -1.268995 -32.094215
v 60.843021 -3.846719 -32.094215
v 58.473713 -1.677869 32.098179
v 59.067242 -4.255599 32.098179
v 58.473717 -1.677873 -32.094215
v 59.067242 -4.255597 -32.094215
v 74.533073 -63.303486 32.098179
v 75.126602 -65.881210 32.098179
v 74.533081 -63.303493 -32.094219
v 75.126602 -65.881210 -32.094219
v 72.757294 -63.712357 32.098179
v 73.350815 -66.290085 32.098179
v 72.757294 -63.712368 -32.094219
v 73.350822 -66.290085 -32.094219
vt 0.733366 0.753083
vt 0.733366 0.873440
vt -0.266634 0.873441
vt -0.266634 0.753083
vt -0.032993 0.046163
vt -0.091403 0.046163
vt -0.091403 -0.006201
vt -0.032993 -0.006201
vt 0.733366 0.873441
vt 0.733366 0.993798
vt -0.266634 0.993799
vt -0.266634 0.873442
vt -0.149813 0.046163
vt -0.208223 0.046163
vt -0.208223 -0.006201
vt -0.149813 -0.006201
vt -0.266634 0.307981
vt -0.266634 0.255617
vt 0.733366 0.255618
vt 0.733366 0.307981
vt 0.733366 0.307981
vt 0.733366 0.360345
vt -0.266634 0.360345
vt -0.266634 0.307981
vt -0.266634 0.512367
vt 0.733366 0.512367
vt 0.733366 0.632725
vt -0.266634 0.632725
vt -0.149813 0.046163
vt -0.149813 -0.006201
vt -0.091403 -0.006201
vt -0.091403 0.046163
vt -0.266634 0.632725
vt 0.733366 0.632725
vt 0.733366 0.753083
vt -0.266634 0.753082
vt -0.266634 0.046163
vt -0.266634 -0.006201
vt -0.208223 -0.006201
vt -0.208223 0.046163
vt 0.733366 0.255617
vt -0.266634 0.255617
vt -0.266634 0.203254
vt 0.733366 0.203254
vt -0.266634 0.150890
vt 0.733366 0.150890
vt 0.733366 0.203254
vt -0.266634 0.203254
vt 0.628567 0.436356
vt -0.266634 0.436356
vt -0.266634 0.360345
vt 0.628567 0.360345
vt 0.003896 0.046163
vt 0.003896 -0.006201
vt 0.040784 -0.006201
vt 0.040784 0.046163
vt -0.266634 0.436356
vt 0.628567 0.436356
vt 0.628567 0.512367
vt -0.266634 0.512367
vt 0.003896 -0.006201
vt 0.003896 0.046163
vt -0.032993 0.046163
vt -0.032993 -0.006201
vt 0.628567 0.098526
vt -0.266634 0.098526
vt -0.266634 0.046163
vt 0.628567 0.046163
vt 0.628567 0.150890
vt -0.266634 0.150890
vt -0.266634 0.098527
vt 0.628567 0.098526
vt 0.628567 0.436356
vt -0.266634 0.436356
vt -0.266634 0.360345
vt 0.628567 0.360345
vt 0.003896 0.046163
vt 0.003896 -0.006201
vt 0.040784 -0.006201
vt 0.040784 0.046163
vt -0.266634 0.436356
vt 0.628567 0.436356
vt 0.628567 0.512367
vt -0.266634 0.512367
vt 0.003896 -0.006201
vt 0.003896 0.046163
vt -0.032993 0.046163
vt -0.032993 -0.006201
vt 0.628567 0.098526
vt -0.266634 0.098526
vt -0.266634 0.046163
vt 0.628567 0.046163
vt 0.628567 0.150890
vt -0.266634 0.150890
vt -0.266634 0.098527
vt 0.628567 0.098526
vt 0.888386 0.926704
vt -0.111614 0.926705
vt -0.111614 1.047063
vt 0.888386 1.047062
vt 0.122027 0.219785
vt 0.122027 0.167421
vt 0.063616 0.167421
vt 0.063616 0.219785
vt 0.888386 1.047063
vt -0.111614 1.047064
vt -0.111614 1.167421
vt 0.888386 1.167420
vt 0.005206 0.219785
vt 0.005206 0.167421
vt -0.053204 0.167421
vt -0.053204 0.219785
vt -0.111614 0.481603
vt 0.888386 0.481603
vt 0.888386 0.429240
vt -0.111614 0.429239
vt 0.888386 0.481603
vt -0.111614 0.481603
vt -0.111614 0.533967
vt 0.888386 0.533967
vt -0.111614 0.685989
vt -0.111614 0.806347
vt 0.888386 0.806347
vt 0.888386 0.685989
vt 0.005206 0.219785
vt 0.063616 0.219785
vt 0.063616 0.167421
vt 0.005206 0.167421
vt -0.111614 0.806347
vt -0.111614 0.926704
vt 0.888386 0.926704
vt 0.888386 0.806347
vt -0.111614 0.219785
vt -0.053204 0.219785
vt -0.053204 0.167421
vt -0.111614 0.167421
vt 0.888386 0.429239
vt 0.888386 0.376876
vt -0.111614 0.376876
vt -0.111614 0.429239
vt -0.111614 0.324512
vt -0.111614 0.376876
vt 0.888386 0.376876
vt 0.888386 0.324512
vt 0.783587 0.609978
vt 0.783587 0.533967
vt -0.111614 0.533967
vt -0.111614 0.609978
vt 0.158915 0.219785
vt 0.195804 0.219785
vt 0.195804 0.167421
vt 0.158915 0.167421
vt -0.111614 0.609978
vt -0.111614 0.685989
vt 0.783587 0.685989
vt 0.783587 0.609978
vt 0.158915 0.167421
vt 0.122027 0.167421
vt 0.122027 0.219785
vt 0.158915 0.219785
vt 0.783587 0.272148
vt 0.783587 0.219785
vt -0.111614 0.219785
vt -0.111614 0.272148
vt 0.783587 0.324512
vt 0.783587 0.272148
vt -0.111614 0.272149
vt -0.111614 0.324512
vt 0.783587 0.609978
vt 0.783587 0.533967
vt -0.111614 0.533967
vt -0.111614 0.609978
vt 0.158915 0.219785
vt 0.195804 0.219785
vt 0.195804 0.167421
vt 0.158915 0.167421
vt -0.111614 0.609978
vt -0.111614 0.685989
vt 0.783587 0.685989
vt 0.783587 0.609978
vt 0.158915 0.167421
vt 0.122027 0.167421
vt 0.122027 0.219785
vt 0.158915 0.219785
vt 0.783587 0.272148
vt 0.783587 0.219785
vt -0.111614 0.219785
vt -0.111614 0.272148
vt 0.783587 0.324512
vt 0.783587 0.272148
vt -0.111614 0.272149
vt -0.111614 0.324512
vn -0.9745 0.2244 0.0000
vn 0.2244 0.9745 0.0000
vn 0.9745 -0.2244 0.0000
vn -0.2244 -0.9745 0.0000
vn -0.0000 0.0000 -1.0000
vn 0.0000 0.0000 1.0000
vn 0.9745 0.2244 0.0000
vn -0.2244 0.9745 0.0000
vn -0.9745 -0.2244 0.0000
vn 0.2244 -0.9745 0.0000
usemtl woodLegsRight
s off
f 1/1/1 2/2/1 4/3/1 3/4/1
f 3/5/2 4/6/2 8/7/2 7/8/2
f 7/9/3 8/10/3 6/11/3 5/12/3
f 5/13/4 6/14/4 2/15/4 1/16/4
f 3/17/5 7/18/5 5/19/5 1/20/5
f 8/21/6 4/22/6 2/23/6 6/24/6
f 9/25/1 11/26/1 12/27/1 10/28/1
f 11/29/2 15/30/2 16/31/2 12/32/2
f 15/33/3 13/34/3 14/35/3 16/36/3
f 13/37/4 9/38/4 10/39/4 14/40/4
f 11/41/6 9/42/6 13/43/6 15/44/6
f 16/45/5 14/46/5 10/47/5 12/48/5
f 17/49/1 19/50/1 20/51/1 18/52/1
f 19/53/5 23/54/5 24/55/5 20/56/5
f 23/57/3 21/58/3 22/59/3 24/60/3
f 21/61/6 17/62/6 18/63/6 22/64/6
f 19/65/2 17/66/2 21/67/2 23/68/2
f 24/69/4 22/70/4 18/71/4 20/72/4
f 25/73/1 27/74/1 28/75/1 26/76/1
f 27/77/5 31/78/5 32/79/5 28/80/5
f 31/81/3 29/82/3 30/83/3 32/84/3
f 29/85/6 25/86/6 26/87/6 30/88/6
f 27/89/2 25/90/2 29/91/2 31/92/2
f 32/93/4 30/94/4 26/95/4 28/96/4
f 33/97/7 35/98/7 36/99/7 34/100/7
f 35/101/8 39/102/8 40/103/8 36/104/8
f 39/105/9 37/106/9 38/107/9 40/108/9
f 37/109/10 33/110/10 34/111/10 38/112/10
f 35/113/5 33/114/5 37/115/5 39/116/5
f 40/117/6 38/118/6 34/119/6 36/120/6
f 41/121/7 42/122/7 44/123/7 43/124/7
f 43/125/8 44/126/8 48/127/8 47/128/8
f 47/129/9 48/130/9 46/131/9 45/132/9
f 45/133/10 46/134/10 42/135/10 41/136/10
f 43/137/6 47/138/6 45/139/6 41/140/6
f 48/141/5 44/142/5 42/143/5 46/144/5
f 49/145/7 50/146/7 52/147/7 51/148/7
f 51/149/5 52/150/5 56/151/5 55/152/5
f 55/153/9 56/154/9 54/155/9 53/156/9
f 53/157/6 54/158/6 50/159/6 49/160/6
f 51/161/8 55/162/8 53/163/8 49/164/8
f 56/165/10 52/166/10 50/167/10 54/168/10
f 57/169/7 58/170/7 60/171/7 59/172/7
f 59/173/5 60/174/5 64/175/5 63/176/5
f 63/177/9 64/178/9 62/179/9 61/180/9
f 61/181/6 62/182/6 58/183/6 57/184/6
f 59/185/8 63/186/8 61/187/8 57/188/8
f 64/189/10 60/190/10 58/191/10 62/192/10
o LeftTrestle_Cube.001
v -78.334023 -74.528656 -32.094219
v -78.334023 -74.528656 -27.905785
v -61.365860 -0.834846 -32.094215
v -61.365860 -0.834847 -27.905785
v -76.558243 -74.937531 -32.094219
v -76.558243 -74.937531 -27.905785
v -59.590080 -1.243724 -32.094215
v -59.590080 -1.243724 -27.905785
v -78.334023 -74.528648 32.094215
v -78.334023 -74.528648 27.905783
v -61.365860 -0.834847 32.094215
v -61.365860 -0.834847 27.905785
v -76.558243 -74.937531 32.094215
v -76.558243 -74.937531 27.905783
v -59.590080 -1.243724 32.094215
v -59.590080 -1.243724 27.905785
v -59.579327 -1.268991 32.098179
v -60.172855 -3.846721 32.098179
v -59.579330 -1.268995 -32.094215
v -60.172855 -3.846719 -32.094215
v -57.803547 -1.677869 32.098179
v -58.397076 -4.255599 32.098179
v -57.803551 -1.677873 -32.094215
v -58.397076 -4.255597 -32.094215
v -73.862907 -63.303486 32.098179
v -74.456436 -65.881210 32.098179
v -73.862915 -63.303493 -32.094219
v -74.456436 -65.881210 -32.094219
v -72.087128 -63.712357 32.098179
v -72.680649 -66.290085 32.098179
v -72.087128 -63.712368 -32.094219
v -72.680656 -66.290085 -32.094219
v -37.200924 -74.528656 -32.094219
v -37.200924 -74.528656 -27.905785
v -54.169083 -0.834846 -32.094215
v -54.169083 -0.834847 -27.905785
v -38.976704 -74.937531 -32.094219
v -38.976707 -74.937531 -27.905785
v -55.944866 -1.243724 -32.094215
v -55.944866 -1.243724 -27.905785
v -37.200928 -74.528648 32.094215
v -37.200928 -74.528648 27.905783
v -54.169086 -0.834847 32.094215
v -54.169086 -0.834847 27.905785
v -38.976707 -74.937531 32.094215
v -38.976707 -74.937531 27.905783
v -55.944866 -1.243724 32.094215
v -55.944866 -1.243724 27.905785
v -55.955620 -1.268991 32.098179
v -55.362091 -3.846721 32.098179
v -55.955616 -1.268995 -32.094215
v -55.362091 -3.846719 -32.094215
v -57.731400 -1.677869 32.098179
v -57.137871 -4.255599 32.098179
v -57.731396 -1.677873 -32.094215
v -57.137871 -4.255597 -32.094215
v -41.672043 -63.303486 32.098179
v -41.078514 -65.881210 32.098179
v -41.672035 -63.303493 -32.094219
v -41.078510 -65.881210 -32.094219
v -43.447823 -63.712357 32.098179
v -42.854294 -66.290085 32.098179
v -43.447815 -63.712368 -32.094219
v -42.854294 -66.290085 -32.094219
vt 1.000000 0.759283
vt 1.000000 0.879641
vt 0.000000 0.879642
vt 0.000000 0.759284
vt 0.233641 0.052364
vt 0.175231 0.052364
vt 0.175231 0.000000
vt 0.233641 0.000000
vt 1.000000 0.879642
vt 1.000000 0.999999
vt 0.000000 1.000000
vt 0.000000 0.879642
vt 0.116820 0.052364
vt 0.058410 0.052364
vt 0.058410 0.000000
vt 0.116820 0.000000
vt 0.000000 0.314182
vt 0.000000 0.261818
vt 1.000000 0.261818
vt 1.000000 0.314182
vt 1.000000 0.314182
vt 1.000000 0.366546
vt 0.000000 0.366545
vt 0.000000 0.314182
vt 0.000000 0.518568
vt 1.000000 0.518568
vt 1.000000 0.638926
vt 0.000000 0.638926
vt 0.116820 0.052364
vt 0.116820 0.000000
vt 0.175231 0.000000
vt 0.175231 0.052364
vt 0.000000 0.638926
vt 1.000000 0.638926
vt 1.000000 0.759283
vt 0.000000 0.759283
vt 0.000000 0.052364
vt 0.000000 0.000000
vt 0.058410 0.000000
vt 0.058410 0.052364
vt 1.000000 0.261818
vt 0.000000 0.261818
vt 0.000000 0.209455
vt 1.000000 0.209455
vt 0.000000 0.157091
vt 1.000000 0.157091
vt 1.000000 0.209455
vt 0.000000 0.209455
vt 0.895201 0.442557
vt 0.000000 0.442557
vt 0.000000 0.366546
vt 0.895201 0.366546
vt 0.270529 0.052364
vt 0.270529 0.000000
vt 0.307418 0.000000
vt 0.307418 0.052364
vt 0.000000 0.442557
vt 0.895201 0.442557
vt 0.895201 0.518568
vt 0.000000 0.518568
vt 0.270529 0.000000
vt 0.270529 0.052364
vt 0.233641 0.052364
vt 0.233641 0.000000
vt 0.895201 0.104727
vt 0.000000 0.104727
vt 0.000000 0.052364
vt 0.895201 0.052364
vt 0.895201 0.157091
vt 0.000000 0.157091
vt 0.000000 0.104727
vt 0.895201 0.104727
vt 0.895201 0.442557
vt 0.000000 0.442557
vt 0.000000 0.366546
vt 0.895201 0.366546
vt 0.270529 0.052364
vt 0.270529 0.000000
vt 0.307418 0.000000
vt 0.307418 0.052364
vt 0.000000 0.442557
vt 0.895201 0.442557
vt 0.895201 0.518568
vt 0.000000 0.518568
vt 0.270529 0.000000
vt 0.270529 0.052364
vt 0.233641 0.052364
vt 0.233641 0.000000
vt 0.895201 0.104727
vt 0.000000 0.104727
vt 0.000000 0.052364
vt 0.895201 0.052364
vt 0.895201 0.157091
vt 0.000000 0.157091
vt 0.000000 0.104727
vt 0.895201 0.104727
vt 1.155020 0.932905
vt 0.155020 0.932906
vt 0.155020 1.053264
vt 1.155020 1.053263
vt 0.388660 0.225986
vt 0.388660 0.173622
vt 0.330250 0.173622
vt 0.330250 0.225986
vt 1.155020 1.053264
vt 0.155020 1.053264
vt 0.155020 1.173622
vt 1.155020 1.173621
vt 0.271840 0.225986
vt 0.271840 0.173622
vt 0.213430 0.173622
vt 0.213430 0.225986
vt 0.155020 0.487804
vt 1.155020 0.487804
vt 1.155020 0.435440
vt 0.155020 0.435440
vt 1.155019 0.487804
vt 0.155020 0.487804
vt 0.155020 0.540167
vt 1.155019 0.540168
vt 0.155020 0.692190
vt 0.155020 0.812548
vt 1.155020 0.812548
vt 1.155020 0.692190
vt 0.271840 0.225986
vt 0.330250 0.225986
vt 0.330250 0.173622
vt 0.271840 0.173622
vt 0.155020 0.812548
vt 0.155020 0.932905
vt 1.155020 0.932905
vt 1.155020 0.812548
vt 0.155020 0.225986
vt 0.213430 0.225986
vt 0.213430 0.173622
vt 0.155020 0.173622
vt 1.155019 0.435440
vt 1.155019 0.383077
vt 0.155020 0.383077
vt 0.155020 0.435440
vt 0.155020 0.330713
vt 0.155020 0.383077
vt 1.155019 0.383077
vt 1.155019 0.330713
vt 1.050220 0.616179
vt 1.050220 0.540168
vt 0.155020 0.540168
vt 0.155020 0.616179
vt 0.425549 0.225986
vt 0.462437 0.225986
vt 0.462437 0.173622
vt 0.425549 0.173622
vt 0.155020 0.616179
vt 0.155020 0.692190
vt 1.050220 0.692190
vt 1.050220 0.616179
vt 0.425549 0.173622
vt 0.388660 0.173622
vt 0.388660 0.225986
vt 0.425549 0.225986
vt 1.050220 0.278349
vt 1.050220 0.225986
vt 0.155020 0.225986
vt 0.155020 0.278349
vt 1.050220 0.330713
vt 1.050220 0.278349
vt 0.155020 0.278349
vt 0.155020 0.330713
vt 1.050220 0.616179
vt 1.050220 0.540168
vt 0.155020 0.540168
vt 0.155020 0.616179
vt 0.425549 0.225986
vt 0.462437 0.225986
vt 0.462437 0.173622
vt 0.425549 0.173622
vt 0.155020 0.616179
vt 0.155020 0.692190
vt 1.050220 0.692190
vt 1.050220 0.616179
vt 0.425549 0.173622
vt 0.388660 0.173622
vt 0.388660 0.225986
vt 0.425549 0.225986
vt 1.050220 0.278349
vt 1.050220 0.225986
vt 0.155020 0.225986
vt 0.155020 0.278349
vt 1.050220 0.330713
vt 1.050220 0.278349
vt 0.155020 0.278349
vt 0.155020 0.330713
vn -0.9745 0.2244 0.0000
vn 0.2244 0.9745 0.0000
vn 0.9745 -0.2244 0.0000
vn -0.2244 -0.9745 0.0000
vn -0.0000 0.0000 -1.0000
vn 0.0000 0.0000 1.0000
vn 0.9745 0.2244 0.0000
vn -0.2244 0.9745 0.0000
vn -0.9745 -0.2244 -0.0000
vn 0.2244 -0.9745 0.0000
usemtl woodLegsLeft
s off
f 65/193/11 66/194/11 68/195/11 67/196/11
f 67/197/12 68/198/12 72/199/12 71/200/12
f 71/201/13 72/202/13 70/203/13 69/204/13
f 69/205/14 70/206/14 66/207/14 65/208/14
f 67/209/15 71/210/15 69/211/15 65/212/15
f 72/213/16 68/214/16 66/215/16 70/216/16
f 73/217/11 75/218/11 76/219/11 74/220/11
f 75/221/12 79/222/12 80/223/12 76/224/12
f 79/225/13 77/226/13 78/227/13 80/228/13
f 77/229/14 73/230/14 74/231/14 78/232/14
f 75/233/16 73/234/16 77/235/16 79/236/16
f 80/237/15 78/238/15 74/239/15 76/240/15
f 81/241/11 83/242/11 84/243/11 82/244/11
f 83/245/15 87/246/15 88/247/15 84/248/15
f 87/249/13 85/250/13 86/251/13 88/252/13
f 85/253/16 81/254/16 82/255/16 86/256/16
f 83/257/12 81/258/12 85/259/12 87/260/12
f 88/261/14 86/262/14 82/263/14 84/264/14
f 89/265/11 91/266/11 92/267/11 90/268/11
f 91/269/15 95/270/15 96/271/15 92/272/15
f 95/273/13 93/274/13 94/275/13 96/276/13
f 93/277/16 89/278/16 90/279/16 94/280/16
f 91/281/12 89/282/12 93/283/12 95/284/12
f 96/285/14 94/286/14 90/287/14 92/288/14
f 97/289/17 99/290/17 100/291/17 98/292/17
f 99/293/18 103/294/18 104/295/18 100/296/18
f 103/297/19 101/298/19 102/299/19 104/300/19
f 101/301/20 97/302/20 98/303/20 102/304/20
f 99/305/15 97/306/15 101/307/15 103/308/15
f 104/309/16 102/310/16 98/311/16 100/312/16
f 105/313/17 106/314/17 108/315/17 107/316/17
f 107/317/18 108/318/18 112/319/18 111/320/18
f 111/321/19 112/322/19 110/323/19 109/324/19
f 109/325/20 110/326/20 106/327/20 105/328/20
f 107/329/16 111/330/16 109/331/16 105/332/16
f 112/333/15 108/334/15 106/335/15 110/336/15
f 113/337/17 114/338/17 116/339/17 115/340/17
f 115/341/15 116/342/15 120/343/15 119/344/15
f 119/345/19 120/346/19 118/347/19 117/348/19
f 117/349/16 118/350/16 114/351/16 113/352/16
f 115/353/18 119/354/18 117/355/18 113/356/18
f 120/357/20 116/358/20 114/359/20 118/360/20
f 121/361/17 122/362/17 124/363/17 123/364/17
f 123/365/15 124/366/15 128/367/15 127/368/15
f 127/369/19 128/370/19 126/371/19 125/372/19
f 125/373/16 126/374/16 122/375/16 121/376/16
f 123/377/18 127/378/18 125/379/18 121/380/18
f 128/381/20 124/382/20 122/383/20 126/384/20
o table_Cube
v -79.994209 -0.808052 33.209015
v -79.994209 1.191210 33.209015
v -79.994209 -0.808052 -33.209015
v -79.994209 1.191210 -33.209015
v 79.994209 -0.808052 33.209015
v 79.994209 1.191210 33.209015
v 79.994209 -0.808052 -33.209015
v 79.994209 1.191210 -33.209015
vt 0.222716 0.032406
vt 0.222716 0.019314
vt 0.657645 0.019314
vt 0.657645 0.032406
vt 0.076272 0.086851
vt 0.076360 0.069160
vt 1.089971 0.069160
vt 1.089883 0.086851
vt 0.662164 0.028239
vt 0.662164 0.041603
vt 0.218197 0.041603
vt 0.218197 0.028238
vt 1.045231 -0.002570
vt 1.045152 0.013235
vt 0.139615 0.013235
vt 0.139693 -0.002570
vt 1.107680 0.634898
vt -0.026582 0.634898
vt -0.026583 0.164017
vt 1.107680 0.164017
vt 0.909600 1.141004
vt -0.224662 1.141004
vt -0.224662 0.670123
vt 0.909600 0.670123
vn -1.0000 0.0000 0.0000
vn 0.0000 0.0000 -1.0000
vn 1.0000 0.0000 0.0000
vn 0.0000 0.0000 1.0000
vn 0.0000 -1.0000 0.0000
vn 0.0000 1.0000 0.0000
usemtl WoodTop
s off
f 129/385/21 130/386/21 132/387/21 131/388/21
f 131/389/22 132/390/22 136/391/22 135/392/22
f 135/393/23 136/394/23 134/395/23 133/396/23
f 133/397/24 134/398/24 130/399/24 129/400/24
f 131/401/25 135/402/25 133/403/25 129/404/25
f 136/405/26 132/406/26 130/407/26 134/408/26
