# Blender v2.79 (sub 0) OBJ File: 'rouleau-de-ruban-adhesif.blend'
# www.blender.org
mtllib rouleau-de-ruban-adhesif.mtl
o rouleau_Cylinder
v 1.639195 11.466473 3.146644
v 1.639195 11.466473 -0.265168
v -0.000002 8.956347 -0.265168
v -0.000002 8.956347 3.146644
v 0.933673 8.833426 -0.265168
v 0.933673 8.833426 3.146644
v 1.803719 8.473042 -0.265168
v 1.803719 8.473042 3.146644
v 2.550845 7.899752 -0.265168
v 2.550845 7.899752 3.146644
v 3.124134 7.152626 -0.265168
v 3.124134 7.152626 3.146644
v 3.484519 6.282580 -0.265168
v 3.484519 6.282580 3.146645
v 3.607440 5.348906 -0.265168
v 3.607440 5.348906 3.146645
v 3.484519 4.415231 -0.265168
v 3.484519 4.415231 3.146645
v 3.124135 3.545185 -0.265168
v 3.124135 3.545185 3.146645
v 2.550846 2.798060 -0.265168
v 2.550846 2.798059 3.146645
v 1.803720 2.224770 -0.265168
v 1.803720 2.224769 3.146645
v 0.933674 1.864384 -0.265168
v 0.933674 1.864384 3.146645
v -0.000000 1.741464 -0.265168
v -0.000000 1.741464 3.146645
v -0.933675 1.864384 -0.265168
v -0.933675 1.864384 3.146645
v -1.803721 2.224769 -0.265168
v -1.803721 2.224768 3.146645
v -2.550847 2.798058 -0.265168
v -2.550847 2.798057 3.146645
v -3.124137 3.545184 -0.265168
v -3.124137 3.545183 3.146645
v -3.484523 4.415229 -0.265168
v -3.484523 4.415229 3.146645
v -3.607443 5.348904 -0.265168
v -3.607443 5.348904 3.146645
v -3.484523 6.282578 -0.265168
v -3.484523 6.282578 3.146645
v -3.124139 7.152625 -0.265168
v -3.124139 7.152624 3.146644
v -2.550850 7.899751 -0.265168
v -2.550850 7.899750 3.146644
v -1.803725 8.473041 -0.265168
v -1.803725 8.473040 3.146644
v -0.933679 8.833426 -0.265168
v -0.933679 8.833426 3.146644
v 3.166684 10.833767 -0.265168
v 3.166684 10.833765 3.146644
v 4.478368 9.827276 -0.265168
v 4.478368 9.827274 3.146644
v 5.484858 8.515592 -0.265168
v 5.484858 8.515591 3.146644
v 6.117565 6.988103 -0.265168
v 6.117565 6.988102 3.146644
v 6.333369 5.348906 -0.265168
v 6.333369 5.348905 3.146644
v 6.117566 3.709709 -0.265168
v 6.117565 3.709709 3.146644
v 5.484859 2.182220 -0.265168
v 5.484859 2.182220 3.146644
v 4.478369 0.870537 -0.265168
v 4.478369 0.870536 3.146644
v 3.166686 -0.135953 -0.265168
v 3.166685 -0.135954 3.146644
v 1.639197 -0.768660 -0.265168
v 1.639197 -0.768662 3.146644
v 0.000000 -0.984465 -0.265168
v 0.000000 -0.984466 3.146644
v -1.639196 -0.768662 -0.265168
v -1.639197 -0.768662 3.146644
v -3.166685 -0.135955 -0.265168
v -3.166685 -0.135956 3.146644
v -4.478369 0.870535 -0.265168
v -4.478369 0.870534 3.146644
v -5.484860 2.182217 -0.265167
v -5.484860 2.182217 3.146645
v -6.117568 3.709707 -0.265167
v -6.117568 3.709706 3.146645
v -6.333373 5.348903 -0.265168
v -6.333373 5.348902 3.146645
v -6.117569 6.988100 -0.265168
v -6.117569 6.988100 3.146645
v -5.484864 8.515589 -0.265168
v -5.484864 8.515588 3.146645
v -4.478374 9.827272 -0.265167
v -4.478374 9.827272 3.146645
v -3.166691 10.833764 -0.265168
v -3.166691 10.833763 3.146644
v -1.639203 11.466471 -0.265168
v -1.639203 11.466471 3.146644
v -0.000006 11.682278 -0.265168
v -0.000007 11.682276 3.146644
v -1.016858 9.143852 3.146644
v -1.964413 8.751361 3.146644
v -2.778098 8.126998 3.146644
v -3.402459 7.313313 3.146644
v -3.794950 6.365756 3.146645
v -3.928820 5.348903 3.146645
v -3.794949 4.332050 3.146645
v -3.402458 3.384494 3.146645
v -2.778095 2.570809 3.146645
v -1.964410 1.946447 3.146645
v -1.016853 1.553958 3.146645
v -0.000000 1.420087 3.146645
v 1.016852 1.553958 3.146645
v 1.964409 1.946449 3.146645
v 2.778093 2.570812 3.146645
v 3.402455 3.384496 3.146645
v 3.794945 4.332052 3.146645
v 3.928817 5.348906 3.146645
v 3.794945 6.365758 3.146645
v 3.402455 7.313314 3.146644
v 2.778093 8.126999 3.146644
v 1.964407 8.751362 3.146644
v 1.016851 9.143852 3.146644
v -0.000002 9.277723 3.146644
v -1.016834 9.143763 -0.265168
v -1.964367 8.751281 -0.265168
v -2.778032 8.126932 -0.265168
v -3.402379 7.313267 -0.265168
v -3.794859 6.365733 -0.265168
v -3.928727 5.348904 -0.265168
v -3.794859 4.332075 -0.265168
v -3.402377 3.384542 -0.265168
v -2.778029 2.570876 -0.265168
v -1.964363 1.946529 -0.265168
v -1.016829 1.554048 -0.265168
v -0.000000 1.420180 -0.265168
v 1.016828 1.554048 -0.265168
v 1.964362 1.946530 -0.265168
v 2.778028 2.570878 -0.265168
v 3.402375 3.384543 -0.265168
v 3.794856 4.332077 -0.265168
v 3.928724 5.348906 -0.265168
v 3.794856 6.365735 -0.265168
v 3.402374 7.313269 -0.265168
v 2.778027 8.126934 -0.265168
v 1.964361 8.751282 -0.265168
v 1.016827 9.143763 -0.265168
v -0.000002 9.277631 -0.265168
v -4.299032 0.251006 -0.265168
v -4.299032 0.251005 3.146644
v -4.413155 -0.287005 -0.265168
v -4.413156 -0.287006 3.146644
v -4.832265 -0.789821 -0.265168
v -4.832265 -0.789822 3.146644
v -5.505481 -0.957733 -0.265168
v -5.505482 -0.957733 3.146644
v -8.798764 -0.957733 -0.265168
v -8.798765 -0.957733 3.146644
v -8.798764 -0.984465 -0.265168
v -8.798765 -0.984465 3.146644
v -5.498147 -0.984465 -0.265168
v -5.498148 -0.984465 3.146644
v -4.813762 -0.809722 -0.265168
v -4.813763 -0.809722 3.146644
v -4.396780 -0.294713 -0.265168
v -4.396781 -0.294713 3.146644
v -4.281374 0.251237 -0.265168
v -4.281374 0.251237 3.146644
v -4.458301 0.855364 -0.265168
v -4.458302 0.855364 3.146644
v -6.117568 3.709706 3.146645
v -5.484860 2.182217 3.146645
v -5.484860 2.182217 -0.265167
v -6.117568 3.709707 -0.265167
v -0.000002 8.956347 -0.265168
v 0.933673 8.833426 -0.265168
v 4.478369 0.870536 3.146644
v 5.484859 2.182220 3.146644
v 5.484859 2.182220 -0.265168
v 4.478369 0.870537 -0.265168
v 0.933673 8.833426 3.146644
v -0.000002 8.956347 3.146644
v 1.803719 8.473042 -0.265168
v 1.803719 8.473042 3.146644
v -4.478369 0.870534 3.146644
v -4.478369 0.870534 3.146644
v 2.550845 7.899752 -0.265168
v 6.117565 3.709709 3.146644
v 2.550845 7.899752 3.146644
v -4.478369 0.870535 -0.265168
v -4.478369 0.870535 -0.265168
v 3.124134 7.152626 -0.265168
v 6.117566 3.709709 -0.265168
v 3.124134 7.152626 3.146644
v 3.484519 6.282580 -0.265168
v 3.484519 6.282580 3.146645
v -3.166685 -0.135956 3.146644
v 3.607440 5.348906 -0.265168
v 6.333369 5.348905 3.146644
v 3.607440 5.348906 3.146645
v -3.166685 -0.135955 -0.265168
v 3.484519 4.415231 -0.265168
v 6.333369 5.348906 -0.265168
v 3.484519 4.415231 3.146645
v 3.124135 3.545185 -0.265168
v 3.124135 3.545185 3.146645
v -1.639197 -0.768662 3.146644
v 2.550846 2.798060 -0.265168
v 6.117565 6.988102 3.146644
v 2.550846 2.798059 3.146645
v -1.639196 -0.768662 -0.265168
v 1.803720 2.224770 -0.265168
v 6.117565 6.988103 -0.265168
v 1.803720 2.224769 3.146645
v 0.933674 1.864384 -0.265168
v 0.933674 1.864384 3.146645
v 0.000000 -0.984466 3.146644
v -0.000000 1.741464 -0.265168
v 5.484858 8.515591 3.146644
v -0.000000 1.741464 3.146645
v 0.000000 -0.984465 -0.265168
v -0.933675 1.864384 -0.265168
v 5.484858 8.515592 -0.265168
v -0.933675 1.864384 3.146645
v -1.803721 2.224769 -0.265168
v -1.803721 2.224768 3.146645
v 1.639197 -0.768662 3.146644
v -2.550847 2.798058 -0.265168
v 4.478368 9.827274 3.146644
v -2.550847 2.798057 3.146645
v 1.639197 -0.768660 -0.265168
v -3.124137 3.545184 -0.265168
v 4.478368 9.827276 -0.265168
v -3.124137 3.545183 3.146645
v -3.484523 4.415229 -0.265168
v -3.484523 4.415229 3.146645
v 3.166685 -0.135954 3.146644
v -3.607443 5.348904 -0.265168
v 3.166684 10.833765 3.146644
v -3.607443 5.348904 3.146645
v 3.166686 -0.135953 -0.265168
v -3.484523 6.282578 -0.265168
v 3.166684 10.833767 -0.265168
v -3.484523 6.282578 3.146645
v -3.124139 7.152625 -0.265168
v -3.124139 7.152624 3.146644
v -2.550850 7.899751 -0.265168
v -2.550850 7.899750 3.146644
v -1.803725 8.473041 -0.265168
v 1.639195 11.466473 3.146644
v -1.803725 8.473040 3.146644
v -0.933679 8.833426 -0.265168
v 1.639195 11.466473 -0.265168
v -0.933679 8.833426 3.146644
v -6.333373 5.348903 -0.265168
v -6.333373 5.348902 3.146645
v -6.117569 6.988100 -0.265168
v -6.117569 6.988100 3.146645
v -5.484864 8.515589 -0.265168
v -5.484864 8.515588 3.146645
v -4.478374 9.827272 -0.265167
v -4.478374 9.827272 3.146645
v -3.166691 10.833764 -0.265168
v -3.166691 10.833763 3.146644
v -1.639203 11.466471 -0.265168
v -1.639203 11.466471 3.146644
v -0.000006 11.682278 -0.265168
v -0.000007 11.682276 3.146644
v -3.402459 7.313313 3.146644
v -2.778098 8.126998 3.146644
v -0.000002 9.277723 3.146644
v 1.016851 9.143852 3.146644
v -3.794950 6.365756 3.146645
v -1.964413 8.751361 3.146644
v -3.928820 5.348903 3.146645
v -3.794949 4.332050 3.146645
v -3.402458 3.384494 3.146645
v -2.778095 2.570809 3.146645
v -1.964410 1.946447 3.146645
v -1.016853 1.553958 3.146645
v -0.000000 1.420087 3.146645
v 1.016852 1.553958 3.146645
v 1.964409 1.946449 3.146645
v 2.778093 2.570812 3.146645
v 3.402455 3.384496 3.146645
v 3.794945 4.332052 3.146645
v 3.928817 5.348906 3.146645
v 3.794945 6.365758 3.146645
v 3.402455 7.313314 3.146644
v 2.778093 8.126999 3.146644
v 1.964407 8.751362 3.146644
v -1.016858 9.143852 3.146644
v -0.000002 9.277631 -0.265168
v -1.016834 9.143763 -0.265168
v 1.016827 9.143763 -0.265168
v 1.964361 8.751282 -0.265168
v 2.778027 8.126934 -0.265168
v 3.402374 7.313269 -0.265168
v 3.794856 6.365735 -0.265168
v 3.928724 5.348906 -0.265168
v 3.794856 4.332077 -0.265168
v 3.402375 3.384543 -0.265168
v 2.778028 2.570878 -0.265168
v 1.964362 1.946530 -0.265168
v 1.016828 1.554048 -0.265168
v -0.000000 1.420180 -0.265168
v -1.016829 1.554048 -0.265168
v -1.964363 1.946529 -0.265168
v -2.778029 2.570876 -0.265168
v -3.402377 3.384542 -0.265168
v -3.794859 4.332075 -0.265168
v -3.928727 5.348904 -0.265168
v -3.794859 6.365733 -0.265168
v -3.402379 7.313267 -0.265168
v -2.778032 8.126932 -0.265168
v -1.964367 8.751281 -0.265168
v -4.299032 0.251005 3.146644
v -4.299032 0.251006 -0.265168
v -4.413156 -0.287006 3.146644
v -4.413155 -0.287005 -0.265168
v -4.832265 -0.789822 3.146644
v -4.832265 -0.789821 -0.265168
v -5.505482 -0.957733 3.146644
v -5.505481 -0.957733 -0.265168
v -8.798765 -0.957733 3.146644
v -8.798765 -0.957733 3.146644
v -8.798764 -0.957733 -0.265168
v -8.798764 -0.957733 -0.265168
v -8.798765 -0.984465 3.146644
v -8.798765 -0.984465 3.146644
v -8.798764 -0.984465 -0.265168
v -8.798764 -0.984465 -0.265168
v -5.498148 -0.984465 3.146644
v -5.498147 -0.984465 -0.265168
v -4.813763 -0.809722 3.146644
v -4.813762 -0.809722 -0.265168
v -4.396781 -0.294713 3.146644
v -4.396780 -0.294713 -0.265168
v -4.281374 0.251237 3.146644
v -4.281374 0.251237 -0.265168
v -4.458302 0.855364 3.146644
v -4.458301 0.855364 -0.265168
vn -0.5000 0.8660 0.0000
vn -0.2588 0.9659 0.0000
vn -0.7071 0.7071 0.0000
vn -0.8660 0.5000 0.0000
vn -0.9659 0.2588 0.0000
vn -1.0000 0.0000 0.0000
vn -0.9659 -0.2588 0.0000
vn -0.8660 -0.5000 0.0000
vn -0.8149 -0.5795 0.0000
vn -0.5000 -0.8660 0.0000
vn -0.2588 -0.9659 0.0000
vn 0.0000 -1.0000 0.0000
vn 0.2588 -0.9659 0.0000
vn 0.5000 -0.8660 0.0000
vn 0.7071 -0.7071 0.0000
vn 0.8660 -0.5000 0.0000
vn 0.9659 -0.2588 0.0000
vn 1.0000 0.0000 0.0000
vn 0.9659 0.2588 0.0000
vn 0.8660 0.5000 0.0000
vn 0.7071 0.7071 0.0000
vn 0.0000 1.0000 0.0000
vn 0.2588 0.9659 0.0000
vn 0.5000 0.8660 0.0000
vn 0.0000 0.0000 1.0000
vn 0.0000 0.0000 -1.0000
vn -0.9993 -0.0363 0.0000
vn -0.8996 0.4367 0.0000
vn -0.5313 0.8471 0.0000
vn -0.1219 0.9925 0.0000
vn 0.1247 -0.9922 0.0000
vn 0.5397 -0.8418 0.0000
vn 0.9028 -0.4299 0.0000
vn 0.9992 0.0383 0.0000
vn 0.9597 0.2810 0.0000
vn -0.7071 -0.7071 0.0000
usemtl firstcolor
s 1
f 259//1 260//1 262//2 261//2
f 257//3 258//3 260//1 259//1
f 255//4 256//4 258//3 257//3
f 253//5 254//5 256//4 255//4
f 251//6 252//6 254//5 253//5
f 170//7 167//7 252//6 251//6
f 169//8 168//8 167//7 170//7
f 186//9 181//9 168//8 169//8
f 197//10 193//10 181//9 186//9
f 207//11 203//11 193//10 197//10
f 217//12 213//12 203//11 207//11
f 227//13 223//13 213//12 217//12
f 237//14 233//14 223//13 227//13
f 176//15 173//15 233//14 237//14
f 175//16 174//16 173//15 176//15
f 189//17 184//17 174//16 175//16
f 199//18 195//18 184//17 189//17
f 209//19 205//19 195//18 199//18
f 219//20 215//20 205//19 209//19
f 229//21 225//21 215//20 219//20
f 263//22 264//22 246//23 249//23
f 239//24 235//24 225//21 229//21
f 249//23 246//23 235//24 239//24
f 261//2 262//2 264//22 263//22
f 90//25 88//25 100//25 99//25
f 1//25 96//25 120//25 119//25
f 88//25 86//25 101//25 100//25
f 92//25 90//25 99//25 98//25
f 86//25 84//25 102//25 101//25
f 84//25 82//25 103//25 102//25
f 82//25 80//25 104//25 103//25
f 80//25 182//25 105//25 104//25
f 182//25 76//25 106//25 105//25
f 76//25 74//25 107//25 106//25
f 74//25 72//25 108//25 107//25
f 72//25 70//25 109//25 108//25
f 70//25 68//25 110//25 109//25
f 68//25 66//25 111//25 110//25
f 66//25 64//25 112//25 111//25
f 64//25 62//25 113//25 112//25
f 62//25 60//25 114//25 113//25
f 60//25 58//25 115//25 114//25
f 58//25 56//25 116//25 115//25
f 56//25 54//25 117//25 116//25
f 54//25 52//25 118//25 117//25
f 52//25 1//25 119//25 118//25
f 94//25 92//25 98//25 288//25
f 96//25 94//25 288//25 120//25
f 95//26 144//26 290//26 93//26
f 2//26 143//26 144//26 95//26
f 51//26 142//26 143//26 2//26
f 53//26 141//26 142//26 51//26
f 55//26 140//26 141//26 53//26
f 57//26 139//26 140//26 55//26
f 59//26 138//26 139//26 57//26
f 61//26 137//26 138//26 59//26
f 63//26 136//26 137//26 61//26
f 65//26 135//26 136//26 63//26
f 67//26 134//26 135//26 65//26
f 69//26 133//26 134//26 67//26
f 71//26 132//26 133//26 69//26
f 73//26 131//26 132//26 71//26
f 75//26 130//26 131//26 73//26
f 187//26 129//26 130//26 75//26
f 79//26 128//26 129//26 187//26
f 81//26 127//26 128//26 79//26
f 83//26 126//26 127//26 81//26
f 85//26 125//26 126//26 83//26
f 87//26 124//26 125//26 85//26
f 89//26 123//26 124//26 87//26
f 91//26 122//26 123//26 89//26
f 93//26 290//26 122//26 91//26
f 186//9 314//27 313//27 181//9
f 314//27 316//28 315//28 313//27
f 316//28 318//29 317//29 315//28
f 318//29 320//30 319//30 317//29
f 320//30 323//22 321//22 319//30
f 324//6 327//6 325//6 322//6
f 328//12 330//31 329//31 326//12
f 330//31 332//32 331//32 329//31
f 332//32 334//33 333//33 331//32
f 334//33 336//34 335//34 333//33
f 336//34 338//35 337//35 335//34
f 152//25 154//25 156//25 158//25
f 150//25 152//25 158//25 160//25
f 148//25 150//25 160//25 162//25
f 146//25 148//25 162//25 164//25
f 78//25 146//25 164//25 166//25
f 145//26 77//26 165//26 163//26
f 147//26 145//26 163//26 161//26
f 149//26 147//26 161//26 159//26
f 151//26 149//26 159//26 157//26
f 153//26 151//26 157//26 155//26
usemtl interior
f 267//25 97//25 250//25 4//25
f 97//25 270//25 247//25 250//25
f 171//12 172//11 177//11 178//12
f 121//26 248//26 47//26 312//26
f 172//11 179//10 180//10 177//11
f 287//25 268//25 6//25 8//25
f 179//10 183//36 185//36 180//10
f 286//25 287//25 8//25 10//25
f 183//36 188//8 190//8 185//36
f 285//25 286//25 10//25 12//25
f 188//8 191//7 192//7 190//8
f 284//25 285//25 12//25 14//25
f 191//7 194//6 196//6 192//7
f 283//25 284//25 14//25 16//25
f 194//6 198//5 200//5 196//6
f 282//25 283//25 16//25 18//25
f 198//5 201//4 202//4 200//5
f 281//25 282//25 18//25 20//25
f 201//4 204//3 206//3 202//4
f 280//25 281//25 20//25 22//25
f 204//3 208//1 210//1 206//3
f 279//25 280//25 22//25 24//25
f 208//1 211//2 212//2 210//1
f 278//25 279//25 24//25 26//25
f 211//2 214//22 216//22 212//2
f 277//25 278//25 26//25 28//25
f 214//22 218//23 220//23 216//22
f 276//25 277//25 28//25 30//25
f 218//23 221//24 222//24 220//23
f 275//25 276//25 30//25 32//25
f 221//24 224//21 226//21 222//24
f 274//25 275//25 32//25 34//25
f 224//21 228//20 230//20 226//21
f 273//25 274//25 34//25 36//25
f 228//20 231//19 232//19 230//20
f 272//25 273//25 36//25 38//25
f 231//19 234//18 236//18 232//19
f 271//25 272//25 38//25 40//25
f 234//18 238//17 240//17 236//18
f 269//25 271//25 40//25 42//25
f 238//17 241//16 242//16 240//17
f 270//25 266//25 46//25 247//25
f 241//16 243//15 244//15 242//16
f 243//15 245//14 48//14 244//15
f 265//25 269//25 42//25 44//25
f 245//14 49//13 50//13 48//14
f 268//25 267//25 4//25 6//25
f 49//13 171//12 178//12 50//13
f 266//25 265//25 44//25 46//25
f 312//26 47//26 45//26 311//26
f 311//26 45//26 43//26 310//26
f 310//26 43//26 41//26 309//26
f 309//26 41//26 39//26 308//26
f 308//26 39//26 37//26 307//26
f 307//26 37//26 35//26 306//26
f 306//26 35//26 33//26 305//26
f 305//26 33//26 31//26 304//26
f 304//26 31//26 29//26 303//26
f 303//26 29//26 27//26 302//26
f 302//26 27//26 25//26 301//26
f 301//26 25//26 23//26 300//26
f 300//26 23//26 21//26 299//26
f 299//26 21//26 19//26 298//26
f 298//26 19//26 17//26 297//26
f 297//26 17//26 15//26 296//26
f 296//26 15//26 13//26 295//26
f 295//26 13//26 11//26 294//26
f 294//26 11//26 9//26 293//26
f 293//26 9//26 7//26 292//26
f 292//26 7//26 5//26 291//26
f 291//26 5//26 3//26 289//26
f 289//26 3//26 248//26 121//26
