# Blender v2.92.0 OBJ File: 'roads-with-final-lines.blend'
# www.blender.org
mtllib route1VoieAvecTrottoirs.mtl
o roadDroit1VoieAvecTrottoirs_Plane.018
v -5231.13 0 30.14
v -5231.13 0 255.64
v -3931.13 0 30.14
v -3931.13 0 255.64
v -5231.13 -3 30.14
v -5231.13 -3 255.64
v -3931.13 -3 30.14
v -3931.13 -3 255.64
v -5231.13 0 227.64
v -3931.13 0 227.64
v -5231.13 15 377.64
v -3931.13 15 377.64
v -5231.13 0 377.64
v -3931.13 0 377.64
v -5231.13 -3 227.64
v -3931.13 -3 227.64
v -5231.13 -3 377.64
v -3931.13 -3 377.64
v -3931.13 0 -195.36
v -5231.13 0 -195.36
v -3931.13 -3 -167.36
v -3931.13 -3 -195.36
v -5231.13 -3 -167.36
v -5231.13 -3 -195.36
v -5231.13 0 -167.36
v -3931.13 0 -167.36
v -3931.13 15 -317.36
v -5231.13 15 -317.36
v -3931.13 0 -317.36
v -5231.13 0 -317.36
v -3931.13 -3 -317.36
v -5231.13 -3 -317.36
v -5231.13 15 228.84
v -5231.13 13.8 227.64
v -3931.13 13.8 227.64
v -3931.13 15 228.84
v -3931.13 15 -168.56
v -3931.13 13.8 -167.36
v -5231.13 13.8 -167.36
v -5231.13 15 -168.56
v -5231.13 15 -195.94
v -3931.13 15 -195.94
v -5231.13 0 -195.88
v -3931.13 0 -195.88
v -5231.13 -3 -195.88
v -3931.13 -3 -195.88
v -3931.13 15 256.67
v -5231.13 15 256.67
v -5231.13 0 256.74
v -3931.13 0 256.74
v -5231.13 -3 256.74
v -3931.13 -3 256.74
v -4256.13 0 30.14
v -4581.13 0 30.14
v -4906.13 0 30.14
v -4906.13 0 255.64
v -4581.13 0 255.64
v -4256.13 0 255.64
v -4906.13 -3 255.64
v -4581.13 -3 255.64
v -4256.13 -3 255.64
v -4906.13 -3 30.14
v -4581.13 -3 30.14
v -4256.13 -3 30.14
v -4906.13 0 227.64
v -4581.13 0 227.64
v -4256.13 0 227.64
v -4906.13 15 377.64
v -4581.13 15 377.64
v -4256.13 15 377.64
v -4906.13 0 377.64
v -4581.13 0 377.64
v -4256.13 0 377.64
v -4906.13 -3 377.64
v -4581.13 -3 377.64
v -4256.13 -3 377.64
v -4906.13 -3 227.64
v -4581.13 -3 227.64
v -4256.13 -3 227.64
v -4256.13 0 -195.36
v -4581.13 0 -195.36
v -4906.13 0 -195.36
v -4906.13 -3 -195.36
v -4581.13 -3 -195.36
v -4256.13 -3 -195.36
v -4256.13 0 -167.36
v -4581.13 0 -167.36
v -4906.13 0 -167.36
v -4256.13 15 -317.36
v -4581.13 15 -317.36
v -4906.13 15 -317.36
v -4256.13 0 -317.36
v -4581.13 0 -317.36
v -4906.13 0 -317.36
v -4256.13 -3 -317.36
v -4581.13 -3 -317.36
v -4906.13 -3 -317.36
v -4906.13 -3 -167.36
v -4581.13 -3 -167.36
v -4256.13 -3 -167.36
v -4906.13 15 228.84
v -4581.13 15 228.84
v -4256.13 15 228.84
v -4256.13 13.8 227.64
v -4581.13 13.8 227.64
v -4906.13 13.8 227.64
v -4256.13 15 -168.56
v -4581.13 15 -168.56
v -4906.13 15 -168.56
v -4906.13 13.8 -167.36
v -4581.13 13.8 -167.36
v -4256.13 13.8 -167.36
v -4256.13 15 -195.94
v -4581.13 15 -195.94
v -4906.13 15 -195.94
v -4256.13 -3 -195.88
v -4581.13 -3 -195.88
v -4906.13 -3 -195.88
v -4906.13 15 256.67
v -4581.13 15 256.67
v -4256.13 15 256.67
v -4906.13 -3 256.74
v -4581.13 -3 256.74
v -4256.13 -3 256.74
v -5231.13 1 205.14
v -3931.13 1 205.14
v -5231.13 0 205.14
v -3931.13 0 205.14
v -5231.13 1 227.64
v -3931.13 1 227.64
v -5231.13 0 227.64
v -3931.13 0 227.64
v -4798.03 1 205.14
v -4497.78 1 205.14
v -4364.49 1 205.14
v -4798.03 0 205.14
v -4497.78 0 205.14
v -4364.49 0 205.14
v -4798.03 1 227.64
v -4497.78 1 227.64
v -4364.49 1 227.64
v -4798.03 0 227.64
v -4497.78 0 227.64
v -4364.49 0 227.64
v -3931.13 1 -144.86
v -5231.13 1 -144.86
v -3931.13 0 -167.36
v -3931.13 0 -144.86
v -5231.13 0 -167.36
v -5231.13 0 -144.86
v -5231.13 1 -167.36
v -3931.13 1 -167.36
v -4364.49 1 -144.86
v -4497.78 1 -144.86
v -4931.31 1 -144.86
v -4931.31 0 -144.86
v -4497.78 0 -144.86
v -4364.49 0 -144.86
v -4364.49 1 -167.36
v -4497.78 1 -167.36
v -4931.31 1 -167.36
v -4931.31 0 -167.36
v -4497.78 0 -167.36
v -4364.49 0 -167.36
v -4931.31 1 205.14
v -4931.31 0 205.14
v -4931.31 1 227.64
v -4931.31 0 227.64
v -4064.77 1 205.14
v -4064.77 0 205.14
v -4064.77 1 227.64
v -4064.77 0 227.64
v -4798.03 1 -144.86
v -4798.03 0 -144.86
v -4798.03 1 -167.36
v -4798.03 0 -167.36
v -4064.77 0 -144.86
v -4064.77 0 -167.36
v -4064.77 1 -144.86
v -4064.77 1 -167.36
vt 0.00028 1.40303
vt 0.95273 1.40303
vt 0.95273 2.28746
vt 0.00028 2.28746
vt 0.95273 -1.25023
vt 0.00028 -1.25023
vt -0.95217 2.28746
vt 0.00028 -0.36581
vt -0.95217 -1.25023
vt -0.95217 -0.36581
vt -0.95217 1.40303
vt 0.00028 0.51861
vt -0.95217 0.51861
vt 0.95273 -0.36581
vt 0.95273 0.51861
vt 0.8168 0.38831
vt 0.03627 0.38831
vt 0.03627 0.29529
vt 0.81295 0.29529
vt 0.03627 -1.71266
vt 0.03627 -3.79846
vt 0.12308 -3.79846
vt 0.12308 -1.71266
vt 0.8168 0.70096
vt 0.81295 0.6173
vt 0.03627 0.6173
vt 0.03627 0.70096
vt 0.02305 -1.71266
vt 0.02305 -3.79846
vt 0.8168 0.71323
vt 0.03627 0.71323
vt 0.81239 -1.71266
vt 0.81239 -3.79846
vt 0.81624 -3.79846
vt 0.81624 -1.71266
vt 0.03627 0.27955
vt 0.8168 0.27955
vt 0.8168 0.29529
vt 0.03627 4.54471
vt 0.03627 2.45892
vt 0.81624 2.45892
vt 0.81624 4.54471
vt 0.03627 0.37313
vt 0.81624 0.37313
vt 0.81239 4.54471
vt 0.81239 2.45892
vt 0.81239 0.37313
vt 0.02305 4.54471
vt 0.02305 2.45892
vt 0.02305 0.37313
vt 0.12308 2.45892
vt 0.12308 4.54471
vt 0.12308 0.37313
vt 0.90358 2.55182
vt 0.90358 4.63761
vt 0.99443 4.63761
vt 0.99443 2.55182
vt 0.81586 4.63761
vt 0.99955 4.63761
vt 0.81586 -1.61977
vt 0.99955 -1.61977
vt 0.99955 -3.70556
vt 0.81586 -3.70556
vt 0.99248 -1.61977
vt 0.99248 -3.70556
vt 0.98458 -3.70556
vt 0.98458 -1.61977
vt 0.99185 2.55182
vt 0.99185 4.63761
vt 0.812 4.63761
vt 0.812 2.55182
vt 0.99955 4.57609
vt 0.81586 4.57609
vt 0.99955 4.63269
vt 0.99955 -3.65422
vt 0.99185 -3.64975
vt 0.812 -3.64975
vt 0.99185 -3.70556
vt 0.99185 -1.61977
vt 0.812 -1.61977
vt 0.812 -3.70556
vt 0.99185 0.46602
vt 0.812 0.46602
vt 0.99248 4.63761
vt 0.99248 2.55182
vt 0.98458 2.55182
vt 0.98458 4.63761
vt 0.99248 0.46602
vt 0.98458 0.46602
vt 0.99955 2.55182
vt 0.81586 2.55182
vt 0.99955 0.46602
vt 0.81586 0.46602
vt 0.90358 -3.70556
vt 0.90358 -1.61977
vt 0.99443 -1.61977
vt 0.99443 -3.70556
vt 0.90358 0.46602
vt 0.99443 0.46602
vt 0.81212 2.55182
vt 0.81212 4.63761
vt 0.03688 4.63761
vt 0.03688 2.55182
vt 0.81586 0.682
vt 0.03688 0.682
vt 0.03688 0.74352
vt 0.812 0.74352
vt 0.11501 2.55182
vt 0.11501 4.63761
vt 0.81586 0.26294
vt 0.812 0.31875
vt 0.03688 0.31875
vt 0.03688 0.26294
vt 0.81586 0.25317
vt 0.03688 0.25317
vt 0.02795 2.55182
vt 0.02498 4.63761
vt 0.0339 2.55182
vt 0.03688 -1.61977
vt 0.81597 -1.61977
vt 0.81597 -3.70556
vt 0.03688 -3.70556
vt 0.81586 0.74352
vt 0.81586 0.75805
vt 0.03688 0.75805
vt 0.81597 4.63761
vt 0.81597 2.55182
vt 0.81597 0.46602
vt 0.03688 0.46602
vt 0.0339 -1.61977
vt 0.02795 -1.61977
vt 0.02498 -3.70556
vt 0.03093 0.46602
vt 0.11501 -3.70556
vt 0.11501 -1.61977
vt 0.11501 0.46602
vt 0.81212 -3.70556
vt 0.81212 -1.61977
vt 0.81212 0.46602
vt 0.99481 -1.71266
vt 0.99481 -3.79846
vt 0.90353 -3.79846
vt 0.90353 -1.71266
vt 0.81659 -3.70568
vt 0.99894 -3.70568
vt 0.99894 -3.68957
vt 0.81659 -3.68957
vt 0.81659 -1.71266
vt 0.81659 -3.79846
vt 0.99894 -3.79846
vt 0.99894 -1.71266
vt 0.97156 2.45892
vt 0.97156 4.54471
vt 0.9872 4.54471
vt 0.9872 2.45892
vt 0.99124 -1.71266
vt 0.99124 -3.79846
vt 0.81274 -3.79846
vt 0.81274 -1.71266
vt 0.99894 4.56208
vt 0.81659 4.56208
vt 0.81659 4.54471
vt 0.99894 4.54471
vt 0.99894 4.46774
vt 0.99124 4.46105
vt 0.81274 4.46105
vt 0.99894 -3.70544
vt 0.81659 -3.70544
vt 0.99894 -3.79101
vt 0.99124 4.54471
vt 0.99124 2.45892
vt 0.81274 2.45892
vt 0.81274 4.54471
vt 0.99124 0.37313
vt 0.81274 0.37313
vt 0.97156 -3.79846
vt 0.97156 -1.71266
vt 0.9872 -1.71266
vt 0.9872 -3.79846
vt 0.97156 0.37313
vt 0.9872 0.37313
vt 0.81659 2.45892
vt 0.99894 2.45892
vt 0.81659 0.37313
vt 0.99894 0.37313
vt 0.99481 4.54471
vt 0.99481 2.45892
vt 0.90353 2.45892
vt 0.90353 4.54471
vt 0.99481 0.37313
vt 0.90353 0.37313
vt 0.45952 -14.88505
vt 0.99848 -14.88505
vt 0.45952 -11.6839
vt 0.99848 -11.6839
vt 0.45952 -1.31134
vt 0.45952 -4.50438
vt 0.99848 -4.50438
vt 0.99848 -1.31134
vt 0.45952 5.88084
vt 0.45952 9.07333
vt 0.99848 9.07333
vt 0.99848 5.88084
vt 0.44956 -8.20677
vt 0.44956 -15.5263
vt 0.99885 -8.20677
vt 0.99885 -15.5263
vt 0.44956 16.21034
vt 0.99885 16.21034
vt 0.44956 12.9479
vt 0.99885 12.9479
vt 0.44956 5.63091
vt 0.44956 2.37674
vt 0.99885 2.37674
vt 0.99885 5.63091
vt 0.44956 -4.95315
vt 0.99885 -4.95315
vt 0.45952 16.25535
vt 0.99848 16.25535
vn 0 1 0
vn -1 0 0
vn 1 0 0
vn 0 -1 0
vn 0 0 1
vn 0 0 -1
vn 0 0.7071 0.7071
vn 0 0.7071 -0.7071
usemtl road
s off
f 53/1/1 58/2/1 4/3/1 3/4/1
f 2/5/2 1/6/2 5/6/2 6/5/2
f 3/4/3 4/3/3 8/3/3 7/4/3
f 64/1/4 7/4/4 8/3/4 61/2/4
f 3/4/3 7/4/3 22/7/3 19/7/3
f 62/8/4 5/6/4 24/9/4 83/10/4
f 5/6/2 1/6/2 20/9/2 24/9/2
f 53/1/1 3/4/1 19/7/1 80/11/1
f 1/6/1 55/8/1 82/10/1 20/9/1
f 55/8/1 54/12/1 81/13/1 82/10/1
f 54/12/1 53/1/1 80/11/1 81/13/1
f 7/4/4 64/1/4 85/11/4 22/7/4
f 64/1/4 63/12/4 84/13/4 85/11/4
f 63/12/4 62/8/4 83/10/4 84/13/4
f 5/6/4 62/8/4 59/14/4 6/5/4
f 62/8/4 63/12/4 60/15/4 59/14/4
f 63/12/4 64/1/4 61/2/4 60/15/4
f 1/6/1 2/5/1 56/14/1 55/8/1
f 55/8/1 56/14/1 57/15/1 54/12/1
f 54/12/1 57/15/1 58/2/1 53/1/1
f 4/3/5 58/2/5 61/2/5 8/3/5
f 58/2/5 57/15/5 60/15/5 61/2/5
f 57/15/5 56/14/5 59/14/5 60/15/5
f 6/5/5 59/14/5 56/14/5 2/5/5
f 19/7/6 22/7/6 85/11/6 80/11/6
f 80/11/6 85/11/6 84/13/6 81/13/6
f 81/13/6 84/13/6 83/10/6 82/10/6
f 82/10/6 83/10/6 24/9/6 20/9/6
usemtl rightSidewalk
f 49/16/2 13/17/2 11/18/2 48/19/2
f 68/20/5 11/21/5 13/22/5 71/23/5
f 50/24/3 47/25/3 12/26/3 14/27/3
f 71/28/5 13/29/5 17/21/5 74/20/5
f 50/30/3 14/31/3 18/27/3 52/24/3
f 119/32/1 48/33/1 11/21/1 68/20/1
f 74/20/4 17/21/4 51/34/4 122/35/4
f 13/36/2 49/37/2 51/38/2 17/18/2
f 18/39/4 76/40/4 124/41/4 52/42/4
f 76/40/4 75/43/4 123/44/4 124/41/4
f 75/43/4 74/20/4 122/35/4 123/44/4
f 47/45/1 121/46/1 70/40/1 12/39/1
f 121/46/1 120/47/1 69/43/1 70/40/1
f 120/47/1 119/32/1 68/20/1 69/43/1
f 14/48/5 73/49/5 76/40/5 18/39/5
f 73/49/5 72/50/5 75/43/5 76/40/5
f 72/50/5 71/28/5 74/20/5 75/43/5
f 12/39/5 70/40/5 73/51/5 14/52/5
f 70/40/5 69/43/5 72/53/5 73/51/5
f 69/43/5 68/20/5 71/23/5 72/53/5
usemtl leftBorder
f 86/54/5 26/55/5 38/56/5 112/57/5
f 44/58/3 26/59/3 21/59/3 46/58/3
f 118/60/4 98/61/4 23/62/4 45/63/4
f 109/64/7 40/65/7 39/66/7 110/67/7
f 107/68/1 37/69/1 42/70/1 113/71/1
f 25/62/2 43/63/2 45/63/2 23/62/2
f 26/72/3 44/73/3 42/70/3 37/69/3 38/74/3
f 39/75/2 40/76/2 41/77/2 43/63/2 25/62/2
f 40/78/1 109/79/1 115/80/1 41/81/1
f 109/79/1 108/82/1 114/83/1 115/80/1
f 108/82/1 107/68/1 113/71/1 114/83/1
f 37/84/7 107/85/7 112/86/7 38/87/7
f 107/85/7 108/88/7 111/89/7 112/86/7
f 108/88/7 109/64/7 110/67/7 111/89/7
f 46/58/4 21/59/4 100/90/4 116/91/4
f 116/91/4 100/90/4 99/92/4 117/93/4
f 117/93/4 99/92/4 98/61/4 118/60/4
f 25/94/5 88/95/5 110/96/5 39/97/5
f 88/95/5 87/98/5 111/99/5 110/96/5
f 87/98/5 86/54/5 112/57/5 111/99/5
usemtl leftSidewalk
f 113/100/1 42/101/1 27/102/1 89/103/1
f 44/104/3 29/105/3 27/106/3 42/107/3
f 89/108/6 27/109/6 29/102/6 92/103/6
f 43/110/2 41/111/2 28/112/2 30/113/2
f 43/114/2 30/115/2 32/113/2 45/110/2
f 92/116/6 29/117/6 31/102/6 95/118/6
f 97/119/4 118/120/4 45/121/4 32/122/4
f 29/106/3 44/123/3 46/124/3 31/125/3
f 31/102/4 46/126/4 116/127/4 95/103/4
f 95/103/4 116/127/4 117/128/4 96/129/4
f 96/129/4 117/128/4 118/120/4 97/119/4
f 30/122/6 94/130/6 97/131/6 32/132/6
f 94/130/6 93/133/6 96/133/6 97/131/6
f 93/133/6 92/116/6 95/118/6 96/133/6
f 28/134/6 91/135/6 94/119/6 30/122/6
f 91/135/6 90/136/6 93/129/6 94/119/6
f 90/136/6 89/108/6 92/103/6 93/129/6
f 41/137/1 115/138/1 91/119/1 28/122/1
f 115/138/1 114/139/1 90/129/1 91/119/1
f 114/139/1 113/100/1 89/103/1 90/129/1
usemtl rightBorder
f 65/140/6 9/141/6 34/142/6 106/143/6
f 49/144/2 9/145/2 15/146/2 51/147/2
f 122/148/4 51/149/4 15/150/4 77/151/4
f 103/152/8 36/153/8 35/154/8 104/155/8
f 101/156/1 33/157/1 48/158/1 119/159/1
f 10/160/3 50/161/3 52/162/3 16/163/3
f 35/164/3 36/165/3 47/166/3 50/162/3 10/163/3
f 9/167/2 49/168/2 48/158/2 33/157/2 34/169/2
f 36/170/1 103/171/1 121/172/1 47/173/1
f 103/171/1 102/174/1 120/175/1 121/172/1
f 102/174/1 101/156/1 119/159/1 120/175/1
f 33/176/8 101/177/8 106/178/8 34/179/8
f 101/177/8 102/180/8 105/181/8 106/178/8
f 102/180/8 103/152/8 104/155/8 105/181/8
f 52/162/4 124/182/4 79/183/4 16/163/4
f 124/182/4 123/184/4 78/185/4 79/183/4
f 123/184/4 122/148/4 77/151/4 78/185/4
f 10/186/6 67/187/6 104/188/6 35/189/6
f 67/187/6 66/190/6 105/191/6 104/188/6
f 66/190/6 65/140/6 106/143/6 105/191/6
usemtl leftContinuousLine
f 145/192/3 148/192/3 147/193/3 152/193/3
f 179/194/1 145/192/1 152/193/1 180/195/1
f 154/196/1 153/197/1 159/198/1 160/199/1
f 158/197/4 157/196/4 163/199/4 164/198/4
f 174/200/4 156/201/4 162/202/4 176/203/4
f 180/195/6 152/193/6 147/193/6 178/195/6
f 173/200/5 155/201/5 156/201/5 174/200/5
f 153/197/5 154/196/5 157/196/5 158/197/5
f 160/199/6 159/198/6 164/198/6 163/199/6
f 161/202/6 175/203/6 176/203/6 162/202/6
f 155/201/1 173/200/1 175/203/1 161/202/1
f 145/192/5 179/194/5 177/194/5 148/192/5
f 148/192/4 177/194/4 178/195/4 147/193/4
usemtl rightContinuousLine
f 165/204/6 166/204/6 127/205/6 125/205/6
f 168/206/5 167/206/5 129/207/5 131/207/5
f 128/208/3 126/208/3 130/209/3 132/209/3
f 125/205/2 127/205/2 131/207/2 129/207/2
f 170/210/4 128/208/4 132/209/4 172/211/4
f 135/212/1 134/213/1 140/214/1 141/215/1
f 166/204/4 136/216/4 142/217/4 168/206/4
f 136/216/4 137/213/4 143/214/4 142/217/4
f 137/213/4 138/212/4 144/215/4 143/214/4
f 134/213/6 137/213/6 136/216/6 133/216/6
f 143/214/5 140/214/5 139/217/5 142/217/5
f 141/215/5 140/214/5 143/214/5 144/215/5
f 135/212/6 138/212/6 137/213/6 134/213/6
f 171/211/5 141/215/5 144/215/5 172/211/5
f 169/210/6 170/210/6 138/212/6 135/212/6
f 127/205/4 166/204/4 168/206/4 131/207/4
f 133/216/1 165/204/1 167/206/1 139/217/1
f 142/217/5 139/217/5 167/206/5 168/206/5
f 133/216/6 136/216/6 166/204/6 165/204/6
f 126/208/6 128/208/6 170/210/6 169/210/6
f 130/209/5 171/211/5 172/211/5 132/209/5
f 126/208/1 169/210/1 171/211/1 130/209/1
f 138/212/4 170/210/4 172/211/4 144/215/4
usemtl rightT3Line
f 165/204/1 125/205/1 129/207/1 167/206/1
f 169/210/1 135/212/1 141/215/1 171/211/1
f 134/213/1 133/216/1 139/217/1 140/214/1
usemtl leftT3Line
f 156/201/4 150/218/4 149/219/4 162/202/4
f 150/218/2 146/218/2 151/219/2 149/219/2
f 146/218/1 155/201/1 161/202/1 151/219/1
f 173/200/1 154/196/1 160/199/1 175/203/1
f 177/194/4 158/197/4 164/198/4 178/195/4
f 155/201/5 146/218/5 150/218/5 156/201/5
f 151/219/6 161/202/6 162/202/6 149/219/6
f 175/203/6 160/199/6 163/199/6 176/203/6
f 179/194/5 153/197/5 158/197/5 177/194/5
f 154/196/5 173/200/5 174/200/5 157/196/5
f 157/196/4 174/200/4 176/203/4 163/199/4
f 159/198/6 180/195/6 178/195/6 164/198/6
f 153/197/1 179/194/1 180/195/1 159/198/1
