<?xml version="1.0" encoding="UTF-8"?>
<svg width="16px" height="16px" viewBox="0 0 16 16" version="1.1" xmlns="http://www.w3.org/2000/svg" xmlns:xlink="http://www.w3.org/1999/xlink">
    <title>meubles/align-horizontal-right</title>
    <g id="meubles/align-horizontal-right" stroke="none" stroke-width="1" fill="none" fill-rule="evenodd">
        <g id="Group" fill="#DDDDDD" fill-rule="nonzero" opacity="0">
            <g id="Rectangle-Copy-25">
                <rect x="0" y="0" width="16" height="16"></rect>
            </g>
        </g>
        <path d="M5.5,1.5 L10.5,1.5 L10.5,1.5 L10.5,4.5 L4.5,4.5 L4.5,2.5 C4.5,1.94771525 4.94771525,1.5 5.5,1.5 Z" id="Rectangle-Copy-58" stroke="#000000" fill="#FFFFFF" fill-rule="nonzero" stroke-linecap="round" stroke-linejoin="round"></path>
        <path d="M2.5,4.5 L10.5,4.5 L10.5,4.5 L10.5,8.5 L2.5,8.5 C1.94771525,8.5 1.5,8.05228475 1.5,7.5 L1.5,5.5 C1.5,4.94771525 1.94771525,4.5 2.5,4.5 Z" id="Rectangle-Copy-59" stroke="#000000" fill="#FFFFFF" fill-rule="nonzero" stroke-linecap="round" stroke-linejoin="round"></path>
        <line x1="7.01032171" y1="9.76046458" x2="7.48967829" y2="15.2395354" id="Path-2-Copy-5" stroke="#000000" stroke-linecap="round" stroke-linejoin="round" fill-rule="nonzero" transform="translate(7.250000, 12.500000) rotate(-265.000000) translate(-7.250000, -12.500000) "></line>
        <polyline id="Rectangle-Copy-53" stroke="#000000" stroke-linecap="round" stroke-linejoin="round" fill-rule="nonzero" transform="translate(8.118025, 12.400965) rotate(-400.000000) translate(-8.118025, -12.400965) " points="9.57092325 10.4858539 9.87906533 14.0079341 6.3569852 14.3160762"></polyline>
        <line x1="7.22182541" y1="2.82842712" x2="17.8284271" y2="13.4350288" id="Path-3-Copy-5" stroke="#000000" stroke-linecap="round" stroke-linejoin="round" fill-rule="nonzero" transform="translate(12.671573, 8.035534) rotate(45.000000) translate(-12.671573, -8.035534) "></line>
    </g>
</svg>