<?xml version="1.0" encoding="UTF-8"?>
<svg width="16px" height="16px" viewBox="0 0 16 16" version="1.1" xmlns="http://www.w3.org/2000/svg" xmlns:xlink="http://www.w3.org/1999/xlink">
    <title>edition/edit-paste-to-group</title>
    <g id="edition/edit-paste-to-group" stroke="none" stroke-width="1" fill="none" fill-rule="evenodd">
        <g id="Group" fill="#DDDDDD" fill-rule="nonzero" opacity="0">
            <g id="Rectangle-Copy-25">
                <rect x="0" y="0" width="16" height="16"></rect>
            </g>
        </g>
        <g id="Group" transform="translate(4.500000, 4.500000)" fill-rule="nonzero">
            <path d="M10,2 L10,10 L0,10 L0,2 L2,2 C2.33333333,0.666666667 3.33333333,0 5,0 C6.66666667,0 7.66666667,0.666666667 8,2 L10,2 Z" id="Path-2" fill="#FFFFFF"></path>
            <path d="M0,10 L0,2 L2,2 C2,0.8954305 3.34314575,0 5,0 C6.59058008,0 7.89842762,0.956729299 8,2 L10,2" id="Path" stroke="#000000" stroke-width="0.75" fill="#FFFFFF" stroke-linecap="round" stroke-linejoin="round"></path>
            <line x1="2" y1="5" x2="7.5" y2="5" id="Path-46-Copy" stroke="#000000" stroke-width="0.75" stroke-linecap="round" stroke-linejoin="round"></line>
            <line x1="2" y1="7" x2="5.5" y2="7" id="Path-46-Copy-2" stroke="#000000" stroke-width="0.75" stroke-linecap="round" stroke-linejoin="round"></line>
        </g>
        <rect id="Rectangle" stroke="#000000" stroke-linecap="square" stroke-linejoin="round" fill-rule="nonzero" x="1.5" y="1.5" width="13" height="13"></rect>
        <rect id="Rectangle" stroke="#000000" fill="#FFFFFF" fill-rule="nonzero" stroke-linecap="round" stroke-linejoin="round" x="0.5" y="0.5" width="2" height="2"></rect>
        <rect id="Rectangle-Copy-215" stroke="#000000" fill="#FFFFFF" fill-rule="nonzero" stroke-linecap="round" stroke-linejoin="round" x="0.5" y="13.5" width="2" height="2"></rect>
        <rect id="Rectangle-Copy-214" stroke="#000000" fill="#FFFFFF" fill-rule="nonzero" stroke-linecap="round" stroke-linejoin="round" x="13.5" y="0.5" width="2" height="2"></rect>
        <rect id="Rectangle-Copy-216" stroke="#000000" fill="#FFFFFF" fill-rule="nonzero" stroke-linecap="round" stroke-linejoin="round" x="13.5" y="13.5" width="2" height="2"></rect>
        <line x1="8.5" y1="6.5" x2="10.5" y2="6.5" id="Path-54" stroke="#000000" stroke-width="0.75" stroke-linecap="round" stroke-linejoin="round" fill-rule="nonzero"></line>
    </g>
</svg>