<?xml version="1.0" encoding="UTF-8"?>
<svg width="16px" height="16px" viewBox="0 0 16 16" version="1.1" xmlns="http://www.w3.org/2000/svg" xmlns:xlink="http://www.w3.org/1999/xlink">
    <title>texte/format-text-italic</title>
    <g id="texte/format-text-italic" stroke="none" stroke-width="1" fill="none" fill-rule="evenodd">
        <g id="Group" fill="#DDDDDD" fill-rule="nonzero" opacity="0">
            <g id="Rectangle-Copy-25">
                <rect x="0" y="0" width="16" height="16"></rect>
            </g>
        </g>
        <path d="M11.8354359,14.0887857 C12.406725,14.0887857 12.8893156,13.5738258 12.9192985,12.4970703 L12.991464,3.171875 C13.0132527,2.28417969 12.7190889,1.90625 11.9192842,1.90625 C11.1194795,1.90625 10.5491408,2.29296875 9.92408121,3.171875 L3.26011883,12.4970703 C3.0252329,12.8310547 2.8899635,13.0595703 2.81377732,13.2705078 C2.62966072,13.7802734 2.89013672,14.1054687 3.44384766,14.1054687 C3.97998047,14.1054687 4.37404132,13.8417969 4.83258389,13.15625 L6.55394336,10.6777344 L10.8957402,10.6777344 L10.8267245,13.15625 C10.7844423,13.8330078 11.2993031,14.0887857 11.8354359,14.0887857 Z M10.9734806,9.1484375 L7.58090252,9.1484375 L11.064889,4.07714844 L11.1615687,4.07714844 L10.9734806,9.1484375 Z" id="A-Copy" fill="#000000" fill-rule="nonzero"></path>
    </g>
</svg>