<?xml version="1.0" encoding="UTF-8"?>
<svg width="16px" height="16px" viewBox="0 0 16 16" version="1.1" xmlns="http://www.w3.org/2000/svg" xmlns:xlink="http://www.w3.org/1999/xlink">
    <title>meubles/furniture-import</title>
    <g id="meubles/furniture-import" stroke="none" stroke-width="1" fill="none" fill-rule="evenodd">
        <g id="Group" fill="#DDDDDD" fill-rule="nonzero" opacity="0">
            <g id="Rectangle-Copy-25">
                <rect x="0" y="0" width="16" height="16"></rect>
            </g>
        </g>
        <g id="Group" transform="translate(0.000000, 1.500000)" fill="#FFFFFF" fill-rule="nonzero" stroke="#000000" stroke-linecap="round" stroke-linejoin="round">
            <g>
                <line x1="8.5" y1="12" x2="8.5" y2="7" id="Path"></line>
                <line x1="4.5" y1="9" x2="4.5" y2="14" id="Path"></line>
                <line x1="0.5" y1="12" x2="0.5" y2="7" id="Path" transform="translate(0.500000, 9.500000) scale(-1, 1) translate(-0.500000, -9.500000) "></line>
                <polyline id="Path-2" transform="translate(2.500000, 3.500000) scale(-1, 1) translate(-2.500000, -3.500000) " points="0.5 5 0.5 0 4.5 2 4.5 7"></polyline>
                <polygon id="Path-39-Copy-4" transform="translate(4.500000, 7.000000) rotate(-120.000000) translate(-4.500000, -7.000000) " points="2.76794919 6 2.5 10.4641016 6.23205081 8 6.5 3.53589838"></polygon>
            </g>
        </g>
        <line x1="11.5" y1="0" x2="11.5" y2="8" id="Path-2-Copy-5" stroke="#000000" stroke-linecap="round" stroke-linejoin="round" fill-rule="nonzero" transform="translate(11.500000, 4.000000) rotate(-180.000000) translate(-11.500000, -4.000000) "></line>
        <polyline id="Path" stroke="#000000" stroke-linecap="round" stroke-linejoin="round" fill-rule="nonzero" transform="translate(11.500000, 4.000000) rotate(-315.000000) translate(-11.500000, -4.000000) " points="14.3284271 1.17157288 14.3284271 6.82842712 8.67157288 6.82842712"></polyline>
        <line x1="15.5" y1="10.5" x2="8.5" y2="10.5" id="Path-54" stroke="#000000" stroke-linecap="round" stroke-linejoin="round" fill-rule="nonzero"></line>
    </g>
</svg>