<?xml version="1.0" encoding="UTF-8"?>
<svg width="16px" height="16px" viewBox="0 0 16 16" version="1.1" xmlns="http://www.w3.org/2000/svg" xmlns:xlink="http://www.w3.org/1999/xlink">
    <title>meubles/furniture-import-texture</title>
    <g id="meubles/furniture-import-texture" stroke="none" stroke-width="1" fill="none" fill-rule="evenodd">
        <g id="Group" fill="#DDDDDD" fill-rule="nonzero" opacity="0">
            <g id="Rectangle-Copy-25">
                <rect x="0" y="0" width="16" height="16"></rect>
            </g>
        </g>
        <g id="Group-15" transform="translate(0.000000, 9.500000)" fill-rule="nonzero">
            <polygon id="Path-56-Copy-15" fill="#000000" points="5 2 7 2 7 4 5 4"></polygon>
            <polygon id="Path-56-Copy-18" fill="#000000" points="13 2 15 2 15 4 13 4"></polygon>
            <polygon id="Path-56-Copy-7" fill="#000000" points="1 2 3 2 3 4 1 4"></polygon>
            <polygon id="Path-56-Copy-8" fill="#000000" points="9 2 11 2 11 4 9 4"></polygon>
            <polygon id="Path-56-Copy-22" fill="#000000" points="0 4 1 4 1 5 0 5"></polygon>
            <polygon id="Path-56-Copy-58" fill="#000000" points="0 1 1 1 1 2 0 2"></polygon>
            <polygon id="Path-56-Copy-23" fill="#000000" points="3 4 5 4 5 6 3 6"></polygon>
            <polygon id="Path-56-Copy-59" fill="#000000" points="3 0 5 0 5 2 3 2"></polygon>
            <polygon id="Path-56-Copy-51" fill="#000000" points="11 4 13 4 13 6 11 6"></polygon>
            <polygon id="Path-56-Copy-60" fill="#000000" points="11 0 13 0 13 2 11 2"></polygon>
            <polygon id="Path-56-Copy-24" fill="#000000" points="7 4 9 4 9 6 7 6"></polygon>
            <polygon id="Path-56-Copy-61" fill="#000000" points="7 0 9 0 9 2 7 2"></polygon>
            <polygon id="Path-56-Copy-19" fill="#FFFFFF" points="7 2 9 2 9 4 7 4"></polygon>
            <polygon id="Path-56-Copy-20" fill="#FFFFFF" points="5 4 7 4 7 6 5 6"></polygon>
            <polygon id="Path-56-Copy-65" fill="#FFFFFF" points="5 0 7 0 7 2 5 2"></polygon>
            <polygon id="Path-56-Copy-54" fill="#FFFFFF" points="13 4 15 4 15 6 13 6"></polygon>
            <polygon id="Path-56-Copy-66" fill="#FFFFFF" points="13 0 15 0 15 2 13 2"></polygon>
            <polygon id="Path-56-Copy-16" fill="#FFFFFF" points="3 2 5 2 5 4 3 4"></polygon>
            <polygon id="Path-56-Copy-55" fill="#FFFFFF" points="11 2 13 2 13 4 11 4"></polygon>
            <polygon id="Path-56-Copy-21" fill="#FFFFFF" points="1 4 3 4 3 6 1 6"></polygon>
            <polygon id="Path-56-Copy-69" fill="#FFFFFF" points="1 0 3 0 3 2 1 2"></polygon>
            <polygon id="Path-56-Copy-56" fill="#FFFFFF" points="9 4 11 4 11 6 9 6"></polygon>
            <polygon id="Path-56-Copy-70" fill="#FFFFFF" points="9 0 11 0 11 2 9 2"></polygon>
        </g>
        <g id="Group-14" transform="translate(3.500000, -0.500000)" fill-rule="nonzero" stroke="#000000" stroke-linecap="round" stroke-linejoin="round">
            <polyline id="Path-Copy-3" points="8 4.5 4 8.5 -1.36424205e-12 4.5"></polyline>
            <line x1="4" y1="0.5" x2="4" y2="8.5" id="Path-2-Copy-12" transform="translate(4.000000, 4.500000) rotate(-180.000000) translate(-4.000000, -4.500000) "></line>
        </g>
        <path d="M15,9.5 L15.5,15 L1,15.5 L0.5,10 L15,9.5 Z" id="Rectangle" stroke="#000000" fill-rule="nonzero"></path>
    </g>
</svg>