<?xml version="1.0" encoding="UTF-8"?>
<svg width="16px" height="16px" viewBox="0 0 16 16" version="1.1" xmlns="http://www.w3.org/2000/svg" xmlns:xlink="http://www.w3.org/1999/xlink">
    <title>arrows/go-previous</title>
    <g id="arrows/go-previous" stroke="none" stroke-width="1" fill="none" fill-rule="evenodd">
        <g id="props/arrow_1" transform="translate(8.000000, 8.000000) rotate(-180.000000) translate(-8.000000, -8.000000) translate(-0.000000, 0.000000)" fill-rule="nonzero">
            <g id="Group" fill="#DDDDDD" opacity="0">
                <g id="Rectangle-Copy-25">
                    <rect x="0" y="0" width="16" height="16"></rect>
                </g>
            </g>
            <path d="M1.4,2.5 L11.0193752,2.5 C11.3231589,2.5 11.6104718,2.63808972 11.800244,2.87530495 L15.400244,7.37530495 C15.6924189,7.7405236 15.6924189,8.2594764 15.400244,8.62469505 L11.800244,13.124695 C11.6104718,13.3619103 11.3231589,13.5 11.0193752,13.5 L1.4,13.5 C0.84771525,13.5 0.4,13.0522847 0.4,12.5 L0.4,3.5 C0.4,2.94771525 0.84771525,2.5 1.4,2.5 Z" id="Rectangle" fill="#A2E681"></path>
            <path d="M2.4,2.5 L11.0193752,2.5 C11.3231589,2.5 11.6104718,2.63808972 11.800244,2.87530495 L15.400244,7.37530495 C15.6924189,7.7405236 15.6924189,8.2594764 15.400244,8.62469505 L11.800244,13.124695 C11.6104718,13.3619103 11.3231589,13.5 11.0193752,13.5 L2.4,13.5 L2.4,13.5" id="Rectangle" stroke="#000000" stroke-width="0.75" stroke-linecap="round" stroke-linejoin="round"></path>
            <polyline id="Path-17" stroke="#000000" stroke-width="0.75" stroke-linecap="round" stroke-linejoin="round" points="10 6.5 11.4 8 10 9.5"></polyline>
            <path d="M9.4,13.5 L1.38901099,13.5 C0.842795302,13.5 0.4,13.0522847 0.4,12.5 L0.4,3.5 C0.4,2.94771525 0.842795302,2.5 1.38901099,2.5 L9.3010989,2.5" id="Path" stroke="#000000" stroke-width="0.75" stroke-linecap="round" stroke-linejoin="round"></path>
        </g>
    </g>
</svg>