<?xml version="1.0" encoding="UTF-8"?>
<svg width="16px" height="16px" viewBox="0 0 16 16" version="1.1" xmlns="http://www.w3.org/2000/svg" xmlns:xlink="http://www.w3.org/1999/xlink">
    <title>plan/plan-make-level-viewable</title>
    <g id="plan/plan-make-level-viewable" stroke="none" stroke-width="1" fill="none" fill-rule="evenodd">
        <g id="Group" fill="#DDDDDD" fill-rule="nonzero" opacity="0">
            <g id="Rectangle-Copy-25">
                <rect x="0" y="0" width="16" height="16"></rect>
            </g>
        </g>
        <polygon id="Path" fill="#FFFFFF" fill-rule="nonzero" transform="translate(8.000000, 12.000000) scale(1, -1) translate(-8.000000, -12.000000) " points="0.5 12 4.5 8.5 15.5 12.5 11.5 15.5"></polygon>
        <polyline id="Path" stroke="#000000" stroke-linecap="round" stroke-linejoin="round" fill-rule="nonzero" transform="translate(8.000000, 13.250000) scale(1, -1) translate(-8.000000, -13.250000) " points="3 15.5 0.5 14.5 4.5 11 15.5 15"></polyline>
        <g id="Group" fill-rule="nonzero" stroke="#000000" stroke-linecap="round" stroke-linejoin="round" stroke-width="0.76">
            <g>
                <path d="M8,10.5 C10.7805556,10.5 13.1138889,8.83333333 15,5.5 C13.1138889,2.16666667 10.7805556,0.5 8,0.5 C5.21944444,0.5 2.88611111,2.16666667 1,5.5 C2.88611111,8.83333333 5.21944444,10.5 8,10.5 Z" id="Oval-Copy-2" fill="#FFFFFF"></path>
                <path d="M8,8.5 C9.64534832,8.5 11,7.18753674 11,5.5 C11,3.81246326 9.64534832,2.5 8,2.5 C6.35465168,2.5 5,3.81246326 5,5.5 C5,7.18753674 6.35465168,8.5 8,8.5 Z" id="Oval-Copy"></path>
            </g>
        </g>
    </g>
</svg>