<?xml version="1.0" encoding="UTF-8"?>
<svg width="16px" height="16px" viewBox="0 0 16 16" version="1.1" xmlns="http://www.w3.org/2000/svg" xmlns:xlink="http://www.w3.org/1999/xlink">
    <title>plan/plan-create-rooms</title>
    <g id="plan/plan-create-rooms" stroke="none" stroke-width="1" fill="none" fill-rule="evenodd">
        <g id="Group" fill="#DDDDDD" fill-rule="nonzero" opacity="0">
            <g id="Rectangle-Copy-25">
                <rect x="0" y="0" width="16" height="16"></rect>
            </g>
        </g>
        <polyline id="Path" stroke="#000000" fill="#FFFFFF" fill-rule="nonzero" stroke-linecap="round" stroke-linejoin="round" points="7 14 6.5 14.5 0.5 8.5 6.52227092 2.00556773 9 4.5 12 1.5 15.5 5 13.5 7"></polyline>
        <path d="M11,8 C12.3333333,8 13,8 13,8 C13,8 13,9 13,11 L16,11 L16,13 L13,13 L13,16 L11,16 L11,13 L8,13 L8,11 L11,11 L11,8 Z" id="Path-26" fill="#000000" fill-rule="nonzero" transform="translate(12.000000, 12.000000) scale(-1, -1) translate(-12.000000, -12.000000) "></path>
    </g>
</svg>