<?xml version="1.0" encoding="UTF-8"?>
<svg width="16px" height="16px" viewBox="0 0 16 16" version="1.1" xmlns="http://www.w3.org/2000/svg" xmlns:xlink="http://www.w3.org/1999/xlink">
    <title>snap/preferences-magnetism-enabled</title>
    <g id="snap/preferences-magnetism-enabled" stroke="none" stroke-width="1" fill="none" fill-rule="evenodd">
        <g id="Group" fill="#DDDDDD" fill-rule="nonzero" opacity="0">
            <g id="Rectangle-Copy-25">
                <rect x="0" y="0" width="16" height="16"></rect>
            </g>
        </g>
        <path d="M14.5,0.5 L10.5,0.5 C9.94771525,0.5 9.5,0.94771525 9.5,1.5 L9.5,9 C9.5,9.82842712 8.82842712,10.5 8,10.5 C7.17157288,10.5 6.5,9.82842712 6.5,9 L6.5,1.5 C6.5,0.94771525 6.05228475,0.5 5.5,0.5 L1.5,0.5 C0.947728016,0.500032689 0.500018053,0.947728017 0.499967312,1.5 L0.499754842,7.99987742 L0.499754842,7.99987742 C0.5,14.5 4.24981613,15.6 7.99987742,15.6 C11.7499387,15.6 15.5,14.5 15.5,7.99987742 L15.5,1.5 C15.5,0.94771525 15.0522847,0.5 14.5,0.5 Z" id="Path" stroke="#000000" stroke-width="0.75" fill="#FFFFFF" fill-rule="nonzero" stroke-linecap="round" stroke-linejoin="round"></path>
        <path d="M0.5,1.5 L0.5,5.5 L0.5,5.5 L6.5,5.5 L6.5,1.5 C6.5,0.94771525 6.05228475,0.5 5.5,0.5 L1.5,0.5 C0.94771525,0.5 0.5,0.94771525 0.5,1.5 Z" id="Path-71" stroke="#000000" stroke-width="0.75" fill="#DDDDDD" fill-rule="nonzero" stroke-linecap="round" stroke-linejoin="round"></path>
        <path d="M9.5,1.5 L9.5,5.5 L9.5,5.5 L15.5,5.5 L15.5,1.5 C15.5,0.94771525 15.0522847,0.5 14.5,0.5 L10.5,0.5 C9.94771525,0.5 9.5,0.94771525 9.5,1.5 Z" id="Path-71-Copy-2" stroke="#000000" stroke-width="0.75" fill="#DDDDDD" fill-rule="nonzero" stroke-linecap="round" stroke-linejoin="round"></path>
    </g>
</svg>