<?xml version="1.0" encoding="UTF-8"?>
<svg width="16px" height="16px" viewBox="0 0 16 16" version="1.1" xmlns="http://www.w3.org/2000/svg" xmlns:xlink="http://www.w3.org/1999/xlink">
    <title>snap/preferences-magnetism-disabled</title>
    <g id="snap/preferences-magnetism-disabled" stroke="none" stroke-width="1" fill="none" fill-rule="evenodd">
        <g id="Group" fill="#DDDDDD" fill-rule="nonzero" opacity="0">
            <g id="Rectangle-Copy-25">
                <rect x="0" y="0" width="16" height="16"></rect>
            </g>
        </g>
        <path d="M15.5,6.5 C15.5,5.38888889 15.5,3.72222222 15.5,1.5 C15.5,0.94771525 15.0522847,0.5 14.5,0.5 L10.5,0.5 C9.94771525,0.5 9.5,0.94771525 9.5,1.5 C9.5,3.72222222 9.5,5.38888889 9.5,6.5 M6.5,9 L6.5,8.5 L6.5,1.5 C6.5,0.94771525 6.05228475,0.5 5.5,0.5 L1.5,0.5 C0.947728016,0.5 0.500018053,0.947728017 0.499967312,1.5 L0.499754842,7.99987742 C0.499968505,13.6649451 3.34823927,15.2282482 6.56255528,15.5364199" id="Shape" stroke="#000000" stroke-width="0.75" fill="#FFFFFF" fill-rule="nonzero" stroke-linecap="round" stroke-linejoin="round"></path>
        <path d="M0.5,1.5 L0.5,5.5 L0.5,5.5 L6.5,5.5 L6.5,1.5 C6.5,0.94771525 6.05228475,0.5 5.5,0.5 L1.5,0.5 C0.94771525,0.5 0.5,0.94771525 0.5,1.5 Z" id="Path-71" stroke="#000000" stroke-width="0.75" fill="#DDDDDD" fill-rule="nonzero" stroke-linecap="round" stroke-linejoin="round"></path>
        <path d="M9.5,1.5 L9.5,5.5 L9.5,5.5 L15.5,5.5 L15.5,1.5 C15.5,0.94771525 15.0522847,0.5 14.5,0.5 L10.5,0.5 C9.94771525,0.5 9.5,0.94771525 9.5,1.5 Z" id="Path-71-Copy-2" stroke="#000000" stroke-width="0.75" fill="#DDDDDD" fill-rule="nonzero" stroke-linecap="round" stroke-linejoin="round"></path>
        <g id="Group" transform="translate(7.000000, 7.000000)" fill-rule="nonzero" stroke="#000000" stroke-linecap="round" stroke-linejoin="round" stroke-width="0.75">
            <g id="disable">
                <path d="M4.5,8.55 C6.98528137,8.55 8.55,6.98528137 8.55,4.5 C8.55,2.01471863 6.98528137,0.45 4.5,0.45 C2.01471863,0.45 0.45,2.01471863 0.45,4.5 C0.45,6.98528137 2.01471863,8.55 4.5,8.55 Z" id="Oval" fill="#FFFFFF"></path>
                <line x1="1.8" y1="7.425" x2="7.425" y2="1.8" id="Path-71-Copy"></line>
            </g>
        </g>
    </g>
</svg>