<?xml version="1.0" encoding="UTF-8"?>
<svg width="16px" height="16px" viewBox="0 0 16 16" version="1.1" xmlns="http://www.w3.org/2000/svg" xmlns:xlink="http://www.w3.org/1999/xlink">
    <title>vue3D/view3d-export-obj</title>
    <g id="vue3D/view3d-export-obj" stroke="none" stroke-width="1" fill="none" fill-rule="evenodd">
        <g id="Group" fill="#DDDDDD" fill-rule="nonzero" opacity="0">
            <g id="Rectangle-Copy-25">
                <rect x="0" y="0" width="16" height="16"></rect>
            </g>
        </g>
        <polyline id="Path" stroke="#000000" fill="#FFFFFF" fill-rule="nonzero" stroke-linecap="round" stroke-linejoin="round" points="10.5 7.5 15.5 7.5 15.5 15.5 0.5 15.5 0.5 7.5 6.5 7.5"></polyline>
        <line x1="8.5" y1="5.5" x2="8.5" y2="0.5" id="Path-4" stroke="#000000" stroke-linecap="round" stroke-linejoin="round" fill-rule="nonzero"></line>
        <line x1="8.5" y1="6.5" x2="4.5" y2="3.5" id="Path-5" stroke="#000000" stroke-linecap="round" stroke-linejoin="round" fill-rule="nonzero"></line>
        <line x1="8.5" y1="6.5" x2="12.5" y2="3.5" id="Path-6" stroke="#000000" stroke-linecap="round" stroke-linejoin="round" fill-rule="nonzero"></line>
        <path d="M3.7752495,8.77016602 C5.14380419,8.77016602 5.95591357,9.66123047 5.95591357,11.1237793 L5.95591357,11.1237793 L5.95591357,11.7930176 C5.95591357,13.2367676 5.14380419,14.1090332 3.7752495,14.1090332 C2.39917528,14.1090332 1.59458544,13.2367676 1.59458544,11.7930176 L1.59458544,11.7930176 L1.59458544,11.1237793 C1.59458544,9.66123047 2.41421435,8.77016602 3.7752495,8.77016602 Z M3.7752495,9.61987305 C3.04961474,9.61987305 2.60972216,10.1838379 2.60972216,11.1200195 L2.60972216,11.1200195 L2.60972216,11.7892578 C2.60972216,12.7141602 3.04961474,13.2593262 3.7752495,13.2593262 C4.50088427,13.2593262 4.94077685,12.7141602 4.94077685,11.7892578 L4.94077685,11.7892578 L4.94077685,11.1200195 C4.94077685,10.1838379 4.50088427,9.61987305 3.7752495,9.61987305 Z" id="Combined-Shape" fill="#000000" fill-rule="nonzero"></path>
        <path d="M8.63859228,8.86791992 C9.57101416,8.86791992 10.1575376,9.35668945 10.1575376,10.1312012 C10.1575376,10.7102051 9.82667822,11.1275391 9.27775244,11.2553711 L9.27775244,11.2553711 L9.27775244,11.3004883 C9.96954931,11.3644043 10.4207212,11.8531738 10.4207212,12.5524902 C10.4207212,13.4322754 9.72140478,14 8.63483252,14 L8.63483252,14 L7.17604345,14 C6.72111181,14 6.49928564,13.7856934 6.49928564,13.3495605 L6.49928564,13.3495605 L6.49928564,9.51835937 C6.49928564,9.08598633 6.72111181,8.86791992 7.17604345,8.86791992 L7.17604345,8.86791992 Z M8.46940283,11.7103027 L7.50690283,11.7103027 L7.50690283,13.2367676 L8.25885595,13.2367676 C9.05968603,13.2367676 9.38678564,12.9811035 9.38678564,12.492334 C9.38678564,12.0073242 9.0634458,11.7103027 8.46940283,11.7103027 L8.46940283,11.7103027 Z M8.40548681,9.63115234 L7.50690283,9.63115234 L7.50690283,11.0034668 L8.17614111,11.0034668 C8.85665869,11.0034668 9.15743994,10.7515625 9.15743994,10.3041504 C9.15743994,9.88681641 8.87921728,9.63115234 8.40548681,9.63115234 L8.40548681,9.63115234 Z" id="Combined-Shape" fill="#000000" fill-rule="nonzero"></path>
        <path d="M12.6581851,14.1090332 C13.7522769,14.1090332 14.3876772,13.4623535 14.3876772,12.3457031 L14.3876772,9.39428711 C14.3876772,9.03334961 14.199689,8.83032227 13.8725894,8.83032227 C13.5492495,8.83032227 13.3687808,9.03334961 13.3687808,9.39428711 L13.3687808,12.3607422 C13.3687808,12.9510254 13.1206362,13.2330078 12.6581851,13.2330078 C12.3160464,13.2330078 12.0829409,13.0713379 11.9137515,12.8156738 C11.793439,12.6502441 11.6844058,12.5675293 11.503937,12.5675293 C11.248273,12.5675293 11.0790835,12.7442383 11.0790835,13.0187012 C11.0790835,13.2442871 11.1805972,13.469873 11.3535464,13.6503418 C11.6355288,13.951123 12.0904605,14.1090332 12.6581851,14.1090332 Z" id="Path" fill="#000000" fill-rule="nonzero"></path>
    </g>
</svg>