# Blender v2.92.0 OBJ File: 'roads-with-final-lines.blend'
# www.blender.org
mtllib route2VoiesAvecTrottoirs.mtl
o roadDroit2VoiesAvecTrottoirs_Plane.002
v 975 0 0
v 975 0 400.5
v 1300 0 400.5
v 1300 0 0
v 0 0 400.5
v 0 0 0
v 0 -3 0
v 0 -3 400.5
v 1300 -3 400.5
v 1300 -3 0
v 975 -3 0
v 975 -3 400.5
v 325 -3 0
v 325 -3 400.5
v 650 -3 0
v 650 -3 400.5
v 325 0 400.5
v 325 0 0
v 650 0 400.5
v 650 0 0
v 1300 -3 -400.5
v 1300 0 -400.5
v 0 -3 -400.5
v 325 -3 -400.5
v 0 0 -400.5
v 975 0 -400.5
v 325 0 -400.5
v 650 0 -400.5
v 975 -3 -400.5
v 650 -3 -400.5
v 0 0 401.6
v 0 0 522.5
v 0 15 522.5
v 0 15 401.53
v 325 15 522.5
v 325 0 522.5
v 1300 0 401.6
v 1300 15 401.53
v 1300 15 522.5
v 1300 0 522.5
v 0 -3 522.5
v 325 -3 522.5
v 1300 -3 522.5
v 1300 -3 401.6
v 325 15 401.53
v 0 -3 401.6
v 325 -3 401.6
v 975 -3 522.5
v 975 -3 401.6
v 650 -3 522.5
v 650 -3 401.6
v 975 15 401.53
v 975 15 522.5
v 650 15 401.53
v 650 15 522.5
v 975 0 522.5
v 650 0 522.5
v 975 0 -372.5
v 1300 0 -372.5
v 1300 13.8 -372.5
v 975 13.8 -372.5
v 1300 0 -401.02
v 1300 -3 -372.5
v 1300 -3 -401.02
v 325 -3 -401.02
v 325 -3 -372.5
v 0 -3 -372.5
v 0 -3 -401.02
v 325 15 -373.7
v 0 15 -373.7
v 0 13.8 -372.5
v 325 13.8 -372.5
v 975 15 -373.7
v 1300 15 -373.7
v 1300 15 -401.08
v 975 15 -401.08
v 0 0 -372.5
v 0 0 -401.02
v 0 15 -401.08
v 325 15 -401.08
v 650 15 -373.7
v 650 15 -401.08
v 650 13.8 -372.5
v 975 -3 -372.5
v 975 -3 -401.02
v 650 -3 -372.5
v 650 -3 -401.02
v 325 0 -372.5
v 650 0 -372.5
v 1300 15 -522.5
v 975 15 -522.5
v 1300 0 -522.5
v 975 0 -522.5
v 0 15 -522.5
v 0 0 -522.5
v 0 -3 -522.5
v 1300 -3 -522.5
v 975 -3 -522.5
v 325 -3 -522.5
v 650 -3 -522.5
v 325 0 -522.5
v 650 0 -522.5
v 325 15 -522.5
v 650 15 -522.5
v 325 0 372.5
v 0 0 372.5
v 0 13.8 372.5
v 325 13.8 372.5
v 0 -3 372.5
v 325 -3 372.5
v 975 15 373.7
v 1300 15 373.7
v 1300 13.8 372.5
v 975 13.8 372.5
v 325 15 373.7
v 0 15 373.7
v 1300 0 372.5
v 1300 -3 372.5
v 650 15 373.7
v 650 13.8 372.5
v 975 -3 372.5
v 650 -3 372.5
v 975 0 372.5
v 650 0 372.5
v 733 0 -6
v 733 1 -6
v 866 1 -6
v 866 0 -6
v 733 1 6
v 866 1 6
v 300 1 6
v 300 0 6
v 433 0 6
v 433 1 6
v 300 0 -6
v 433 0 -6
v 300 1 -6
v 433 1 -6
v 733 0 6
v 866 0 6
v 1166 0 -6
v 1166 1 -6
v 1300 1 -6
v 1300 0 -6
v 1166 0 6
v 1300 0 6
v 1166 1 6
v 1300 1 6
v 1300 1 -350
v 1300 0 -350
v 1300 0 -372.5
v 1300 1 -372.5
v 1166.36 1 -350
v 1166.36 1 -372.5
v 733.35 1 -350
v 866.64 1 -350
v 866.64 1 -372.5
v 733.35 1 -372.5
v 866.64 0 -350
v 733.35 0 -350
v 733.35 0 -372.5
v 866.64 0 -372.5
v 433.1 0 -350
v 299.82 0 -350
v 299.82 0 -372.5
v 433.1 0 -372.5
v 1166.36 0 -372.5
v 433.1 1 -350
v 299.82 1 -350
v 299.82 1 -372.5
v 433.1 1 -372.5
v 1166.36 0 -350
v 299.82 1 350
v 299.82 0 350
v 0 0 350
v 0 1 350
v 299.82 0 372.5
v 299.82 1 372.5
v 0 1 372.5
v 0 0 372.5
v 1300 0 350
v 1300 1 350
v 1300 1 372.5
v 1300 0 372.5
v 1166.36 0 350
v 1166.36 0 372.5
v 866.64 1 350
v 733.35 1 350
v 733.35 1 372.5
v 866.64 1 372.5
v 433.1 0 350
v 433.1 0 372.5
v 733.35 0 350
v 733.35 0 372.5
v 866.64 0 350
v 866.64 0 372.5
v 433.1 1 350
v 433.1 1 372.5
v 1166.36 1 372.5
v 1166.36 1 350
v 0 0 -350
v 0 0 -372.5
v 0 1 -350
v 0 1 -372.5
v 0 1 6
v 0 0 6
v 0 1 -6
v 0 0 -6
vt 0 0
vt 0.375 0
vt 0.375 0.25
vt 0.625 0.25
vt 0.625 0
vt 0.375 0.375
vt 0.625 0.375
vt 0.25 0.75
vt 0.25 0.5
vt 0.625 0.875
vt 0.375 0.875
vt 0.75 0.5
vt 0.75 0.75
vt 0.99481 -1.71266
vt 0.99481 -3.79846
vt 0.90353 -3.79846
vt 0.90353 -1.71266
vt 0.81659 -3.70568
vt 0.99894 -3.70568
vt 0.99894 -3.68957
vt 0.81659 -3.68957
vt 0.81659 -1.71266
vt 0.81659 -3.79846
vt 0.99894 -3.79846
vt 0.99894 -1.71266
vt 0.97156 2.45892
vt 0.97156 4.54471
vt 0.9872 4.54471
vt 0.9872 2.45892
vt 0.99124 -1.71266
vt 0.99124 -3.79846
vt 0.81274 -3.79846
vt 0.81274 -1.71266
vt 0.99894 4.56208
vt 0.81659 4.56208
vt 0.81659 4.54471
vt 0.99894 4.54471
vt 0.99894 4.46774
vt 0.99124 4.46105
vt 0.81274 4.46105
vt 0.99894 -3.70544
vt 0.81659 -3.70544
vt 0.99894 -3.79101
vt 0.99124 4.54471
vt 0.99124 2.45892
vt 0.81274 2.45892
vt 0.81274 4.54471
vt 0.99124 0.37313
vt 0.81274 0.37313
vt 0.97156 -3.79846
vt 0.97156 -1.71266
vt 0.9872 -1.71266
vt 0.9872 -3.79846
vt 0.97156 0.37313
vt 0.9872 0.37313
vt 0.81659 2.45892
vt 0.99894 2.45892
vt 0.81659 0.37313
vt 0.99894 0.37313
vt 0.99481 4.54471
vt 0.99481 2.45892
vt 0.90353 2.45892
vt 0.90353 4.54471
vt 0.99481 0.37313
vt 0.90353 0.37313
vt 0.48961 -16.08862
vt 0.99967 -16.08862
vt 0.48961 -11.94441
vt 0.99967 -11.94441
vt 0.48961 0.48822
vt 0.48961 -7.8002
vt 0.99967 -7.8002
vt 0.99967 0.48822
vt 0.48961 4.63243
vt 0.48961 8.77664
vt 0.99967 8.77664
vt 0.99967 4.63243
vt 0.44956 -8.20677
vt 0.44956 -15.5263
vt 0.99885 -8.20677
vt 0.99885 -15.5263
vt 0.44956 16.21034
vt 0.99885 16.21034
vt 0.44956 12.9479
vt 0.99885 12.9479
vt 0.44956 5.63091
vt 0.44956 2.37674
vt 0.99885 2.37674
vt 0.99885 5.63091
vt 0.44956 -4.95315
vt 0.99885 -4.95315
vt 0.81212 2.55182
vt 0.81212 4.63761
vt 0.03688 4.63761
vt 0.03688 2.55182
vt 0.81586 0.682
vt 0.03688 0.682
vt 0.03688 0.74352
vt 0.812 0.74352
vt 0.11501 2.55182
vt 0.11501 4.63761
vt 0.81586 0.26294
vt 0.812 0.31875
vt 0.03688 0.31875
vt 0.03688 0.26294
vt 0.81586 0.25317
vt 0.03688 0.25317
vt 0.02795 2.55182
vt 0.02498 4.63761
vt 0.0339 2.55182
vt 0.03688 -1.61977
vt 0.81597 -1.61977
vt 0.81597 -3.70556
vt 0.03688 -3.70556
vt 0.81586 0.74352
vt 0.81586 0.75805
vt 0.03688 0.75805
vt 0.81597 4.63761
vt 0.81597 2.55182
vt 0.81597 0.46602
vt 0.03688 0.46602
vt 0.0339 -1.61977
vt 0.02795 -1.61977
vt 0.02498 -3.70556
vt 0.03093 0.46602
vt 0.11501 -3.70556
vt 0.11501 -1.61977
vt 0.11501 0.46602
vt 0.81212 -3.70556
vt 0.81212 -1.61977
vt 0.81212 0.46602
vt 0.95289 1.70833
vt 1.86713 1.70833
vt 1.86713 2.50599
vt 0.95289 2.50599
vt 0.95273 -1.25023
vt 0.00028 -1.25023
vt 0.00028 2.28746
vt 0.95273 2.28746
vt 0.95289 -0.68467
vt 0.95289 0.11299
vt 1.86713 0.11299
vt 1.86713 -0.68467
vt 0.95289 0.91066
vt 1.86713 0.91066
vt 0.95273 1.40303
vt 0.95273 0.51861
vt 0.95273 -0.36581
vt -0.95217 2.28746
vt 0.03864 -0.68467
vt 0.03864 0.11299
vt -0.95217 -1.25023
vt 0.03864 2.50599
vt 0.03864 1.70833
vt 0.03864 0.91066
vt -0.95217 1.40303
vt -0.95217 0.51861
vt -0.95217 -0.36581
vt 0.8168 0.38831
vt 0.03627 0.38831
vt 0.03627 0.29529
vt 0.81295 0.29529
vt 0.03627 -1.71266
vt 0.03627 -3.79846
vt 0.12308 -3.79846
vt 0.12308 -1.71266
vt 0.8168 0.70096
vt 0.81295 0.6173
vt 0.03627 0.6173
vt 0.03627 0.70096
vt 0.02305 -1.71266
vt 0.02305 -3.79846
vt 0.8168 0.71323
vt 0.03627 0.71323
vt 0.81239 -1.71266
vt 0.81239 -3.79846
vt 0.81624 -3.79846
vt 0.81624 -1.71266
vt 0.03627 0.27955
vt 0.8168 0.27955
vt 0.8168 0.29529
vt 0.03627 4.54471
vt 0.03627 2.45892
vt 0.81624 2.45892
vt 0.81624 4.54471
vt 0.03627 0.37313
vt 0.81624 0.37313
vt 0.81239 4.54471
vt 0.81239 2.45892
vt 0.81239 0.37313
vt 0.02305 4.54471
vt 0.02305 2.45892
vt 0.02305 0.37313
vt 0.12308 2.45892
vt 0.12308 4.54471
vt 0.12308 0.37313
vt 0.625 1
vt 0.375 1
vt 0.125 0.5
vt 0.125 0.75
vt 0.90358 2.55182
vt 0.90358 4.63761
vt 0.99443 4.63761
vt 0.99443 2.55182
vt 0.81586 4.63761
vt 0.99955 4.63761
vt 0.81586 -1.61977
vt 0.99955 -1.61977
vt 0.99955 -3.70556
vt 0.81586 -3.70556
vt 0.99248 -1.61977
vt 0.99248 -3.70556
vt 0.98458 -3.70556
vt 0.98458 -1.61977
vt 0.99185 2.55182
vt 0.99185 4.63761
vt 0.812 4.63761
vt 0.812 2.55182
vt 0.99955 4.57609
vt 0.81586 4.57609
vt 0.99955 4.63269
vt 0.99955 -3.65422
vt 0.99185 -3.64975
vt 0.812 -3.64975
vt 0.99185 -3.70556
vt 0.99185 -1.61977
vt 0.812 -1.61977
vt 0.812 -3.70556
vt 0.99185 0.46602
vt 0.812 0.46602
vt 0.99248 4.63761
vt 0.99248 2.55182
vt 0.98458 2.55182
vt 0.98458 4.63761
vt 0.99248 0.46602
vt 0.98458 0.46602
vt 0.99955 2.55182
vt 0.81586 2.55182
vt 0.99955 0.46602
vt 0.81586 0.46602
vt 0.90358 -3.70556
vt 0.90358 -1.61977
vt 0.99443 -1.61977
vt 0.99443 -3.70556
vt 0.90358 0.46602
vt 0.99443 0.46602
vt 0.48961 17.06506
vt 0.99968 17.06506
vt 0.875 0.5
vt 0.875 0.75
vn 0 0 -1
vn 0 1 0
vn 0 0 1
vn 0 -1 0
vn 1 0 0
vn -1 0 0
vn 0 0.7071 -0.7071
vn 0 0.7071 0.7071
usemtl centralContinuousLine
s 1
f 125/1/1 126/1/1 127/1/1 128/1/1
f 126/1/2 129/1/2 130/1/2 127/1/2
f 131/1/3 132/1/3 133/1/3 134/1/3
f 132/1/4 135/1/4 136/1/4 133/1/4
f 137/1/2 131/1/2 134/1/2 138/1/2
f 135/1/1 137/1/1 138/1/1 136/1/1
f 139/1/4 125/1/4 128/1/4 140/1/4
f 129/1/3 139/1/3 140/1/3 130/1/3
f 133/2/5 136/3/5 138/4/5 134/5/5
f 140/2/5 128/3/5 127/4/5 130/5/5
f 141/6/1 142/7/1 143/7/1 144/6/1
f 145/8/4 141/9/4 144/9/4 146/8/4
f 147/10/3 145/11/3 146/11/3 148/10/3
f 142/12/2 147/13/2 148/13/2 143/12/2
f 143/7/5 148/10/5 146/8/5 144/6/5
f 131/1/6 137/1/6 135/1/6 132/1/6
f 129/1/6 126/1/6 125/1/6 139/1/6
f 142/1/6 141/1/6 145/1/6 147/1/6
usemtl rightBorder
f 105/14/1 106/15/1 107/16/1 108/17/1
f 31/18/6 106/19/6 109/20/6 46/21/6
f 47/22/4 46/23/4 109/24/4 110/25/4
f 111/26/7 112/27/7 113/28/7 114/29/7
f 115/30/2 116/31/2 34/32/2 45/33/2
f 117/34/5 37/35/5 44/36/5 118/37/5
f 113/38/5 112/39/5 38/40/5 37/36/5 117/37/5
f 106/41/6 31/42/6 34/32/6 116/31/6 107/43/6
f 112/44/2 111/45/2 52/46/2 38/47/2
f 111/45/2 119/48/2 54/49/2 52/46/2
f 119/48/2 115/30/2 45/33/2 54/49/2
f 116/50/7 115/51/7 108/52/7 107/53/7
f 115/51/7 119/54/7 120/55/7 108/52/7
f 119/54/7 111/26/7 114/29/7 120/55/7
f 44/36/4 49/56/4 121/57/4 118/37/4
f 49/56/4 51/58/4 122/59/4 121/57/4
f 51/58/4 47/22/4 110/25/4 122/59/4
f 117/60/1 123/61/1 114/62/1 113/63/1
f 123/61/1 124/64/1 120/65/1 114/62/1
f 124/64/1 105/14/1 108/17/1 120/65/1
usemtl leftContinuousLine
f 149/66/5 150/66/5 151/67/5 152/67/5
f 153/68/2 149/66/2 152/67/2 154/69/2
f 155/70/2 156/71/2 157/72/2 158/73/2
f 159/71/4 160/70/4 161/73/4 162/72/4
f 163/74/4 164/75/4 165/76/4 166/77/4
f 154/69/1 152/67/1 151/67/1 167/69/1
f 168/74/3 169/75/3 164/75/3 163/74/3
f 156/71/3 155/70/3 160/70/3 159/71/3
f 158/73/1 157/72/1 162/72/1 161/73/1
f 170/76/1 171/77/1 166/77/1 165/76/1
f 169/75/2 168/74/2 171/77/2 170/76/2
f 149/66/3 153/68/3 172/68/3 150/66/3
f 150/66/4 172/68/4 167/69/4 151/67/4
usemtl rightContinuousLine
f 173/78/1 174/78/1 175/79/1 176/79/1
f 177/80/3 178/80/3 179/81/3 180/81/3
f 181/82/5 182/82/5 183/83/5 184/83/5
f 176/79/6 175/79/6 180/81/6 179/81/6
f 185/84/4 181/82/4 184/83/4 186/85/4
f 187/86/2 188/87/2 189/88/2 190/89/2
f 174/78/4 191/90/4 192/91/4 177/80/4
f 191/90/4 193/87/4 194/88/4 192/91/4
f 193/87/4 195/86/4 196/89/4 194/88/4
f 188/87/1 193/87/1 191/90/1 197/90/1
f 194/88/3 189/88/3 198/91/3 192/91/3
f 190/89/3 189/88/3 194/88/3 196/89/3
f 187/86/1 195/86/1 193/87/1 188/87/1
f 199/85/3 190/89/3 196/89/3 186/85/3
f 200/84/1 185/84/1 195/86/1 187/86/1
f 175/79/4 174/78/4 177/80/4 180/81/4
f 197/90/2 173/78/2 178/80/2 198/91/2
f 192/91/3 198/91/3 178/80/3 177/80/3
f 197/90/1 191/90/1 174/78/1 173/78/1
f 182/82/1 181/82/1 185/84/1 200/84/1
f 183/83/3 199/85/3 186/85/3 184/83/3
f 182/82/2 200/84/2 199/85/2 183/83/2
f 195/86/4 185/84/4 186/85/4 196/89/4
usemtl leftSidewalk
f 76/92/2 75/93/2 90/94/2 91/95/2
f 62/96/5 92/97/5 90/98/5 75/99/5
f 91/100/1 90/101/1 92/94/1 93/95/1
f 78/102/6 79/103/6 94/104/6 95/105/6
f 78/106/6 95/107/6 96/105/6 68/102/6
f 93/108/1 92/109/1 97/94/1 98/110/1
f 99/111/4 65/112/4 68/113/4 96/114/4
f 92/98/5 62/115/5 64/116/5 97/117/5
f 97/94/4 64/118/4 85/119/4 98/95/4
f 98/95/4 85/119/4 87/120/4 100/121/4
f 100/121/4 87/120/4 65/112/4 99/111/4
f 95/114/1 101/122/1 99/123/1 96/124/1
f 101/122/1 102/125/1 100/125/1 99/123/1
f 102/125/1 93/108/1 98/110/1 100/125/1
f 94/126/1 103/127/1 101/111/1 95/114/1
f 103/127/1 104/128/1 102/121/1 101/111/1
f 104/128/1 91/100/1 93/95/1 102/121/1
f 79/129/2 80/130/2 103/111/2 94/114/2
f 80/130/2 82/131/2 104/121/2 103/111/2
f 82/131/2 76/92/2 91/95/2 104/121/2
usemtl road
f 1/132/2 2/133/2 3/134/2 4/135/2
f 5/136/6 6/137/6 7/137/6 8/136/6
f 4/138/5 3/139/5 9/139/5 10/138/5
f 11/132/4 10/135/4 9/134/4 12/133/4
f 7/140/4 13/141/4 14/142/4 8/143/4
f 13/141/4 15/144/4 16/145/4 14/142/4
f 15/144/4 11/132/4 12/133/4 16/145/4
f 6/140/2 5/143/2 17/142/2 18/141/2
f 18/141/2 17/142/2 19/145/2 20/144/2
f 20/144/2 19/145/2 2/133/2 1/132/2
f 3/139/3 2/146/3 12/146/3 9/139/3
f 2/146/3 19/147/3 16/147/3 12/146/3
f 19/147/3 17/148/3 14/148/3 16/147/3
f 8/136/3 14/148/3 17/148/3 5/136/3
f 4/138/5 10/138/5 21/149/5 22/149/5
f 13/141/4 7/140/4 23/150/4 24/151/4
f 7/137/6 6/137/6 25/152/6 23/152/6
f 1/132/2 4/135/2 22/153/2 26/154/2
f 6/140/2 18/141/2 27/151/2 25/150/2
f 18/141/2 20/144/2 28/155/2 27/151/2
f 20/144/2 1/132/2 26/154/2 28/155/2
f 10/135/4 11/132/4 29/154/4 21/153/4
f 11/132/4 15/144/4 30/155/4 29/154/4
f 15/144/4 13/141/4 24/151/4 30/155/4
f 22/149/1 21/149/1 29/156/1 26/156/1
f 26/156/1 29/156/1 30/157/1 28/157/1
f 28/157/1 30/157/1 24/158/1 27/158/1
f 27/158/1 24/158/1 23/152/1 25/152/1
usemtl rightSidewalk
f 31/159/6 32/160/6 33/161/6 34/162/6
f 35/163/3 33/164/3 32/165/3 36/166/3
f 37/167/5 38/168/5 39/169/5 40/170/5
f 36/171/3 32/172/3 41/164/3 42/163/3
f 37/173/5 40/174/5 43/170/5 44/167/5
f 45/175/2 34/176/2 33/164/2 35/163/2
f 42/163/4 41/164/4 46/177/4 47/178/4
f 32/179/6 31/180/6 46/181/6 41/161/6
f 43/182/4 48/183/4 49/184/4 44/185/4
f 48/183/4 50/186/4 51/187/4 49/184/4
f 50/186/4 42/163/4 47/178/4 51/187/4
f 38/188/2 52/189/2 53/183/2 39/182/2
f 52/189/2 54/190/2 55/186/2 53/183/2
f 54/190/2 45/175/2 35/163/2 55/186/2
f 40/191/3 56/192/3 48/183/3 43/182/3
f 56/192/3 57/193/3 50/186/3 48/183/3
f 57/193/3 36/171/3 42/163/3 50/186/3
f 39/182/3 53/183/3 56/194/3 40/195/3
f 53/183/3 55/186/3 57/196/3 56/194/3
f 55/186/3 35/163/3 36/166/3 57/196/3
usemtl rightT3Line
f 173/78/2 176/79/2 179/81/2 178/80/2
f 200/84/2 187/86/2 190/89/2 199/85/2
f 188/87/2 197/90/2 198/91/2 189/88/2
usemtl centralT1Line
f 132/11/3 131/10/3 205/197/3 206/198/3
f 206/2/6 205/5/6 207/4/6 208/3/6
f 208/199/4 135/9/4 132/8/4 206/200/4
f 208/3/1 207/4/1 137/7/1 135/6/1
f 205/5/2 131/1/2 137/7/2 207/4/2
usemtl leftBorder
f 58/201/3 59/202/3 60/203/3 61/204/3
f 62/205/5 59/206/5 63/206/5 64/205/5
f 65/207/4 66/208/4 67/209/4 68/210/4
f 69/211/8 70/212/8 71/213/8 72/214/8
f 73/215/2 74/216/2 75/217/2 76/218/2
f 77/209/6 78/210/6 68/210/6 67/209/6
f 59/219/5 62/220/5 75/217/5 74/216/5 60/221/5
f 71/222/6 70/223/6 79/224/6 78/210/6 77/209/6
f 70/225/2 69/226/2 80/227/2 79/228/2
f 69/226/2 81/229/2 82/230/2 80/227/2
f 81/229/2 73/215/2 76/218/2 82/230/2
f 74/231/8 73/232/8 61/233/8 60/234/8
f 73/232/8 81/235/8 83/236/8 61/233/8
f 81/235/8 69/211/8 72/214/8 83/236/8
f 64/205/4 63/206/4 84/237/4 85/238/4
f 85/238/4 84/237/4 86/239/4 87/240/4
f 87/240/4 86/239/4 66/208/4 65/207/4
f 77/241/3 88/242/3 72/243/3 71/244/3
f 88/242/3 89/245/3 83/246/3 72/243/3
f 89/245/3 58/201/3 61/204/3 83/246/3
usemtl leftT3Line
f 164/75/4 201/247/4 202/248/4 165/76/4
f 201/247/6 203/247/6 204/248/6 202/248/6
f 203/247/2 169/75/2 170/76/2 204/248/2
f 168/74/2 155/70/2 158/73/2 171/77/2
f 172/68/4 159/71/4 162/72/4 167/69/4
f 169/75/3 203/247/3 201/247/3 164/75/3
f 204/248/1 170/76/1 165/76/1 202/248/1
f 171/77/1 158/73/1 161/73/1 166/77/1
f 153/68/3 156/71/3 159/71/3 172/68/3
f 155/70/3 168/74/3 163/74/3 160/70/3
f 160/70/4 163/74/4 166/77/4 161/73/4
f 157/72/1 154/69/1 167/69/1 162/72/1
f 156/71/2 153/68/2 154/69/2 157/72/2
usemtl centralT3Line
f 139/11/3 129/10/3 134/197/3 133/198/3
f 136/199/4 125/9/4 139/8/4 133/200/4
f 136/3/1 138/4/1 126/7/1 125/6/1
f 145/11/3 147/10/3 130/197/3 140/198/3
f 142/12/2 127/249/2 130/250/2 147/13/2
f 128/199/4 141/9/4 145/8/4 140/200/4
f 128/3/1 127/4/1 142/7/1 141/6/1
f 138/1/2 134/1/2 129/1/2 126/1/2
