<?xml version="1.0" encoding="UTF-8" standalone="no"?>
<svg width="16px" height="16px" viewBox="0 0 16 16" version="1.1" xmlns="http://www.w3.org/2000/svg" xmlns:xlink="http://www.w3.org/1999/xlink">
  <title>plan/plan-modify-label</title>
  <g
     id="plan/plan-modify-label"
     style="fill:none;stroke:none">
    <g
       id="Group"
       style="opacity:0;fill:#dddddd;fill-rule:nonzero">
      <g
         id="Rectangle-Copy-25">
        <rect
           width="16"
           height="16"
           x="0"
           y="0"
           id="rect9" />
      </g>
    </g>
    <g
       transform="translate(5.2,0)"
       id="g14"
       style="stroke:#000000;stroke-width:0.69999999;stroke-linecap:round;stroke-linejoin:round">
      <g
         id="g16">
        <path
           d="m 9.9,3.8903226 -5.4,5.4 0,-3 -3,0 5.4,-5.40000002 C 7.5017316,0.18995555 8.3220779,0.35695588 9.361039,1.3913236 10.4,2.4256913 10.579654,3.258691 9.9,3.8903226 z"
           id="Path-49-Copy"
           style="fill:#ffffff" />
        <polygon
           points="0.7,10.090323 4.5,9.2903226 4.5,6.2903226 1.5,6.2903226 "
           id="Path"
           style="fill:#ffffff" />
        <polygon
           points="2.8,9.5903226 0.8,10.090323 1.3,8.0903226 "
           id="Path-52"
           style="fill:#000000" />
        <line
           x1="4.5"
           y1="6.2903228"
           x2="9.1999998"
           y2="1.5903226"
           id="Path-53" />
      </g>
    </g>
    <g
       transform="matrix(0.7799828,0,0,0.72691513,-0.15599656,-1.6142336)"
       id="GroupText"
       style="fill:#000000;fill-rule:nonzero">
      <path
         d="m 5.2658139,11.16256 c -0.788512,0.0044 -1.2035055,0.32392 -1.6179398,1.597687 l -3.23890054,9.63918 -0.0522919,0.166634 -0.0801234,0.285023 C 0.22270161,23.064744 0.2,23.223663 0.2,23.364639 c 0,0.465795 0.22910169,0.866847 0.947419,0.866847 0.6317866,0 0.9466418,-0.249407 1.1736546,-0.94308 l 0.047691,-0.155516 0.7206749,-2.188708 4.4204021,0 0.7339255,2.195177 c 0.2231206,0.794987 0.4870572,1.092127 1.2380947,1.092127 0.7091622,0 0.9924582,-0.466139 0.9747742,-0.914009 -0.0077,-0.194551 -0.03956,-0.427404 -0.123873,-0.725758 l -0.056,-0.187116 -3.3258453,-9.445902 C 6.4488374,11.368982 6.0994231,11.157871 5.2658139,11.16256 z m 0,2.698656 1.513494,5.175883 -3.0269776,0 z"
         id="path23" />
    </g>
  </g>
</svg>
