<?xml version="1.0" encoding="UTF-8"?>
<svg width="16px" height="16px" viewBox="0 0 16 16" version="1.1" xmlns="http://www.w3.org/2000/svg" xmlns:xlink="http://www.w3.org/1999/xlink">
    <title>meubles/align-vertical-bottom</title>
    <g id="meubles/align-vertical-bottom" stroke="none" stroke-width="1" fill="none" fill-rule="evenodd">
        <g id="Group" transform="translate(0.000000, 0.000000)" fill="#DDDDDD" fill-rule="nonzero" opacity="0">
            <g id="Rectangle-Copy-25">
                <rect x="0" y="0" width="16" height="16"></rect>
            </g>
        </g>
        <path d="M5,6 L10,6 L10,6 L10,9 L4,9 L4,7 C4,6.44771525 4.44771525,6 5,6 Z" id="Rectangle-Copy-62" stroke="#000000" fill="#FFFFFF" fill-rule="nonzero" stroke-linecap="round" stroke-linejoin="round" transform="translate(7.000000, 7.500000) rotate(90.000000) translate(-7.000000, -7.500000) "></path>
        <path d="M0,4 L8,4 L8,4 L8,8 L0,8 C-0.55228475,8 -1,7.55228475 -1,7 L-1,5 C-1,4.44771525 -0.55228475,4 0,4 Z" id="Rectangle-Copy-63" stroke="#000000" fill="#FFFFFF" fill-rule="nonzero" stroke-linecap="round" stroke-linejoin="round" transform="translate(3.500000, 6.000000) rotate(90.000000) translate(-3.500000, -6.000000) "></path>
        <line x1="12.4498944" y1="5.01731149" x2="12.4498944" y2="10.0173115" id="Path-2-Copy-5" stroke="#000000" stroke-linecap="round" stroke-linejoin="round" fill-rule="nonzero" transform="translate(12.449894, 7.517311) rotate(-180.000000) translate(-12.449894, -7.517311) "></line>
        <polyline id="Rectangle-Copy-53" stroke="#000000" stroke-linecap="round" stroke-linejoin="round" fill-rule="nonzero" transform="translate(12.449894, 8.017311) rotate(-315.000000) translate(-12.449894, -8.017311) " points="14.2176613 6.24954454 14.2176613 9.78507844 10.6821274 9.78507844"></polyline>
        <line x1="2.82842712" y1="17.6776695" x2="13.4350288" y2="7.07106781" id="Path-3-Copy-7" stroke="#000000" stroke-linecap="round" stroke-linejoin="round" fill-rule="nonzero" transform="translate(7.914214, 12.278175) rotate(45.000000) translate(-7.914214, -12.278175) "></line>
    </g>
</svg>