<?xml version="1.0" encoding="UTF-8"?>
<svg width="16px" height="16px" viewBox="0 0 16 16" version="1.1" xmlns="http://www.w3.org/2000/svg" xmlns:xlink="http://www.w3.org/1999/xlink">
    <title>edition/edit-paste-style</title>
    <g id="edition/edit-paste-style" stroke="none" stroke-width="1" fill="none" fill-rule="evenodd">
        <g id="Group" fill="#DDDDDD" fill-rule="nonzero" opacity="0">
            <g id="Rectangle-Copy-25">
                <rect x="0" y="0" width="16" height="16"></rect>
            </g>
        </g>
        <path d="M7,0.5 C8.30625206,0.5 9.41751442,1.3348501 9.82932572,2.50008893 L11.5,2.5 C12.6045695,2.5 13.5,3.3954305 13.5,4.5 L13.5,12.5 C13.5,13.6045695 12.6045695,14.5 11.5,14.5 L2.5,14.5 C1.3954305,14.5 0.5,13.6045695 0.5,12.5 L0.5,4.5 C0.5,3.3954305 1.3954305,2.5 2.5,2.5 L4.17067428,2.50008893 C4.58248558,1.3348501 5.69374794,0.5 7,0.5 Z" id="Combined-Shape-Copy" stroke="#000000" fill="#FFFFFF" fill-rule="nonzero" stroke-linecap="round" stroke-linejoin="round"></path>
        <line x1="2.5" y1="4.5" x2="11.5" y2="4.5" id="Path-46-Copy" stroke="#000000" stroke-linecap="round" stroke-linejoin="round" fill-rule="nonzero"></line>
        <line x1="6.5" y1="2.5" x2="7.5" y2="2.5" id="Path-47-Copy" stroke="#000000" stroke-linecap="round" stroke-linejoin="round" fill-rule="nonzero"></line>
        <g id="cube-MM" transform="matrix(1,0,0,0.9740669,6.8,4.5154075)" fill-rule="nonzero">
            <polygon id="Path-39-Copy-5" stroke="#000000" stroke-width="0.75" fill="#FFFFFF" stroke-linecap="round" stroke-linejoin="round" transform="matrix(-1,0,0,1,4.363636,0)" points="0 5.96083813 0 11.4153836 4.36363636 9.2335654 4.36363636 3.77901994"></polygon>
            <line x1="0.1" y1="5.6" x2="4.1" y2="7.6" id="Path-15" stroke="#000000" stroke-width="0.75" stroke-linecap="round" stroke-linejoin="round"></line>
            <line x1="0.1" y1="7.6" x2="4.1" y2="9.6" id="Path-16" stroke="#000000" stroke-width="0.75" stroke-linecap="round" stroke-linejoin="round"></line>
            <polygon id="Path-39-Copy-6" stroke="#000000" stroke-width="0.75" fill="#FFFFFF" stroke-linecap="round" stroke-linejoin="round" points="4.36363636 5.96083813 4.36363636 11.4153836 8.72727273 9.2335654 8.72727273 3.77901994"></polygon>
            <polygon id="Path-39-Copy-7" stroke="#000000" stroke-width="0.75" fill="#FFFFFF" stroke-linecap="round" stroke-linejoin="round" transform="matrix(0.5,-0.8660254,-0.8660254,-0.5,5.4545453,9.4475496)" points="2.47412639 2.68811085 2.18181818 7.55803989 6.25314634 4.86992903 6.54545455 -9.09494702e-13"></polygon>
            <path d="M6.7,8.52732127 C7.25228475,8.26626801 7.7,7.60692728 7.7,7.05464253 C7.7,6.50235778 7.25228475,6.26626801 6.7,6.52732127 C6.14771525,6.78837452 5.7,7.44771525 5.7,8 C5.7,8.55228475 6.14771525,8.78837452 6.7,8.52732127 Z" id="Oval" fill="#000000"></path>
        </g>
    </g>
</svg>