<?xml version="1.0" encoding="UTF-8"?>
<svg width="16px" height="16px" viewBox="0 0 16 16" version="1.1" xmlns="http://www.w3.org/2000/svg" xmlns:xlink="http://www.w3.org/1999/xlink">
    <title>texte/format-text-decrease-size</title>
    <g id="texte/format-text-decrease-size" stroke="none" stroke-width="1" fill="none" fill-rule="evenodd">
        <g id="Group" fill="#DDDDDD" fill-rule="nonzero" opacity="0">
            <g id="Rectangle-Copy-25">
                <rect x="0" y="0" width="16" height="16"></rect>
            </g>
        </g>
        <g id="Group" transform="translate(-0.121602, 0.365993)" fill="#000000" fill-rule="nonzero">
            <path d="M15.2723492,9.20908323 C15.7832277,9.20908323 16.1216018,8.90388307 16.1216018,8.42617846 C16.1216018,8.24040445 16.0751583,8.0214565 15.9822713,7.7361607 L13.6999048,1.19426151 C13.414609,0.345008882 13.0165219,0 12.266791,0 C11.5104254,0 11.1057034,0.351643668 10.8204076,1.19426151 C10.3234416,2.61870485 9.95071709,3.68703734 9.70223407,4.39925901 L9.14436586,6.31479993 L10.1149403,8.85300625 L10.7943424,6.80065584 L13.819331,6.80065584 L14.3302095,8.33992624 C14.5093488,8.95696136 14.7880098,9.20908323 15.2723492,9.20908323 Z M13.4278786,5.46706382 L11.0393556,5.46706382 L12.1938084,1.80466184 L12.2800606,1.80466184 L13.4278786,5.46706382 Z" id="A"></path>
            <path d="M5.26574497,2.24427241 C4.47326082,2.24427241 4.05493125,2.68224458 3.64782718,3.8496958 L0.40897072,13.5355494 L0.356679509,13.7029901 L0.2765572,13.9893929 C0.222701296,14.2040875 0.2,14.3637762 0.2,14.5054349 C0.2,15.0306859 0.570567501,15.3764789 1.14740613,15.3764789 C1.67308247,15.3764789 1.96645165,15.1258644 2.19346137,14.4288327 L2.24115109,14.2725644 L2.97756736,11.9358684 L7.62364846,11.9358684 L8.37168414,14.279064 C8.5948017,15.0778996 8.90754382,15.3764789 9.48173489,15.3764789 C10.0847874,15.3764789 10.4564966,15.0224828 10.4564966,14.4580435 C10.4564966,14.2623747 10.4169377,14.0285712 10.3326254,13.7287719 L10.276626,13.5407499 L6.95082592,4.04911101 C6.52681167,2.73713337 6.09980313,2.24427241 5.26574497,2.24427241 Z M5.26574497,4.95599572 L6.66634989,10.2941551 L3.86514005,10.2941551 L5.26574497,4.95599572 Z" id="Path"></path>
        </g>
        <polygon id="Path-26-Copy-9" fill="#000000" fill-rule="nonzero" points="15 13.0106534 17 13.0106534 17 14.0106534 15 14.0106534 14 14.0106534 12 14.0106534 12 13.0106534 14 13.0106534"
         transform="matrix(0.8,0,0,1,2.4,0)"></polygon>
    </g>
</svg>