<?xml version="1.0" encoding="UTF-8"?>
<svg width="16px" height="16px" viewBox="0 0 16 16" version="1.1" xmlns="http://www.w3.org/2000/svg" xmlns:xlink="http://www.w3.org/1999/xlink">
    <title>meubles/furniture-export-csv</title>
    <g id="meubles/furniture-export-csv" stroke="none" stroke-width="1" fill="none" fill-rule="evenodd">
        <g id="Group" fill="#DDDDDD" fill-rule="nonzero" opacity="0">
            <g id="Rectangle-Copy-25">
                <rect x="0" y="0" width="16" height="16"></rect>
            </g>
        </g>
        <polyline id="Path" stroke="#000000" fill="#FFFFFF" fill-rule="nonzero" stroke-linecap="round" stroke-linejoin="round" points="10.5 7.5 15.5 7.5 15.5 15.5 0.5 15.5 0.5 7.5 6.5 7.5"></polyline>
        <path d="M3.7470245,14 C4.16709452,14 4.60583431,13.922516 4.98856476,13.6991796 C5.34795799,13.4895169 5.6,13.1841386 5.6,12.8742024 C5.6,12.5916135 5.41330222,12.4457612 5.18459743,12.4457612 C4.96522754,12.4457612 4.83920653,12.5961714 4.73185531,12.7055606 C4.47047841,13.0291705 4.14375729,13.1522334 3.78903151,13.1522334 C3.00490082,13.1522334 2.66417736,12.5916135 2.66417736,11.8076572 L2.66417736,11.1695533 C2.66417736,10.390155 3.03290548,9.85232452 3.77969662,9.85232452 C4.1764294,9.85232452 4.47514586,10.0027347 4.70385064,10.2898815 C4.81586931,10.4129444 4.93255543,10.5542388 5.16126021,10.5542388 C5.431972,10.5542388 5.58599767,10.3628077 5.58599767,10.1166819 C5.58599767,9.80674567 5.31995333,9.51048314 5.01190198,9.31905196 C4.63383897,9.0911577 4.16709452,9 3.74235706,9 C2.37946324,9 1.6,9.85232452 1.6,11.1148587 L1.6,11.8623519 C1.6,13.1841386 2.39813302,14 3.7470245,14 Z" id="Path" fill="#000000" fill-rule="nonzero"></path>
        <path d="M8.07854589,14 C9.33241955,14 10.1,13.4302644 10.1,12.5141294 C10.1,11.8122151 9.6852205,11.3928897 8.79368296,11.1969006 L7.87830751,10.9963537 C7.41108462,10.8915223 7.1965435,10.704649 7.1965435,10.3947129 C7.1965435,10.0118505 7.52550656,9.77028259 8.06901073,9.77028259 C8.45041716,9.77028259 8.72693683,9.87967183 9.0749702,10.1804923 C9.2942789,10.3582498 9.39916567,10.4038286 9.54696067,10.4038286 C9.79964243,10.4038286 9.96650775,10.2579763 9.96650775,10.0255242 C9.96650775,9.7657247 9.76626937,9.50136737 9.42777116,9.31449407 C9.07020262,9.10938924 8.6125149,9 8.12145411,9 C6.93432658,9 6.17151371,9.57885141 6.17151371,10.4630811 C6.17151371,11.1558797 6.60059595,11.5843209 7.51120381,11.7803099 L8.37890346,11.9717411 C8.8318236,12.0674567 9.07020262,12.295351 9.07020262,12.6007293 C9.07020262,12.9881495 8.71263409,13.2251595 8.13575685,13.2251595 C7.67806913,13.2251595 7.3205006,13.0793072 6.98200238,12.7739289 C6.78653159,12.5961714 6.67210965,12.532361 6.52431466,12.532361 C6.26686532,12.532361 6.1,12.691887 6.1,12.9380128 C6.1,13.2297174 6.30977354,13.4986326 6.68164482,13.6946217 C7.05351609,13.8906108 7.54934446,14 8.07854589,14 Z" id="Path" fill="#000000" fill-rule="nonzero"></path>
        <path d="M12.4844271,14 C12.8937709,14 13.0494994,13.8320896 13.3164627,13.0531716 L14.4332592,9.80223881 C14.4822024,9.67164179 14.5,9.57369403 14.5,9.48973881 C14.5,9.20522388 14.2997775,9 14.0239155,9 C13.7703003,9 13.6101224,9.15391791 13.5166852,9.50373134 L12.4933259,12.9972015 L12.4532814,12.9972015 L11.5100111,9.49906716 C11.4299221,9.15858209 11.2652948,9 10.9938821,9 C10.7091212,9 10.5,9.20988806 10.5,9.49440299 C10.5,9.58302239 10.5177976,9.68097015 10.557842,9.79757463 L11.634594,13.0531716 C11.8837597,13.8227612 12.0483871,14 12.4844271,14 Z" id="Path" fill="#000000" fill-rule="nonzero"></path>
        <line x1="8.5" y1="5.5" x2="8.5" y2="0.5" id="Path-4" stroke="#000000" stroke-linecap="round" stroke-linejoin="round" fill-rule="nonzero"></line>
        <line x1="8.5" y1="6.5" x2="4.5" y2="3.5" id="Path-5" stroke="#000000" stroke-linecap="round" stroke-linejoin="round" fill-rule="nonzero"></line>
        <line x1="8.5" y1="6.5" x2="12.5" y2="3.5" id="Path-6" stroke="#000000" stroke-linecap="round" stroke-linejoin="round" fill-rule="nonzero"></line>
    </g>
</svg>