<?xml version="1.0" encoding="UTF-8"?>
<svg width="16px" height="16px" viewBox="0 0 16 16" version="1.1" xmlns="http://www.w3.org/2000/svg" xmlns:xlink="http://www.w3.org/1999/xlink">
    <title>plan/plan-add-level</title>
    <g id="plan/plan-add-level" stroke="none" stroke-width="1" fill="none" fill-rule="evenodd">
        <g id="Group" fill="#DDDDDD" fill-rule="nonzero" opacity="0">
            <g id="Rectangle-Copy-25">
                <rect x="0" y="0" width="16" height="16"></rect>
            </g>
        </g>
        <polygon id="Path" stroke="#000000" fill="#FFFFFF" fill-rule="nonzero" stroke-linecap="round" stroke-linejoin="round" transform="translate(10.000000, 11.500000) scale(1, -1) translate(-10.000000, -11.500000) " points="4.5 7.5 15.5 11.5 15.5 15.5 4.5 11.5"></polygon>
        <polyline id="Path" stroke="#000000" fill="#FFFFFF" fill-rule="nonzero" stroke-linecap="round" stroke-linejoin="round" transform="translate(10.000000, 7.000000) scale(1, -1) translate(-10.000000, -7.000000) " points="4.5 7.5 4.5 2.5 15.5 6.5 15.5 11.5"></polyline>
        <polygon id="Path-23-Copy" stroke="#000000" fill="#FFFFFF" fill-rule="nonzero" stroke-linecap="round" stroke-linejoin="round" transform="translate(2.500000, 11.750000) scale(1, -1) translate(-2.500000, -11.750000) " points="4.5 8 4.5 12 0.5 15.5 0.5 11.5"></polygon>
        <polygon id="Path-23-Copy-2" stroke="#000000" fill="#FFFFFF" fill-rule="nonzero" stroke-linecap="round" stroke-linejoin="round" transform="translate(2.500000, 7.250000) scale(1, -1) translate(-2.500000, -7.250000) " points="4.5 3 4.5 8 0.5 11.5 0.5 6.5"></polygon>
        <line x1="0.5" y1="3" x2="5" y2="1.5" id="Path-9" stroke="#000000" stroke-linecap="round" stroke-linejoin="round" fill-rule="nonzero"></line>
        <path d="M8,0 C9.33333333,0 10,0 10,0 C10,0 10,1 10,3 L13,3 L13,5 L10,5 L10,8 L8,8 L8,5 L5,5 L5,3 L8,3 L8,0 Z" id="Path-26-Copy" fill="#000000" fill-rule="nonzero"></path>
    </g>
</svg>