<?xml version="1.0" encoding="UTF-8"?>
<svg width="16px" height="16px" viewBox="0 0 16 16" version="1.1" xmlns="http://www.w3.org/2000/svg" xmlns:xlink="http://www.w3.org/1999/xlink">
    <title>plan/plan-modify-walls</title>
    <g id="plan/plan-modify-walls" stroke="none" stroke-width="1" fill="none" fill-rule="evenodd">
        <g id="Group" transform="translate(0.000000, -0.000000)" fill="#DDDDDD" fill-rule="nonzero" opacity="0">
            <g id="Rectangle-Copy-25">
                <rect x="0" y="0" width="16" height="16"></rect>
            </g>
        </g>
        <polyline id="Path" stroke="#000000" fill="#FFFFFF" fill-rule="nonzero" stroke-linecap="round" stroke-linejoin="round" points="15.5 6 15.5 15.2 13.0529802 14.4214028 4.5 11.5 4.5 0.2 8.98075158 1.42202316" transform="translate(0,0.3)"></polyline>
        <polygon id="Path-23-Copy" stroke="#000000" fill="#DDDDDD" fill-rule="nonzero" stroke-linecap="round" stroke-linejoin="round" points="4.5 0.2 4.5 11.7 0.5 15.2 0.5 3.2" transform="translate(0,0.3)"></polygon>
        <g id="Group" transform="translate(5.347000, -0.112000)" fill-rule="nonzero" stroke="#000000" stroke-linecap="round" stroke-linejoin="round" stroke-width="0.7">
            <g>
                <path d="M9.9,3.89032258 L4.5,9.29032258 L4.5,6.29032258 L1.5,6.29032258 L6.9,0.890322581 C7.5017316,0.189955547 8.32207792,0.356955881 9.36103896,1.39132358 C10.4,2.42569128 10.5796537,3.25869095 9.9,3.89032258 Z" id="Path-49-Copy" fill="#FFFFFF"></path>
                <polygon id="Path" fill="#FFFFFF" points="1.5 6.29032258 0.7 10.0903226 4.5 9.29032258 4.5 6.29032258"></polygon>
                <polygon id="Path-52" fill="#000000" points="1.3 8.09032258 2.8 9.59032258 0.8 10.0903226"></polygon>
                <line x1="4.5" y1="6.29032258" x2="9.2" y2="1.59032258" id="Path-53"></line>
            </g>
        </g>
    </g>
</svg>