<?xml version="1.0" encoding="UTF-8"?>
<svg width="16px" height="16px" viewBox="0 0 16 16" version="1.1" xmlns="http://www.w3.org/2000/svg" xmlns:xlink="http://www.w3.org/1999/xlink">
    <title>vue3D/view3d-display-all-levels</title>
    <g id="vue3D/view3d-display-all-levels" stroke="none" stroke-width="1" fill="none" fill-rule="evenodd">
        <g id="Group" fill="#DDDDDD" fill-rule="nonzero" opacity="0">
            <g id="Rectangle-Copy-25">
                <rect x="0" y="0" width="16" height="16"></rect>
            </g>
        </g>
        <g id="Group-4" transform="translate(1.597568,4.2835499)" fill-rule="nonzero" stroke="#000000" stroke-linecap="round" stroke-linejoin="round" stroke-width="0.75">
            <polygon id="Path-39" fill="#A4A4A4" points="6.40243152 9.42072066 6.40243152 11.3414501 12.804863 6.76828475 12.804863 4.84755529"></polygon>
            <polygon id="Path-39-Copy" fill="#DDDDDD" points="1.55487623 5.94511498 -7.27872193e-13 4.84755529 6.40243152 0.274389922 6.40243152 2.4695093"></polygon>
            <polygon id="Path-12" fill="#A4A4A4" points="6.40243152 9.42072066 6.40243152 11.3414501 0 6.76828475 0 4.84755529"></polygon>
            <line x1="6.40243152" y1="0.274389922" x2="6.40243152" y2="3.93292222" id="Path-28"></line>
            <polygon id="Path-48" fill="#DDDDDD" points="6.40243152 2.4695093 1.55487623 5.94511498 6.40243152 9.42072066 11.3414501 5.85365167"></polygon>
            <polygon id="Path-52" fill="#DDDDDD" points="6.40243152 0.274389922 12.804863 4.84755529 11.3414501 5.85365167 6.40243152 2.4695093"></polygon>
            <polygon id="Path-53" fill-opacity="0.650013317" fill="#FFFFFF" points="6.40243152 0.274389922 12.804863 4.84755529 6.40243152 9.42072066 0 4.84755529"></polygon>
        </g>
        <g id="Group-4-Copy-2" transform="translate(1.597568, 0.37494189)" fill-rule="nonzero" stroke="#000000" stroke-linecap="round" stroke-linejoin="round" stroke-width="0.75">
            <polygon id="Path-39" fill="#A4A4A4" points="6.40243152 9.14633074 6.40243152 11.0670602 12.804863 6.49389483 12.804863 4.57316537"></polygon>
            <polygon id="Path-39-Copy" fill="#DDDDDD" points="1.55487623 5.67072506 -7.27872193e-13 4.57316537 6.40243152 1.03981742e-13 6.40243152 2.19511938"></polygon>
            <polygon id="Path-12" fill="#A4A4A4" points="6.40243152 9.14633074 6.40243152 11.0670602 0 6.49389483 0 4.57316537"></polygon>
            <line x1="6.40243152" y1="1.03981742e-13" x2="6.40243152" y2="3.6585323" id="Path-28"></line>
            <polygon id="Path-48" fill="#DDDDDD" points="6.40243152 2.19511938 1.55487623 5.67072506 6.40243152 9.14633074 11.3414501 5.57926175"></polygon>
            <polygon id="Path-52" fill="#DDDDDD" points="6.40243152 0 12.804863 4.57316537 11.3414501 5.57926175 6.40243152 2.19511938"></polygon>
            <polygon id="Path-53" fill-opacity="0.650013317" fill="#FFFFFF" points="6.40243152 1.03981742e-13 12.804863 4.57316537 6.40243152 9.14633074 0 4.57316537"></polygon>
        </g>
    </g>
</svg>