<?xml version="1.0" encoding="UTF-8"?>
<svg width="15px" height="15px" viewBox="0 0 15 15" version="1.1" xmlns="http://www.w3.org/2000/svg" xmlns:xlink="http://www.w3.org/1999/xlink">
    <title>vue3D/view3d-view-from-observer</title>
    <g id="vue3D/view3d-view-from-observer" stroke="none" stroke-width="1" fill="none" fill-rule="evenodd" stroke-linecap="round" stroke-linejoin="round">
        <polygon id="Path-12-Copy-2" stroke="#000000" stroke-width="0.75" fill-rule="nonzero" points="15 15 12.1 11 12.1 4 15 0"></polygon>
        <polygon id="Path-12-Copy-3" stroke="#000000" stroke-width="0.75" fill="#A4A4A4" fill-rule="nonzero" points="1.35447209e-13 15 7.1 11 7.1 4 1.35724765e-13 0"></polygon>
        <polygon id="Path-12-Copy-3" stroke="#000000" stroke-width="0.75" fill="#FFFFFF" fill-rule="nonzero" points="1.5 11.5 5.5 9.5 5.5 5.5 1.5 3.5"></polygon>
        <polygon id="Path-28-Copy" stroke="#000000" stroke-width="0.75" fill-rule="nonzero" points="7.1 4 12.1 4 12.1 11 7.1 11"></polygon>
        <polygon id="Path-48-Copy" stroke="#000000" stroke-width="0.75" fill="#DDDDDD" fill-rule="nonzero" points="0 0 7.1 4 12.1 4 15 0"></polygon>
        <polygon id="Path-52-Copy" stroke="#000000" stroke-width="0.75" fill-rule="nonzero" points="0 15 7.1 11 12.1 11 15 15"></polygon>
        <polygon id="Path-53-Copy" stroke="#000000" stroke-width="0.75" fill="#A4A4A4" fill-rule="nonzero" points="7.1 4 12.1 4 12.1 11 7.1 11"></polygon>
        <polygon id="Rectangle-Copy" stroke="#000000" stroke-width="0.75" fill-opacity="0.381067663" fill="#FFFFFF" fill-rule="nonzero" points="0 0 15 0 15 15 0 15"></polygon>
    </g>
</svg>