<?xml version="1.0" encoding="UTF-8"?>
<svg width="16px" height="16px" viewBox="0 0 16 16" version="1.1" xmlns="http://www.w3.org/2000/svg" xmlns:xlink="http://www.w3.org/1999/xlink">
    <title>fichier/document-open</title>
    <g id="fichier/document-open" stroke="none" stroke-width="1" fill="none" fill-rule="evenodd">
        <g id="Group" fill="#DDDDDD" fill-rule="nonzero" opacity="0">
            <g id="Rectangle-Copy-25">
                <rect x="0" y="0" width="16" height="16"></rect>
            </g>
        </g>
        <polyline id="Path" stroke="#000000" fill="#FFFFFF" fill-rule="nonzero" stroke-linecap="round" stroke-linejoin="round" transform="translate(8.500000, 8.048076) scale(-1, 1) translate(-8.500000, -8.048076) " points="11.5 0.5 7.5 0.5 2.5 5.5 2.5 15.5961524 14.5 15.5961524 14.5 8.1"></polyline>
        <g id="Group" transform="translate(0.000000, -0.000000)" fill-rule="nonzero" stroke="#000000" stroke-linecap="round" stroke-linejoin="round">
            <g id="fleche-bas-copy-2" transform="translate(2.500000, 3.000000) scale(1, -1) translate(-2.500000, -3.000000) ">
                <line x1="2.5" y1="-6.39488462e-14" x2="2.5" y2="5" id="Path-2-Copy-5" transform="translate(2.500000, 2.500000) rotate(-180.000000) translate(-2.500000, -2.500000) "></line>
                <path d="M4.26776695,1.23223305 L4.26776695,4.76776695 C1.91074435,4.76776695 0.732233047,4.76776695 0.732233047,4.76776695" id="Rectangle-Copy-53" transform="translate(2.500000, 3.000000) rotate(-315.000000) translate(-2.500000, -3.000000) "></path>
            </g>
        </g>
        <polyline id="Path-12" stroke="#000000" stroke-linecap="round" stroke-linejoin="round" fill-rule="nonzero" points="9.5 0.5 9.5 5.5 14.5 5.5"></polyline>
        <g id="Group" transform="translate(4.500000, 5.500000)" fill-rule="nonzero" stroke="#000000" stroke-linecap="round" stroke-linejoin="round">
            <path d="M8,7 L8,1.5 M2.98446507,0.380825599 L0,1.5 L0,7" id="Shape"></path>
            <polyline id="Path-65" points="-4.54747351e-13 1.5 4 3 8 1.5"></polyline>
            <polyline id="Path-66" points="4 3 4 8.5 8 7"></polyline>
            <line x1="-9.09494702e-13" y1="7" x2="4" y2="8.5" id="Path-28"></line>
        </g>
    </g>
</svg>