<?xml version="1.0" encoding="UTF-8" standalone="no"?>
<svg width="16px" height="16px" viewBox="0 0 16 16" version="1.1" xmlns="http://www.w3.org/2000/svg" xmlns:xlink="http://www.w3.org/1999/xlink">
  <title>text/format-text-bold</title>
  <g
     transform="matrix(1.3835275,0,0,1.0593696,0.63238486,-1.2893745)"
     id="g14"
     style="fill:#000000;fill-rule:nonzero">
    <path
       d="m 5.2723825,2.1610724 c -0.6701701,0 -1.2356556,0.2915873 -1.579926,1.5009846 l -2.5671187,9.592773 -0.04422,0.225537 -0.057787,0.368047 c -0.045544,0.222409 -0.0248631,0.345929 -0.0248631,0.596839 0,0.544123 0.4369573,0.931226 0.924765,0.931226 0.4445421,0 0.7584531,0.02682 1.0102427,-0.669212 l 0.1200852,-0.474366 0.6230841,-2.226338 3.2499911,0 0.6325817,2.233071 c 0.188681,0.827538 0.6591072,1.136845 1.1446761,1.136845 0.5099752,0 0.9412461,-0.461116 0.9580859,-1.045421 0.00997,-0.34592 -0.00355,-0.578512 -0.074845,-0.889083 L 9.5397789,13.247198 6.9291107,3.7336139 C 6.5705401,2.3744973 5.9777098,2.1610724 5.2723825,2.1610724 z m -2e-7,3.1778681 c 0.2157812,-0.040698 0.2505096,0.2554641 1.2564682,4.384087 l -2.3767895,0 C 5.0864778,5.5162845 5.0716637,5.3215492 5.2723823,5.3389405 z"
       id="Path" />
  </g>
</svg>
