<?xml version="1.0" encoding="UTF-8"?>
<svg width="16px" height="16px" viewBox="0 0 16 16" version="1.1" xmlns="http://www.w3.org/2000/svg" xmlns:xlink="http://www.w3.org/1999/xlink">
    <title>meubles/ungroup</title>
    <g id="meubles/ungroup" stroke="none" stroke-width="1" fill="none" fill-rule="evenodd">
        <g id="Group" fill="#DDDDDD" fill-rule="nonzero" opacity="0">
            <g id="Rectangle-Copy-25">
                <rect x="0" y="0" width="16" height="16"></rect>
            </g>
        </g>
        <g id="Group" transform="translate(0.500000, 0.500000)" fill-rule="nonzero" stroke="#000000" stroke-linejoin="round">
            <g>
                <path d="M1,1 L14,1 L14,14 L1,14 L1,1 Z" id="Rectangle" stroke-linecap="square" stroke-dasharray="1,2"></path>
                <rect id="Rectangle" fill="#FFFFFF" stroke-linecap="round" x="0" y="0" width="2" height="2"></rect>
                <rect id="Rectangle-Copy-215" fill="#FFFFFF" stroke-linecap="round" x="0" y="13" width="2" height="2"></rect>
                <rect id="Rectangle-Copy-214" fill="#FFFFFF" stroke-linecap="round" x="13" y="0" width="2" height="2"></rect>
                <rect id="Rectangle-Copy-216" fill="#FFFFFF" stroke-linecap="round" x="13" y="13" width="2" height="2"></rect>
            </g>
        </g>
        <path d="M6.5,9.5 C8.15685425,9.5 9.5,8.15685425 9.5,6.5 C9.5,4.84314575 8.15685425,3.5 6.5,3.5 C4.84314575,3.5 3.5,4.84314575 3.5,6.5 C3.5,8.15685425 4.84314575,9.5 6.5,9.5 Z" id="Oval" stroke="#000000" fill="#FFFFFF" fill-rule="nonzero" stroke-linecap="round" stroke-linejoin="round" stroke-dasharray="0,1.5"></path>
        <path d="M6.5,6.5 L12.5,6.5 L12.5,12.5 L6.5,12.5 L6.5,6.5 Z" id="Rectangle" stroke="#000000" fill="#FFFFFF" fill-rule="nonzero" stroke-linecap="round" stroke-linejoin="round" stroke-dasharray="0,1.5"></path>
    </g>
</svg>