<?xml version="1.0" encoding="UTF-8"?>
<svg width="16px" height="16px" viewBox="0 0 16 16" version="1.1" xmlns="http://www.w3.org/2000/svg" xmlns:xlink="http://www.w3.org/1999/xlink">
    <title>video/media-skip-backward</title>
    <g id="video/media-skip-backward" stroke="none" stroke-width="1" fill="none" fill-rule="evenodd">
        <g id="Group" fill="#DDDDDD" fill-rule="nonzero" opacity="0">
            <g id="Rectangle-Copy-25">
                <rect x="0" y="0" width="16" height="16"></rect>
            </g>
        </g>
        <g id="Group" transform="translate(8.022532, 8.000000) scale(-1, 1) translate(-8.022532, -8.000000) translate(0.500000, 0.500000)" fill="#FFFFFF" fill-rule="nonzero" stroke="#000000" stroke-linecap="round" stroke-linejoin="round" stroke-width="0.75">
            <path d="M1.66162164,1.46613674 L7.65018376,6.75016214 C8.06430778,7.11556568 8.10380352,7.74749762 7.73839998,8.16162164 C7.71085928,8.19283443 7.68139656,8.22229716 7.65018376,8.24983786 L1.66162164,13.5338633 C1.24749762,13.8992668 0.615565685,13.8597711 0.250162145,13.445647 C0.0889565899,13.2629474 2.98387863e-17,13.0276776 0,12.7840254 L0,2.21597459 C-2.8967998e-16,1.66368984 0.44771525,1.21597459 1,1.21597459 C1.24365218,1.21597459 1.47892201,1.30493118 1.66162164,1.46613674 Z" id="Path-58"></path>
            <path d="M11.0450634,1 L14.0450634,1 C14.5973482,1 15.0450634,1.44771525 15.0450634,2 L15.0450634,13 C15.0450634,13.5522847 14.5973482,14 14.0450634,14 L11.0450634,14 C10.4927787,14 10.0450634,13.5522847 10.0450634,13 L10.0450634,2 C10.0450634,1.44771525 10.4927787,1 11.0450634,1 Z" id="Path-57-Copy-2"></path>
        </g>
    </g>
</svg>