<?xml version="1.0" encoding="UTF-8"?>
<svg width="16px" height="16px" viewBox="0 0 16 16" version="1.1" xmlns="http://www.w3.org/2000/svg" xmlns:xlink="http://www.w3.org/1999/xlink">
    <title>video/media-seek-forward</title>
    <g id="video/media-seek-forward" stroke="none" stroke-width="1" fill="none" fill-rule="evenodd">
        <g id="Group" fill="#DDDDDD" fill-rule="nonzero" opacity="0">
            <g id="Rectangle-Copy-25">
                <rect x="0" y="0" width="16" height="16"></rect>
            </g>
        </g>
        <path d="M15.5,2.63504161 L15.5,13.3649584 C15.5,13.9172431 15.0522847,14.3649584 14.5,14.3649584 C14.2660635,14.3649584 14.0395306,14.2829422 13.8598156,14.1331797 L9.5,10.5 L9.5,10.5 L9.5,13.3649584 C9.5,13.9172431 9.05228475,14.3649584 8.5,14.3649584 C8.26606349,14.3649584 8.0395306,14.2829422 7.8598156,14.1331797 L1.42186554,8.76822128 C0.997588638,8.4146572 0.940264575,7.7840925 1.29382866,7.3598156 C1.33254788,7.31335254 1.37540247,7.27049794 1.42186554,7.23177872 L7.8598156,1.86682033 C8.2840925,1.51325625 8.9146572,1.57058032 9.26822128,1.99485721 C9.41798378,2.17457221 9.5,2.40110511 9.5,2.63504161 L9.5,5.5 L9.5,5.5 L13.8598156,1.86682033 C14.2840925,1.51325625 14.9146572,1.57058032 15.2682213,1.99485721 C15.4179838,2.17457221 15.5,2.40110511 15.5,2.63504161 Z" id="Path-59" stroke="#000000" stroke-width="0.75" fill="#FFFFFF" fill-rule="nonzero" stroke-linecap="round" stroke-linejoin="round" transform="translate(8.000000, 8.000000) scale(-1, 1) translate(-8.000000, -8.000000) "></path>
    </g>
</svg>