# Blender v2.92.0 OBJ File: 'voiesFerrees50e6-curveModifiersApplied.blend'
# www.blender.org
mtllib voiesFerreesDroit1m.mtl
o ballastDroit1m_Plane.001
v -2321.796 -6.455 -216.667
v -2321.796 -6.455 183.333
v -2321.796 -26.455 -236.667
v -2321.796 -26.455 203.333
v -2221.796 -6.455 -216.667
v -2221.796 -6.455 183.333
v -2221.796 -26.455 -236.667
v -2221.796 -26.455 203.333
vt 1.02828 0.49375
vt 1.02828 0.09375
vt 1.14142 0.09375
vt 1.14142 0.49375
vt -0.57171 0.09375
vt -0.57171 0.49375
vt -0.68485 0.49375
vt -0.68485 0.09375
vt -0.5716 0.09374
vt -0.68722 0.00912
vt 1.1439 0.00912
vt 1.02829 0.09374
vt 1.1439 0.58428
vt 1.02829 0.49376
vt -0.57143 0.49376
vt -0.68704 0.58428
vt -0.67461 0.99854
vt 1.12793 0.99854
vt 1.12793 0.58888
vt -0.67461 0.58888
vn 0 0.7071 0.7071
vn 0 0.7071 -0.7071
vn 0 1 0
vn -1 0 0
vn 1 0 0
vn 0 -1 0
usemtl ballast
s off
f 6/1/1 2/2/1 4/3/1 8/4/1
f 1/5/2 5/6/2 7/7/2 3/8/2
f 1/5/3 2/2/3 6/1/3 5/6/3
f 1/9/4 3/10/4 4/11/4 2/12/4
f 7/13/5 5/14/5 6/15/5 8/16/5
f 7/17/6 8/18/6 4/19/6 3/20/6
o droit1m_BezierCurve.003
v -2321.796 13.299 -93.673
v -2321.796 12.484 -94.508
v -2321.796 10.304 -94.6
v -2321.796 10.089 -94.414
v -2321.796 9.391 -92.796
v -2321.796 8.976 -92.478
v -2321.796 6.524 -92.248
v -2321.796 3.892 -92.256
v -2321.796 2.393 -92.58
v -2321.796 2.072 -92.922
v -2321.796 1.145 -95.951
v -2321.796 1.091 -96.497
v -2321.796 0.97 -97.803
v -2321.796 0.713 -98.241
v -2321.796 0.108 -98.241
v -2321.796 0 -97.924
v -2321.796 0 -91.509
v -2321.796 0 -85.094
v -2321.796 0.108 -84.777
v -2321.796 0.713 -84.777
v -2321.796 0.97 -85.215
v -2321.796 1.091 -86.521
v -2321.796 1.145 -87.067
v -2321.796 2.072 -90.096
v -2321.796 2.393 -90.438
v -2321.796 3.892 -90.762
v -2321.796 6.524 -90.77
v -2321.796 8.976 -90.54
v -2321.796 9.391 -90.222
v -2321.796 10.089 -88.604
v -2321.796 10.304 -88.418
v -2321.796 12.484 -88.51
v -2321.796 13.299 -89.345
v -2321.796 13.404 -91.509
v -2321.796 13.299 56.009
v -2321.796 12.484 55.173
v -2321.796 10.304 55.081
v -2321.796 10.089 55.268
v -2321.796 9.391 56.886
v -2321.796 8.976 57.204
v -2321.796 6.524 57.434
v -2321.796 3.892 57.425
v -2321.796 2.393 57.101
v -2321.796 2.072 56.76
v -2321.796 1.145 53.731
v -2321.796 1.091 53.184
v -2321.796 0.97 51.879
v -2321.796 0.713 51.441
v -2321.796 0.108 51.441
v -2321.796 0 51.758
v -2321.796 0 58.173
v -2321.796 0 64.588
v -2321.796 0.108 64.905
v -2321.796 0.713 64.905
v -2321.796 0.97 64.467
v -2321.796 1.091 63.161
v -2321.796 1.145 62.615
v -2321.796 2.072 59.585
v -2321.796 2.393 59.244
v -2321.796 3.892 58.92
v -2321.796 6.524 58.911
v -2321.796 8.976 59.141
v -2321.796 9.391 59.46
v -2321.796 10.089 61.077
v -2321.796 10.304 61.264
v -2321.796 12.484 61.172
v -2321.796 13.299 60.336
v -2321.796 13.404 58.182
v -2221.796 13.299 56.009
v -2221.796 12.484 55.174
v -2221.796 10.304 55.081
v -2221.796 10.089 55.268
v -2221.796 9.391 56.886
v -2221.796 8.976 57.204
v -2221.796 6.524 57.434
v -2221.796 3.892 57.425
v -2221.796 2.393 57.101
v -2221.796 2.072 56.76
v -2221.796 1.145 53.731
v -2221.796 1.091 53.184
v -2221.796 0.97 51.879
v -2221.796 0.713 51.441
v -2221.796 0.108 51.441
v -2221.796 0 51.758
v -2221.796 0 58.173
v -2221.796 0 64.588
v -2221.796 0.108 64.905
v -2221.796 0.713 64.905
v -2221.796 0.97 64.467
v -2221.796 1.091 63.161
v -2221.796 1.145 62.615
v -2221.796 2.072 59.585
v -2221.796 2.393 59.244
v -2221.796 3.892 58.92
v -2221.796 6.524 58.911
v -2221.796 8.976 59.141
v -2221.796 9.391 59.46
v -2221.796 10.089 61.077
v -2221.796 10.304 61.264
v -2221.796 12.484 61.172
v -2221.796 13.299 60.336
v -2221.796 13.404 58.182
v -2221.796 13.299 -93.673
v -2221.796 12.484 -94.508
v -2221.796 10.304 -94.6
v -2221.796 10.089 -94.414
v -2221.796 9.391 -92.796
v -2221.796 8.976 -92.478
v -2221.796 6.524 -92.248
v -2221.796 3.892 -92.256
v -2221.796 2.393 -92.58
v -2221.796 2.072 -92.922
v -2221.796 1.145 -95.951
v -2221.796 1.091 -96.497
v -2221.796 0.97 -97.803
v -2221.796 0.713 -98.241
v -2221.796 0.108 -98.241
v -2221.796 0 -97.924
v -2221.796 0 -91.509
v -2221.796 0 -85.094
v -2221.796 0.108 -84.777
v -2221.796 0.713 -84.777
v -2221.796 0.97 -85.215
v -2221.796 1.091 -86.521
v -2221.796 1.145 -87.067
v -2221.796 2.072 -90.096
v -2221.796 2.393 -90.438
v -2221.796 3.892 -90.762
v -2221.796 6.524 -90.77
v -2221.796 8.976 -90.54
v -2221.796 9.391 -90.222
v -2221.796 10.089 -88.604
v -2221.796 10.304 -88.418
v -2221.796 12.484 -88.51
v -2221.796 13.299 -89.345
v -2221.796 13.404 -91.509
v -2221.796 13.299 -93.673
v -2221.796 12.484 -94.508
v -2221.796 10.304 -94.6
v -2221.796 10.089 -94.414
v -2221.796 9.391 -92.796
v -2221.796 8.976 -92.478
v -2221.796 6.524 -92.248
v -2221.796 3.892 -92.256
v -2221.796 2.393 -92.58
v -2221.796 2.072 -92.922
v -2221.796 1.145 -95.951
v -2221.796 1.091 -96.497
v -2221.796 0.97 -97.803
v -2221.796 0.713 -98.241
v -2221.796 0.108 -98.241
v -2221.796 0 -97.924
v -2221.796 0 -91.509
v -2221.796 0 -85.094
v -2221.796 0.108 -84.777
v -2221.796 0.713 -84.777
v -2221.796 0.97 -85.215
v -2221.796 1.091 -86.521
v -2221.796 1.145 -87.067
v -2221.796 2.072 -90.096
v -2221.796 2.393 -90.438
v -2221.796 3.892 -90.762
v -2221.796 6.524 -90.77
v -2221.796 8.976 -90.54
v -2221.796 9.391 -90.222
v -2221.796 10.089 -88.604
v -2221.796 10.304 -88.418
v -2221.796 12.484 -88.51
v -2221.796 13.299 -89.345
v -2221.796 13.404 -91.509
v -2321.796 13.299 -93.673
v -2321.796 12.484 -94.508
v -2321.796 10.304 -94.6
v -2321.796 10.089 -94.414
v -2321.796 9.391 -92.796
v -2321.796 8.976 -92.478
v -2321.796 6.524 -92.248
v -2321.796 3.892 -92.256
v -2321.796 2.393 -92.58
v -2321.796 2.072 -92.922
v -2321.796 1.145 -95.951
v -2321.796 1.091 -96.497
v -2321.796 0.97 -97.803
v -2321.796 0.713 -98.241
v -2321.796 0.108 -98.241
v -2321.796 0 -97.924
v -2321.796 0 -91.509
v -2321.796 0 -85.094
v -2321.796 0.108 -84.777
v -2321.796 0.713 -84.777
v -2321.796 0.97 -85.215
v -2321.796 1.091 -86.521
v -2321.796 1.145 -87.067
v -2321.796 2.072 -90.096
v -2321.796 2.393 -90.438
v -2321.796 3.892 -90.762
v -2321.796 6.524 -90.77
v -2321.796 8.976 -90.54
v -2321.796 9.391 -90.222
v -2321.796 10.089 -88.604
v -2321.796 10.304 -88.418
v -2321.796 12.484 -88.51
v -2321.796 13.299 -89.345
v -2321.796 13.404 -91.509
v -2221.796 13.299 56.009
v -2221.796 12.484 55.174
v -2221.796 10.304 55.081
v -2221.796 10.089 55.268
v -2221.796 9.391 56.886
v -2221.796 8.976 57.204
v -2221.796 6.524 57.434
v -2221.796 3.892 57.425
v -2221.796 2.393 57.101
v -2221.796 2.072 56.76
v -2221.796 1.145 53.731
v -2221.796 1.091 53.184
v -2221.796 0.97 51.879
v -2221.796 0.713 51.441
v -2221.796 0.108 51.441
v -2221.796 0 51.758
v -2221.796 0 58.173
v -2221.796 0 64.588
v -2221.796 0.108 64.905
v -2221.796 0.713 64.905
v -2221.796 0.97 64.467
v -2221.796 1.091 63.161
v -2221.796 1.145 62.615
v -2221.796 2.072 59.585
v -2221.796 2.393 59.244
v -2221.796 3.892 58.92
v -2221.796 6.524 58.911
v -2221.796 8.976 59.141
v -2221.796 9.391 59.46
v -2221.796 10.089 61.077
v -2221.796 10.304 61.264
v -2221.796 12.484 61.172
v -2221.796 13.299 60.336
v -2221.796 13.404 58.182
v -2321.796 13.299 56.009
v -2321.796 12.484 55.173
v -2321.796 10.304 55.081
v -2321.796 10.089 55.268
v -2321.796 9.391 56.886
v -2321.796 8.976 57.204
v -2321.796 6.524 57.434
v -2321.796 3.892 57.425
v -2321.796 2.393 57.101
v -2321.796 2.072 56.76
v -2321.796 1.145 53.731
v -2321.796 1.091 53.184
v -2321.796 0.97 51.879
v -2321.796 0.713 51.441
v -2321.796 0.108 51.441
v -2321.796 0 51.758
v -2321.796 0 58.173
v -2321.796 0 64.588
v -2321.796 0.108 64.905
v -2321.796 0.713 64.905
v -2321.796 0.97 64.467
v -2321.796 1.091 63.161
v -2321.796 1.145 62.615
v -2321.796 2.072 59.585
v -2321.796 2.393 59.244
v -2321.796 3.892 58.92
v -2321.796 6.524 58.911
v -2321.796 8.976 59.141
v -2321.796 9.391 59.46
v -2321.796 10.089 61.077
v -2321.796 10.304 61.264
v -2321.796 12.484 61.172
v -2321.796 13.299 60.336
v -2321.796 13.404 58.182
vt 0.77612 0
vt 0.74627 0
vt 0.76119 0
vt 0.73134 0
vt 0.71642 0
vt 0.79104 0
vt 0.70149 0
vt 0.80597 0
vt 0.68657 0
vt 0.8209 0
vt 0.67164 0
vt 0.83582 0
vt 0.65672 0
vt 0.85075 0
vt 0.64179 0
vt 0.86567 0
vt 0.62687 0
vt 0.8806 0
vt 0.61194 0
vt 0.89552 0
vt 0.59701 0
vt 0.91045 0
vt 0.58209 0
vt 0.92537 0
vt 0.56716 0
vt 0.9403 0
vt 0.55224 0
vt 0.95522 0
vt 0.53731 0
vt 0.97015 0
vt 0.52239 0
vt 0.98508 0
vt 0.50746 0
vt 1 0
vt 0.26866 0
vt 0.23881 0
vt 0.25373 0
vt 0.22388 0
vt 0.20896 0
vt 0.28358 0
vt 0.19403 0
vt 0.29851 0
vt 0.1791 0
vt 0.31343 0
vt 0.16418 0
vt 0.32836 0
vt 0.14925 0
vt 0.34328 0
vt 0.13433 0
vt 0.35821 0
vt 0.1194 0
vt 0.37313 0
vt 0.10448 0
vt 0.38806 0
vt 0.08955 0
vt 0.40298 0
vt 0.07463 0
vt 0.41791 0
vt 0.0597 0
vt 0.43284 0
vt 0.04478 0
vt 0.44776 0
vt 0.02985 0
vt 0.46269 0
vt 0.01493 0
vt 0.47761 0
vt 0 0
vt 0.49254 0
vt 0 1
vt 1 1
vt 1 0.97059
vt 0 0.97059
vt 0 0.02941
vt 1 0.02941
vt 0 0.05882
vt 1 0.05882
vt 0 0.08823
vt 1 0.08823
vt 0 0.11765
vt 1 0.11765
vt 0 0.14706
vt 1 0.14706
vt 0 0.17647
vt 1 0.17647
vt 0 0.20588
vt 1 0.20588
vt 0 0.23529
vt 1 0.23529
vt 0 0.26471
vt 1 0.26471
vt 0 0.29412
vt 1 0.29412
vt 0 0.32353
vt 1 0.32353
vt 0 0.35294
vt 1 0.35294
vt 0 0.38235
vt 1 0.38235
vt 0 0.41176
vt 1 0.41176
vt 0 0.44118
vt 1 0.44118
vt 0 0.47059
vt 1 0.47059
vt 0 0.5
vt 1 0.5
vt 0 0.52941
vt 1 0.52941
vt 0 0.55882
vt 1 0.55882
vt 0 0.58823
vt 1 0.58823
vt 0 0.61765
vt 1 0.61765
vt 0 0.64706
vt 1 0.64706
vt 0 0.67647
vt 1 0.67647
vt 0 0.70588
vt 1 0.70588
vt 0 0.73529
vt 1 0.73529
vt 0 0.76471
vt 1 0.76471
vt 0 0.79412
vt 1 0.79412
vt 0 0.82353
vt 1 0.82353
vt 0 0.85294
vt 1 0.85294
vt 0 0.88235
vt 1 0.88235
vt 0 0.91177
vt 1 0.91177
vt 0 0.94118
vt 1 0.94118
vn -1 -0.0014 0
vn -1 0.0001 0
vn -1 0.0016 0
vn -1 -0.0025 0
vn -1 0.0005 0
vn -1 -0.0005 0
vn -1 0.0002 0
vn -1 -0.0002 0
vn -1 -0.0001 0
vn -1 -0.0028 0
vn -1 0.0014 0
vn -1 -0.003 0
vn -1 0.0003 0
vn -1 0.0011 0
vn 1 -0.0028 0
vn 1 0.0028 0
vn 1 -0.0008 0
vn 1 -0.0006 0
vn 1 -0.0012 0
vn 1 0.0072 0
vn 1 -0.003 0
vn 1 -0.0007 0
vn 1 0.0001 0
vn 1 -0.0001 0
vn 1 0.0005 0
vn 1 0.0043 0
vn 1 0.0009 0
vn 1 0.0006 0
vn 1 0.0003 0
vn 1 -0.0005 0
vn 1 0.0004 0
vn 0 0.9168 -0.3993
vn 0 0.4078 -0.9131
vn 0 -0.3302 -0.9439
vn 0 -0.8072 -0.5902
vn 0 -0.7887 -0.6147
vn 0 -0.3651 -0.9309
vn 0 -0.0451 -0.999
vn 0 0.1079 -0.9941
vn 0 0.4919 -0.8706
vn 0 0.8648 -0.502
vn 0 0.9804 -0.1968
vn 0 0.9954 -0.0957
vn 0 0.9518 -0.3065
vn 0 0.4969 -0.8678
vn 0 -0.5826 -0.8127
vn 0 -0.9867 -0.1627
vn 0 -0.9867 0.1627
vn 0 -0.5826 0.8127
vn 0 0.4969 0.8678
vn 0 0.9518 0.3065
vn 0 0.9954 0.0957
vn 0 0.9804 0.1968
vn 0 0.8648 0.502
vn 0 0.4919 0.8706
vn 0 0.1079 0.9941
vn 0 -0.0451 0.999
vn 0 -0.3652 0.9309
vn 0 -0.7887 0.6147
vn 0 -0.8072 0.5902
vn 0 -0.3302 0.9439
vn 0 0.4078 0.9131
vn 0 0.9168 0.3993
vn 0 0.9168 -0.3992
vn 0 1 0.0002
vn 0 0.9168 0.3994
usemtl metal
s off
f 61/21/4 59/22/4 60/23/4
f 61/21/4 58/24/4 59/22/4
f 61/21/7 57/25/7 58/24/7
f 62/26/4 57/25/4 61/21/4
f 62/26/4 56/27/4 57/25/4
f 63/28/4 56/27/4 62/26/4
f 63/28/8 55/29/8 56/27/8
f 64/30/4 55/29/4 63/28/4
f 64/30/9 54/31/9 55/29/9
f 65/32/4 54/31/4 64/30/4
f 65/32/10 53/33/10 54/31/10
f 66/34/11 53/33/11 65/32/11
f 66/34/4 52/35/4 53/33/4
f 67/36/4 52/35/4 66/34/4
f 67/36/12 51/37/12 52/35/12
f 68/38/4 51/37/4 67/36/4
f 68/38/13 50/39/13 51/37/13
f 69/40/4 50/39/4 68/38/4
f 69/40/4 49/41/4 50/39/4
f 70/42/4 49/41/4 69/40/4
f 70/42/8 48/43/8 49/41/8
f 71/44/4 48/43/4 70/42/4
f 71/44/13 47/45/13 48/43/13
f 72/46/4 47/45/4 71/44/4
f 72/46/14 46/47/14 47/45/14
f 73/48/4 46/47/4 72/46/4
f 73/48/14 45/49/14 46/47/14
f 74/50/4 45/49/4 73/48/4
f 74/50/4 44/51/4 45/49/4
f 75/52/4 44/51/4 74/50/4
f 75/52/15 43/53/15 44/51/15
f 76/54/4 43/53/4 75/52/4
f 27/55/4 25/56/4 26/57/4
f 27/55/16 24/58/16 25/56/16
f 27/55/17 23/59/17 24/58/17
f 28/60/4 23/59/4 27/55/4
f 28/60/4 22/61/4 23/59/4
f 29/62/4 22/61/4 28/60/4
f 29/62/13 21/63/13 22/61/13
f 30/64/4 21/63/4 29/62/4
f 30/64/9 20/65/9 21/63/9
f 31/66/4 20/65/4 30/64/4
f 31/66/18 19/67/18 20/65/18
f 32/68/11 19/67/11 31/66/11
f 32/68/4 18/69/4 19/67/4
f 33/70/4 18/69/4 32/68/4
f 33/70/12 17/71/12 18/69/12
f 34/72/19 17/71/19 33/70/19
f 34/72/14 16/73/14 17/71/14
f 35/74/4 16/73/4 34/72/4
f 35/74/4 15/75/4 16/73/4
f 36/76/8 15/75/8 35/74/8
f 36/76/15 14/77/15 15/75/15
f 37/78/4 14/77/4 36/76/4
f 37/78/13 13/79/13 14/77/13
f 38/80/4 13/79/4 37/78/4
f 38/80/14 12/81/14 13/79/14
f 39/82/4 12/81/4 38/80/4
f 39/82/20 11/83/20 12/81/20
f 40/84/15 11/83/15 39/82/15
f 40/84/8 10/85/8 11/83/8
f 41/86/4 10/85/4 40/84/4
f 41/86/15 9/87/15 10/85/15
f 42/88/4 9/87/4 41/86/4
f 125/25/21 127/22/21 126/24/21
f 125/25/22 128/23/22 127/22/22
f 125/25/23 129/21/23 128/23/23
f 124/27/5 129/21/5 125/25/5
f 124/27/5 130/26/5 129/21/5
f 123/29/5 130/26/5 124/27/5
f 123/29/24 131/28/24 130/26/24
f 122/31/5 131/28/5 123/29/5
f 122/31/25 132/30/25 131/28/25
f 121/33/26 132/30/26 122/31/26
f 121/33/27 133/32/27 132/30/27
f 120/35/5 133/32/5 121/33/5
f 120/35/5 134/34/5 133/32/5
f 119/37/5 134/34/5 120/35/5
f 119/37/28 135/36/28 134/34/28
f 118/39/5 135/36/5 119/37/5
f 118/39/29 136/38/29 135/36/29
f 117/41/5 136/38/5 118/39/5
f 117/41/30 137/40/30 136/38/30
f 116/43/29 137/40/29 117/41/29
f 116/43/29 138/42/29 137/40/29
f 115/45/5 138/42/5 116/43/5
f 115/45/23 139/44/23 138/42/23
f 114/47/31 139/44/31 115/45/31
f 114/47/5 140/46/5 139/44/5
f 113/49/5 140/46/5 114/47/5
f 113/49/30 141/48/30 140/46/30
f 112/51/5 141/48/5 113/49/5
f 112/51/5 142/50/5 141/48/5
f 111/53/5 142/50/5 112/51/5
f 111/53/5 143/52/5 142/50/5
f 144/54/32 143/52/32 111/53/32
f 91/59/5 93/56/5 92/58/5
f 91/59/21 94/57/21 93/56/21
f 91/59/33 95/55/33 94/57/33
f 90/61/5 95/55/5 91/59/5
f 90/61/5 96/60/5 95/55/5
f 89/63/5 96/60/5 90/61/5
f 89/63/34 97/62/34 96/60/34
f 88/65/5 97/62/5 89/63/5
f 88/65/5 98/64/5 97/62/5
f 87/67/5 98/64/5 88/65/5
f 87/67/27 99/66/27 98/64/27
f 86/69/5 99/66/5 87/67/5
f 86/69/5 100/68/5 99/66/5
f 85/71/5 100/68/5 86/69/5
f 85/71/28 101/70/28 100/68/28
f 84/73/35 101/70/35 85/71/35
f 84/73/5 102/72/5 101/70/5
f 83/75/5 102/72/5 84/73/5
f 83/75/30 103/74/30 102/72/30
f 82/77/29 103/74/29 83/75/29
f 82/77/30 104/76/30 103/74/30
f 81/79/5 104/76/5 82/77/5
f 81/79/35 105/78/35 104/76/35
f 80/81/36 105/78/36 81/79/36
f 80/81/37 106/80/37 105/78/37
f 79/83/5 106/80/5 80/81/5
f 79/83/24 107/82/24 106/80/24
f 78/85/5 107/82/5 79/83/5
f 78/85/5 108/84/5 107/82/5
f 77/87/5 108/84/5 78/85/5
f 77/87/35 109/86/35 108/84/35
f 110/88/5 109/86/5 77/87/5
s 1
f 145/89/38 179/90/38 212/91/3 178/92/3
f 146/93/39 180/94/39 179/54/38 145/87/38
f 147/95/40 181/96/40 180/94/39 146/93/39
f 148/97/41 182/98/41 181/96/40 147/95/40
f 149/99/42 183/100/42 182/98/41 148/97/41
f 150/101/43 184/102/43 183/100/42 149/99/42
f 151/103/44 185/104/44 184/102/43 150/101/43
f 152/105/45 186/106/45 185/104/44 151/103/44
f 153/107/46 187/108/46 186/106/45 152/105/45
f 154/109/47 188/110/47 187/108/46 153/107/46
f 155/111/48 189/112/48 188/110/47 154/109/47
f 156/113/49 190/114/49 189/112/48 155/111/48
f 157/115/50 191/116/50 190/114/49 156/113/49
f 158/117/51 192/118/51 191/116/50 157/115/50
f 159/119/52 193/120/52 192/118/51 158/117/51
f 160/121/53 194/122/53 193/120/52 159/119/52
f 161/123/6 195/124/6 194/122/53 160/121/53
f 162/125/54 196/126/54 195/124/6 161/123/6
f 163/127/55 197/128/55 196/126/54 162/125/54
f 164/129/56 198/130/56 197/128/55 163/127/55
f 165/131/57 199/132/57 198/130/56 164/129/56
f 166/133/58 200/134/58 199/132/57 165/131/57
f 167/135/59 201/136/59 200/134/58 166/133/58
f 168/137/60 202/138/60 201/136/59 167/135/59
f 169/139/61 203/140/61 202/138/60 168/137/60
f 170/141/62 204/142/62 203/140/61 169/139/61
f 171/143/63 205/144/63 204/142/62 170/141/62
f 172/145/64 206/146/64 205/144/63 171/143/63
f 173/147/65 207/148/65 206/146/64 172/145/64
f 174/149/66 208/150/66 207/148/65 173/147/65
f 175/151/67 209/152/67 208/150/66 174/149/66
f 176/153/68 210/154/68 209/152/67 175/151/67
f 177/155/69 211/156/69 210/154/68 176/153/68
f 178/92/3 212/91/3 211/156/69 177/155/69
f 213/89/70 247/90/70 280/91/71 246/92/71
f 214/93/39 248/94/39 247/54/70 213/87/70
f 215/95/40 249/96/40 248/94/39 214/93/39
f 216/97/41 250/98/41 249/96/40 215/95/40
f 217/99/42 251/100/42 250/98/41 216/97/41
f 218/101/43 252/102/43 251/100/42 217/99/42
f 219/103/44 253/104/44 252/102/43 218/101/43
f 220/105/45 254/106/45 253/104/44 219/103/44
f 221/107/46 255/108/46 254/106/45 220/105/45
f 222/109/47 256/110/47 255/108/46 221/107/46
f 223/111/48 257/112/48 256/110/47 222/109/47
f 224/113/49 258/114/49 257/112/48 223/111/48
f 225/115/50 259/116/50 258/114/49 224/113/49
f 226/117/51 260/118/51 259/116/50 225/115/50
f 227/119/52 261/120/52 260/118/51 226/117/51
f 228/121/53 262/122/53 261/120/52 227/119/52
f 229/123/6 263/124/6 262/122/53 228/121/53
f 230/125/54 264/126/54 263/124/6 229/123/6
f 231/127/55 265/128/55 264/126/54 230/125/54
f 232/129/56 266/130/56 265/128/55 231/127/55
f 233/131/57 267/132/57 266/130/56 232/129/56
f 234/133/58 268/134/58 267/132/57 233/131/57
f 235/135/59 269/136/59 268/134/58 234/133/58
f 236/137/60 270/138/60 269/136/59 235/135/59
f 237/139/61 271/140/61 270/138/60 236/137/60
f 238/141/62 272/142/62 271/140/61 237/139/61
f 239/143/63 273/144/63 272/142/62 238/141/62
f 240/145/64 274/146/64 273/144/63 239/143/63
f 241/147/65 275/148/65 274/146/64 240/145/64
f 242/149/66 276/150/66 275/148/65 241/147/65
f 243/151/67 277/152/67 276/150/66 242/149/66
f 244/153/68 278/154/68 277/152/67 243/151/67
f 245/155/72 279/156/72 278/154/68 244/153/68
f 246/92/71 280/91/71 279/156/72 245/155/72
o traverseDroit1m_Cube.001
v -2284.815 -14.209 -157.506
v -2282.876 -0.014 -157.506
v -2258.778 -14.209 -157.506
v -2260.716 -0.014 -157.506
v -2284.815 -14.209 124.173
v -2282.876 -0.014 124.173
v -2258.778 -14.209 124.173
v -2260.716 -0.014 124.173
vt 1.33739 0.73415
vt 1.32363 0.83494
vt 1.16628 0.83494
vt 1.15252 0.73415
vt -0.66261 0.63243
vt -0.66261 0.53071
vt 1.33739 0.53071
vt 1.33739 0.63243
vt 1.13876 0.83494
vt 0.98142 0.83494
vt 0.96765 0.73415
vt -0.66261 0.73415
vt 1.33739 0.37337
vt -0.66261 0.37337
vt -0.66261 0.1885
vt 1.33739 0.1885
vn 0 0 -1
vn 0.9908 0.1353 0
vn 0 0 1
vn -0.9908 0.1353 0
usemtl concrete
s off
f 281/157/73 282/158/73 284/159/73 283/160/73
f 283/161/74 284/162/74 288/163/74 287/164/74
f 287/160/75 288/165/75 286/166/75 285/167/75
f 285/168/76 286/161/76 282/164/76 281/157/76
f 283/169/6 287/170/6 285/171/6 281/172/6
f 288/163/3 284/162/3 282/170/3 286/169/3
