# Blender v2.79 (sub 0) OBJ File: 'chimney.blend'
# www.blender.org
mtllib chimney.mtl
o BaseChimney_Cube.002
v -22.000000 -5.160128 22.000000
v -22.000000 82.839874 22.000000
v -22.000000 -5.160128 -22.000000
v -22.000000 82.839874 -22.000000
v 22.000000 -5.160128 22.000000
v 22.000000 82.839874 22.000000
v 22.000000 -5.160128 -22.000000
v 22.000000 82.839874 -22.000000
v -14.879588 82.839874 14.879589
v -14.879588 82.839874 -14.879588
v 14.879589 82.839874 14.879589
v 14.879589 82.839874 -14.879588
v -14.879588 -5.160128 14.879589
v -14.879588 -5.160128 -14.879588
v 14.879589 -5.160128 14.879589
v 14.879589 -5.160128 -14.879588
vt 2.996990 -1.002713
vt 2.996990 0.991574
vt 1.999846 0.991574
vt 1.999846 -1.002713
vt 1.002702 0.991574
vt 1.002702 -1.002713
vt 0.005559 0.991574
vt 0.005559 -1.002713
vt 3.994133 -1.002713
vt 3.994133 0.991574
vt 3.701583 1.989946
vt 3.540217 1.828580
vt 3.540216 1.154167
vt 3.701582 0.992802
vt 1.354385 2.987088
vt 0.679972 2.987088
vt 0.679972 0.992802
vt 1.354385 0.992802
vt 2.865804 1.154167
vt 2.704439 0.992802
vt 0.005559 2.987088
vt 0.005559 0.992802
vt 2.028798 2.987088
vt 2.028798 0.992802
vt 2.703211 2.987088
vt 2.703211 0.992802
vt 2.865804 1.828580
vt 2.704439 1.989945
vn -1.0000 0.0000 0.0000
vn 0.0000 0.0000 -1.0000
vn 1.0000 0.0000 0.0000
vn 0.0000 0.0000 1.0000
vn 0.0000 -1.0000 0.0000
usemtl SidesChimney
s off
f 1/1/1 2/2/1 4/3/1 3/4/1
f 3/4/2 4/3/2 8/5/2 7/6/2
f 7/6/3 8/5/3 6/7/3 5/8/3
f 5/9/4 6/10/4 2/2/4 1/1/4
f 5/11/5 15/12/5 16/13/5 7/14/5
f 10/15/3 9/16/3 13/17/3 14/18/3
f 7/14/5 16/13/5 14/19/5 3/20/5
f 9/16/2 11/21/2 15/22/2 13/17/2
f 12/23/4 10/15/4 14/18/4 16/24/4
f 11/25/1 12/23/1 16/24/1 15/26/1
f 3/20/5 14/19/5 13/27/5 1/28/5
f 1/28/5 13/27/5 15/12/5 5/11/5
o topChimney_Cube.001
v -22.000000 82.839874 22.000000
v -22.000000 82.839874 -22.000000
v 22.000000 82.839874 22.000000
v 22.000000 82.839874 -22.000000
v -24.429783 82.839874 24.429783
v -24.429783 82.839874 -24.429783
v 24.429783 82.839874 24.429783
v 24.429783 82.839874 -24.429783
v -24.429783 89.442215 24.429783
v -24.429783 89.442215 -24.429783
v 24.429783 89.442215 24.429783
v 24.429783 89.442215 -24.429783
v -14.879589 89.442215 14.879589
v -14.879589 89.442215 -14.879589
v 14.879589 89.442215 14.879589
v 14.879589 89.442215 -14.879589
v -14.879588 82.839874 14.879589
v -14.879588 82.839874 -14.879588
v 14.879589 82.839874 14.879589
v 14.879589 82.839874 -14.879588
v -21.832163 89.442215 -15.844899
v -21.832163 107.562958 -15.844899
v -21.832163 89.442215 -21.830212
v -21.832163 107.562958 -21.830212
v -15.846853 89.442215 -15.844899
v -15.846853 107.562958 -15.844899
v -15.846853 89.442215 -21.830212
v -15.846853 107.562958 -21.830212
v -33.660004 107.564285 33.660004
v -33.660004 112.993034 33.660004
v -33.660004 107.564285 -33.660004
v -33.660004 112.993034 -33.660004
v 33.660004 107.564285 33.660004
v 33.660004 112.993034 33.660004
v 33.660004 107.564285 -33.660004
v 33.660004 112.993034 -33.660004
v 21.832163 89.442215 -15.844899
v 21.832163 107.562958 -15.844899
v 21.832163 89.442215 -21.830212
v 21.832163 107.562958 -21.830212
v 15.846853 89.442215 -15.844899
v 15.846853 107.562958 -15.844899
v 15.846853 89.442215 -21.830212
v 15.846853 107.562958 -21.830212
v -21.832163 89.442215 15.844899
v -21.832163 107.562958 15.844899
v -21.832163 89.442215 21.830212
v -21.832163 107.562958 21.830212
v -15.846853 89.442215 15.844899
v -15.846853 107.562958 15.844899
v -15.846853 89.442215 21.830212
v -15.846853 107.562958 21.830212
v 21.832163 89.442215 15.844899
v 21.832163 107.562958 15.844899
v 21.832163 89.442215 21.830212
v 21.832163 107.562958 21.830212
v 15.846853 89.442215 15.844899
v 15.846853 107.562958 15.844899
v 15.846853 89.442215 21.830212
v 15.846853 107.562958 21.830212
vt -0.306926 1.441180
vt 0.797533 1.441179
vt 0.858524 1.502170
vt -0.367915 1.502170
vt 1.324075 -0.934545
vt 2.550511 -0.934545
vt 2.550511 -0.768819
vt 1.324075 -0.768819
vt 2.489526 1.187616
vt 1.385066 1.187617
vt 1.324075 1.126626
vt 2.550515 1.126626
vt 0.921689 1.441180
vt 2.026148 1.441179
vt 2.087138 1.502170
vt 0.860699 1.502170
vt 2.489526 1.250781
vt 1.385066 1.250782
vt 1.324075 1.189791
vt 2.550515 1.189791
vt 1.324075 -0.195468
vt 2.550511 -0.195468
vt 2.310789 0.044254
vt 1.563797 0.044253
vt 2.550511 -1.510070
vt 1.324075 -1.510070
vt 1.324075 -1.675797
vt 2.550511 -1.675797
vt 1.324075 -0.361195
vt 2.550511 -0.361195
vt 2.550511 -0.936720
vt 1.324075 -0.936720
vt 1.324075 -1.102447
vt 2.550511 -1.102447
vt 1.563797 -0.529097
vt 2.310789 -0.529096
vt 2.310789 -0.363370
vt 1.563797 -0.363371
vt 1.563797 -1.342169
vt 2.310790 -1.342168
vt 1.563797 -1.915519
vt 2.310790 -1.915518
vt 1.563797 -2.081245
vt 2.310790 -2.081244
vt 2.310789 0.209980
vt 1.563797 0.209980
vt 1.563797 -1.507895
vt 2.310790 -1.507895
vt 2.378235 0.212311
vt 2.378078 0.667164
vt 2.227839 0.667112
vt 2.227996 0.212258
vt 2.077600 0.667060
vt 2.077757 0.212207
vt 1.927362 0.667008
vt 1.927519 0.212155
vt 2.528473 0.212362
vt 2.528316 0.667216
vt 4.701529 1.302736
vt 4.701529 1.439005
vt 3.011708 1.439005
vt 3.011708 1.302736
vt 1.321894 1.439005
vt 1.321894 1.302737
vt -0.367915 1.439003
vt -0.367915 1.302736
vt 6.391352 1.302735
vt 6.391352 1.439004
vt 1.321900 1.300560
vt -0.367915 1.300560
vt -0.367915 -0.389255
vt 1.321900 -0.389255
vt 1.321901 -0.391430
vt -0.367915 -0.391430
vt -0.367915 -2.081245
vt 1.321901 -2.081245
vt 1.474471 0.669442
vt 1.624710 0.669494
vt 1.624552 1.124347
vt 1.474314 1.124295
vt 1.774948 0.669546
vt 1.774791 1.124399
vt 1.925187 0.669598
vt 1.925030 1.124451
vt 1.324232 0.669391
vt 1.324075 1.124244
vt 2.077757 0.669443
vt 2.227996 0.669495
vt 2.227839 1.124348
vt 2.077600 1.124296
vt 2.378235 0.669547
vt 2.378078 1.124399
vt 2.528473 0.669598
vt 2.528316 1.124451
vt 1.927519 0.669391
vt 1.927362 1.124244
vt 1.774948 0.212311
vt 1.774791 0.667164
vt 1.624552 0.667112
vt 1.624710 0.212259
vt 1.474314 0.667060
vt 1.474471 0.212207
vt 1.324075 0.667008
vt 1.324232 0.212155
vt 1.925187 0.212363
vt 1.925030 0.667216
vn 0.0000 -1.0000 0.0000
vn 1.0000 0.0000 0.0000
vn 0.0000 1.0000 -0.0000
vn -1.0000 0.0000 0.0000
vn 0.0000 0.0000 1.0000
vn 0.0000 0.0000 -1.0000
usemtl OcreChimney
s off
f 19/29/6 20/30/6 24/31/6 23/32/6
f 23/33/7 24/34/7 28/35/7 27/36/7
f 18/37/6 17/38/6 21/39/6 22/40/6
f 17/41/6 19/42/6 23/43/6 21/44/6
f 20/45/6 18/46/6 22/47/6 24/48/6
f 25/49/8 27/50/8 31/51/8 29/52/8
f 22/53/9 21/54/9 25/55/9 26/56/9
f 21/57/10 23/58/10 27/50/10 25/49/10
f 24/59/11 22/60/11 26/61/11 28/62/11
f 31/63/9 32/64/9 36/65/9 35/66/9
f 28/62/8 26/61/8 30/67/8 32/68/8
f 27/36/8 28/35/8 32/64/8 31/63/8
f 26/56/8 25/55/8 29/69/8 30/70/8
f 30/70/7 29/69/7 33/71/7 34/72/7
f 29/52/11 31/51/11 35/73/11 33/74/11
f 32/68/10 30/67/10 34/75/10 36/76/10
f 37/77/9 38/78/9 40/79/9 39/80/9
f 39/80/11 40/79/11 44/81/11 43/82/11
f 43/82/7 44/81/7 42/83/7 41/84/7
f 41/85/10 42/86/10 38/78/10 37/77/10
f 45/87/9 46/88/9 48/89/9 47/90/9
f 47/90/11 48/89/11 52/91/11 51/92/11
f 51/92/7 52/91/7 50/93/7 49/94/7
f 49/95/10 50/96/10 46/88/10 45/87/10
f 47/97/6 51/98/6 49/99/6 45/100/6
f 52/101/8 48/102/8 46/103/8 50/104/8
f 53/105/7 55/106/7 56/107/7 54/108/7
f 55/106/11 59/109/11 60/110/11 56/107/11
f 59/109/9 57/111/9 58/112/9 60/110/9
f 57/113/10 53/105/10 54/108/10 58/114/10
f 61/115/9 63/116/9 64/117/9 62/118/9
f 63/116/10 67/119/10 68/120/10 64/117/10
f 67/119/7 65/121/7 66/122/7 68/120/7
f 65/123/11 61/115/11 62/118/11 66/124/11
f 69/125/7 70/126/7 72/127/7 71/128/7
f 71/128/10 72/127/10 76/129/10 75/130/10
f 75/130/9 76/129/9 74/131/9 73/132/9
f 73/133/11 74/134/11 70/126/11 69/125/11
