# Blender v2.90.1 OBJ File: ''
# www.blender.org
mtllib stair-lift-rail.mtl
o Rail.001
v 1.566 -8.123 1.462
v 1.566 -8.123 4.922
v 1.565 -9.612 5
v 1.565 -8.815 0.048
v 539.896 -8.314 4.922
v 539.898 -4.835 4.922
v 1.567 -4.643 4.922
v 1.569 -1.164 1.462
v 539.899 -1.355 1.462
v 539.898 -4.835 1.462
v 1.567 -4.643 1.462
v 1.57 2.316 1.462
v 539.901 2.125 1.462
v 539.896 -8.314 1.462
v 1.57 2.316 9.174
v 539.901 2.125 9.174
v 539.902 5.604 9.174
v 1.572 5.796 9.174
v 1.572 6.689 11.439
v 1.57 2.614 11.439
v 1.567 -4.643 9.174
v 539.898 -4.835 9.174
v 539.899 -1.355 9.174
v 1.569 -1.164 9.174
v 1.569 -1.164 4.922
v 539.899 -1.355 4.922
v 539.901 2.125 4.922
v 1.57 2.316 4.922
v 1.572 5.796 4.922
v 539.902 5.604 4.922
v 539.904 9.084 4.922
v 1.573 9.275 4.922
v 1.572 5.796 1.462
v 539.902 5.604 1.462
v 1.569 -1.462 5
v 1.569 -1.462 11.439
v 1.567 -5.537 0.048
v 1.569 -1.462 0.048
v 1.567 -5.537 11.439
v 1.57 2.614 0.048
v 1.567 -5.537 5
v 1.565 -8.815 11.439
v -0.008 -8.814 0.048
v -0.007 -5.536 0.048
v -0.005 -1.461 0.048
v -0.009 -9.612 5
v -0.008 -8.814 11.439
v -0.007 -5.536 11.439
v -0.007 -5.536 5
v -0.003 2.614 0.048
v 1.574 10.765 5
v 1.573 9.967 11.439
v 1.572 6.689 5
v 1.572 6.689 0.048
v -0.002 6.69 0.048
v 1.57 2.614 5
v 1.573 9.275 1.462
v 1.573 9.967 0.048
v -0.002 6.69 5
v 0 10.765 5
v 0 9.968 0.048
v -0.003 2.614 5
v -0.003 2.614 11.439
v -0.002 6.69 11.439
v -0.005 -1.461 5
v -0.005 -1.461 11.439
v 0 9.968 11.439
v 539.904 9.084 1.462
vt 0.375 1
vt 0.625 1
vt 0.875 0.75
vt 0.625 0.75
vt 0.625 0.7
vt 0.875 0.7
vt 0.125 0.65
vt 0.375 0.65
vt 0.375 0.7
vt 0.125 0.7
vt 0.125 0.6
vt 0.375 0.6
vt 0.375 0.75
vt 0.125 0.75
vt 0.875 0.6
vt 0.625 0.6
vt 0.625 0.55
vt 0.875 0.55
vt 0.625 0.65
vt 0.875 0.65
vt 0.625 0.5
vt 0.875 0.5
vt 0.125 0.55
vt 0.375 0.55
vt 0.625 0.05
vt 0 0
vt 0.625 0.25
vt 0.375 0.25
vt 0.125 0.5
vt 0.375 0.2
vt 0.625 0.2
vt 0.625 0.15
vt 0.375 0
vt 0.625 0
vt 0.375 0.05
vt 0.625 0.1
vt 0.375 0.1
vt 0.375 0.15
vt 0.375 0.5
vn 1 -0.0004 0
vn 1 -0.0004 0.0002
vn 0 0 1
vn 0 0 -1
vn -0.0004 -1 0
vn -1 0.0004 0
vn 1 -0.0005 0
vn 0.0004 1 0
vn 1 -0.0004 -0.0001
vn 1 -0.0004 0.0001
vn -0.0004 -0.9873 -0.1591
vn 0.0004 0.9873 -0.1591
vn 0.0004 0.9924 0.1229
vn -0.0004 -0.9924 0.1229
usemtl MetallicRail
s 1
f 1/1/1 2/2/2 3/2/1 4/1/1
f 2/3/3 5/4/3 6/5/3 7/6/3
f 8/7/4 9/8/4 10/9/4 11/10/4
f 12/11/4 13/12/4 9/8/4 8/7/4
f 11/10/4 10/9/4 14/13/4 1/14/4
f 15/15/3 16/16/3 17/17/3 18/18/3
f 15/15/1 18/18/1 19/18/1 20/15/1
f 21/6/3 22/5/3 23/19/3 24/20/3
f 7/6/5 6/5/5 22/5/5 21/6/5
f 1/1/5 14/13/5 5/4/5 2/2/5
f 25/20/3 26/19/3 27/16/3 28/15/3
f 29/18/3 30/17/3 31/21/3 32/22/3
f 33/23/4 34/24/4 13/12/4 12/11/4
f 24/20/6 25/20/6 35/20/6 36/20/6
f 8/7/1 11/10/1 37/10/1 38/7/1
f 11/10/1 1/14/1 4/14/1 37/10/1
f 21/6/7 24/20/1 36/20/1 39/6/1
f 24/20/8 23/19/8 26/19/8 25/20/8
f 18/18/8 17/17/8 30/17/8 29/18/8
f 28/15/5 27/16/5 16/16/5 15/15/5
f 12/11/1 8/7/1 38/7/1 40/11/1
f 3/3/1 41/6/2 39/6/1 42/3/1
f 37/10/4 4/14/4 43/14/4 44/10/4
f 38/7/4 37/10/4 44/10/4 45/7/4
f 46/3/6 47/3/6 48/25/6 49/25/6
f 40/11/4 38/7/4 45/7/4 50/11/4
f 51/22/1 52/22/1 19/26/1 53/18/9
f 54/23/4 40/11/4 50/11/4 55/23/4
f 2/3/2 7/6/7 41/6/2 3/3/1
f 29/18/7 32/22/9 51/22/1 53/18/9
f 28/15/6 15/15/6 20/15/6 56/15/6
f 32/27/9 57/28/1 58/28/1 51/27/1
f 18/18/1 29/18/7 53/18/9 19/18/1
f 25/20/10 28/15/10 56/15/1 35/20/1
f 57/29/1 33/23/1 54/23/1 58/29/1
f 7/6/7 21/6/7 39/6/1 41/6/2
f 33/23/1 12/11/1 40/11/1 54/23/1
f 55/30/6 59/31/6 60/27/6 61/28/6
f 59/31/6 62/32/6 63/32/6 64/31/6
f 43/33/6 46/34/6 49/25/6 44/35/6
f 44/35/6 49/25/6 65/36/6 45/37/6
f 45/37/6 65/36/6 62/32/6 50/38/6
f 50/38/6 62/32/6 59/31/6 55/30/6
f 65/36/6 49/25/6 48/25/6 66/36/6
f 4/1/11 3/2/11 46/2/11 43/1/11
f 39/6/3 36/20/3 66/20/3 48/6/3
f 35/26/1 56/26/1 20/26/1 36/26/1
f 20/15/3 19/18/3 64/18/3 63/15/3
f 51/27/12 58/28/12 61/28/12 60/27/12
f 39/6/3 48/25/3 47/3/3 42/3/3
f 58/29/4 54/23/4 55/23/4 61/29/4
f 51/22/13 60/22/13 67/22/13 52/22/13
f 46/3/14 3/3/14 42/3/14 47/3/14
f 59/26/6 64/26/6 67/26/6 60/26/6
f 67/26/3 64/26/3 19/26/3 52/26/3
f 20/26/3 63/26/3 66/26/3 36/26/3
f 66/26/6 63/26/6 62/26/6 65/26/6
f 57/29/4 68/39/4 34/24/4 33/23/4
f 10/9/1 6/5/1 5/4/7 14/13/7
f 68/39/1 31/21/1 30/17/1 34/24/1
f 34/24/1 30/17/1 27/16/1 13/12/1
f 13/12/1 27/16/1 26/19/1 9/8/1
f 9/8/1 26/19/1 6/5/1 10/9/1
f 6/5/1 26/19/1 23/19/1 22/5/1
f 27/16/1 30/17/1 17/17/1 16/16/1
f 32/27/8 31/21/8 68/39/8 57/28/8
