# Blender 3.3.1
# www.blender.org
mtllib fil-electrique-1m.mtl
o fil
v 0 0.3 0
v 9.999 0.3 0
v 0 0.15 -0.15
v 0 0 0
v 9.999 0 0
v 0 0.15 0.15
v 9.999 0.15 0.15
v 10.104 0.15 -0.106
v 9.999 0.15 -0.15
v 10.104 0.044 0
v 10.148 0.15 0
v 10.104 0.15 0.106
v 10.104 0.256 0
vn -0.5774 0.8165 0
vn 0.1801 0.9836 0
vn 0.1801 0 -0.9836
vn -0.5774 0 -0.8165
vn 0.1801 -0.9836 0
vn -0.5774 -0.8165 0
vn 0.1801 0 0.9836
vn -0.5774 0 0.8165
vn 0.6285 0.7778 0
vn 1 0 0
vn 0.6285 0 -0.7778
vn 0.6285 -0.7778 0
vn 0.6285 0 0.7778
vt 1 0.99827
vt 1 0.25063
vt -0.19226 0.55469
vt 0.09921 0.99827
vt 0.09921 0.25063
vt 1 0.74906
vt -0.06356 0.55469
vt 1 0.00142
vt -0.06356 0.68338
vt 0.09921 0.00142
vt 0.09921 0.74906
vt 1 0.49984
vt -0.19226 0.68338
vt 0.09921 0.49984
vt 0.03284 0.78555
vt 0.03284 0.21414
vt 0.03284 0.03792
vt 0.03284 0.71256
vt 0 0.87366
vt 0 0.12603
vt 0 0.62445
vt 0 0.37524
vt 0.03284 0.53634
vt 0.03284 0.46335
vt 0.03284 0.96177
vt 0.03284 0.28713
s 1
usemtl ColoredWire
f 1/1/1 2/4/2 9/11/3 3/6/4
f 3/2/4 9/5/3 5/10/5 4/8/6
f 4/6/6 5/11/5 7/14/7 6/12/8
f 6/12/8 7/14/7 2/5/2 1/2/1
f 1/3/1 3/7/4 4/9/6 6/13/8
f 13/25/9 11/19/10 8/15/11
f 2/4/2 13/25/9 8/15/11 9/11/3
f 8/16/11 11/20/10 10/17/12
f 9/5/3 8/16/11 10/17/12 5/10/5
f 10/18/12 11/21/10 12/23/13
f 5/11/5 10/18/12 12/23/13 7/14/7
f 12/24/13 11/22/10 13/26/9
f 7/14/7 12/24/13 13/26/9 2/5/2
o sweethome3d_hinge_1
v 9.999 0.165 0
v 9.999 0.135 0
l 14 15
o sweethome3d_opening_on_hinge_1
v 19.997 0.3 0
v 9.999 0.15 -0.15
v 19.997 0 0
v 9.999 0.15 0.15
v 19.997 0.15 0.15
v 19.997 0.15 -0.15
v 9.999 0.3 0
v 9.999 0 0
vn 0 1 0
vn 0 0 -1
vn 0 -1 0
vn 0 0 1
s 1
usemtl ColoredWire
f 22/1/14 16/4/14 21/11/15 17/6/15
f 17/2/15 21/5/15 18/10/16 23/8/16
f 23/6/16 18/11/16 20/14/17 19/12/17
f 19/12/17 20/14/17 16/5/14 22/2/14
o sweethome3d_hinge_2_and_sweethome3d_opening_on_hinge_1
v 19.997 0.165 0
v 19.997 0.135 0
l 24 25
o sweethome3d_opening_on_hinge_1_start
v 9.999 0.15 -0.15
v 9.999 0.15 0.15
v 9.999 0.3 0
v 9.999 0 0
v 9.893 0.15 -0.106
v 9.893 0.044 0
v 9.849 0.15 0
v 9.893 0.15 0.106
v 9.893 0.256 0
vn -0.6285 0.7778 0
vn -0.6285 0 -0.7778
vn -1 0 0
vn -0.3827 0.9239 0
vn -0.3827 0 -0.9239
vn -0.6285 -0.7778 0
vn -0.3827 -0.9239 0
vn -0.6285 0 0.7778
vn -0.3827 0 0.9239
s 1
usemtl ColoredWire
f 34/25/18 30/15/19 32/19/20
f 28/4/21 26/11/22 30/15/19 34/25/18
f 30/16/19 31/17/23 32/20/20
f 26/5/22 29/10/24 31/17/23 30/16/19
f 31/18/23 33/23/25 32/21/20
f 29/11/24 27/14/26 33/23/25 31/18/23
f 33/24/25 34/26/18 32/22/20
f 27/14/26 28/5/21 34/26/18 33/24/25
o sweethome3d_opening_on_hinge_1_end
v 19.997 0.3 0
v 19.997 0 0
v 19.997 0.15 0.15
v 20.103 0.15 -0.106
v 19.997 0.15 -0.15
v 20.103 0.044 0
v 20.147 0.15 0
v 20.103 0.15 0.106
v 20.103 0.256 0
vn 0.3827 0.9239 0
vn 0.3827 0 -0.9239
vn 0.3827 -0.9239 0
vn 0.3827 0 0.9239
s 1
usemtl ColoredWire
f 43/25/9 41/19/10 38/15/11
f 35/4/27 43/25/9 38/15/11 39/11/28
f 38/16/11 41/20/10 40/17/12
f 39/5/28 38/16/11 40/17/12 36/10/29
f 40/18/12 41/21/10 42/23/13
f 36/11/29 40/18/12 42/23/13 37/14/30
f 42/24/13 41/22/10 43/26/9
f 37/14/30 42/24/13 43/26/9 35/5/27
o sweethome3d_opening_on_hinge_2
v 29.996 0.3 0
v 19.997 0.15 -0.15
v 29.996 0 0
v 19.997 0.15 0.15
v 29.996 0.15 0.15
v 29.996 0.15 -0.15
v 19.997 0.3 0
v 19.997 0 0
s 1
usemtl ColoredWire
f 50/1/14 44/4/14 49/11/15 45/6/15
f 45/2/15 49/5/15 46/10/16 51/8/16
f 51/6/16 46/11/16 48/14/17 47/12/17
f 47/12/17 48/14/17 44/5/14 50/2/14
o sweethome3d_hinge_3_and_sweethome3d_opening_on_hinge_2
v 29.996 0.165 0
v 29.996 0.135 0
l 52 53
o sweethome3d_opening_on_hinge_2_start
v 19.997 0.15 -0.15
v 19.997 0.15 0.15
v 19.997 0.3 0
v 19.997 0 0
v 19.891 0.15 -0.106
v 19.891 0.044 0
v 19.847 0.15 0
v 19.891 0.15 0.106
v 19.891 0.256 0
s 1
usemtl ColoredWire
f 62/25/18 58/15/19 60/19/20
f 56/4/21 54/11/22 58/15/19 62/25/18
f 58/16/19 59/17/23 60/20/20
f 54/5/22 57/10/24 59/17/23 58/16/19
f 59/18/23 61/23/25 60/21/20
f 57/11/24 55/14/26 61/23/25 59/18/23
f 61/24/25 62/26/18 60/22/20
f 55/14/26 56/5/21 62/26/18 61/24/25
o sweethome3d_opening_on_hinge_2_end
v 29.996 0.3 0
v 29.996 0 0
v 29.996 0.15 0.15
v 30.102 0.15 -0.106
v 29.996 0.15 -0.15
v 30.102 0.044 0
v 30.145 0.15 0
v 30.102 0.15 0.106
v 30.102 0.256 0
s 1
usemtl ColoredWire
f 71/25/9 69/19/10 66/15/11
f 63/4/27 71/25/9 66/15/11 67/11/28
f 66/16/11 69/20/10 68/17/12
f 67/5/28 66/16/11 68/17/12 64/10/29
f 68/18/12 69/21/10 70/23/13
f 64/11/29 68/18/12 70/23/13 65/14/30
f 70/24/13 69/22/10 71/26/9
f 65/14/30 70/24/13 71/26/9 63/5/27
o sweethome3d_opening_on_hinge_3
v 39.994 0.3 0
v 29.996 0.15 -0.15
v 39.994 0 0
v 29.996 0.15 0.15
v 39.994 0.15 0.15
v 39.994 0.15 -0.15
v 29.996 0.3 0
v 29.996 0 0
s 1
usemtl ColoredWire
f 78/1/14 72/4/14 77/11/15 73/6/15
f 73/2/15 77/5/15 74/10/16 79/8/16
f 79/6/16 74/11/16 76/14/17 75/12/17
f 75/12/17 76/14/17 72/5/14 78/2/14
o sweethome3d_hinge_4_and_sweethome3d_opening_on_hinge_3
v 39.994 0.165 0
v 39.994 0.135 0
l 80 81
o sweethome3d_opening_on_hinge_3_start
v 29.996 0.15 -0.15
v 29.996 0.15 0.15
v 29.996 0.3 0
v 29.996 0 0
v 29.89 0.15 -0.106
v 29.89 0.044 0
v 29.846 0.15 0
v 29.89 0.15 0.106
v 29.89 0.256 0
s 1
usemtl ColoredWire
f 90/25/18 86/15/19 88/19/20
f 84/4/21 82/11/22 86/15/19 90/25/18
f 86/16/19 87/17/23 88/20/20
f 82/5/22 85/10/24 87/17/23 86/16/19
f 87/18/23 89/23/25 88/21/20
f 85/11/24 83/14/26 89/23/25 87/18/23
f 89/24/25 90/26/18 88/22/20
f 83/14/26 84/5/21 90/26/18 89/24/25
o sweethome3d_opening_on_hinge_3_end
v 39.994 0.3 0
v 39.994 0 0
v 39.994 0.15 0.15
v 40.1 0.15 -0.106
v 39.994 0.15 -0.15
v 40.1 0.044 0
v 40.144 0.15 0
v 40.1 0.15 0.106
v 40.1 0.256 0
s 1
usemtl ColoredWire
f 99/25/9 97/19/10 94/15/11
f 91/4/27 99/25/9 94/15/11 95/11/28
f 94/16/11 97/20/10 96/17/12
f 95/5/28 94/16/11 96/17/12 92/10/29
f 96/18/12 97/21/10 98/23/13
f 92/11/29 96/18/12 98/23/13 93/14/30
f 98/24/13 97/22/10 99/26/9
f 93/14/30 98/24/13 99/26/9 91/5/27
o sweethome3d_opening_on_hinge_4
v 49.993 0.3 0
v 39.994 0.15 -0.15
v 49.993 0 0
v 39.994 0.15 0.15
v 49.993 0.15 0.15
v 49.993 0.15 -0.15
v 39.994 0.3 0
v 39.994 0 0
s 1
usemtl ColoredWire
f 106/1/14 100/4/14 105/11/15 101/6/15
f 101/2/15 105/5/15 102/10/16 107/8/16
f 107/6/16 102/11/16 104/14/17 103/12/17
f 103/12/17 104/14/17 100/5/14 106/2/14
o sweethome3d_hinge_5_and_sweethome3d_opening_on_hinge_4
v 49.993 0.165 0
v 49.993 0.135 0
l 108 109
o sweethome3d_opening_on_hinge_4_start
v 39.994 0.15 -0.15
v 39.994 0.15 0.15
v 39.994 0.3 0
v 39.994 0 0
v 39.888 0.15 -0.106
v 39.888 0.044 0
v 39.844 0.15 0
v 39.888 0.15 0.106
v 39.888 0.256 0
s 1
usemtl ColoredWire
f 118/25/18 114/15/19 116/19/20
f 112/4/21 110/11/22 114/15/19 118/25/18
f 114/16/19 115/17/23 116/20/20
f 110/5/22 113/10/24 115/17/23 114/16/19
f 115/18/23 117/23/25 116/21/20
f 113/11/24 111/14/26 117/23/25 115/18/23
f 117/24/25 118/26/18 116/22/20
f 111/14/26 112/5/21 118/26/18 117/24/25
o sweethome3d_opening_on_hinge_4_end
v 49.993 0.3 0
v 49.993 0 0
v 49.993 0.15 0.15
v 50.099 0.15 -0.106
v 49.993 0.15 -0.15
v 50.099 0.044 0
v 50.143 0.15 0
v 50.099 0.15 0.106
v 50.099 0.256 0
s 1
usemtl ColoredWire
f 127/25/9 125/19/10 122/15/11
f 119/4/27 127/25/9 122/15/11 123/11/28
f 122/16/11 125/20/10 124/17/12
f 123/5/28 122/16/11 124/17/12 120/10/29
f 124/18/12 125/21/10 126/23/13
f 120/11/29 124/18/12 126/23/13 121/14/30
f 126/24/13 125/22/10 127/26/9
f 121/14/30 126/24/13 127/26/9 119/5/27
o sweethome3d_opening_on_hinge_5
v 59.991 0.3 0
v 49.993 0.15 -0.15
v 59.991 0 0
v 49.993 0.15 0.15
v 59.991 0.15 0.15
v 59.991 0.15 -0.15
v 49.993 0.3 0
v 49.993 0 0
s 1
usemtl ColoredWire
f 134/1/14 128/4/14 133/11/15 129/6/15
f 129/2/15 133/5/15 130/10/16 135/8/16
f 135/6/16 130/11/16 132/14/17 131/12/17
f 131/12/17 132/14/17 128/5/14 134/2/14
o sweethome3d_hinge_6_and_sweethome3d_opening_on_hinge_5
v 59.991 0.165 0
v 59.991 0.135 0
l 136 137
o sweethome3d_opening_on_hinge_5_start
v 49.993 0.15 -0.15
v 49.993 0.15 0.15
v 49.993 0.3 0
v 49.993 0 0
v 49.887 0.15 -0.106
v 49.887 0.044 0
v 49.843 0.15 0
v 49.887 0.15 0.106
v 49.887 0.256 0
s 1
usemtl ColoredWire
f 146/25/18 142/15/19 144/19/20
f 140/4/21 138/11/22 142/15/19 146/25/18
f 142/16/19 143/17/23 144/20/20
f 138/5/22 141/10/24 143/17/23 142/16/19
f 143/18/23 145/23/25 144/21/20
f 141/11/24 139/14/26 145/23/25 143/18/23
f 145/24/25 146/26/18 144/22/20
f 139/14/26 140/5/21 146/26/18 145/24/25
o sweethome3d_opening_on_hinge_5_end
v 59.991 0.3 0
v 59.991 0 0
v 59.991 0.15 0.15
v 60.097 0.15 -0.106
v 59.991 0.15 -0.15
v 60.097 0.044 0
v 60.141 0.15 0
v 60.097 0.15 0.106
v 60.097 0.256 0
s 1
usemtl ColoredWire
f 155/25/9 153/19/10 150/15/11
f 147/4/27 155/25/9 150/15/11 151/11/28
f 150/16/11 153/20/10 152/17/12
f 151/5/28 150/16/11 152/17/12 148/10/29
f 152/18/12 153/21/10 154/23/13
f 148/11/29 152/18/12 154/23/13 149/14/30
f 154/24/13 153/22/10 155/26/9
f 149/14/30 154/24/13 155/26/9 147/5/27
o sweethome3d_opening_on_hinge_6
v 69.99 0.3 0
v 59.991 0.15 -0.15
v 69.99 0 0
v 59.991 0.15 0.15
v 69.99 0.15 0.15
v 69.99 0.15 -0.15
v 59.991 0.3 0
v 59.991 0 0
s 1
usemtl ColoredWire
f 162/1/14 156/4/14 161/11/15 157/6/15
f 157/2/15 161/5/15 158/10/16 163/8/16
f 163/6/16 158/11/16 160/14/17 159/12/17
f 159/12/17 160/14/17 156/5/14 162/2/14
o sweethome3d_hinge_7_and_sweethome3d_opening_on_hinge_6
v 69.99 0.165 0
v 69.99 0.135 0
l 164 165
o sweethome3d_opening_on_hinge_6_start
v 59.991 0.15 -0.15
v 59.991 0.15 0.15
v 59.991 0.3 0
v 59.991 0 0
v 59.885 0.15 -0.106
v 59.885 0.044 0
v 59.841 0.15 0
v 59.885 0.15 0.106
v 59.885 0.256 0
s 1
usemtl ColoredWire
f 174/25/18 170/15/19 172/19/20
f 168/4/21 166/11/22 170/15/19 174/25/18
f 170/16/19 171/17/23 172/20/20
f 166/5/22 169/10/24 171/17/23 170/16/19
f 171/18/23 173/23/25 172/21/20
f 169/11/24 167/14/26 173/23/25 171/18/23
f 173/24/25 174/26/18 172/22/20
f 167/14/26 168/5/21 174/26/18 173/24/25
o sweethome3d_opening_on_hinge_6_end
v 69.99 0.3 0
v 69.99 0 0
v 69.99 0.15 0.15
v 70.096 0.15 -0.106
v 69.99 0.15 -0.15
v 70.096 0.044 0
v 70.14 0.15 0
v 70.096 0.15 0.106
v 70.096 0.256 0
s 1
usemtl ColoredWire
f 183/25/9 181/19/10 178/15/11
f 175/4/27 183/25/9 178/15/11 179/11/28
f 178/16/11 181/20/10 180/17/12
f 179/5/28 178/16/11 180/17/12 176/10/29
f 180/18/12 181/21/10 182/23/13
f 176/11/29 180/18/12 182/23/13 177/14/30
f 182/24/13 181/22/10 183/26/9
f 177/14/30 182/24/13 183/26/9 175/5/27
o sweethome3d_opening_on_hinge_7
v 79.988 0.3 0
v 69.99 0.15 -0.15
v 79.988 0 0
v 69.99 0.15 0.15
v 79.988 0.15 0.15
v 79.988 0.15 -0.15
v 69.99 0.3 0
v 69.99 0 0
s 1
usemtl ColoredWire
f 190/1/14 184/4/14 189/11/15 185/6/15
f 185/2/15 189/5/15 186/10/16 191/8/16
f 191/6/16 186/11/16 188/14/17 187/12/17
f 187/12/17 188/14/17 184/5/14 190/2/14
o sweethome3d_hinge_8_and_sweethome3d_opening_on_hinge_7
v 79.988 0.165 0
v 79.988 0.135 0
l 192 193
o sweethome3d_opening_on_hinge_7_start
v 69.99 0.15 -0.15
v 69.99 0.15 0.15
v 69.99 0.3 0
v 69.99 0 0
v 69.884 0.15 -0.106
v 69.884 0.044 0
v 69.84 0.15 0
v 69.884 0.15 0.106
v 69.884 0.256 0
s 1
usemtl ColoredWire
f 202/25/18 198/15/19 200/19/20
f 196/4/21 194/11/22 198/15/19 202/25/18
f 198/16/19 199/17/23 200/20/20
f 194/5/22 197/10/24 199/17/23 198/16/19
f 199/18/23 201/23/25 200/21/20
f 197/11/24 195/14/26 201/23/25 199/18/23
f 201/24/25 202/26/18 200/22/20
f 195/14/26 196/5/21 202/26/18 201/24/25
o sweethome3d_opening_on_hinge_7_end
v 79.988 0.3 0
v 79.988 0 0
v 79.988 0.15 0.15
v 80.094 0.15 -0.106
v 79.988 0.15 -0.15
v 80.094 0.044 0
v 80.138 0.15 0
v 80.094 0.15 0.106
v 80.094 0.256 0
s 1
usemtl ColoredWire
f 211/25/9 209/19/10 206/15/11
f 203/4/27 211/25/9 206/15/11 207/11/28
f 206/16/11 209/20/10 208/17/12
f 207/5/28 206/16/11 208/17/12 204/10/29
f 208/18/12 209/21/10 210/23/13
f 204/11/29 208/18/12 210/23/13 205/14/30
f 210/24/13 209/22/10 211/26/9
f 205/14/30 210/24/13 211/26/9 203/5/27
o sweethome3d_opening_on_hinge_8
v 89.987 0.3 0
v 79.988 0.15 -0.15
v 89.987 0 0
v 79.988 0.15 0.15
v 89.987 0.15 0.15
v 89.987 0.15 -0.15
v 79.988 0.3 0
v 79.988 0 0
s 1
usemtl ColoredWire
f 218/1/14 212/4/14 217/11/15 213/6/15
f 213/2/15 217/5/15 214/10/16 219/8/16
f 219/6/16 214/11/16 216/14/17 215/12/17
f 215/12/17 216/14/17 212/5/14 218/2/14
o sweethome3d_hinge_9_and_sweethome3d_opening_on_hinge_8
v 89.987 0.165 0
v 89.987 0.135 0
l 220 221
o sweethome3d_opening_on_hinge_8_start
v 79.988 0.15 -0.15
v 79.988 0.15 0.15
v 79.988 0.3 0
v 79.988 0 0
v 79.882 0.15 -0.106
v 79.882 0.044 0
v 79.838 0.15 0
v 79.882 0.15 0.106
v 79.882 0.256 0
s 1
usemtl ColoredWire
f 230/25/18 226/15/19 228/19/20
f 224/4/21 222/11/22 226/15/19 230/25/18
f 226/16/19 227/17/23 228/20/20
f 222/5/22 225/10/24 227/17/23 226/16/19
f 227/18/23 229/23/25 228/21/20
f 225/11/24 223/14/26 229/23/25 227/18/23
f 229/24/25 230/26/18 228/22/20
f 223/14/26 224/5/21 230/26/18 229/24/25
o sweethome3d_opening_on_hinge_8_end
v 89.987 0.3 0
v 89.987 0 0
v 89.987 0.15 0.15
v 90.093 0.15 -0.106
v 89.987 0.15 -0.15
v 90.093 0.044 0
v 90.137 0.15 0
v 90.093 0.15 0.106
v 90.093 0.256 0
s 1
usemtl ColoredWire
f 239/25/9 237/19/10 234/15/11
f 231/4/27 239/25/9 234/15/11 235/11/28
f 234/16/11 237/20/10 236/17/12
f 235/5/28 234/16/11 236/17/12 232/10/29
f 236/18/12 237/21/10 238/23/13
f 232/11/29 236/18/12 238/23/13 233/14/30
f 238/24/13 237/22/10 239/26/9
f 233/14/30 238/24/13 239/26/9 231/5/27
o sweethome3d_opening_on_hinge_9
v 99.985 0.3 0
v 89.987 0.15 -0.15
v 99.985 0 0
v 89.987 0.15 0.15
v 99.985 0.15 0.15
v 99.985 0.15 -0.15
v 89.987 0.3 0
v 89.987 0 0
s 1
usemtl ColoredWire
f 246/1/14 240/4/14 245/11/15 241/6/15
f 241/2/15 245/5/15 242/10/16 247/8/16
f 247/6/16 242/11/16 244/14/17 243/12/17
f 243/12/17 244/14/17 240/5/14 246/2/14
o sweethome3d_opening_on_hinge_9_start
v 89.987 0.15 -0.15
v 89.987 0.15 0.15
v 89.987 0.3 0
v 89.987 0 0
v 89.881 0.15 -0.106
v 89.881 0.044 0
v 89.837 0.15 0
v 89.881 0.15 0.106
v 89.881 0.256 0
s 1
usemtl ColoredWire
f 256/25/18 252/15/19 254/19/20
f 250/4/21 248/11/22 252/15/19 256/25/18
f 252/16/19 253/17/23 254/20/20
f 248/5/22 251/10/24 253/17/23 252/16/19
f 253/18/23 255/23/25 254/21/20
f 251/11/24 249/14/26 255/23/25 253/18/23
f 255/24/25 256/26/18 254/22/20
f 249/14/26 250/5/21 256/26/18 255/24/25
o sweethome3d_opening_on_hinge_9_end
v 99.985 0.3 0
v 99.985 0 0
v 99.985 0.15 0.15
v 100.091 0.15 -0.106
v 99.985 0.15 -0.15
v 100.091 0.044 0
v 100.135 0.15 0
v 100.091 0.15 0.106
v 100.091 0.256 0
s 1
usemtl ColoredWire
f 265/25/9 263/19/10 260/15/11
f 257/4/27 265/25/9 260/15/11 261/11/28
f 260/16/11 263/20/10 262/17/12
f 261/5/28 260/16/11 262/17/12 258/10/29
f 262/18/12 263/21/10 264/23/13
f 258/11/29 262/18/12 264/23/13 259/14/30
f 264/24/13 263/22/10 265/26/9
f 259/14/30 264/24/13 265/26/9 257/5/27
